<svg width="238" height="49" viewBox="0 0 238 49" fill="none" xmlns="http://www.w3.org/2000/svg">
<g filter="url(#filter0_i_138_72)">
<path d="M4.33836 43.24C3.13836 43.24 2.11836 43.16 1.27836 43V37C1.91836 37.16 2.63836 37.24 3.43836 37.24C4.75836 37.24 5.73836 36.92 6.37836 36.28C7.01836 35.6 7.33836 34.58 7.33836 33.22V0.999997H13.9384V33.04C13.9384 36.48 13.1384 39.04 11.5384 40.72C9.97836 42.4 7.57836 43.24 4.33836 43.24ZM18.6573 0.999997H25.2573V43H18.6573V0.999997ZM49.1096 43.6C45.9496 43.6 43.5296 42.7 41.8496 40.9C40.2096 39.1 39.3896 36.56 39.3896 33.28V10.72C39.3896 7.44 40.2096 4.9 41.8496 3.1C43.5296 1.3 45.9496 0.399998 49.1096 0.399998C52.2696 0.399998 54.6696 1.3 56.3096 3.1C57.9896 4.9 58.8296 7.44 58.8296 10.72V15.16H52.5896V10.3C52.5896 7.7 51.4896 6.4 49.2896 6.4C47.0896 6.4 45.9896 7.7 45.9896 10.3V33.76C45.9896 36.32 47.0896 37.6 49.2896 37.6C51.4896 37.6 52.5896 36.32 52.5896 33.76V27.34H58.8296V33.28C58.8296 36.56 57.9896 39.1 56.3096 40.9C54.6696 42.7 52.2696 43.6 49.1096 43.6ZM62.7784 0.999997H69.3784V18.1H76.4584V0.999997H83.0584V43H76.4584V24.1H69.3784V43H62.7784V0.999997ZM93.0737 0.999997H102.014L108.854 43H102.254L101.054 34.66V34.78H93.5537L92.3537 43H86.2337L93.0737 0.999997ZM100.274 29.08L97.3337 8.32H97.2137L94.3337 29.08H100.274ZM112.056 0.999997H120.336L126.756 26.14H126.876V0.999997H132.756V43H125.976L118.056 12.34H117.936V43H112.056V0.999997ZM147.021 43.6C143.821 43.6 141.381 42.7 139.701 40.9C138.021 39.06 137.181 36.44 137.181 33.04V10.96C137.181 7.56 138.021 4.96 139.701 3.16C141.381 1.32 143.821 0.399998 147.021 0.399998C150.221 0.399998 152.661 1.32 154.341 3.16C156.021 4.96 156.861 7.56 156.861 10.96V14.56H150.621V10.54C150.621 7.78 149.481 6.4 147.201 6.4C144.921 6.4 143.781 7.78 143.781 10.54V33.52C143.781 36.24 144.921 37.6 147.201 37.6C149.481 37.6 150.621 36.24 150.621 33.52V25.3H147.321V19.3H156.861V33.04C156.861 36.44 156.021 39.06 154.341 40.9C152.661 42.7 150.221 43.6 147.021 43.6ZM170.708 0.999997H180.128L184.328 31.06H184.448L188.648 0.999997H198.068V43H191.828V11.2H191.708L186.908 43H181.388L176.588 11.2H176.468V43H170.708V0.999997ZM202.993 0.999997H209.593V43H202.993V0.999997ZM214.536 0.999997H222.816L229.236 26.14H229.356V0.999997H235.236V43H228.456L220.536 12.34H220.416V43H214.536V0.999997Z" fill="#D9ABF4"/>
<path d="M1.27836 43H0.278359V43.8275L1.09125 43.9823L1.27836 43ZM1.27836 37L1.5209 36.0299L0.278359 35.7192V37H1.27836ZM6.37836 36.28L7.08547 36.9871L7.09618 36.9764L7.10656 36.9654L6.37836 36.28ZM7.33836 0.999997V-2.86102e-06H6.33836V0.999997H7.33836ZM13.9384 0.999997H14.9384V-2.86102e-06H13.9384V0.999997ZM11.5384 40.72L10.8142 40.0303L10.8056 40.0395L11.5384 40.72ZM4.33836 42.24C3.17815 42.24 2.2247 42.1623 1.46547 42.0177L1.09125 43.9823C2.01201 44.1577 3.09856 44.24 4.33836 44.24V42.24ZM2.27836 43V37H0.278359V43H2.27836ZM1.03582 37.9701C1.76982 38.1536 2.57326 38.24 3.43836 38.24V36.24C2.70346 36.24 2.0669 36.1664 1.5209 36.0299L1.03582 37.9701ZM3.43836 38.24C4.90209 38.24 6.18666 37.8859 7.08547 36.9871L5.67125 35.5729C5.29006 35.9541 4.61462 36.24 3.43836 36.24V38.24ZM7.10656 36.9654C7.98668 36.0302 8.33836 34.7196 8.33836 33.22H6.33836C6.33836 34.4404 6.05004 35.1698 5.65016 35.5946L7.10656 36.9654ZM8.33836 33.22V0.999997H6.33836V33.22H8.33836ZM7.33836 2H13.9384V-2.86102e-06H7.33836V2ZM12.9384 0.999997V33.04H14.9384V0.999997H12.9384ZM12.9384 33.04C12.9384 36.3454 12.1678 38.6091 10.8142 40.0303L12.2625 41.4097C14.1089 39.4709 14.9384 36.6146 14.9384 33.04H12.9384ZM10.8056 40.0395C9.50218 41.4432 7.41787 42.24 4.33836 42.24V44.24C7.73885 44.24 10.4545 43.3568 12.2712 41.4005L10.8056 40.0395ZM18.6573 0.999997V-2.86102e-06H17.6573V0.999997H18.6573ZM25.2573 0.999997H26.2573V-2.86102e-06H25.2573V0.999997ZM25.2573 43V44H26.2573V43H25.2573ZM18.6573 43H17.6573V44H18.6573V43ZM18.6573 2H25.2573V-2.86102e-06H18.6573V2ZM24.2573 0.999997V43H26.2573V0.999997H24.2573ZM25.2573 42H18.6573V44H25.2573V42ZM19.6573 43V0.999997H17.6573V43H19.6573ZM41.8496 40.9L41.1104 41.5735L41.1186 41.5823L41.8496 40.9ZM41.8496 3.1L41.1185 2.41763L41.1104 2.42651L41.8496 3.1ZM56.3096 3.1L55.5704 3.77354L55.5786 3.78232L56.3096 3.1ZM58.8296 15.16V16.16H59.8296V15.16H58.8296ZM52.5896 15.16H51.5896V16.16H52.5896V15.16ZM52.5896 27.34V26.34H51.5896V27.34H52.5896ZM58.8296 27.34H59.8296V26.34H58.8296V27.34ZM56.3096 40.9L55.5785 40.2176L55.5704 40.2265L56.3096 40.9ZM49.1096 42.6C46.1436 42.6 44.0214 41.7614 42.5807 40.2177L41.1186 41.5823C43.0378 43.6386 45.7556 44.6 49.1096 44.6V42.6ZM42.5888 40.2265C41.1676 38.6666 40.3896 36.3986 40.3896 33.28H38.3896C38.3896 36.7214 39.2516 39.5334 41.1104 41.5735L42.5888 40.2265ZM40.3896 33.28V10.72H38.3896V33.28H40.3896ZM40.3896 10.72C40.3896 7.60139 41.1676 5.33337 42.5888 3.77349L41.1104 2.42651C39.2516 4.46663 38.3896 7.27861 38.3896 10.72H40.3896ZM42.5807 3.78232C44.0214 2.23864 46.1436 1.4 49.1096 1.4V-0.600002C45.7556 -0.600002 43.0378 0.361356 41.1186 2.41768L42.5807 3.78232ZM49.1096 1.4C52.0769 1.4 54.1724 2.23905 55.5704 3.77349L57.0488 2.42651C55.1669 0.36095 52.4623 -0.600002 49.1096 -0.600002V1.4ZM55.5786 3.78232C57.0348 5.3426 57.8296 7.60725 57.8296 10.72H59.8296C59.8296 7.27275 58.9444 4.4574 57.0407 2.41768L55.5786 3.78232ZM57.8296 10.72V15.16H59.8296V10.72H57.8296ZM58.8296 14.16H52.5896V16.16H58.8296V14.16ZM53.5896 15.16V10.3H51.5896V15.16H53.5896ZM53.5896 10.3C53.5896 8.88286 53.2933 7.63356 52.528 6.72906C51.7356 5.79256 50.5916 5.4 49.2896 5.4V7.4C50.1876 7.4 50.6936 7.65744 51.0012 8.02094C51.3359 8.41644 51.5896 9.11714 51.5896 10.3H53.5896ZM49.2896 5.4C47.9876 5.4 46.8436 5.79256 46.0512 6.72906C45.2859 7.63356 44.9896 8.88286 44.9896 10.3H46.9896C46.9896 9.11714 47.2433 8.41644 47.578 8.02094C47.8856 7.65744 48.3916 7.4 49.2896 7.4V5.4ZM44.9896 10.3V33.76H46.9896V10.3H44.9896ZM44.9896 33.76C44.9896 35.1602 45.2872 36.3969 46.0562 37.2918C46.8501 38.2156 47.9926 38.6 49.2896 38.6V36.6C48.3867 36.6 47.8791 36.3444 47.573 35.9882C47.242 35.6031 46.9896 34.9198 46.9896 33.76H44.9896ZM49.2896 38.6C50.5866 38.6 51.7291 38.2156 52.523 37.2918C53.292 36.3969 53.5896 35.1602 53.5896 33.76H51.5896C51.5896 34.9198 51.3372 35.6031 51.0062 35.9882C50.7001 36.3444 50.1926 36.6 49.2896 36.6V38.6ZM53.5896 33.76V27.34H51.5896V33.76H53.5896ZM52.5896 28.34H58.8296V26.34H52.5896V28.34ZM57.8296 27.34V33.28H59.8296V27.34H57.8296ZM57.8296 33.28C57.8296 36.3927 57.0348 38.6574 55.5786 40.2177L57.0407 41.5823C58.9444 39.5426 59.8296 36.7272 59.8296 33.28H57.8296ZM55.5704 40.2265C54.1724 41.761 52.0769 42.6 49.1096 42.6V44.6C52.4623 44.6 55.1669 43.639 57.0488 41.5735L55.5704 40.2265ZM62.7784 0.999997V-2.86102e-06H61.7784V0.999997H62.7784ZM69.3784 0.999997H70.3784V-2.86102e-06H69.3784V0.999997ZM69.3784 18.1H68.3784V19.1H69.3784V18.1ZM76.4584 18.1V19.1H77.4584V18.1H76.4584ZM76.4584 0.999997V-2.86102e-06H75.4584V0.999997H76.4584ZM83.0584 0.999997H84.0584V-2.86102e-06H83.0584V0.999997ZM83.0584 43V44H84.0584V43H83.0584ZM76.4584 43H75.4584V44H76.4584V43ZM76.4584 24.1H77.4584V23.1H76.4584V24.1ZM69.3784 24.1V23.1H68.3784V24.1H69.3784ZM69.3784 43V44H70.3784V43H69.3784ZM62.7784 43H61.7784V44H62.7784V43ZM62.7784 2H69.3784V-2.86102e-06H62.7784V2ZM68.3784 0.999997V18.1H70.3784V0.999997H68.3784ZM69.3784 19.1H76.4584V17.1H69.3784V19.1ZM77.4584 18.1V0.999997H75.4584V18.1H77.4584ZM76.4584 2H83.0584V-2.86102e-06H76.4584V2ZM82.0584 0.999997V43H84.0584V0.999997H82.0584ZM83.0584 42H76.4584V44H83.0584V42ZM77.4584 43V24.1H75.4584V43H77.4584ZM76.4584 23.1H69.3784V25.1H76.4584V23.1ZM68.3784 24.1V43H70.3784V24.1H68.3784ZM69.3784 42H62.7784V44H69.3784V42ZM63.7784 43V0.999997H61.7784V43H63.7784ZM93.0737 0.999997V-2.86102e-06H92.2234L92.0867 0.839258L93.0737 0.999997ZM102.014 0.999997L103.001 0.839258L102.864 -2.86102e-06H102.014V0.999997ZM108.854 43V44H110.03L109.841 42.8393L108.854 43ZM102.254 43L101.264 43.1424L101.387 44H102.254V43ZM101.054 34.66L102.043 34.5176L100.054 34.66H101.054ZM101.054 34.78V35.78H102.054V34.78H101.054ZM93.5537 34.78V33.78H92.6891L92.5642 34.6355L93.5537 34.78ZM92.3537 43V44H93.2183L93.3432 43.1445L92.3537 43ZM86.2337 43L85.2467 42.8393L85.0576 44H86.2337V43ZM100.274 29.08V30.08H101.425L101.264 28.9398L100.274 29.08ZM97.3337 8.32L98.3238 8.17978L98.202 7.32H97.3337V8.32ZM97.2137 8.32V7.32H96.3428L96.2232 8.18259L97.2137 8.32ZM94.3337 29.08L93.3432 28.9426L93.1854 30.08H94.3337V29.08ZM93.0737 2H102.014V-2.86102e-06H93.0737V2ZM101.027 1.16074L107.867 43.1607L109.841 42.8393L103.001 0.839258L101.027 1.16074ZM108.854 42H102.254V44H108.854V42ZM103.243 42.8576L102.043 34.5176L100.064 34.8024L101.264 43.1424L103.243 42.8576ZM100.054 34.66V34.78H102.054V34.66H100.054ZM101.054 33.78H93.5537V35.78H101.054V33.78ZM92.5642 34.6355L91.3642 42.8555L93.3432 43.1445L94.5432 34.9245L92.5642 34.6355ZM92.3537 42H86.2337V44H92.3537V42ZM87.2207 43.1607L94.0607 1.16074L92.0867 0.839258L85.2467 42.8393L87.2207 43.1607ZM101.264 28.9398L98.3238 8.17978L96.3436 8.46022L99.2836 29.2202L101.264 28.9398ZM97.3337 7.32H97.2137V9.32H97.3337V7.32ZM96.2232 8.18259L93.3432 28.9426L95.3242 29.2174L98.2042 8.45741L96.2232 8.18259ZM94.3337 30.08H100.274V28.08H94.3337V30.08ZM112.056 0.999997V-2.86102e-06H111.056V0.999997H112.056ZM120.336 0.999997L121.305 0.752568L121.112 -2.86102e-06H120.336V0.999997ZM126.756 26.14L125.787 26.3874L125.979 27.14H126.756V26.14ZM126.876 26.14V27.14H127.876V26.14H126.876ZM126.876 0.999997V-2.86102e-06H125.876V0.999997H126.876ZM132.756 0.999997H133.756V-2.86102e-06H132.756V0.999997ZM132.756 43V44H133.756V43H132.756ZM125.976 43L125.007 43.2501L125.201 44H125.976V43ZM118.056 12.34L119.024 12.0899L118.83 11.34H118.056V12.34ZM117.936 12.34V11.34H116.936V12.34H117.936ZM117.936 43V44H118.936V43H117.936ZM112.056 43H111.056V44H112.056V43ZM112.056 2H120.336V-2.86102e-06H112.056V2ZM119.367 1.24743L125.787 26.3874L127.725 25.8926L121.305 0.752568L119.367 1.24743ZM126.756 27.14H126.876V25.14H126.756V27.14ZM127.876 26.14V0.999997H125.876V26.14H127.876ZM126.876 2H132.756V-2.86102e-06H126.876V2ZM131.756 0.999997V43H133.756V0.999997H131.756ZM132.756 42H125.976V44H132.756V42ZM126.944 42.7499L119.024 12.0899L117.087 12.5901L125.007 43.2501L126.944 42.7499ZM118.056 11.34H117.936V13.34H118.056V11.34ZM116.936 12.34V43H118.936V12.34H116.936ZM117.936 42H112.056V44H117.936V42ZM113.056 43V0.999997H111.056V43H113.056ZM139.701 40.9L138.963 41.5743L138.97 41.5823L139.701 40.9ZM139.701 3.16L140.432 3.84236L140.44 3.83427L139.701 3.16ZM154.341 3.16L153.603 3.83431L153.61 3.84232L154.341 3.16ZM156.861 14.56V15.56H157.861V14.56H156.861ZM150.621 14.56H149.621V15.56H150.621V14.56ZM150.621 25.3H151.621V24.3H150.621V25.3ZM147.321 25.3H146.321V26.3H147.321V25.3ZM147.321 19.3V18.3H146.321V19.3H147.321ZM156.861 19.3H157.861V18.3H156.861V19.3ZM154.341 40.9L155.072 41.5824L155.08 41.5743L154.341 40.9ZM147.021 42.6C144.011 42.6 141.871 41.7589 140.432 40.2177L138.97 41.5823C140.892 43.6411 143.632 44.6 147.021 44.6V42.6ZM140.44 40.2257C138.981 38.6282 138.181 36.2824 138.181 33.04H136.181C136.181 36.5976 137.061 39.4918 138.963 41.5743L140.44 40.2257ZM138.181 33.04V10.96H136.181V33.04H138.181ZM138.181 10.96C138.181 7.71589 138.982 5.39648 140.432 3.84232L138.97 2.47768C137.061 4.52352 136.181 7.4041 136.181 10.96H138.181ZM140.44 3.83427C141.88 2.2571 144.017 1.4 147.021 1.4V-0.600002C143.625 -0.600002 140.883 0.382895 138.963 2.48573L140.44 3.83427ZM147.021 1.4C150.025 1.4 152.163 2.2571 153.603 3.83427L155.08 2.48573C153.16 0.382895 150.417 -0.600002 147.021 -0.600002V1.4ZM153.61 3.84232C155.061 5.39648 155.861 7.71589 155.861 10.96H157.861C157.861 7.4041 156.982 4.52352 155.072 2.47768L153.61 3.84232ZM155.861 10.96V14.56H157.861V10.96H155.861ZM156.861 13.56H150.621V15.56H156.861V13.56ZM151.621 14.56V10.54H149.621V14.56H151.621ZM151.621 10.54C151.621 9.04738 151.317 7.74196 150.537 6.79812C149.727 5.81769 148.551 5.4 147.201 5.4V7.4C148.131 7.4 148.665 7.67231 148.995 8.07188C149.356 8.50804 149.621 9.27261 149.621 10.54H151.621ZM147.201 5.4C145.851 5.4 144.675 5.81769 143.865 6.79812C143.086 7.74196 142.781 9.04738 142.781 10.54H144.781C144.781 9.27261 145.047 8.50804 145.407 8.07188C145.737 7.67231 146.271 7.4 147.201 7.4V5.4ZM142.781 10.54V33.52H144.781V10.54H142.781ZM142.781 33.52C142.781 34.9953 143.087 36.2881 143.87 37.2224C144.681 38.1905 145.856 38.6 147.201 38.6V36.6C146.266 36.6 145.731 36.3295 145.403 35.9376C145.046 35.5119 144.781 34.7647 144.781 33.52H142.781ZM147.201 38.6C148.546 38.6 149.721 38.1905 150.533 37.2224C151.316 36.2881 151.621 34.9953 151.621 33.52H149.621C149.621 34.7647 149.357 35.5119 149 35.9376C148.671 36.3295 148.136 36.6 147.201 36.6V38.6ZM151.621 33.52V25.3H149.621V33.52H151.621ZM150.621 24.3H147.321V26.3H150.621V24.3ZM148.321 25.3V19.3H146.321V25.3H148.321ZM147.321 20.3H156.861V18.3H147.321V20.3ZM155.861 19.3V33.04H157.861V19.3H155.861ZM155.861 33.04C155.861 36.2824 155.061 38.6282 153.603 40.2257L155.08 41.5743C156.981 39.4918 157.861 36.5976 157.861 33.04H155.861ZM153.61 40.2177C152.172 41.7589 150.032 42.6 147.021 42.6V44.6C150.411 44.6 153.151 43.6411 155.072 41.5823L153.61 40.2177ZM170.708 0.999997V-2.86102e-06H169.708V0.999997H170.708ZM180.128 0.999997L181.118 0.861621L180.998 -2.86102e-06H180.128V0.999997ZM184.328 31.06L183.338 31.1984L183.458 32.06H184.328V31.06ZM184.448 31.06V32.06H185.318L185.438 31.1984L184.448 31.06ZM188.648 0.999997V-2.86102e-06H187.778L187.658 0.861621L188.648 0.999997ZM198.068 0.999997H199.068V-2.86102e-06H198.068V0.999997ZM198.068 43V44H199.068V43H198.068ZM191.828 43H190.828V44H191.828V43ZM191.828 11.2H192.828V10.2H191.828V11.2ZM191.708 11.2V10.2H190.848L190.719 11.0507L191.708 11.2ZM186.908 43V44H187.768L187.897 43.1493L186.908 43ZM181.388 43L180.399 43.1493L180.528 44H181.388V43ZM176.588 11.2L177.577 11.0507L177.448 10.2H176.588V11.2ZM176.468 11.2V10.2H175.468V11.2H176.468ZM176.468 43V44H177.468V43H176.468ZM170.708 43H169.708V44H170.708V43ZM170.708 2H180.128V-2.86102e-06H170.708V2ZM179.138 1.13837L183.338 31.1984L185.318 30.9216L181.118 0.861621L179.138 1.13837ZM184.328 32.06H184.448V30.06H184.328V32.06ZM185.438 31.1984L189.638 1.13837L187.658 0.861621L183.458 30.9216L185.438 31.1984ZM188.648 2H198.068V-2.86102e-06H188.648V2ZM197.068 0.999997V43H199.068V0.999997H197.068ZM198.068 42H191.828V44H198.068V42ZM192.828 43V11.2H190.828V43H192.828ZM191.828 10.2H191.708V12.2H191.828V10.2ZM190.719 11.0507L185.919 42.8507L187.897 43.1493L192.697 11.3493L190.719 11.0507ZM186.908 42H181.388V44H186.908V42ZM182.377 42.8507L177.577 11.0507L175.599 11.3493L180.399 43.1493L182.377 42.8507ZM176.588 10.2H176.468V12.2H176.588V10.2ZM175.468 11.2V43H177.468V11.2H175.468ZM176.468 42H170.708V44H176.468V42ZM171.708 43V0.999997H169.708V43H171.708ZM202.993 0.999997V-2.86102e-06H201.993V0.999997H202.993ZM209.593 0.999997H210.593V-2.86102e-06H209.593V0.999997ZM209.593 43V44H210.593V43H209.593ZM202.993 43H201.993V44H202.993V43ZM202.993 2H209.593V-2.86102e-06H202.993V2ZM208.593 0.999997V43H210.593V0.999997H208.593ZM209.593 42H202.993V44H209.593V42ZM203.993 43V0.999997H201.993V43H203.993ZM214.536 0.999997V-2.86102e-06H213.536V0.999997H214.536ZM222.816 0.999997L223.785 0.752568L223.593 -2.86102e-06H222.816V0.999997ZM229.236 26.14L228.267 26.3874L228.459 27.14H229.236V26.14ZM229.356 26.14V27.14H230.356V26.14H229.356ZM229.356 0.999997V-2.86102e-06H228.356V0.999997H229.356ZM235.236 0.999997H236.236V-2.86102e-06H235.236V0.999997ZM235.236 43V44H236.236V43H235.236ZM228.456 43L227.488 43.2501L227.682 44H228.456V43ZM220.536 12.34L221.504 12.0899L221.311 11.34H220.536V12.34ZM220.416 12.34V11.34H219.416V12.34H220.416ZM220.416 43V44H221.416V43H220.416ZM214.536 43H213.536V44H214.536V43ZM214.536 2H222.816V-2.86102e-06H214.536V2ZM221.847 1.24743L228.267 26.3874L230.205 25.8926L223.785 0.752568L221.847 1.24743ZM229.236 27.14H229.356V25.14H229.236V27.14ZM230.356 26.14V0.999997H228.356V26.14H230.356ZM229.356 2H235.236V-2.86102e-06H229.356V2ZM234.236 0.999997V43H236.236V0.999997H234.236ZM235.236 42H228.456V44H235.236V42ZM229.424 42.7499L221.504 12.0899L219.568 12.5901L227.488 43.2501L229.424 42.7499ZM220.536 11.34H220.416V13.34H220.536V11.34ZM219.416 12.34V43H221.416V12.34H219.416ZM220.416 42H214.536V44H220.416V42ZM215.536 43V0.999997H213.536V43H215.536Z" fill="#D9ABF4"/>
</g>
<defs>
<filter id="filter0_i_138_72" x="1.27832" y="0.399994" width="233.958" height="47.2" filterUnits="userSpaceOnUse" color-interpolation-filters="sRGB">
<feFlood flood-opacity="0" result="BackgroundImageFix"/>
<feBlend mode="normal" in="SourceGraphic" in2="BackgroundImageFix" result="shape"/>
<feColorMatrix in="SourceAlpha" type="matrix" values="0 0 0 0 0 0 0 0 0 0 0 0 0 0 0 0 0 0 127 0" result="hardAlpha"/>
<feOffset dy="4"/>
<feGaussianBlur stdDeviation="2"/>
<feComposite in2="hardAlpha" operator="arithmetic" k2="-1" k3="1"/>
<feColorMatrix type="matrix" values="0 0 0 0 1 0 0 0 0 1 0 0 0 0 1 0 0 0 1 0"/>
<feBlend mode="normal" in2="shape" result="effect1_innerShadow_138_72"/>
</filter>
</defs>
</svg>
