<svg width="132" height="47" viewBox="0 0 132 47" fill="none" xmlns="http://www.w3.org/2000/svg">
<g filter="url(#filter0_i_196_2)">
<path d="M8.8933 37.448C6.50397 37.448 4.6821 36.776 3.4277 35.432C2.1733 34.0581 1.5461 32.1019 1.5461 29.5632V28.9808H6.2053V29.8768C6.2053 31.9376 7.0565 32.968 8.7589 32.968C9.68477 32.968 10.3717 32.6843 10.8197 32.1168C11.2677 31.5493 11.4917 30.5488 11.4917 29.1152V23.112H11.4021C10.536 24.9339 9.04264 25.8448 6.9221 25.8448C5.1301 25.8448 3.77117 25.2325 2.8453 24.008C1.91944 22.7835 1.4565 21.0064 1.4565 18.6768V13.0768C1.4565 10.568 2.09864 8.62667 3.3829 7.2528C4.66717 5.87893 6.5189 5.192 8.9381 5.192C11.3573 5.192 13.209 5.87893 14.4933 7.2528C15.7776 8.62667 16.4197 10.568 16.4197 13.0768V29.2944C16.4197 34.7301 13.9109 37.448 8.8933 37.448ZM8.9381 21.3648C10.6405 21.3648 11.4917 20.3344 11.4917 18.2736V12.7184C11.4917 10.6875 10.6405 9.672 8.9381 9.672C7.2357 9.672 6.3845 10.6875 6.3845 12.7184V18.2736C6.3845 20.3344 7.2357 21.3648 8.9381 21.3648ZM27.1444 37.448C24.7252 37.448 22.8735 36.7611 21.5892 35.3872C20.3049 34.0133 19.6628 32.072 19.6628 29.5632V13.3456C19.6628 7.90987 22.1716 5.192 27.1892 5.192C29.5785 5.192 31.4004 5.87893 32.6548 7.2528C33.9092 8.5968 34.5364 10.5381 34.5364 13.0768V13.6592H29.8772V12.7632C29.8772 10.7024 29.026 9.672 27.3236 9.672C26.3977 9.672 25.7108 9.95573 25.2628 10.5232C24.8148 11.0907 24.5908 12.0912 24.5908 13.5248V19.528H24.6804C25.5465 17.7061 27.0399 16.7952 29.1604 16.7952C30.9524 16.7952 32.3113 17.4075 33.2372 18.632C34.1631 19.8565 34.626 21.6336 34.626 23.9632V29.5632C34.626 32.072 33.9839 34.0133 32.6996 35.3872C31.4153 36.7611 29.5636 37.448 27.1444 37.448ZM27.1444 32.968C28.8468 32.968 29.698 31.9525 29.698 29.9216V24.3664C29.698 22.3056 28.8468 21.2752 27.1444 21.2752C25.442 21.2752 24.5908 22.3056 24.5908 24.3664V29.9216C24.5908 31.9525 25.442 32.968 27.1444 32.968ZM37.1075 19.08H46.9635V23.56H37.1075V19.08ZM56.7985 13.0768H51.6465V9.5824C53.0502 9.5824 54.1702 9.46293 55.0065 9.224C55.8726 8.98507 56.5596 8.5968 57.0673 8.0592C57.575 7.49173 58.023 6.68533 58.4113 5.64H61.7265V37H56.7985V13.0768ZM74.736 13.0768H69.584V9.5824C70.9877 9.5824 72.1077 9.46293 72.944 9.224C73.8101 8.98507 74.4971 8.5968 75.0048 8.0592C75.5125 7.49173 75.9605 6.68533 76.3488 5.64H79.664V37H74.736V13.0768ZM85.0575 19.08H94.9135V23.56H85.0575V19.08ZM104.973 37.448C102.553 37.448 100.702 36.7611 99.4173 35.3872C98.133 34.0133 97.4909 32.072 97.4909 29.5632V13.0768C97.4909 10.568 98.133 8.62667 99.4173 7.2528C100.702 5.87893 102.553 5.192 104.973 5.192C107.392 5.192 109.243 5.87893 110.528 7.2528C111.812 8.62667 112.454 10.568 112.454 13.0768V29.5632C112.454 32.072 111.812 34.0133 110.528 35.3872C109.243 36.7611 107.392 37.448 104.973 37.448ZM104.973 32.968C106.675 32.968 107.526 31.9376 107.526 29.8768V12.7632C107.526 10.7024 106.675 9.672 104.973 9.672C103.27 9.672 102.419 10.7024 102.419 12.7632V29.8768C102.419 31.9376 103.27 32.968 104.973 32.968ZM124.03 31.3104H114.622V26.8304L123.582 5.64H128.958V26.8304H131.288V31.3104H128.958V37H124.03V31.3104ZM124.03 26.8304V14.6H123.94L119.102 26.8304H124.03Z" fill="#5B7B7B"/>
</g>
<defs>
<filter id="filter0_i_196_2" x="1.45605" y="5.192" width="129.832" height="36.256" filterUnits="userSpaceOnUse" color-interpolation-filters="sRGB">
<feFlood flood-opacity="0" result="BackgroundImageFix"/>
<feBlend mode="normal" in="SourceGraphic" in2="BackgroundImageFix" result="shape"/>
<feColorMatrix in="SourceAlpha" type="matrix" values="0 0 0 0 0 0 0 0 0 0 0 0 0 0 0 0 0 0 127 0" result="hardAlpha"/>
<feOffset dy="4"/>
<feGaussianBlur stdDeviation="2"/>
<feComposite in2="hardAlpha" operator="arithmetic" k2="-1" k3="1"/>
<feColorMatrix type="matrix" values="0 0 0 0 1 0 0 0 0 1 0 0 0 0 1 0 0 0 1 0"/>
<feBlend mode="normal" in2="shape" result="effect1_innerShadow_196_2"/>
</filter>
</defs>
</svg>
