<svg width="274" height="49" viewBox="0 0 274 49" fill="none" xmlns="http://www.w3.org/2000/svg">
<g filter="url(#filter0_i_196_4)">
<path d="M2.585 0.999997H9.185V37H20.045V43H2.585V0.999997ZM23.21 0.999997H41.21V7H29.81V18.1H38.87V24.1H29.81V37H41.21V43H23.21V0.999997ZM45.0069 0.999997H63.0069V7H51.6069V18.1H60.6669V24.1H51.6069V37H63.0069V43H45.0069V0.999997ZM84.9931 43.6C81.7931 43.6 79.3731 42.7 77.7331 40.9C76.0931 39.06 75.2731 36.44 75.2731 33.04V30.64H81.5131V33.52C81.5131 36.24 82.6531 37.6 84.9331 37.6C86.0531 37.6 86.8931 37.28 87.4531 36.64C88.0531 35.96 88.3531 34.88 88.3531 33.4C88.3531 31.64 87.9531 30.1 87.1531 28.78C86.3531 27.42 84.8731 25.8 82.7131 23.92C79.9931 21.52 78.0931 19.36 77.0131 17.44C75.9331 15.48 75.3931 13.28 75.3931 10.84C75.3931 7.52 76.2331 4.96 77.9131 3.16C79.5931 1.32 82.0331 0.399998 85.2331 0.399998C88.3931 0.399998 90.7731 1.32 92.3731 3.16C94.0131 4.96 94.8331 7.56 94.8331 10.96V12.7H88.5931V10.54C88.5931 9.1 88.3131 8.06 87.7531 7.42C87.1931 6.74 86.3731 6.4 85.2931 6.4C83.0931 6.4 81.9931 7.74 81.9931 10.42C81.9931 11.94 82.3931 13.36 83.1931 14.68C84.0331 16 85.5331 17.6 87.6931 19.48C90.4531 21.88 92.3531 24.06 93.3931 26.02C94.4331 27.98 94.9531 30.28 94.9531 32.92C94.9531 36.36 94.0931 39 92.3731 40.84C90.6931 42.68 88.2331 43.6 84.9931 43.6ZM103.662 0.999997H112.602L119.442 43H112.842L111.642 34.66V34.78H104.142L102.942 43H96.8216L103.662 0.999997ZM110.862 29.08L107.922 8.32H107.802L104.922 29.08H110.862ZM122.644 0.999997H130.924L137.344 26.14H137.464V0.999997H143.344V43H136.564L128.644 12.34H128.524V43H122.644V0.999997ZM157.609 43.6C154.409 43.6 151.969 42.7 150.289 40.9C148.609 39.06 147.769 36.44 147.769 33.04V10.96C147.769 7.56 148.609 4.96 150.289 3.16C151.969 1.32 154.409 0.399998 157.609 0.399998C160.809 0.399998 163.249 1.32 164.929 3.16C166.609 4.96 167.449 7.56 167.449 10.96V14.56H161.209V10.54C161.209 7.78 160.069 6.4 157.789 6.4C155.509 6.4 154.369 7.78 154.369 10.54V33.52C154.369 36.24 155.509 37.6 157.789 37.6C160.069 37.6 161.209 36.24 161.209 33.52V25.3H157.909V19.3H167.449V33.04C167.449 36.44 166.609 39.06 164.929 40.9C163.249 42.7 160.809 43.6 157.609 43.6ZM187.356 25.12L179.376 0.999997H186.396L190.896 16.42H191.016L195.516 0.999997H201.936L193.956 25.12V43H187.356V25.12ZM204.909 0.999997H222.909V7H211.509V18.1H220.569V24.1H211.509V37H222.909V43H204.909V0.999997ZM236.246 43.6C233.006 43.6 230.526 42.68 228.806 40.84C227.086 39 226.226 36.4 226.226 33.04V10.96C226.226 7.6 227.086 5 228.806 3.16C230.526 1.32 233.006 0.399998 236.246 0.399998C239.486 0.399998 241.966 1.32 243.686 3.16C245.406 5 246.266 7.6 246.266 10.96V33.04C246.266 36.4 245.406 39 243.686 40.84C241.966 42.68 239.486 43.6 236.246 43.6ZM236.246 37.6C238.526 37.6 239.666 36.22 239.666 33.46V10.54C239.666 7.78 238.526 6.4 236.246 6.4C233.966 6.4 232.826 7.78 232.826 10.54V33.46C232.826 36.22 233.966 37.6 236.246 37.6ZM250.73 0.999997H259.01L265.43 26.14H265.55V0.999997H271.43V43H264.65L256.73 12.34H256.61V43H250.73V0.999997Z" fill="#5B7B7B"/>
<path d="M2.585 0.999997V-2.86102e-06H1.585V0.999997H2.585ZM9.185 0.999997H10.185V-2.86102e-06H9.185V0.999997ZM9.185 37H8.185V38H9.185V37ZM20.045 37H21.045V36H20.045V37ZM20.045 43V44H21.045V43H20.045ZM2.585 43H1.585V44H2.585V43ZM2.585 2H9.185V-2.86102e-06H2.585V2ZM8.185 0.999997V37H10.185V0.999997H8.185ZM9.185 38H20.045V36H9.185V38ZM19.045 37V43H21.045V37H19.045ZM20.045 42H2.585V44H20.045V42ZM3.585 43V0.999997H1.585V43H3.585ZM23.21 0.999997V-2.86102e-06H22.21V0.999997H23.21ZM41.21 0.999997H42.21V-2.86102e-06H41.21V0.999997ZM41.21 7V8H42.21V7H41.21ZM29.81 7V6H28.81V7H29.81ZM29.81 18.1H28.81V19.1H29.81V18.1ZM38.87 18.1H39.87V17.1H38.87V18.1ZM38.87 24.1V25.1H39.87V24.1H38.87ZM29.81 24.1V23.1H28.81V24.1H29.81ZM29.81 37H28.81V38H29.81V37ZM41.21 37H42.21V36H41.21V37ZM41.21 43V44H42.21V43H41.21ZM23.21 43H22.21V44H23.21V43ZM23.21 2H41.21V-2.86102e-06H23.21V2ZM40.21 0.999997V7H42.21V0.999997H40.21ZM41.21 6H29.81V8H41.21V6ZM28.81 7V18.1H30.81V7H28.81ZM29.81 19.1H38.87V17.1H29.81V19.1ZM37.87 18.1V24.1H39.87V18.1H37.87ZM38.87 23.1H29.81V25.1H38.87V23.1ZM28.81 24.1V37H30.81V24.1H28.81ZM29.81 38H41.21V36H29.81V38ZM40.21 37V43H42.21V37H40.21ZM41.21 42H23.21V44H41.21V42ZM24.21 43V0.999997H22.21V43H24.21ZM45.0069 0.999997V-2.86102e-06H44.0069V0.999997H45.0069ZM63.0069 0.999997H64.0069V-2.86102e-06H63.0069V0.999997ZM63.0069 7V8H64.0069V7H63.0069ZM51.6069 7V6H50.6069V7H51.6069ZM51.6069 18.1H50.6069V19.1H51.6069V18.1ZM60.6669 18.1H61.6669V17.1H60.6669V18.1ZM60.6669 24.1V25.1H61.6669V24.1H60.6669ZM51.6069 24.1V23.1H50.6069V24.1H51.6069ZM51.6069 37H50.6069V38H51.6069V37ZM63.0069 37H64.0069V36H63.0069V37ZM63.0069 43V44H64.0069V43H63.0069ZM45.0069 43H44.0069V44H45.0069V43ZM45.0069 2H63.0069V-2.86102e-06H45.0069V2ZM62.0069 0.999997V7H64.0069V0.999997H62.0069ZM63.0069 6H51.6069V8H63.0069V6ZM50.6069 7V18.1H52.6069V7H50.6069ZM51.6069 19.1H60.6669V17.1H51.6069V19.1ZM59.6669 18.1V24.1H61.6669V18.1H59.6669ZM60.6669 23.1H51.6069V25.1H60.6669V23.1ZM50.6069 24.1V37H52.6069V24.1H50.6069ZM51.6069 38H63.0069V36H51.6069V38ZM62.0069 37V43H64.0069V37H62.0069ZM63.0069 42H45.0069V44H63.0069V42ZM46.0069 43V0.999997H44.0069V43H46.0069ZM77.7331 40.9L76.9866 41.5654L76.9939 41.5735L77.7331 40.9ZM75.2731 30.64V29.64H74.2731V30.64H75.2731ZM81.5131 30.64H82.5131V29.64H81.5131V30.64ZM87.4531 36.64L86.7033 35.9784L86.7005 35.9815L87.4531 36.64ZM87.1531 28.78L86.2911 29.2871L86.2979 29.2983L87.1531 28.78ZM82.7131 23.92L82.0515 24.6699L82.0566 24.6743L82.7131 23.92ZM77.0131 17.44L76.1373 17.9226L76.1415 17.9303L77.0131 17.44ZM77.9131 3.16L78.6442 3.84236L78.6516 3.83427L77.9131 3.16ZM92.3731 3.16L91.6185 3.81618L91.6261 3.82492L91.6339 3.83349L92.3731 3.16ZM94.8331 12.7V13.7H95.8331V12.7H94.8331ZM88.5931 12.7H87.5931V13.7H88.5931V12.7ZM87.7531 7.42L86.9812 8.0557L86.9907 8.06725L87.0005 8.0785L87.7531 7.42ZM83.1931 14.68L82.3379 15.1983L82.3436 15.2076L82.3495 15.2169L83.1931 14.68ZM87.6931 19.48L87.0366 20.2343L87.0369 20.2346L87.6931 19.48ZM93.3931 26.02L92.5098 26.4887L92.5098 26.4887L93.3931 26.02ZM92.3731 40.84L91.6425 40.1571L91.6346 40.1657L92.3731 40.84ZM84.9931 42.6C81.9813 42.6 79.8681 41.7584 78.4723 40.2265L76.9939 41.5735C78.8782 43.6416 81.6049 44.6 84.9931 44.6V42.6ZM78.4796 40.2346C77.0559 38.6373 76.2731 36.288 76.2731 33.04H74.2731C74.2731 36.592 75.1304 39.4827 76.9866 41.5654L78.4796 40.2346ZM76.2731 33.04V30.64H74.2731V33.04H76.2731ZM75.2731 31.64H81.5131V29.64H75.2731V31.64ZM80.5131 30.64V33.52H82.5131V30.64H80.5131ZM80.5131 33.52C80.5131 34.9953 80.8186 36.2881 81.6018 37.2224C82.4132 38.1905 83.5881 38.6 84.9331 38.6V36.6C83.9981 36.6 83.463 36.3295 83.1345 35.9376C82.7776 35.5119 82.5131 34.7647 82.5131 33.52H80.5131ZM84.9331 38.6C86.2446 38.6 87.4002 38.2191 88.2057 37.2985L86.7005 35.9815C86.3861 36.3409 85.8617 36.6 84.9331 36.6V38.6ZM88.203 37.3016C89.0392 36.3539 89.3531 34.9793 89.3531 33.4H87.3531C87.3531 34.7807 87.067 35.5661 86.7033 35.9784L88.203 37.3016ZM89.3531 33.4C89.3531 31.4834 88.9157 29.759 88.0083 28.2617L86.2979 29.2983C86.9905 30.441 87.3531 31.7966 87.3531 33.4H89.3531ZM88.0151 28.273C87.1328 26.7731 85.5561 25.0687 83.3697 23.1657L82.0566 24.6743C84.1902 26.5313 85.5735 28.0669 86.2912 29.287L88.0151 28.273ZM83.3747 23.1702C80.6918 20.8028 78.8857 18.7293 77.8847 16.9497L76.1415 17.9303C77.3005 19.9907 79.2945 22.2372 82.0515 24.6698L83.3747 23.1702ZM77.889 16.9574C76.8976 15.1583 76.3931 13.1269 76.3931 10.84H74.3931C74.3931 13.4331 74.9686 15.8017 76.1373 17.9226L77.889 16.9574ZM76.3931 10.84C76.3931 7.68343 77.1899 5.40052 78.6442 3.84232L77.1821 2.47768C75.2764 4.51948 74.3931 7.35657 74.3931 10.84H76.3931ZM78.6516 3.83427C80.0916 2.2571 82.2293 1.4 85.2331 1.4V-0.600002C81.837 -0.600002 79.0946 0.382895 77.1746 2.48573L78.6516 3.83427ZM85.2331 1.4C88.1951 1.4 90.2612 2.25524 91.6185 3.81618L93.1277 2.50382C91.2851 0.384755 88.5911 -0.600002 85.2331 -0.600002V1.4ZM91.6339 3.83349C93.0497 5.38736 93.8331 7.71023 93.8331 10.96H95.8331C95.8331 7.40977 94.9766 4.53264 93.1123 2.48651L91.6339 3.83349ZM93.8331 10.96V12.7H95.8331V10.96H93.8331ZM94.8331 11.7H88.5931V13.7H94.8331V11.7ZM89.5931 12.7V10.54H87.5931V12.7H89.5931ZM89.5931 10.54C89.5931 9.01251 89.3039 7.67373 88.5057 6.76149L87.0005 8.0785C87.3223 8.44627 87.5931 9.18749 87.5931 10.54H89.5931ZM88.5251 6.78429C87.7325 5.82192 86.5978 5.4 85.2931 5.4V7.4C86.1485 7.4 86.6537 7.65808 86.9812 8.0557L88.5251 6.78429ZM85.2931 5.4C83.9812 5.4 82.8344 5.80909 82.0452 6.77051C81.287 7.69414 80.9931 8.96854 80.9931 10.42H82.9931C82.9931 9.19145 83.2493 8.45586 83.5911 8.03949C83.9018 7.66091 84.405 7.4 85.2931 7.4V5.4ZM80.9931 10.42C80.9931 12.1257 81.4448 13.7246 82.3379 15.1983L84.0483 14.1617C83.3415 12.9954 82.9931 11.7543 82.9931 10.42H80.9931ZM82.3495 15.2169C83.2673 16.6592 84.8536 18.3343 87.0366 20.2343L88.3497 18.7257C86.2127 16.8657 84.799 15.3408 84.0368 14.1431L82.3495 15.2169ZM87.0369 20.2346C89.7565 22.5994 91.5526 24.6849 92.5098 26.4887L94.2765 25.5513C93.1536 23.4351 91.1498 21.1606 88.3493 18.7254L87.0369 20.2346ZM92.5098 26.4887C93.4599 28.2793 93.9531 30.4125 93.9531 32.92H95.9531C95.9531 30.1475 95.4064 27.6807 94.2765 25.5513L92.5098 26.4887ZM93.9531 32.92C93.9531 36.2005 93.1344 38.5612 91.6426 40.1571L93.1037 41.5229C95.0518 39.4388 95.9531 36.5195 95.9531 32.92H93.9531ZM91.6346 40.1657C90.1969 41.7404 88.0414 42.6 84.9931 42.6V44.6C88.4249 44.6 91.1893 43.6196 93.1116 41.5143L91.6346 40.1657ZM103.662 0.999997V-2.86102e-06H102.811L102.675 0.839258L103.662 0.999997ZM112.602 0.999997L113.589 0.839258L113.452 -2.86102e-06H112.602V0.999997ZM119.442 43V44H120.618L120.429 42.8393L119.442 43ZM112.842 43L111.852 43.1424L111.975 44H112.842V43ZM111.642 34.66L112.631 34.5176L110.642 34.66H111.642ZM111.642 34.78V35.78H112.642V34.78H111.642ZM104.142 34.78V33.78H103.277L103.152 34.6355L104.142 34.78ZM102.942 43V44H103.806L103.931 43.1445L102.942 43ZM96.8216 43L95.8346 42.8393L95.6455 44H96.8216V43ZM110.862 29.08V30.08H112.013L111.852 28.9398L110.862 29.08ZM107.922 8.32L108.912 8.17978L108.79 7.32H107.922V8.32ZM107.802 8.32V7.32H106.931L106.811 8.18259L107.802 8.32ZM104.922 29.08L103.931 28.9426L103.773 30.08H104.922V29.08ZM103.662 2H112.602V-2.86102e-06H103.662V2ZM111.615 1.16074L118.455 43.1607L120.429 42.8393L113.589 0.839258L111.615 1.16074ZM119.442 42H112.842V44H119.442V42ZM113.831 42.8576L112.631 34.5176L110.652 34.8024L111.852 43.1424L113.831 42.8576ZM110.642 34.66V34.78H112.642V34.66H110.642ZM111.642 33.78H104.142V35.78H111.642V33.78ZM103.152 34.6355L101.952 42.8555L103.931 43.1445L105.131 34.9245L103.152 34.6355ZM102.942 42H96.8216V44H102.942V42ZM97.8086 43.1607L104.649 1.16074L102.675 0.839258L95.8346 42.8393L97.8086 43.1607ZM111.852 28.9398L108.912 8.17978L106.931 8.46022L109.871 29.2202L111.852 28.9398ZM107.922 7.32H107.802V9.32H107.922V7.32ZM106.811 8.18259L103.931 28.9426L105.912 29.2174L108.792 8.45741L106.811 8.18259ZM104.922 30.08H110.862V28.08H104.922V30.08ZM122.644 0.999997V-2.86102e-06H121.644V0.999997H122.644ZM130.924 0.999997L131.892 0.752568L131.7 -2.86102e-06H130.924V0.999997ZM137.344 26.14L136.375 26.3874L136.567 27.14H137.344V26.14ZM137.464 26.14V27.14H138.464V26.14H137.464ZM137.464 0.999997V-2.86102e-06H136.464V0.999997H137.464ZM143.344 0.999997H144.344V-2.86102e-06H143.344V0.999997ZM143.344 43V44H144.344V43H143.344ZM136.564 43L135.595 43.2501L135.789 44H136.564V43ZM128.644 12.34L129.612 12.0899L129.418 11.34H128.644V12.34ZM128.524 12.34V11.34H127.524V12.34H128.524ZM128.524 43V44H129.524V43H128.524ZM122.644 43H121.644V44H122.644V43ZM122.644 2H130.924V-2.86102e-06H122.644V2ZM129.955 1.24743L136.375 26.3874L138.313 25.8926L131.892 0.752568L129.955 1.24743ZM137.344 27.14H137.464V25.14H137.344V27.14ZM138.464 26.14V0.999997H136.464V26.14H138.464ZM137.464 2H143.344V-2.86102e-06H137.464V2ZM142.344 0.999997V43H144.344V0.999997H142.344ZM143.344 42H136.564V44H143.344V42ZM137.532 42.7499L129.612 12.0899L127.675 12.5901L135.595 43.2501L137.532 42.7499ZM128.644 11.34H128.524V13.34H128.644V11.34ZM127.524 12.34V43H129.524V12.34H127.524ZM128.524 42H122.644V44H128.524V42ZM123.644 43V0.999997H121.644V43H123.644ZM150.289 40.9L149.551 41.5743L149.558 41.5823L150.289 40.9ZM150.289 3.16L151.02 3.84236L151.028 3.83427L150.289 3.16ZM164.929 3.16L164.191 3.83431L164.198 3.84232L164.929 3.16ZM167.449 14.56V15.56H168.449V14.56H167.449ZM161.209 14.56H160.209V15.56H161.209V14.56ZM161.209 25.3H162.209V24.3H161.209V25.3ZM157.909 25.3H156.909V26.3H157.909V25.3ZM157.909 19.3V18.3H156.909V19.3H157.909ZM167.449 19.3H168.449V18.3H167.449V19.3ZM164.929 40.9L165.66 41.5824L165.668 41.5743L164.929 40.9ZM157.609 42.6C154.599 42.6 152.459 41.7589 151.02 40.2177L149.558 41.5823C151.48 43.6411 154.219 44.6 157.609 44.6V42.6ZM151.028 40.2257C149.569 38.6282 148.769 36.2824 148.769 33.04H146.769C146.769 36.5976 147.649 39.4918 149.551 41.5743L151.028 40.2257ZM148.769 33.04V10.96H146.769V33.04H148.769ZM148.769 10.96C148.769 7.71589 149.57 5.39648 151.02 3.84232L149.558 2.47768C147.649 4.52352 146.769 7.4041 146.769 10.96H148.769ZM151.028 3.83427C152.468 2.2571 154.605 1.4 157.609 1.4V-0.600002C154.213 -0.600002 151.471 0.382895 149.551 2.48573L151.028 3.83427ZM157.609 1.4C160.613 1.4 162.751 2.2571 164.191 3.83427L165.668 2.48573C163.748 0.382895 161.005 -0.600002 157.609 -0.600002V1.4ZM164.198 3.84232C165.649 5.39648 166.449 7.71589 166.449 10.96H168.449C168.449 7.4041 167.57 4.52352 165.66 2.47768L164.198 3.84232ZM166.449 10.96V14.56H168.449V10.96H166.449ZM167.449 13.56H161.209V15.56H167.449V13.56ZM162.209 14.56V10.54H160.209V14.56H162.209ZM162.209 10.54C162.209 9.04738 161.905 7.74196 161.125 6.79812C160.315 5.81769 159.139 5.4 157.789 5.4V7.4C158.719 7.4 159.253 7.67231 159.583 8.07188C159.943 8.50804 160.209 9.27261 160.209 10.54H162.209ZM157.789 5.4C156.439 5.4 155.263 5.81769 154.453 6.79812C153.673 7.74196 153.369 9.04738 153.369 10.54H155.369C155.369 9.27261 155.635 8.50804 155.995 8.07188C156.325 7.67231 156.859 7.4 157.789 7.4V5.4ZM153.369 10.54V33.52H155.369V10.54H153.369ZM153.369 33.52C153.369 34.9953 153.675 36.2881 154.458 37.2224C155.269 38.1905 156.444 38.6 157.789 38.6V36.6C156.854 36.6 156.319 36.3295 155.99 35.9376C155.634 35.5119 155.369 34.7647 155.369 33.52H153.369ZM157.789 38.6C159.134 38.6 160.309 38.1905 161.12 37.2224C161.904 36.2881 162.209 34.9953 162.209 33.52H160.209C160.209 34.7647 159.945 35.5119 159.588 35.9376C159.259 36.3295 158.724 36.6 157.789 36.6V38.6ZM162.209 33.52V25.3H160.209V33.52H162.209ZM161.209 24.3H157.909V26.3H161.209V24.3ZM158.909 25.3V19.3H156.909V25.3H158.909ZM157.909 20.3H167.449V18.3H157.909V20.3ZM166.449 19.3V33.04H168.449V19.3H166.449ZM166.449 33.04C166.449 36.2824 165.649 38.6282 164.191 40.2257L165.668 41.5743C167.569 39.4918 168.449 36.5976 168.449 33.04H166.449ZM164.198 40.2177C162.76 41.7589 160.619 42.6 157.609 42.6V44.6C160.999 44.6 163.739 43.6411 165.66 41.5823L164.198 40.2177ZM187.356 25.12H188.356V24.9589L188.305 24.8059L187.356 25.12ZM179.376 0.999997V-2.86102e-06H177.992L178.427 1.3141L179.376 0.999997ZM186.396 0.999997L187.356 0.719854L187.146 -2.86102e-06H186.396V0.999997ZM190.896 16.42L189.936 16.7001L190.146 17.42H190.896V16.42ZM191.016 16.42V17.42H191.766L191.976 16.7001L191.016 16.42ZM195.516 0.999997V-2.86102e-06H194.766L194.556 0.719854L195.516 0.999997ZM201.936 0.999997L202.885 1.3141L203.32 -2.86102e-06H201.936V0.999997ZM193.956 25.12L193.007 24.8059L192.956 24.9589V25.12H193.956ZM193.956 43V44H194.956V43H193.956ZM187.356 43H186.356V44H187.356V43ZM188.305 24.8059L180.325 0.685896L178.427 1.3141L186.407 25.4341L188.305 24.8059ZM179.376 2H186.396V-2.86102e-06H179.376V2ZM185.436 1.28014L189.936 16.7001L191.856 16.1399L187.356 0.719854L185.436 1.28014ZM190.896 17.42H191.016V15.42H190.896V17.42ZM191.976 16.7001L196.476 1.28014L194.556 0.719854L190.056 16.1399L191.976 16.7001ZM195.516 2H201.936V-2.86102e-06H195.516V2ZM200.987 0.685896L193.007 24.8059L194.905 25.4341L202.885 1.3141L200.987 0.685896ZM192.956 25.12V43H194.956V25.12H192.956ZM193.956 42H187.356V44H193.956V42ZM188.356 43V25.12H186.356V43H188.356ZM204.909 0.999997V-2.86102e-06H203.909V0.999997H204.909ZM222.909 0.999997H223.909V-2.86102e-06H222.909V0.999997ZM222.909 7V8H223.909V7H222.909ZM211.509 7V6H210.509V7H211.509ZM211.509 18.1H210.509V19.1H211.509V18.1ZM220.569 18.1H221.569V17.1H220.569V18.1ZM220.569 24.1V25.1H221.569V24.1H220.569ZM211.509 24.1V23.1H210.509V24.1H211.509ZM211.509 37H210.509V38H211.509V37ZM222.909 37H223.909V36H222.909V37ZM222.909 43V44H223.909V43H222.909ZM204.909 43H203.909V44H204.909V43ZM204.909 2H222.909V-2.86102e-06H204.909V2ZM221.909 0.999997V7H223.909V0.999997H221.909ZM222.909 6H211.509V8H222.909V6ZM210.509 7V18.1H212.509V7H210.509ZM211.509 19.1H220.569V17.1H211.509V19.1ZM219.569 18.1V24.1H221.569V18.1H219.569ZM220.569 23.1H211.509V25.1H220.569V23.1ZM210.509 24.1V37H212.509V24.1H210.509ZM211.509 38H222.909V36H211.509V38ZM221.909 37V43H223.909V37H221.909ZM222.909 42H204.909V44H222.909V42ZM205.909 43V0.999997H203.909V43H205.909ZM228.806 40.84L229.537 40.1571L229.537 40.1571L228.806 40.84ZM228.806 3.16L229.537 3.84288L229.537 3.84288L228.806 3.16ZM243.686 3.16L242.956 3.84288L242.956 3.84288L243.686 3.16ZM243.686 40.84L242.956 40.1571L242.956 40.1571L243.686 40.84ZM236.246 42.6C233.199 42.6 231.017 41.7408 229.537 40.1571L228.076 41.5229C230.035 43.6192 232.813 44.6 236.246 44.6V42.6ZM229.537 40.1571C228.041 38.5572 227.226 36.233 227.226 33.04H225.226C225.226 36.567 226.131 39.4428 228.076 41.5229L229.537 40.1571ZM227.226 33.04V10.96H225.226V33.04H227.226ZM227.226 10.96C227.226 7.76696 228.041 5.44283 229.537 3.84288L228.076 2.47711C226.131 4.55716 225.226 7.43303 225.226 10.96H227.226ZM229.537 3.84288C231.017 2.25921 233.199 1.4 236.246 1.4V-0.600002C232.813 -0.600002 230.035 0.380783 228.076 2.47711L229.537 3.84288ZM236.246 1.4C239.293 1.4 241.475 2.25921 242.956 3.84288L244.417 2.47711C242.457 0.380782 239.679 -0.600002 236.246 -0.600002V1.4ZM242.956 3.84288C244.451 5.44283 245.266 7.76696 245.266 10.96H247.266C247.266 7.43303 246.361 4.55716 244.417 2.47711L242.956 3.84288ZM245.266 10.96V33.04H247.266V10.96H245.266ZM245.266 33.04C245.266 36.233 244.451 38.5572 242.956 40.1571L244.417 41.5229C246.361 39.4428 247.266 36.567 247.266 33.04H245.266ZM242.956 40.1571C241.475 41.7408 239.293 42.6 236.246 42.6V44.6C239.679 44.6 242.457 43.6192 244.417 41.5229L242.956 40.1571ZM236.246 38.6C237.596 38.6 238.772 38.1823 239.582 37.2019C240.362 36.258 240.666 34.9526 240.666 33.46H238.666C238.666 34.7274 238.4 35.492 238.04 35.9281C237.71 36.3277 237.176 36.6 236.246 36.6V38.6ZM240.666 33.46V10.54H238.666V33.46H240.666ZM240.666 10.54C240.666 9.04738 240.362 7.74196 239.582 6.79812C238.772 5.81769 237.596 5.4 236.246 5.4V7.4C237.176 7.4 237.71 7.67231 238.04 8.07188C238.4 8.50804 238.666 9.27261 238.666 10.54H240.666ZM236.246 5.4C234.896 5.4 233.72 5.81769 232.91 6.79812C232.13 7.74196 231.826 9.04738 231.826 10.54H233.826C233.826 9.27261 234.092 8.50804 234.452 8.07188C234.782 7.67231 235.316 7.4 236.246 7.4V5.4ZM231.826 10.54V33.46H233.826V10.54H231.826ZM231.826 33.46C231.826 34.9526 232.13 36.258 232.91 37.2019C233.72 38.1823 234.896 38.6 236.246 38.6V36.6C235.316 36.6 234.782 36.3277 234.452 35.9281C234.092 35.492 233.826 34.7274 233.826 33.46H231.826ZM250.73 0.999997V-2.86102e-06H249.73V0.999997H250.73ZM259.01 0.999997L259.978 0.752568L259.786 -2.86102e-06H259.01V0.999997ZM265.43 26.14L264.461 26.3874L264.653 27.14H265.43V26.14ZM265.55 26.14V27.14H266.55V26.14H265.55ZM265.55 0.999997V-2.86102e-06H264.55V0.999997H265.55ZM271.43 0.999997H272.43V-2.86102e-06H271.43V0.999997ZM271.43 43V44H272.43V43H271.43ZM264.65 43L263.681 43.2501L263.875 44H264.65V43ZM256.73 12.34L257.698 12.0899L257.504 11.34H256.73V12.34ZM256.61 12.34V11.34H255.61V12.34H256.61ZM256.61 43V44H257.61V43H256.61ZM250.73 43H249.73V44H250.73V43ZM250.73 2H259.01V-2.86102e-06H250.73V2ZM258.041 1.24743L264.461 26.3874L266.398 25.8926L259.978 0.752568L258.041 1.24743ZM265.43 27.14H265.55V25.14H265.43V27.14ZM266.55 26.14V0.999997H264.55V26.14H266.55ZM265.55 2H271.43V-2.86102e-06H265.55V2ZM270.43 0.999997V43H272.43V0.999997H270.43ZM271.43 42H264.65V44H271.43V42ZM265.618 42.7499L257.698 12.0899L255.761 12.5901L263.681 43.2501L265.618 42.7499ZM256.73 11.34H256.61V13.34H256.73V11.34ZM255.61 12.34V43H257.61V12.34H255.61ZM256.61 42H250.73V44H256.61V42ZM251.73 43V0.999997H249.73V43H251.73Z" fill="#5B7B7B"/>
</g>
<defs>
<filter id="filter0_i_196_4" x="2.58496" y="0.399998" width="268.845" height="47.2" filterUnits="userSpaceOnUse" color-interpolation-filters="sRGB">
<feFlood flood-opacity="0" result="BackgroundImageFix"/>
<feBlend mode="normal" in="SourceGraphic" in2="BackgroundImageFix" result="shape"/>
<feColorMatrix in="SourceAlpha" type="matrix" values="0 0 0 0 0 0 0 0 0 0 0 0 0 0 0 0 0 0 127 0" result="hardAlpha"/>
<feOffset dy="4"/>
<feGaussianBlur stdDeviation="2"/>
<feComposite in2="hardAlpha" operator="arithmetic" k2="-1" k3="1"/>
<feColorMatrix type="matrix" values="0 0 0 0 1 0 0 0 0 1 0 0 0 0 1 0 0 0 1 0"/>
<feBlend mode="normal" in2="shape" result="effect1_innerShadow_196_4"/>
</filter>
</defs>
</svg>
