<svg width="1518" height="334" viewBox="0 0 1518 334" fill="none" xmlns="http://www.w3.org/2000/svg">
<g filter="url(#filter0_i_163_12)">
<g filter="url(#filter1_i_163_12)">
<path d="M149.487 151.4L186.687 81.2H206.087L158.487 168.6V224H140.487V169.4L92.8867 81.2H112.487L149.487 151.4ZM346.262 152.4C346.262 163.467 344.862 173.533 342.062 182.6C339.262 191.533 335.062 199.267 329.462 205.8C323.995 212.333 317.128 217.333 308.862 220.8C300.728 224.267 291.262 226 280.462 226C269.262 226 259.528 224.267 251.262 220.8C242.995 217.2 236.128 212.2 230.662 205.8C225.195 199.267 221.128 191.467 218.462 182.4C215.795 173.333 214.462 163.267 214.462 152.2C214.462 137.533 216.862 124.733 221.662 113.8C226.462 102.867 233.728 94.3333 243.462 88.2C253.328 82.0667 265.728 79 280.662 79C294.928 79 306.928 82.0667 316.662 88.2C326.395 94.2 333.728 102.733 338.662 113.8C343.728 124.733 346.262 137.6 346.262 152.4ZM233.462 152.4C233.462 164.4 235.128 174.733 238.462 183.4C241.795 192.067 246.928 198.733 253.862 203.4C260.928 208.067 269.795 210.4 280.462 210.4C291.262 210.4 300.062 208.067 306.862 203.4C313.795 198.733 318.928 192.067 322.262 183.4C325.595 174.733 327.262 164.4 327.262 152.4C327.262 134.4 323.528 120.333 316.062 110.2C308.595 99.9333 296.795 94.8 280.662 94.8C269.862 94.8 260.928 97.1333 253.862 101.8C246.928 106.333 241.795 112.933 238.462 121.6C235.128 130.133 233.462 140.4 233.462 152.4ZM486.512 173.6C486.512 183.467 484.512 192.4 480.512 200.4C476.512 208.267 470.378 214.533 462.112 219.2C453.978 223.733 443.578 226 430.912 226C413.178 226 399.645 221.2 390.312 211.6C381.112 201.867 376.512 189.067 376.512 173.2V81.2H394.512V173.8C394.512 185.4 397.578 194.4 403.712 200.8C409.978 207.2 419.378 210.4 431.912 210.4C440.578 210.4 447.578 208.867 452.912 205.8C458.378 202.6 462.378 198.267 464.912 192.8C467.445 187.2 468.712 180.8 468.712 173.6V81.2H486.512V173.6ZM637.401 224H616.401L540.001 105.4H539.201C539.334 107.8 539.467 110.467 539.601 113.4C539.867 116.333 540.067 119.533 540.201 123C540.334 126.333 540.467 129.8 540.601 133.4C540.734 137 540.801 140.6 540.801 144.2V224H524.201V81.2H545.001L621.201 199.4H622.001C621.867 197.8 621.734 195.6 621.601 192.8C621.467 189.867 621.334 186.667 621.201 183.2C621.067 179.6 620.934 175.933 620.801 172.2C620.667 168.467 620.601 165 620.601 161.8V81.2H637.401V224ZM738.154 148.6H787.554V218.6C779.821 221.133 772.021 223 764.154 224.2C756.287 225.4 747.354 226 737.354 226C722.554 226 710.087 223.067 699.954 217.2C689.821 211.2 682.087 202.733 676.754 191.8C671.554 180.733 668.954 167.667 668.954 152.6C668.954 137.667 671.887 124.733 677.754 113.8C683.621 102.867 692.021 94.4 702.954 88.4C714.021 82.2667 727.354 79.2 742.954 79.2C750.954 79.2 758.487 79.9333 765.554 81.4C772.754 82.8667 779.421 84.9333 785.554 87.6L778.754 103.2C773.687 100.933 767.954 99 761.554 97.4C755.287 95.8 748.754 95 741.954 95C730.621 95 720.887 97.3333 712.754 102C704.621 106.667 698.421 113.333 694.154 122C689.887 130.533 687.754 140.733 687.754 152.6C687.754 163.933 689.554 174 693.154 182.8C696.887 191.467 702.687 198.267 710.554 203.2C718.421 208 728.754 210.4 741.554 210.4C745.821 210.4 749.554 210.267 752.754 210C756.087 209.6 759.087 209.133 761.754 208.6C764.554 208.067 767.154 207.533 769.554 207V164.6H738.154V148.6ZM930.862 224H912.862V157.4H839.662V224H821.662V81.2H839.662V141.6H912.862V81.2H930.862V224ZM1260.91 152.4C1260.91 163.467 1259.51 173.533 1256.71 182.6C1253.91 191.533 1249.71 199.267 1244.11 205.8C1238.64 212.333 1231.78 217.333 1223.51 220.8C1215.38 224.267 1205.91 226 1195.11 226C1183.91 226 1174.18 224.267 1165.91 220.8C1157.64 217.2 1150.78 212.2 1145.31 205.8C1139.84 199.267 1135.78 191.467 1133.11 182.4C1130.44 173.333 1129.11 163.267 1129.11 152.2C1129.11 137.533 1131.51 124.733 1136.31 113.8C1141.11 102.867 1148.38 94.3333 1158.11 88.2C1167.98 82.0667 1180.38 79 1195.31 79C1209.58 79 1221.58 82.0667 1231.31 88.2C1241.04 94.2 1248.38 102.733 1253.31 113.8C1258.38 124.733 1260.91 137.6 1260.91 152.4ZM1148.11 152.4C1148.11 164.4 1149.78 174.733 1153.11 183.4C1156.44 192.067 1161.58 198.733 1168.51 203.4C1175.58 208.067 1184.44 210.4 1195.11 210.4C1205.91 210.4 1214.71 208.067 1221.51 203.4C1228.44 198.733 1233.58 192.067 1236.91 183.4C1240.24 174.733 1241.91 164.4 1241.91 152.4C1241.91 134.4 1238.18 120.333 1230.71 110.2C1223.24 99.9333 1211.44 94.8 1195.31 94.8C1184.51 94.8 1175.58 97.1333 1168.51 101.8C1161.58 106.333 1156.44 112.933 1153.11 121.6C1149.78 130.133 1148.11 140.4 1148.11 152.4ZM1405.76 224H1384.76L1308.36 105.4H1307.56C1307.69 107.8 1307.83 110.467 1307.96 113.4C1308.23 116.333 1308.43 119.533 1308.56 123C1308.69 126.333 1308.83 129.8 1308.96 133.4C1309.09 137 1309.16 140.6 1309.16 144.2V224H1292.56V81.2H1313.36L1389.56 199.4H1390.36C1390.23 197.8 1390.09 195.6 1389.96 192.8C1389.83 189.867 1389.69 186.667 1389.56 183.2C1389.43 179.6 1389.29 175.933 1389.16 172.2C1389.03 168.467 1388.96 165 1388.96 161.8V81.2H1405.76V224Z" fill="#D5C099"/>
</g>
<path d="M149.487 151.4L148.16 152.099L149.483 154.61L150.812 152.102L149.487 151.4ZM186.687 81.2V79.7H185.784L185.361 80.4976L186.687 81.2ZM206.087 81.2L207.404 81.9174L208.612 79.7H206.087V81.2ZM158.487 168.6L157.169 167.883L156.987 168.218V168.6H158.487ZM158.487 224V225.5H159.987V224H158.487ZM140.487 224H138.987V225.5H140.487V224ZM140.487 169.4H141.987V169.021L141.807 168.688L140.487 169.4ZM92.8867 81.2V79.7H90.3727L91.5667 81.9124L92.8867 81.2ZM112.487 81.2L113.814 80.5006L113.392 79.7H112.487V81.2ZM150.812 152.102L188.012 81.9023L185.361 80.4976L148.161 150.698L150.812 152.102ZM186.687 82.7H206.087V79.7H186.687V82.7ZM204.769 80.4826L157.169 167.883L159.804 169.317L207.404 81.9174L204.769 80.4826ZM156.987 168.6V224H159.987V168.6H156.987ZM158.487 222.5H140.487V225.5H158.487V222.5ZM141.987 224V169.4H138.987V224H141.987ZM141.807 168.688L94.2067 80.4876L91.5667 81.9124L139.167 170.112L141.807 168.688ZM92.8867 82.7H112.487V79.7H92.8867V82.7ZM111.16 81.8994L148.16 152.099L150.814 150.701L113.814 80.5006L111.16 81.8994ZM342.062 182.6L343.493 183.049L343.495 183.043L342.062 182.6ZM329.462 205.8L328.323 204.824L328.317 204.831L328.311 204.837L329.462 205.8ZM308.862 220.8L308.282 219.417L308.274 219.42L308.862 220.8ZM251.262 220.8L250.663 222.175L250.672 222.179L250.682 222.183L251.262 220.8ZM230.662 205.8L229.511 206.763L229.516 206.768L229.521 206.774L230.662 205.8ZM218.462 182.4L217.023 182.823L218.462 182.4ZM221.662 113.8L223.035 114.403L221.662 113.8ZM243.462 88.2L242.67 86.926L242.662 86.9309L243.462 88.2ZM316.662 88.2L315.862 89.4691L315.868 89.473L315.875 89.4769L316.662 88.2ZM338.662 113.8L337.292 114.411L337.296 114.421L337.301 114.431L338.662 113.8ZM253.862 203.4L253.024 204.644L253.035 204.652L253.862 203.4ZM306.862 203.4L306.024 202.156L306.013 202.163L306.862 203.4ZM322.262 183.4L320.862 182.862L322.262 183.4ZM316.062 110.2L314.849 111.082L314.854 111.09L316.062 110.2ZM253.862 101.8L254.683 103.055L254.688 103.052L253.862 101.8ZM238.462 121.6L239.859 122.146L239.862 122.138L238.462 121.6ZM344.762 152.4C344.762 163.341 343.378 173.256 340.629 182.157L343.495 183.043C346.346 173.811 347.762 163.592 347.762 152.4H344.762ZM340.63 182.151C337.886 190.908 333.779 198.458 328.323 204.824L330.601 206.776C336.344 200.076 340.638 192.159 343.493 183.049L340.63 182.151ZM328.311 204.837C323.007 211.177 316.339 216.038 308.282 219.417L309.442 222.183C317.918 218.629 324.984 213.489 330.612 206.763L328.311 204.837ZM308.274 219.42C300.363 222.792 291.103 224.5 280.462 224.5V227.5C291.42 227.5 301.094 225.741 309.45 222.18L308.274 219.42ZM280.462 224.5C269.413 224.5 259.885 222.79 251.842 219.417L250.682 222.183C259.172 225.744 269.111 227.5 280.462 227.5V224.5ZM251.861 219.425C243.787 215.909 237.111 211.041 231.802 204.826L229.521 206.774C235.146 213.359 242.203 218.491 250.663 222.175L251.861 219.425ZM231.812 204.837C226.491 198.479 222.516 190.867 219.901 181.977L217.023 182.823C219.741 192.066 223.899 200.055 229.511 206.763L231.812 204.837ZM219.901 181.977C217.281 173.069 215.962 163.147 215.962 152.2H212.962C212.962 163.386 214.309 173.598 217.023 182.823L219.901 181.977ZM215.962 152.2C215.962 137.695 218.335 125.108 223.035 114.403L220.288 113.197C215.388 124.359 212.962 137.372 212.962 152.2H215.962ZM223.035 114.403C227.72 103.733 234.792 95.4364 244.261 89.4691L242.662 86.9309C232.665 93.2303 225.204 102 220.288 113.197L223.035 114.403ZM244.254 89.4739C253.824 83.525 265.93 80.5 280.662 80.5V77.5C265.527 77.5 252.833 80.6083 242.67 86.9261L244.254 89.4739ZM280.662 80.5C294.713 80.5 306.42 83.5191 315.862 89.4691L317.461 86.9309C307.437 80.6142 295.144 77.5 280.662 77.5V80.5ZM315.875 89.4769C325.335 95.3088 332.473 103.602 337.292 114.411L340.032 113.189C334.983 101.864 327.455 93.0912 317.449 86.9231L315.875 89.4769ZM337.301 114.431C342.257 125.127 344.762 137.769 344.762 152.4H347.762C347.762 137.431 345.199 124.34 340.023 113.169L337.301 114.431ZM231.962 152.4C231.962 164.533 233.646 175.058 237.062 183.938L239.862 182.862C236.611 174.409 234.962 164.267 234.962 152.4H231.962ZM237.062 183.938C240.493 192.859 245.807 199.787 253.024 204.644L254.699 202.156C248.05 197.68 243.097 191.274 239.862 182.862L237.062 183.938ZM253.035 204.652C260.404 209.518 269.577 211.9 280.462 211.9V208.9C270.013 208.9 261.453 206.616 254.688 202.148L253.035 204.652ZM280.462 211.9C291.472 211.9 300.594 209.521 307.71 204.637L306.013 202.163C299.53 206.613 291.051 208.9 280.462 208.9V211.9ZM307.699 204.644C314.916 199.787 320.231 192.859 323.662 183.938L320.862 182.862C317.626 191.274 312.674 197.68 306.024 202.156L307.699 204.644ZM323.662 183.938C327.077 175.058 328.762 164.533 328.762 152.4H325.762C325.762 164.267 324.113 174.409 320.862 182.862L323.662 183.938ZM328.762 152.4C328.762 134.213 324.992 119.791 317.269 109.31L314.854 111.09C322.065 120.876 325.762 134.587 325.762 152.4H328.762ZM317.275 109.318C309.451 98.5595 297.131 93.3 280.662 93.3V96.3C296.459 96.3 307.739 101.307 314.849 111.082L317.275 109.318ZM280.662 93.3C269.648 93.3 260.407 95.6804 253.035 100.548L254.688 103.052C261.45 98.5863 270.075 96.3 280.662 96.3V93.3ZM253.041 100.545C245.813 105.271 240.494 112.138 237.062 121.062L239.862 122.138C243.096 113.729 248.044 107.396 254.683 103.055L253.041 100.545ZM237.065 121.054C233.646 129.806 231.962 140.268 231.962 152.4H234.962C234.962 140.532 236.611 130.46 239.859 122.146L237.065 121.054ZM480.512 200.4L481.849 201.08L481.853 201.071L480.512 200.4ZM462.112 219.2L462.842 220.51L462.849 220.506L462.112 219.2ZM390.312 211.6L389.222 212.63L389.229 212.638L389.236 212.646L390.312 211.6ZM376.512 81.2V79.7H375.012V81.2H376.512ZM394.512 81.2H396.012V79.7H394.512V81.2ZM403.712 200.8L402.629 201.838L402.634 201.844L402.64 201.849L403.712 200.8ZM452.912 205.8L453.659 207.1L453.669 207.095L452.912 205.8ZM464.912 192.8L466.273 193.431L466.278 193.418L464.912 192.8ZM468.712 81.2V79.7H467.212V81.2H468.712ZM486.512 81.2H488.012V79.7H486.512V81.2ZM485.012 173.6C485.012 183.258 483.056 191.958 479.17 199.729L481.853 201.071C485.968 192.842 488.012 183.675 488.012 173.6H485.012ZM479.175 199.72C475.319 207.303 469.404 213.361 461.374 217.894L462.849 220.506C471.353 215.706 477.705 209.23 481.849 201.08L479.175 199.72ZM461.381 217.89C453.537 222.262 443.411 224.5 430.912 224.5V227.5C443.746 227.5 454.419 225.205 462.842 220.51L461.381 217.89ZM430.912 224.5C413.447 224.5 400.355 219.779 391.387 210.554L389.236 212.646C398.935 222.621 412.91 227.5 430.912 227.5V224.5ZM391.402 210.57C382.513 201.165 378.012 188.759 378.012 173.2H375.012C375.012 189.374 379.711 202.568 389.222 212.63L391.402 210.57ZM378.012 173.2V81.2H375.012V173.2H378.012ZM376.512 82.7H394.512V79.7H376.512V82.7ZM393.012 81.2V173.8H396.012V81.2H393.012ZM393.012 173.8C393.012 185.663 396.153 195.081 402.629 201.838L404.795 199.762C399.004 193.719 396.012 185.137 396.012 173.8H393.012ZM402.64 201.849C409.286 208.637 419.139 211.9 431.912 211.9V208.9C419.618 208.9 410.671 205.763 404.783 199.751L402.64 201.849ZM431.912 211.9C440.739 211.9 448.024 210.341 453.659 207.1L452.164 204.5C447.133 207.393 440.418 208.9 431.912 208.9V211.9ZM453.669 207.095C459.386 203.748 463.604 199.19 466.273 193.431L463.551 192.169C461.153 197.344 457.371 201.452 452.154 204.505L453.669 207.095ZM466.278 193.418C468.913 187.594 470.212 180.977 470.212 173.6H467.212C467.212 180.623 465.977 186.806 463.545 192.182L466.278 193.418ZM470.212 173.6V81.2H467.212V173.6H470.212ZM468.712 82.7H486.512V79.7H468.712V82.7ZM485.012 81.2V173.6H488.012V81.2H485.012ZM637.401 224V225.5H638.901V224H637.401ZM616.401 224L615.14 224.812L615.583 225.5H616.401V224ZM540.001 105.4L541.262 104.588L540.819 103.9H540.001V105.4ZM539.201 105.4V103.9H537.615L537.703 105.483L539.201 105.4ZM539.601 113.4L538.102 113.468L538.104 113.502L538.107 113.536L539.601 113.4ZM540.201 123L538.702 123.058L538.702 123.06L540.201 123ZM540.601 133.4L539.102 133.456L540.601 133.4ZM540.801 224V225.5H542.301V224H540.801ZM524.201 224H522.701V225.5H524.201V224ZM524.201 81.2V79.7H522.701V81.2H524.201ZM545.001 81.2L546.262 80.3872L545.818 79.7H545.001V81.2ZM621.201 199.4L619.94 200.213L620.383 200.9H621.201V199.4ZM622.001 199.4V200.9H623.631L623.496 199.275L622.001 199.4ZM621.601 192.8L620.102 192.868L620.102 192.871L621.601 192.8ZM621.201 183.2L619.702 183.256L619.702 183.258L621.201 183.2ZM620.801 172.2L619.302 172.254L620.801 172.2ZM620.601 81.2V79.7H619.101V81.2H620.601ZM637.401 81.2H638.901V79.7H637.401V81.2ZM637.401 222.5H616.401V225.5H637.401V222.5ZM617.662 223.188L541.262 104.588L538.74 106.212L615.14 224.812L617.662 223.188ZM540.001 103.9H539.201V106.9H540.001V103.9ZM537.703 105.483C537.836 107.877 537.969 110.539 538.102 113.468L541.099 113.332C540.966 110.395 540.832 107.723 540.698 105.317L537.703 105.483ZM538.107 113.536C538.371 116.439 538.569 119.613 538.702 123.058L541.7 122.942C541.565 119.454 541.364 116.228 541.095 113.264L538.107 113.536ZM538.702 123.06C538.835 126.392 538.969 129.857 539.102 133.456L542.1 133.344C541.966 129.743 541.833 126.275 541.7 122.94L538.702 123.06ZM539.102 133.456C539.234 137.037 539.301 140.619 539.301 144.2H542.301C542.301 140.581 542.234 136.963 542.1 133.344L539.102 133.456ZM539.301 144.2V224H542.301V144.2H539.301ZM540.801 222.5H524.201V225.5H540.801V222.5ZM525.701 224V81.2H522.701V224H525.701ZM524.201 82.7H545.001V79.7H524.201V82.7ZM543.74 82.0127L619.94 200.213L622.461 198.587L546.262 80.3872L543.74 82.0127ZM621.201 200.9H622.001V197.9H621.201V200.9ZM623.496 199.275C623.364 197.701 623.232 195.522 623.099 192.729L620.102 192.871C620.236 195.678 620.37 197.899 620.506 199.525L623.496 199.275ZM623.099 192.732C622.966 189.803 622.833 186.606 622.7 183.142L619.702 183.258C619.835 186.727 619.969 189.931 620.102 192.868L623.099 192.732ZM622.7 183.144C622.566 179.545 622.433 175.879 622.3 172.146L619.302 172.254C619.435 175.988 619.568 179.655 619.702 183.256L622.7 183.144ZM622.3 172.146C622.167 168.428 622.101 164.979 622.101 161.8H619.101C619.101 165.02 619.168 168.505 619.302 172.254L622.3 172.146ZM622.101 161.8V81.2H619.101V161.8H622.101ZM620.601 82.7H637.401V79.7H620.601V82.7ZM635.901 81.2V224H638.901V81.2H635.901ZM738.154 148.6V147.1H736.654V148.6H738.154ZM787.554 148.6H789.054V147.1H787.554V148.6ZM787.554 218.6L788.021 220.025L789.054 219.687V218.6H787.554ZM764.154 224.2L763.928 222.717L764.154 224.2ZM699.954 217.2L699.19 218.491L699.196 218.494L699.202 218.498L699.954 217.2ZM676.754 191.8L675.396 192.438L675.401 192.448L675.406 192.458L676.754 191.8ZM677.754 113.8L679.076 114.509L677.754 113.8ZM702.954 88.4L703.676 89.715L703.681 89.712L702.954 88.4ZM765.554 81.4L765.249 82.8687L765.255 82.8698L765.554 81.4ZM785.554 87.6L786.929 88.1994L787.529 86.823L786.152 86.2244L785.554 87.6ZM778.754 103.2L778.141 104.569L779.524 105.188L780.129 103.799L778.754 103.2ZM761.554 97.4L761.183 98.8534L761.19 98.8552L761.554 97.4ZM712.754 102L713.5 103.301L712.754 102ZM694.154 122L695.496 122.671L695.5 122.663L694.154 122ZM693.154 182.8L691.766 183.368L691.771 183.381L691.776 183.393L693.154 182.8ZM710.554 203.2L709.757 204.471L709.765 204.476L709.773 204.48L710.554 203.2ZM752.754 210L752.878 211.495L752.906 211.493L752.933 211.489L752.754 210ZM761.754 208.6L761.473 207.126L761.46 207.129L761.754 208.6ZM769.554 207L769.879 208.464L771.054 208.203V207H769.554ZM769.554 164.6H771.054V163.1H769.554V164.6ZM738.154 164.6H736.654V166.1H738.154V164.6ZM738.154 150.1H787.554V147.1H738.154V150.1ZM786.054 148.6V218.6H789.054V148.6H786.054ZM787.087 217.175C779.43 219.683 771.711 221.53 763.928 222.717L764.38 225.683C772.33 224.47 780.211 222.584 788.021 220.025L787.087 217.175ZM763.928 222.717C756.152 223.903 747.296 224.5 737.354 224.5V227.5C747.411 227.5 756.422 226.897 764.38 225.683L763.928 222.717ZM737.354 224.5C722.749 224.5 710.558 221.606 700.705 215.902L699.202 218.498C709.617 224.528 722.359 227.5 737.354 227.5V224.5ZM700.718 215.909C690.846 210.064 683.311 201.821 678.102 191.142L675.406 192.458C680.863 203.645 688.795 212.336 699.19 218.491L700.718 215.909ZM678.112 191.162C673.024 180.336 670.454 167.496 670.454 152.6H667.454C667.454 167.837 670.083 181.131 675.396 192.438L678.112 191.162ZM670.454 152.6C670.454 137.864 673.348 125.184 679.076 114.509L676.432 113.091C670.427 124.282 667.454 137.469 667.454 152.6H670.454ZM679.076 114.509C684.804 103.833 692.995 95.5761 703.676 89.715L702.232 87.085C691.046 93.2239 682.437 101.9 676.432 113.091L679.076 114.509ZM703.681 89.712C714.479 83.7276 727.55 80.7 742.954 80.7V77.7C727.158 77.7 713.562 80.8058 702.227 87.088L703.681 89.712ZM742.954 80.7C750.862 80.7 758.293 81.4249 765.249 82.8687L765.859 79.9313C758.682 78.4417 751.045 77.7 742.954 77.7V80.7ZM765.255 82.8698C772.362 84.3176 778.927 86.3545 784.956 88.9756L786.152 86.2244C779.914 83.5121 773.146 81.4157 765.853 79.9302L765.255 82.8698ZM784.179 87.0006L777.379 102.601L780.129 103.799L786.929 88.1994L784.179 87.0006ZM779.366 101.831C774.206 99.5222 768.388 97.5622 761.918 95.9448L761.19 98.8552C767.52 100.438 773.168 102.344 778.141 104.569L779.366 101.831ZM761.925 95.9466C755.531 94.3141 748.873 93.5 741.954 93.5V96.5C748.635 96.5 755.044 97.2859 761.183 98.8534L761.925 95.9466ZM741.954 93.5C730.413 93.5 720.411 95.8772 712.007 100.699L713.5 103.301C721.364 98.7894 730.828 96.5 741.954 96.5V93.5ZM712.007 100.699C703.607 105.519 697.202 112.412 692.808 121.337L695.5 122.663C699.639 114.255 705.634 107.815 713.5 103.301L712.007 100.699ZM692.812 121.329C688.419 130.115 686.254 140.556 686.254 152.6H689.254C689.254 140.911 691.355 130.951 695.496 122.671L692.812 121.329ZM686.254 152.6C686.254 164.091 688.079 174.357 691.766 183.368L694.542 182.232C691.029 173.643 689.254 163.775 689.254 152.6H686.254ZM691.776 183.393C695.628 192.335 701.628 199.373 709.757 204.471L711.351 201.929C703.746 197.16 698.147 190.599 694.532 182.207L691.776 183.393ZM709.773 204.48C717.949 209.469 728.581 211.9 741.554 211.9V208.9C728.927 208.9 718.892 206.531 711.335 201.92L709.773 204.48ZM741.554 211.9C745.85 211.9 749.626 211.766 752.878 211.495L752.629 208.505C749.482 208.767 745.792 208.9 741.554 208.9V211.9ZM752.933 211.489C756.296 211.086 759.336 210.613 762.048 210.071L761.46 207.129C758.839 207.653 755.878 208.114 752.575 208.511L752.933 211.489ZM762.035 210.074C764.847 209.538 767.462 209.001 769.879 208.464L769.229 205.536C766.845 206.065 764.261 206.596 761.473 207.126L762.035 210.074ZM771.054 207V164.6H768.054V207H771.054ZM769.554 163.1H738.154V166.1H769.554V163.1ZM739.654 164.6V148.6H736.654V164.6H739.654ZM930.862 224V225.5H932.362V224H930.862ZM912.862 224H911.362V225.5H912.862V224ZM912.862 157.4H914.362V155.9H912.862V157.4ZM839.662 157.4V155.9H838.162V157.4H839.662ZM839.662 224V225.5H841.162V224H839.662ZM821.662 224H820.162V225.5H821.662V224ZM821.662 81.2V79.7H820.162V81.2H821.662ZM839.662 81.2H841.162V79.7H839.662V81.2ZM839.662 141.6H838.162V143.1H839.662V141.6ZM912.862 141.6V143.1H914.362V141.6H912.862ZM912.862 81.2V79.7H911.362V81.2H912.862ZM930.862 81.2H932.362V79.7H930.862V81.2ZM930.862 222.5H912.862V225.5H930.862V222.5ZM914.362 224V157.4H911.362V224H914.362ZM912.862 155.9H839.662V158.9H912.862V155.9ZM838.162 157.4V224H841.162V157.4H838.162ZM839.662 222.5H821.662V225.5H839.662V222.5ZM823.162 224V81.2H820.162V224H823.162ZM821.662 82.7H839.662V79.7H821.662V82.7ZM838.162 81.2V141.6H841.162V81.2H838.162ZM839.662 143.1H912.862V140.1H839.662V143.1ZM914.362 141.6V81.2H911.362V141.6H914.362ZM912.862 82.7H930.862V79.7H912.862V82.7ZM929.362 81.2V224H932.362V81.2H929.362ZM1256.71 182.6L1258.14 183.049L1258.14 183.043L1256.71 182.6ZM1244.11 205.8L1242.97 204.824L1242.97 204.831L1242.96 204.837L1244.11 205.8ZM1223.51 220.8L1222.93 219.417L1222.92 219.42L1223.51 220.8ZM1165.91 220.8L1165.31 222.175L1165.32 222.179L1165.33 222.183L1165.91 220.8ZM1145.31 205.8L1144.16 206.763L1144.16 206.768L1144.17 206.774L1145.31 205.8ZM1133.11 182.4L1131.67 182.823L1133.11 182.4ZM1136.31 113.8L1137.68 114.403L1136.31 113.8ZM1158.11 88.2L1157.32 86.926L1157.31 86.9309L1158.11 88.2ZM1231.31 88.2L1230.51 89.4691L1230.52 89.473L1230.52 89.4769L1231.31 88.2ZM1253.31 113.8L1251.94 114.411L1251.94 114.421L1251.95 114.431L1253.31 113.8ZM1168.51 203.4L1167.67 204.644L1167.68 204.652L1168.51 203.4ZM1221.51 203.4L1220.67 202.156L1220.66 202.163L1221.51 203.4ZM1236.91 183.4L1235.51 182.862L1236.91 183.4ZM1230.71 110.2L1229.5 111.082L1229.5 111.09L1230.71 110.2ZM1168.51 101.8L1169.33 103.055L1169.34 103.052L1168.51 101.8ZM1153.11 121.6L1154.51 122.146L1154.51 122.138L1153.11 121.6ZM1259.41 152.4C1259.41 163.341 1258.03 173.256 1255.28 182.157L1258.14 183.043C1260.99 173.811 1262.41 163.592 1262.41 152.4H1259.41ZM1255.28 182.151C1252.53 190.908 1248.43 198.458 1242.97 204.824L1245.25 206.776C1250.99 200.076 1255.29 192.159 1258.14 183.049L1255.28 182.151ZM1242.96 204.837C1237.65 211.177 1230.99 216.038 1222.93 219.417L1224.09 222.183C1232.57 218.629 1239.63 213.489 1245.26 206.763L1242.96 204.837ZM1222.92 219.42C1215.01 222.792 1205.75 224.5 1195.11 224.5V227.5C1206.07 227.5 1215.74 225.741 1224.1 222.18L1222.92 219.42ZM1195.11 224.5C1184.06 224.5 1174.53 222.79 1166.49 219.417L1165.33 222.183C1173.82 225.744 1183.76 227.5 1195.11 227.5V224.5ZM1166.51 219.425C1158.44 215.909 1151.76 211.041 1146.45 204.826L1144.17 206.774C1149.79 213.359 1156.85 218.491 1165.31 222.175L1166.51 219.425ZM1146.46 204.837C1141.14 198.479 1137.16 190.867 1134.55 181.977L1131.67 182.823C1134.39 192.066 1138.55 200.055 1144.16 206.763L1146.46 204.837ZM1134.55 181.977C1131.93 173.069 1130.61 163.147 1130.61 152.2H1127.61C1127.61 163.386 1128.96 173.598 1131.67 182.823L1134.55 181.977ZM1130.61 152.2C1130.61 137.695 1132.98 125.108 1137.68 114.403L1134.94 113.197C1130.04 124.359 1127.61 137.372 1127.61 152.2H1130.61ZM1137.68 114.403C1142.37 103.733 1149.44 95.4364 1158.91 89.4691L1157.31 86.9309C1147.31 93.2303 1139.85 102 1134.94 113.197L1137.68 114.403ZM1158.9 89.4739C1168.47 83.525 1180.58 80.5 1195.31 80.5V77.5C1180.18 77.5 1167.48 80.6083 1157.32 86.9261L1158.9 89.4739ZM1195.31 80.5C1209.36 80.5 1221.07 83.5191 1230.51 89.4691L1232.11 86.9309C1222.09 80.6142 1209.79 77.5 1195.31 77.5V80.5ZM1230.52 89.4769C1239.98 95.3088 1247.12 103.602 1251.94 114.411L1254.68 113.189C1249.63 101.864 1242.1 93.0912 1232.1 86.9231L1230.52 89.4769ZM1251.95 114.431C1256.91 125.127 1259.41 137.769 1259.41 152.4H1262.41C1262.41 137.431 1259.85 124.34 1254.67 113.169L1251.95 114.431ZM1146.61 152.4C1146.61 164.533 1148.29 175.058 1151.71 183.938L1154.51 182.862C1151.26 174.409 1149.61 164.267 1149.61 152.4H1146.61ZM1151.71 183.938C1155.14 192.859 1160.46 199.787 1167.67 204.644L1169.35 202.156C1162.7 197.68 1157.75 191.274 1154.51 182.862L1151.71 183.938ZM1167.68 204.652C1175.05 209.518 1184.23 211.9 1195.11 211.9V208.9C1184.66 208.9 1176.1 206.616 1169.34 202.148L1167.68 204.652ZM1195.11 211.9C1206.12 211.9 1215.24 209.521 1222.36 204.637L1220.66 202.163C1214.18 206.613 1205.7 208.9 1195.11 208.9V211.9ZM1222.35 204.644C1229.56 199.787 1234.88 192.859 1238.31 183.938L1235.51 182.862C1232.27 191.274 1227.32 197.68 1220.67 202.156L1222.35 204.644ZM1238.31 183.938C1241.73 175.058 1243.41 164.533 1243.41 152.4H1240.41C1240.41 164.267 1238.76 174.409 1235.51 182.862L1238.31 183.938ZM1243.41 152.4C1243.41 134.213 1239.64 119.791 1231.92 109.31L1229.5 111.09C1236.71 120.876 1240.41 134.587 1240.41 152.4H1243.41ZM1231.92 109.318C1224.1 98.5595 1211.78 93.3 1195.31 93.3V96.3C1211.11 96.3 1222.39 101.307 1229.5 111.082L1231.92 109.318ZM1195.31 93.3C1184.3 93.3 1175.05 95.6804 1167.68 100.548L1169.34 103.052C1176.1 98.5863 1184.72 96.3 1195.31 96.3V93.3ZM1167.69 100.545C1160.46 105.271 1155.14 112.138 1151.71 121.062L1154.51 122.138C1157.74 113.729 1162.69 107.396 1169.33 103.055L1167.69 100.545ZM1151.71 121.054C1148.29 129.806 1146.61 140.268 1146.61 152.4H1149.61C1149.61 140.532 1151.26 130.46 1154.51 122.146L1151.71 121.054ZM1405.76 224V225.5H1407.26V224H1405.76ZM1384.76 224L1383.5 224.812L1383.94 225.5H1384.76V224ZM1308.36 105.4L1309.62 104.588L1309.18 103.9H1308.36V105.4ZM1307.56 105.4V103.9H1305.97L1306.06 105.483L1307.56 105.4ZM1307.96 113.4L1306.46 113.468L1306.46 113.502L1306.47 113.536L1307.96 113.4ZM1308.56 123L1307.06 123.058L1307.06 123.06L1308.56 123ZM1308.96 133.4L1307.46 133.456L1308.96 133.4ZM1309.16 224V225.5H1310.66V224H1309.16ZM1292.56 224H1291.06V225.5H1292.56V224ZM1292.56 81.2V79.7H1291.06V81.2H1292.56ZM1313.36 81.2L1314.62 80.3872L1314.18 79.7H1313.36V81.2ZM1389.56 199.4L1388.3 200.213L1388.74 200.9H1389.56V199.4ZM1390.36 199.4V200.9H1391.99L1391.85 199.275L1390.36 199.4ZM1389.96 192.8L1388.46 192.868L1388.46 192.871L1389.96 192.8ZM1389.56 183.2L1388.06 183.256L1388.06 183.258L1389.56 183.2ZM1389.16 172.2L1387.66 172.254L1389.16 172.2ZM1388.96 81.2V79.7H1387.46V81.2H1388.96ZM1405.76 81.2H1407.26V79.7H1405.76V81.2ZM1405.76 222.5H1384.76V225.5H1405.76V222.5ZM1386.02 223.188L1309.62 104.588L1307.1 106.212L1383.5 224.812L1386.02 223.188ZM1308.36 103.9H1307.56V106.9H1308.36V103.9ZM1306.06 105.483C1306.2 107.877 1306.33 110.539 1306.46 113.468L1309.46 113.332C1309.33 110.395 1309.19 107.723 1309.06 105.317L1306.06 105.483ZM1306.47 113.536C1306.73 116.439 1306.93 119.613 1307.06 123.058L1310.06 122.942C1309.92 119.454 1309.72 116.228 1309.45 113.264L1306.47 113.536ZM1307.06 123.06C1307.19 126.392 1307.33 129.857 1307.46 133.456L1310.46 133.344C1310.33 129.743 1310.19 126.275 1310.06 122.94L1307.06 123.06ZM1307.46 133.456C1307.59 137.037 1307.66 140.619 1307.66 144.2H1310.66C1310.66 140.581 1310.59 136.963 1310.46 133.344L1307.46 133.456ZM1307.66 144.2V224H1310.66V144.2H1307.66ZM1309.16 222.5H1292.56V225.5H1309.16V222.5ZM1294.06 224V81.2H1291.06V224H1294.06ZM1292.56 82.7H1313.36V79.7H1292.56V82.7ZM1312.1 82.0127L1388.3 200.213L1390.82 198.587L1314.62 80.3872L1312.1 82.0127ZM1389.56 200.9H1390.36V197.9H1389.56V200.9ZM1391.85 199.275C1391.72 197.701 1391.59 195.522 1391.46 192.729L1388.46 192.871C1388.6 195.678 1388.73 197.899 1388.87 199.525L1391.85 199.275ZM1391.46 192.732C1391.33 189.803 1391.19 186.606 1391.06 183.142L1388.06 183.258C1388.19 186.727 1388.33 189.931 1388.46 192.868L1391.46 192.732ZM1391.06 183.144C1390.93 179.545 1390.79 175.879 1390.66 172.146L1387.66 172.254C1387.79 175.988 1387.93 179.655 1388.06 183.256L1391.06 183.144ZM1390.66 172.146C1390.53 168.428 1390.46 164.979 1390.46 161.8H1387.46C1387.46 165.02 1387.53 168.505 1387.66 172.254L1390.66 172.146ZM1390.46 161.8V81.2H1387.46V161.8H1390.46ZM1388.96 82.7H1405.76V79.7H1388.96V82.7ZM1404.26 81.2V224H1407.26V81.2H1404.26Z" fill="#D5C099"/>
<g filter="url(#filter2_i_163_12)">
<path d="M989.14 232.4C976.82 232.4 966.74 229.11 958.9 222.53C951.2 215.95 947.35 206.29 947.35 193.55C947.35 185.85 948.75 178.43 951.55 171.29C954.49 164.01 957.71 157.15 961.21 150.71C957.71 147.07 954.63 143.08 951.97 138.74C949.45 134.26 948.19 129.43 948.19 124.25C948.19 117.95 950.08 112.49 953.86 107.87C957.78 103.11 962.68 99.12 968.56 95.9C974.44 92.54 980.53 89.81 986.83 87.71C993.13 85.61 998.73 84.07 1003.63 83.09C1014.83 80.99 1026.03 79.94 1037.23 79.94H1043.95C1051.51 77.28 1059.28 75.32 1067.26 74.06C1075.24 72.8 1083.22 72.17 1091.2 72.17C1095.4 72.17 1099.6 72.38 1103.8 72.8C1108.14 73.08 1112.34 73.57 1116.4 74.27C1121.3 75.11 1125.57 77.07 1129.21 80.15C1132.85 83.23 1134.67 87.5 1134.67 92.96C1134.67 93.94 1134.39 95.48 1133.83 97.58C1133.41 99.54 1132.78 101.43 1131.94 103.25C1131.1 104.93 1130.12 105.77 1129 105.77C1127.88 105.77 1127.32 105.21 1127.32 104.09C1127.32 103.39 1128.02 102.13 1129.42 100.31C1130.82 98.49 1131.52 96.04 1131.52 92.96C1131.52 89.18 1130.54 86.17 1128.58 83.93C1126.62 81.55 1124.1 79.87 1121.02 78.89C1117.94 77.77 1114.72 77.07 1111.36 76.79C1108 76.37 1104.92 76.16 1102.12 76.16C1096.1 76.16 1090.08 76.72 1084.06 77.84C1078.18 78.82 1072.37 80.29 1066.63 82.25C1072.37 83.09 1078.6 84.42 1085.32 86.24C1092.04 87.92 1098.41 90.3 1104.43 93.38C1110.45 96.46 1115.35 100.52 1119.13 105.56C1122.91 110.46 1124.8 116.55 1124.8 123.83C1124.8 129.85 1123.61 135.87 1121.23 141.89C1118.85 147.77 1115.7 153.44 1111.78 158.9C1107.86 164.36 1103.66 169.54 1099.18 174.44C1094.7 179.2 1090.36 183.47 1086.16 187.25C1087.7 187.11 1089.8 186.83 1092.46 186.41C1095.12 185.85 1096.94 185.57 1097.92 185.57C1099.18 185.57 1099.81 186.06 1099.81 187.04C1099.81 187.74 1099.39 188.23 1098.55 188.51C1095.89 189.21 1093.16 189.7 1090.36 189.98C1087.7 190.26 1084.97 190.54 1082.17 190.82C1075.17 196.84 1067.19 202.86 1058.23 208.88C1049.27 214.9 1040.45 219.59 1031.77 222.95C1025.19 225.61 1018.19 227.85 1010.77 229.67C1003.49 231.49 996.28 232.4 989.14 232.4ZM966.04 142.73C973.74 130.69 982.91 119.77 993.55 109.97C1004.33 100.17 1016.23 92.19 1029.25 86.03C1024.91 86.17 1020.5 86.59 1016.02 87.29C1011.68 87.99 1007.27 88.9 1002.79 90.02C998.73 91 994.25 92.54 989.35 94.64C984.59 96.6 979.97 99.12 975.49 102.2C971.15 105.14 967.51 108.64 964.57 112.7C961.77 116.62 960.37 121.1 960.37 126.14C960.37 129.08 960.93 132.02 962.05 134.96C963.31 137.76 964.64 140.35 966.04 142.73ZM1070.2 187.67C1073.98 183.61 1077.97 178.78 1082.17 173.18C1086.37 167.44 1090.36 161.35 1094.14 154.91C1097.92 148.33 1101 141.82 1103.38 135.38C1105.76 128.8 1106.95 122.71 1106.95 117.11C1106.95 110.53 1105.13 105.35 1101.49 101.57C1097.99 97.79 1093.44 94.92 1087.84 92.96C1082.38 91 1076.64 89.67 1070.62 88.97C1064.6 88.13 1059.21 87.43 1054.45 86.87C1044.09 91.21 1033.94 96.81 1024 103.67C1014.06 110.53 1004.89 118.23 996.49 126.77C988.09 135.17 980.88 144.2 974.86 153.86C980.46 159.32 987.11 164.15 994.81 168.35C1002.51 172.41 1010.7 175.84 1019.38 178.64C1028.2 181.3 1036.95 183.4 1045.63 184.94C1054.31 186.34 1062.5 187.25 1070.2 187.67ZM1012.87 165.41C1012.03 165.41 1011.61 164.99 1011.61 164.15C1011.61 163.03 1012.52 161.42 1014.34 159.32C1016.16 157.08 1018.33 154.77 1020.85 152.39C1023.37 150.01 1025.82 148.05 1028.2 146.51C1030.58 144.83 1032.33 143.99 1033.45 143.99C1034.01 143.99 1034.5 144.41 1034.92 145.25C1035.62 146.37 1036.18 147.49 1036.6 148.61C1037.16 149.59 1037.93 150.64 1038.91 151.76C1039.61 152.32 1040.94 153.09 1042.9 154.07C1044.86 154.91 1045.84 155.61 1045.84 156.17C1045.84 156.59 1045.63 156.94 1045.21 157.22C1044.79 157.5 1044.44 157.78 1044.16 158.06C1043.6 158.48 1042.06 158.97 1039.54 159.53C1037.02 159.95 1034.43 160.37 1031.77 160.79C1029.25 161.07 1027.5 161.28 1026.52 161.42C1024.28 161.7 1022.18 162.26 1020.22 163.1C1018.4 163.8 1016.44 164.5 1014.34 165.2C1014.06 165.34 1013.57 165.41 1012.87 165.41ZM996.07 225.68C1005.45 225.68 1014.27 224.14 1022.53 221.06C1030.93 217.98 1038.77 213.85 1046.05 208.67C1053.47 203.35 1060.33 197.54 1066.63 191.24C1056.13 190.82 1045.14 189.35 1033.66 186.83C1022.32 184.17 1011.26 180.53 1000.48 175.91C989.7 171.29 980.04 165.83 971.5 159.53C968.56 164.85 965.9 170.73 963.52 177.17C961.14 183.61 959.95 189.91 959.95 196.07C959.95 203.07 961.63 208.81 964.99 213.29C968.49 217.63 972.97 220.78 978.43 222.74C983.89 224.7 989.77 225.68 996.07 225.68Z" fill="#D5C099"/>
</g>
<path d="M958.9 222.53L956.951 224.811L956.961 224.819L956.971 224.828L958.9 222.53ZM951.55 171.29L948.768 170.167L948.763 170.181L948.757 170.195L951.55 171.29ZM961.21 150.71L963.846 152.143L964.894 150.213L963.373 148.631L961.21 150.71ZM951.97 138.74L949.355 140.211L949.383 140.26L949.412 140.308L951.97 138.74ZM953.86 107.87L951.544 105.963L951.538 105.97L953.86 107.87ZM968.56 95.9L970.001 98.5313L970.025 98.5182L970.048 98.5047L968.56 95.9ZM986.83 87.71L985.881 84.8639H985.881L986.83 87.71ZM1003.63 83.09L1003.08 80.1414L1003.06 80.1447L1003.04 80.1483L1003.63 83.09ZM1043.95 79.94V82.94H1044.46L1044.95 82.7699L1043.95 79.94ZM1067.26 74.06L1066.79 71.0967L1067.26 74.06ZM1103.8 72.8L1103.5 75.7851L1103.55 75.7904L1103.61 75.7938L1103.8 72.8ZM1116.4 74.27L1115.89 77.2264L1115.89 77.2269L1116.4 74.27ZM1129.21 80.15L1131.15 77.8598L1129.21 80.15ZM1133.83 97.58L1130.93 96.807L1130.91 96.8788L1130.9 96.9514L1133.83 97.58ZM1131.94 103.25L1134.62 104.592L1134.64 104.55L1134.66 104.507L1131.94 103.25ZM1129.42 100.31L1131.8 102.139V102.139L1129.42 100.31ZM1128.58 83.93L1126.26 85.8371L1126.29 85.8717L1126.32 85.9055L1128.58 83.93ZM1121.02 78.89L1119.99 81.7094L1120.05 81.7302L1120.11 81.7488L1121.02 78.89ZM1111.36 76.79L1110.99 79.7668L1111.05 79.7745L1111.11 79.7796L1111.36 76.79ZM1084.06 77.84L1084.55 80.7992L1084.58 80.7945L1084.61 80.7894L1084.06 77.84ZM1066.63 82.25L1065.66 79.4109L1066.2 85.2184L1066.63 82.25ZM1085.32 86.24L1084.54 89.1357L1084.56 89.1433L1084.59 89.1504L1085.32 86.24ZM1104.43 93.38L1105.8 90.7093V90.7092L1104.43 93.38ZM1119.13 105.56L1116.73 107.36L1116.74 107.376L1116.75 107.392L1119.13 105.56ZM1121.23 141.89L1124.01 143.016L1124.02 143.004L1124.02 142.993L1121.23 141.89ZM1111.78 158.9L1114.22 160.65V160.65L1111.78 158.9ZM1099.18 174.44L1101.36 176.496L1101.38 176.48L1101.39 176.464L1099.18 174.44ZM1086.16 187.25L1084.15 185.02L1077.45 191.054L1086.43 190.238L1086.16 187.25ZM1092.46 186.41L1092.93 189.373L1093 189.361L1093.08 189.346L1092.46 186.41ZM1098.55 188.51L1099.31 191.411L1099.41 191.387L1099.5 191.356L1098.55 188.51ZM1090.36 189.98L1090.06 186.995L1090.05 186.996L1090.05 186.996L1090.36 189.98ZM1082.17 190.82L1081.87 187.835L1080.93 187.929L1080.21 188.545L1082.17 190.82ZM1058.23 208.88L1056.56 206.39L1058.23 208.88ZM1031.77 222.95L1030.69 220.152L1030.67 220.16L1030.65 220.169L1031.77 222.95ZM1010.77 229.67L1010.06 226.756L1010.04 226.76L1010.77 229.67ZM966.04 142.73L963.454 144.251L965.933 148.465L968.567 144.346L966.04 142.73ZM993.55 109.97L991.532 107.75L991.525 107.757L991.518 107.763L993.55 109.97ZM1029.25 86.03L1030.53 88.7418L1029.15 83.0316L1029.25 86.03ZM1016.02 87.29L1015.56 84.326L1015.55 84.3271L1015.54 84.3283L1016.02 87.29ZM1002.79 90.02L1003.49 92.9362L1003.51 92.9334L1003.52 92.9304L1002.79 90.02ZM989.35 94.64L990.492 97.414L990.512 97.4059L990.532 97.3974L989.35 94.64ZM975.49 102.2L977.173 104.684L977.181 104.678L977.19 104.672L975.49 102.2ZM964.57 112.7L962.14 110.94L962.134 110.948L962.129 110.956L964.57 112.7ZM962.05 134.96L959.247 136.028L959.278 136.111L959.314 136.191L962.05 134.96ZM1070.2 187.67L1070.04 190.666L1071.44 190.742L1072.4 189.714L1070.2 187.67ZM1082.17 173.18L1084.57 174.98L1084.58 174.966L1084.59 174.952L1082.17 173.18ZM1094.14 154.91L1096.73 156.429L1096.73 156.417L1096.74 156.404L1094.14 154.91ZM1103.38 135.38L1106.19 136.42L1106.2 136.41L1106.2 136.4L1103.38 135.38ZM1101.49 101.57L1099.29 103.608L1099.31 103.63L1099.33 103.651L1101.49 101.57ZM1087.84 92.96L1086.83 95.7836L1086.84 95.7876L1086.85 95.7916L1087.84 92.96ZM1070.62 88.97L1070.21 91.9412L1070.24 91.946L1070.27 91.9499L1070.62 88.97ZM1054.45 86.87L1054.8 83.8905L1054.02 83.7984L1053.29 84.103L1054.45 86.87ZM1024 103.67L1025.7 106.139L1024 103.67ZM996.49 126.77L998.611 128.891L998.62 128.883L998.629 128.874L996.49 126.77ZM974.86 153.86L972.314 152.273L971.037 154.322L972.766 156.008L974.86 153.86ZM994.81 168.35L993.373 170.984L993.392 170.994L993.411 171.004L994.81 168.35ZM1019.38 178.64L1018.46 181.495L1018.49 181.504L1018.51 181.512L1019.38 178.64ZM1045.63 184.94L1045.11 187.894L1045.13 187.898L1045.15 187.902L1045.63 184.94ZM1014.34 159.32L1016.61 161.285L1016.64 161.249L1016.67 161.212L1014.34 159.32ZM1020.85 152.39L1018.79 150.209H1018.79L1020.85 152.39ZM1028.2 146.51L1029.83 149.029L1029.88 148.996L1029.93 148.961L1028.2 146.51ZM1034.92 145.25L1032.24 146.592L1032.3 146.719L1032.38 146.84L1034.92 145.25ZM1036.6 148.61L1033.79 149.663L1033.88 149.889L1034 150.098L1036.6 148.61ZM1038.91 151.76L1036.65 153.736L1036.83 153.936L1037.04 154.103L1038.91 151.76ZM1042.9 154.07L1041.56 156.753L1041.64 156.793L1041.72 156.827L1042.9 154.07ZM1045.21 157.22L1046.87 159.716L1046.87 159.716L1045.21 157.22ZM1044.16 158.06L1045.96 160.46L1046.13 160.332L1046.28 160.181L1044.16 158.06ZM1039.54 159.53L1040.03 162.489L1040.11 162.476L1040.19 162.459L1039.54 159.53ZM1031.77 160.79L1032.1 163.772L1032.17 163.764L1032.24 163.753L1031.77 160.79ZM1026.52 161.42L1026.89 164.397L1026.92 164.394L1026.94 164.39L1026.52 161.42ZM1020.22 163.1L1021.3 165.9L1021.35 165.88L1021.4 165.857L1020.22 163.1ZM1014.34 165.2L1013.39 162.354L1013.19 162.421L1013 162.517L1014.34 165.2ZM1022.53 221.06L1021.5 218.243L1021.49 218.246L1021.48 218.249L1022.53 221.06ZM1046.05 208.67L1047.79 211.114L1047.8 211.108L1046.05 208.67ZM1066.63 191.24L1068.75 193.361L1073.6 188.516L1066.75 188.242L1066.63 191.24ZM1033.66 186.83L1032.97 189.751L1033 189.756L1033.02 189.76L1033.66 186.83ZM1000.48 175.91L1001.66 173.153L1000.48 175.91ZM971.5 159.53L973.281 157.116L970.529 155.085L968.874 158.079L971.5 159.53ZM963.52 177.17L960.706 176.13L963.52 177.17ZM964.99 213.29L962.59 215.09L962.622 215.132L962.655 215.173L964.99 213.29ZM978.43 222.74L977.416 225.564L978.43 222.74ZM989.14 229.4C977.376 229.4 968.024 226.271 960.829 220.232L956.971 224.828C965.456 231.949 976.264 235.4 989.14 235.4V229.4ZM960.849 220.249C953.982 214.381 950.35 205.657 950.35 193.55H944.35C944.35 206.923 948.418 217.519 956.951 224.811L960.849 220.249ZM950.35 193.55C950.35 186.223 951.68 179.175 954.343 172.385L948.757 170.195C945.82 177.685 944.35 185.477 944.35 193.55H950.35ZM954.332 172.413C957.232 165.232 960.404 158.476 963.846 152.143L958.574 149.277C955.016 155.824 951.748 162.788 948.768 170.167L954.332 172.413ZM963.373 148.631C960.024 145.148 957.076 141.33 954.528 137.172L949.412 140.308C952.184 144.83 955.396 148.992 959.048 152.789L963.373 148.631ZM954.585 137.269C952.319 133.242 951.19 128.919 951.19 124.25H945.19C945.19 129.941 946.581 135.278 949.355 140.211L954.585 137.269ZM951.19 124.25C951.19 118.601 952.866 113.823 956.182 109.77L951.538 105.97C947.294 111.157 945.19 117.299 945.19 124.25H951.19ZM956.176 109.777C959.833 105.337 964.427 101.584 970.001 98.5313L967.119 93.2687C960.933 96.6561 955.727 100.883 951.544 105.963L956.176 109.777ZM970.048 98.5047C975.76 95.2408 981.67 92.5923 987.779 90.556L985.881 84.8639C979.39 87.0276 973.12 89.8392 967.072 93.2953L970.048 98.5047ZM987.779 90.556C993.996 88.4835 999.472 86.9809 1004.22 86.0317L1003.04 80.1483C997.988 81.1591 992.264 82.7365 985.881 84.8639L987.779 90.556ZM1004.18 86.0386C1015.2 83.9722 1026.22 82.94 1037.23 82.94V76.94C1025.84 76.94 1014.46 78.0078 1003.08 80.1414L1004.18 86.0386ZM1037.23 82.94H1043.95V76.94H1037.23V82.94ZM1044.95 82.7699C1052.33 80.1708 1059.93 78.2551 1067.73 77.0233L1066.79 71.0967C1058.63 72.3848 1050.69 74.3892 1042.95 77.1101L1044.95 82.7699ZM1067.73 77.0233C1075.56 75.7874 1083.38 75.17 1091.2 75.17V69.17C1083.06 69.17 1074.92 69.8126 1066.79 71.0967L1067.73 77.0233ZM1091.2 75.17C1095.3 75.17 1099.4 75.375 1103.5 75.7851L1104.1 69.8149C1099.8 69.385 1095.5 69.17 1091.2 69.17V75.17ZM1103.61 75.7938C1107.85 76.0673 1111.94 76.5454 1115.89 77.2264L1116.91 71.3136C1112.74 70.5946 1108.43 70.0927 1103.99 69.8062L1103.61 75.7938ZM1115.89 77.2269C1120.29 77.9804 1124.06 79.7212 1127.27 82.4401L1131.15 77.8598C1127.08 74.4188 1122.31 72.2396 1116.91 71.3131L1115.89 77.2269ZM1127.27 82.4401C1130.14 84.8639 1131.67 88.2395 1131.67 92.96H1137.67C1137.67 86.7605 1135.56 81.5961 1131.15 77.8598L1127.27 82.4401ZM1131.67 92.96C1131.67 93.517 1131.49 94.7296 1130.93 96.807L1136.73 98.353C1137.29 96.2304 1137.67 94.363 1137.67 92.96H1131.67ZM1130.9 96.9514C1130.52 98.6948 1129.96 100.374 1129.22 101.993L1134.66 104.507C1135.6 102.486 1136.3 100.385 1136.76 98.2086L1130.9 96.9514ZM1129.26 101.908C1128.94 102.54 1128.7 102.793 1128.62 102.862C1128.59 102.888 1128.62 102.86 1128.7 102.827C1128.79 102.792 1128.89 102.77 1129 102.77V108.77C1131.89 108.77 1133.64 106.557 1134.62 104.592L1129.26 101.908ZM1129 102.77C1128.9 102.77 1129.38 102.748 1129.86 103.229C1130.34 103.71 1130.32 104.188 1130.32 104.09H1124.32C1124.32 105.112 1124.58 106.43 1125.62 107.471C1126.66 108.512 1127.98 108.77 1129 108.77V102.77ZM1130.32 104.09C1130.32 104.383 1130.25 104.532 1130.28 104.469C1130.29 104.425 1130.34 104.299 1130.47 104.077C1130.72 103.63 1131.14 102.992 1131.8 102.139L1127.04 98.4809C1126.3 99.4484 1125.67 100.35 1125.22 101.163C1124.84 101.86 1124.32 102.925 1124.32 104.09H1130.32ZM1131.8 102.139C1133.72 99.6409 1134.52 96.4771 1134.52 92.96H1128.52C1128.52 95.6029 1127.92 97.3391 1127.04 98.4809L1131.8 102.139ZM1134.52 92.96C1134.52 88.6554 1133.39 84.8764 1130.84 81.9545L1126.32 85.9055C1127.69 87.4636 1128.52 89.7046 1128.52 92.96H1134.52ZM1130.9 82.0229C1128.55 79.1747 1125.53 77.1775 1121.93 76.0312L1120.11 81.7488C1122.67 82.5625 1124.69 83.9253 1126.26 85.8371L1130.9 82.0229ZM1122.05 76.0706C1118.71 74.8571 1115.23 74.1018 1111.61 73.8004L1111.11 79.7796C1114.21 80.0382 1117.17 80.6829 1119.99 81.7094L1122.05 76.0706ZM1111.73 73.8132C1108.27 73.3808 1105.07 73.16 1102.12 73.16V79.16C1104.77 79.16 1107.73 79.3592 1110.99 79.7668L1111.73 73.8132ZM1102.12 73.16C1095.91 73.16 1089.71 73.7375 1083.51 74.8906L1084.61 80.7894C1090.45 79.7025 1096.29 79.16 1102.12 79.16V73.16ZM1083.57 74.8808C1077.52 75.8882 1071.55 77.3989 1065.66 79.4109L1067.6 85.0891C1073.19 83.1811 1078.84 81.7517 1084.55 80.7992L1083.57 74.8808ZM1066.2 85.2184C1071.8 86.0381 1077.91 87.3409 1084.54 89.1357L1086.1 83.3443C1079.29 81.4991 1072.94 80.1419 1067.06 79.2816L1066.2 85.2184ZM1084.59 89.1504C1091.1 90.7764 1097.25 93.0772 1103.06 96.0507L1105.8 90.7092C1099.57 87.5228 1092.98 85.0636 1086.05 83.3296L1084.59 89.1504ZM1103.06 96.0507C1108.71 98.9384 1113.24 102.711 1116.73 107.36L1121.53 103.76C1117.46 98.3285 1112.19 93.9815 1105.8 90.7093L1103.06 96.0507ZM1116.75 107.392C1120.06 111.679 1121.8 117.092 1121.8 123.83H1127.8C1127.8 116.008 1125.76 109.241 1121.51 103.728L1116.75 107.392ZM1121.8 123.83C1121.8 129.445 1120.69 135.092 1118.44 140.787L1124.02 142.993C1126.53 136.648 1127.8 130.255 1127.8 123.83H1121.8ZM1118.45 140.764C1116.16 146.411 1113.13 151.872 1109.34 157.15L1114.22 160.65C1118.27 155.007 1121.54 149.129 1124.01 143.016L1118.45 140.764ZM1109.34 157.15C1105.49 162.516 1101.37 167.604 1096.97 172.416L1101.39 176.464C1105.95 171.476 1110.23 166.204 1114.22 160.65L1109.34 157.15ZM1097 172.384C1092.56 177.093 1088.28 181.303 1084.15 185.02L1088.17 189.48C1092.44 185.637 1096.84 181.307 1101.36 176.496L1097 172.384ZM1086.43 190.238C1088.07 190.089 1090.24 189.797 1092.93 189.373L1091.99 183.447C1089.36 183.863 1087.33 184.131 1085.89 184.262L1086.43 190.238ZM1093.08 189.346C1095.77 188.778 1097.3 188.57 1097.92 188.57V182.57C1096.58 182.57 1094.47 182.922 1091.84 183.474L1093.08 189.346ZM1097.92 188.57C1098.24 188.57 1097.93 188.647 1097.5 188.306C1097.25 188.116 1097.06 187.86 1096.93 187.579C1096.82 187.315 1096.81 187.112 1096.81 187.04H1102.81C1102.81 185.858 1102.39 184.512 1101.18 183.569C1100.11 182.738 1098.86 182.57 1097.92 182.57V188.57ZM1096.81 187.04C1096.81 186.912 1096.83 186.732 1096.9 186.527C1096.98 186.319 1097.09 186.132 1097.22 185.98C1097.47 185.686 1097.69 185.634 1097.6 185.664L1099.5 191.356C1100.25 191.106 1101.1 190.669 1101.77 189.885C1102.49 189.048 1102.81 188.041 1102.81 187.04H1096.81ZM1097.79 185.609C1095.28 186.268 1092.71 186.73 1090.06 186.995L1090.66 192.965C1093.61 192.67 1096.5 192.152 1099.31 191.411L1097.79 185.609ZM1090.05 186.996C1087.39 187.276 1084.67 187.555 1081.87 187.835L1082.47 193.805C1085.27 193.525 1088.01 193.244 1090.67 192.964L1090.05 186.996ZM1080.21 188.545C1073.32 194.476 1065.43 200.425 1056.56 206.39L1059.9 211.37C1068.95 205.295 1077.02 199.204 1084.13 193.095L1080.21 188.545ZM1056.56 206.39C1047.75 212.305 1039.13 216.884 1030.69 220.152L1032.85 225.748C1041.77 222.296 1050.79 217.495 1059.9 211.37L1056.56 206.39ZM1030.65 220.169C1024.21 222.771 1017.35 224.968 1010.06 226.756L1011.48 232.584C1019.03 230.732 1026.17 228.449 1032.89 225.731L1030.65 220.169ZM1010.04 226.76C1002.99 228.523 996.023 229.4 989.14 229.4V235.4C996.537 235.4 1003.99 234.457 1011.5 232.58L1010.04 226.76ZM968.567 144.346C976.127 132.526 985.13 121.804 995.582 112.177L991.518 107.763C980.69 117.736 971.353 128.854 963.513 141.114L968.567 144.346ZM995.568 112.19C1006.13 102.587 1017.78 94.7736 1030.53 88.7418L1027.97 83.3182C1014.68 89.6064 1002.53 97.7531 991.532 107.75L995.568 112.19ZM1029.15 83.0316C1024.69 83.1757 1020.15 83.6078 1015.56 84.326L1016.48 90.254C1020.85 89.5722 1025.13 89.1643 1029.35 89.0284L1029.15 83.0316ZM1015.54 84.3283C1011.11 85.0425 1006.62 85.97 1002.06 87.1096L1003.52 92.9304C1007.92 91.83 1012.25 90.9375 1016.5 90.2517L1015.54 84.3283ZM1002.09 87.1038C997.825 88.1322 993.183 89.7335 988.168 91.8826L990.532 97.3974C995.317 95.3465 999.635 93.8677 1003.49 92.9362L1002.09 87.1038ZM988.208 91.866C983.241 93.911 978.435 96.5345 973.79 99.7279L977.19 104.672C981.505 101.705 985.939 99.289 990.492 97.414L988.208 91.866ZM973.807 99.7162C969.191 102.843 965.294 106.585 962.14 110.94L967 114.46C969.726 110.695 973.109 107.437 977.173 104.684L973.807 99.7162ZM962.129 110.956C958.948 115.41 957.37 120.505 957.37 126.14H963.37C963.37 121.695 964.592 117.83 967.011 114.444L962.129 110.956ZM957.37 126.14C957.37 129.47 958.006 132.771 959.247 136.028L964.853 133.892C963.854 131.269 963.37 128.69 963.37 126.14H957.37ZM959.314 136.191C960.614 139.08 961.993 141.767 963.454 144.251L968.626 141.209C967.287 138.933 966.006 136.44 964.786 133.729L959.314 136.191ZM1072.4 189.714C1076.26 185.56 1080.32 180.644 1084.57 174.98L1079.77 171.38C1075.62 176.916 1071.7 181.66 1068 185.626L1072.4 189.714ZM1084.59 174.952C1088.85 169.126 1092.9 162.951 1096.73 156.429L1091.55 153.391C1087.82 159.749 1083.89 165.754 1079.75 171.408L1084.59 174.952ZM1096.74 156.404C1100.6 149.694 1103.75 143.033 1106.19 136.42L1100.57 134.34C1098.25 140.607 1095.24 146.966 1091.54 153.416L1096.74 156.404ZM1106.2 136.4C1108.67 129.572 1109.95 123.132 1109.95 117.11H1103.95C1103.95 122.287 1102.85 128.028 1100.56 134.36L1106.2 136.4ZM1109.95 117.11C1109.95 109.961 1107.96 103.961 1103.65 99.4891L1099.33 103.651C1102.3 106.739 1103.95 111.099 1103.95 117.11H1109.95ZM1103.69 99.5318C1099.81 95.3414 1094.82 92.2255 1088.83 90.1284L1086.85 95.7916C1092.06 97.6145 1096.17 100.239 1099.29 103.608L1103.69 99.5318ZM1088.85 90.1364C1083.17 88.0956 1077.2 86.7154 1070.97 85.9901L1070.27 91.9499C1076.08 92.6246 1081.59 93.9044 1086.83 95.7836L1088.85 90.1364ZM1071.03 85.9988C1065 85.1565 1059.59 84.4536 1054.8 83.8905L1054.1 89.8494C1058.83 90.4064 1064.2 91.1034 1070.21 91.9412L1071.03 85.9988ZM1053.29 84.103C1042.73 88.5289 1032.39 94.2318 1022.3 101.201L1025.7 106.139C1035.49 99.3882 1045.45 93.8911 1055.61 89.637L1053.29 84.103ZM1022.3 101.201C1012.2 108.168 1002.89 115.99 994.351 124.666L998.629 128.874C1006.89 120.47 1015.92 112.892 1025.7 106.139L1022.3 101.201ZM994.369 124.649C985.814 133.203 978.46 142.411 972.314 152.273L977.406 155.447C983.3 145.989 990.366 137.137 998.611 128.891L994.369 124.649ZM972.766 156.008C978.584 161.681 985.462 166.668 993.373 170.984L996.247 165.716C988.758 161.632 982.336 156.959 976.954 151.712L972.766 156.008ZM993.411 171.004C1001.27 175.148 1009.62 178.644 1018.46 181.495L1020.3 175.785C1011.78 173.036 1003.75 169.672 996.209 165.696L993.411 171.004ZM1018.51 181.512C1027.44 184.205 1036.31 186.332 1045.11 187.894L1046.15 181.986C1037.59 180.468 1028.96 178.395 1020.25 175.768L1018.51 181.512ZM1045.15 187.902C1053.92 189.316 1062.22 190.239 1070.04 190.666L1070.36 184.674C1062.78 184.261 1054.7 183.364 1046.11 181.978L1045.15 187.902ZM1012.87 162.41C1012.91 162.41 1013.5 162.423 1014.05 162.974C1014.6 163.525 1014.61 164.108 1014.61 164.15H1008.61C1008.61 165.032 1008.83 166.245 1009.8 167.216C1010.77 168.187 1011.99 168.41 1012.87 168.41V162.41ZM1014.61 164.15C1014.61 164.341 1014.56 164.194 1014.9 163.579C1015.23 163.011 1015.77 162.251 1016.61 161.285L1012.07 157.355C1011.09 158.489 1010.27 159.584 1009.68 160.626C1009.12 161.621 1008.61 162.839 1008.61 164.15H1014.61ZM1016.67 161.212C1018.39 159.092 1020.47 156.878 1022.91 154.571L1018.79 150.209C1016.19 152.662 1013.93 155.068 1012.01 157.428L1016.67 161.212ZM1022.91 154.571C1025.33 152.29 1027.63 150.45 1029.83 149.029L1026.57 143.991C1024.01 145.65 1021.41 147.73 1018.79 150.209L1022.91 154.571ZM1029.93 148.961C1031.04 148.175 1031.93 147.646 1032.6 147.325C1033.32 146.976 1033.56 146.99 1033.45 146.99V140.99C1032.22 140.99 1031.02 141.424 1030 141.915C1028.92 142.434 1027.74 143.165 1026.47 144.059L1029.93 148.961ZM1033.45 146.99C1033.2 146.99 1032.96 146.942 1032.74 146.854C1032.53 146.769 1032.38 146.662 1032.29 146.583C1032.12 146.442 1032.13 146.38 1032.24 146.592L1037.6 143.908C1037.04 142.783 1035.78 140.99 1033.45 140.99V146.99ZM1032.38 146.84C1032.98 147.808 1033.45 148.749 1033.79 149.663L1039.41 147.557C1038.91 146.231 1038.26 144.932 1037.46 143.66L1032.38 146.84ZM1034 150.098C1034.68 151.297 1035.58 152.51 1036.65 153.736L1041.17 149.784C1040.28 148.77 1039.64 147.883 1039.2 147.122L1034 150.098ZM1037.04 154.103C1038.01 154.883 1039.6 155.775 1041.56 156.753L1044.24 151.387C1042.28 150.405 1041.21 149.757 1040.78 149.417L1037.04 154.103ZM1041.72 156.827C1042.63 157.217 1043.13 157.502 1043.36 157.666C1043.48 157.749 1043.41 157.722 1043.29 157.566C1043.17 157.414 1042.84 156.929 1042.84 156.17H1048.84C1048.84 155.131 1048.39 154.348 1048.02 153.882C1047.66 153.411 1047.22 153.051 1046.85 152.784C1046.1 152.248 1045.13 151.763 1044.08 151.313L1041.72 156.827ZM1042.84 156.17C1042.84 155.853 1042.93 155.509 1043.11 155.204C1043.28 154.919 1043.47 154.773 1043.55 154.724L1046.87 159.716C1047.94 159.009 1048.84 157.805 1048.84 156.17H1042.84ZM1043.55 154.724C1043 155.085 1042.49 155.487 1042.04 155.939L1046.28 160.181C1046.39 160.073 1046.58 159.915 1046.87 159.716L1043.55 154.724ZM1042.36 155.66C1042.49 155.564 1042.53 155.564 1042.36 155.635C1042.22 155.697 1042 155.78 1041.68 155.884C1041.03 156.091 1040.11 156.331 1038.89 156.601L1040.19 162.459C1041.49 162.169 1042.6 161.884 1043.49 161.601C1044.28 161.353 1045.24 161.002 1045.96 160.46L1042.36 155.66ZM1039.05 156.571C1036.54 156.989 1033.95 157.408 1031.3 157.827L1032.24 163.753C1034.91 163.332 1037.5 162.911 1040.03 162.489L1039.05 156.571ZM1031.44 157.808C1028.92 158.088 1027.13 158.303 1026.1 158.45L1026.94 164.39C1027.87 164.257 1029.58 164.052 1032.1 163.772L1031.44 157.808ZM1026.15 158.443C1023.65 158.756 1021.27 159.386 1019.04 160.343L1021.4 165.857C1023.09 165.134 1024.91 164.644 1026.89 164.397L1026.15 158.443ZM1019.14 160.3C1017.37 160.982 1015.45 161.666 1013.39 162.354L1015.29 168.046C1017.43 167.334 1019.43 166.618 1021.3 165.9L1019.14 160.3ZM1013 162.517C1013.07 162.479 1013.14 162.452 1013.19 162.434C1013.24 162.416 1013.28 162.404 1013.3 162.398C1013.35 162.384 1013.37 162.384 1013.34 162.388C1013.31 162.391 1013.26 162.397 1013.18 162.402C1013.1 162.407 1013 162.41 1012.87 162.41V168.41C1013.6 168.41 1014.72 168.365 1015.68 167.883L1013 162.517ZM996.07 228.68C1005.78 228.68 1014.96 227.084 1023.58 223.871L1021.48 218.249C1013.58 221.196 1005.12 222.68 996.07 222.68V228.68ZM1023.56 223.877C1032.21 220.705 1040.29 216.45 1047.79 211.114L1044.31 206.226C1037.25 211.25 1029.65 215.255 1021.5 218.243L1023.56 223.877ZM1047.8 211.108C1055.35 205.695 1062.33 199.78 1068.75 193.361L1064.51 189.119C1058.33 195.3 1051.59 201.005 1044.3 206.232L1047.8 211.108ZM1066.75 188.242C1056.45 187.83 1045.63 186.386 1034.3 183.9L1033.02 189.76C1044.65 192.314 1055.81 193.81 1066.51 194.238L1066.75 188.242ZM1034.35 183.909C1023.18 181.289 1012.28 177.704 1001.66 173.153L999.298 178.667C1010.24 183.356 1021.46 187.051 1032.97 189.751L1034.35 183.909ZM1001.66 173.153C991.072 168.614 981.617 163.265 973.281 157.116L969.719 161.944C978.463 168.395 988.328 173.966 999.298 178.667L1001.66 173.153ZM968.874 158.079C965.853 163.547 963.132 169.566 960.706 176.13L966.334 178.21C968.668 171.894 971.267 166.153 974.126 160.981L968.874 158.079ZM960.706 176.13C958.217 182.865 956.95 189.517 956.95 196.07H962.95C962.95 190.303 964.063 184.355 966.334 178.21L960.706 176.13ZM956.95 196.07C956.95 203.554 958.752 209.973 962.59 215.09L967.39 211.49C964.508 207.647 962.95 202.586 962.95 196.07H956.95ZM962.655 215.173C966.515 219.96 971.46 223.425 977.416 225.564L979.444 219.916C974.48 218.135 970.465 215.3 967.325 211.407L962.655 215.173ZM977.416 225.564C983.228 227.65 989.454 228.68 996.07 228.68V222.68C990.086 222.68 984.552 221.75 979.444 219.916L977.416 225.564Z" fill="#D5C099"/>
</g>
<defs>
<filter id="filter0_i_163_12" x="92.8867" y="72.17" width="1312.87" height="164.23" filterUnits="userSpaceOnUse" color-interpolation-filters="sRGB">
<feFlood flood-opacity="0" result="BackgroundImageFix"/>
<feBlend mode="normal" in="SourceGraphic" in2="BackgroundImageFix" result="shape"/>
<feColorMatrix in="SourceAlpha" type="matrix" values="0 0 0 0 0 0 0 0 0 0 0 0 0 0 0 0 0 0 127 0" result="hardAlpha"/>
<feOffset dy="4"/>
<feGaussianBlur stdDeviation="2"/>
<feComposite in2="hardAlpha" operator="arithmetic" k2="-1" k3="1"/>
<feColorMatrix type="matrix" values="0 0 0 0 1 0 0 0 0 1 0 0 0 0 1 0 0 0 1 0"/>
<feBlend mode="normal" in2="shape" result="effect1_innerShadow_163_12"/>
</filter>
<filter id="filter1_i_163_12" x="92.8867" y="79" width="1312.87" height="151" filterUnits="userSpaceOnUse" color-interpolation-filters="sRGB">
<feFlood flood-opacity="0" result="BackgroundImageFix"/>
<feBlend mode="normal" in="SourceGraphic" in2="BackgroundImageFix" result="shape"/>
<feColorMatrix in="SourceAlpha" type="matrix" values="0 0 0 0 0 0 0 0 0 0 0 0 0 0 0 0 0 0 127 0" result="hardAlpha"/>
<feOffset dy="5"/>
<feGaussianBlur stdDeviation="2"/>
<feComposite in2="hardAlpha" operator="arithmetic" k2="-1" k3="1"/>
<feColorMatrix type="matrix" values="0 0 0 0 1 0 0 0 0 1 0 0 0 0 1 0 0 0 1 0"/>
<feBlend mode="normal" in2="shape" result="effect1_innerShadow_163_12"/>
</filter>
<filter id="filter2_i_163_12" x="947.35" y="72.17" width="187.32" height="164.23" filterUnits="userSpaceOnUse" color-interpolation-filters="sRGB">
<feFlood flood-opacity="0" result="BackgroundImageFix"/>
<feBlend mode="normal" in="SourceGraphic" in2="BackgroundImageFix" result="shape"/>
<feColorMatrix in="SourceAlpha" type="matrix" values="0 0 0 0 0 0 0 0 0 0 0 0 0 0 0 0 0 0 127 0" result="hardAlpha"/>
<feOffset dy="5"/>
<feGaussianBlur stdDeviation="2"/>
<feComposite in2="hardAlpha" operator="arithmetic" k2="-1" k3="1"/>
<feColorMatrix type="matrix" values="0 0 0 0 1 0 0 0 0 1 0 0 0 0 1 0 0 0 1 0"/>
<feBlend mode="normal" in2="shape" result="effect1_innerShadow_163_12"/>
</filter>
</defs>
</svg>
