<svg width="307" height="49" viewBox="0 0 307 49" fill="none" xmlns="http://www.w3.org/2000/svg">
<g filter="url(#filter0_i_198_16)">
<path d="M2.70805 0.999997H9.30805V18.7L17.708 0.999997H24.308L16.448 16.42L24.428 43H17.528L11.948 24.28L9.30805 29.62V43H2.70805V0.999997ZM27.5518 0.999997H34.1518V43H27.5518V0.999997ZM39.0948 0.999997H48.5148L52.7148 31.06H52.8348L57.0348 0.999997H66.4548V43H60.2148V11.2H60.0948L55.2948 43H49.7748L44.9748 11.2H44.8548V43H39.0948V0.999997ZM87.0493 25.12L79.0693 0.999997H86.0893L90.5893 16.42H90.7093L95.2093 0.999997H101.629L93.6493 25.12V43H87.0493V25.12ZM113.088 43.6C109.848 43.6 107.368 42.68 105.648 40.84C103.928 39 103.068 36.4 103.068 33.04V10.96C103.068 7.6 103.928 5 105.648 3.16C107.368 1.32 109.848 0.399998 113.088 0.399998C116.328 0.399998 118.808 1.32 120.528 3.16C122.248 5 123.108 7.6 123.108 10.96V33.04C123.108 36.4 122.248 39 120.528 40.84C118.808 42.68 116.328 43.6 113.088 43.6ZM113.088 37.6C115.368 37.6 116.508 36.22 116.508 33.46V10.54C116.508 7.78 115.368 6.4 113.088 6.4C110.808 6.4 109.668 7.78 109.668 10.54V33.46C109.668 36.22 110.808 37.6 113.088 37.6ZM137.171 43.6C133.971 43.6 131.531 42.7 129.851 40.9C128.171 39.06 127.331 36.44 127.331 33.04V0.999997H133.931V33.52C133.931 34.96 134.211 36 134.771 36.64C135.371 37.28 136.211 37.6 137.291 37.6C138.371 37.6 139.191 37.28 139.751 36.64C140.351 36 140.651 34.96 140.651 33.52V0.999997H147.011V33.04C147.011 36.44 146.171 39.06 144.491 40.9C142.811 42.7 140.371 43.6 137.171 43.6ZM151.712 0.999997H159.992L166.412 26.14H166.532V0.999997H172.412V43H165.632L157.712 12.34H157.592V43H151.712V0.999997ZM186.677 43.6C183.477 43.6 181.037 42.7 179.357 40.9C177.677 39.06 176.837 36.44 176.837 33.04V10.96C176.837 7.56 177.677 4.96 179.357 3.16C181.037 1.32 183.477 0.399998 186.677 0.399998C189.877 0.399998 192.317 1.32 193.997 3.16C195.677 4.96 196.517 7.56 196.517 10.96V14.56H190.277V10.54C190.277 7.78 189.137 6.4 186.857 6.4C184.577 6.4 183.437 7.78 183.437 10.54V33.52C183.437 36.24 184.577 37.6 186.857 37.6C189.137 37.6 190.277 36.24 190.277 33.52V25.3H186.977V19.3H196.517V33.04C196.517 36.44 195.677 39.06 193.997 40.9C192.317 42.7 189.877 43.6 186.677 43.6ZM210.364 0.999997H216.964V18.1H224.044V0.999997H230.644V43H224.044V24.1H216.964V43H210.364V0.999997ZM245.1 43.6C241.86 43.6 239.38 42.68 237.66 40.84C235.94 39 235.08 36.4 235.08 33.04V10.96C235.08 7.6 235.94 5 237.66 3.16C239.38 1.32 241.86 0.399998 245.1 0.399998C248.34 0.399998 250.82 1.32 252.54 3.16C254.26 5 255.12 7.6 255.12 10.96V33.04C255.12 36.4 254.26 39 252.54 40.84C250.82 42.68 248.34 43.6 245.1 43.6ZM245.1 37.6C247.38 37.6 248.52 36.22 248.52 33.46V10.54C248.52 7.78 247.38 6.4 245.1 6.4C242.82 6.4 241.68 7.78 241.68 10.54V33.46C241.68 36.22 242.82 37.6 245.1 37.6ZM269.123 43.6C265.883 43.6 263.403 42.68 261.683 40.84C259.963 39 259.103 36.4 259.103 33.04V10.96C259.103 7.6 259.963 5 261.683 3.16C263.403 1.32 265.883 0.399998 269.123 0.399998C272.363 0.399998 274.843 1.32 276.563 3.16C278.283 5 279.143 7.6 279.143 10.96V33.04C279.143 36.4 278.283 39 276.563 40.84C274.843 42.68 272.363 43.6 269.123 43.6ZM269.123 37.6C271.403 37.6 272.543 36.22 272.543 33.46V10.54C272.543 7.78 271.403 6.4 269.123 6.4C266.843 6.4 265.703 7.78 265.703 10.54V33.46C265.703 36.22 266.843 37.6 269.123 37.6ZM283.606 0.999997H291.886L298.306 26.14H298.426V0.999997H304.306V43H297.526L289.606 12.34H289.486V43H283.606V0.999997Z" fill="#D5C099"/>
<path d="M2.70805 0.999997V-2.86102e-06H1.70805V0.999997H2.70805ZM9.30805 0.999997H10.308V-2.86102e-06H9.30805V0.999997ZM9.30805 18.7H8.30805L10.2115 19.1287L9.30805 18.7ZM17.708 0.999997V-2.86102e-06H17.0757L16.8046 0.571253L17.708 0.999997ZM24.308 0.999997L25.199 1.45413L25.9402 -2.86102e-06H24.308V0.999997ZM16.448 16.42L15.5571 15.9659L15.3749 16.3233L15.4903 16.7075L16.448 16.42ZM24.428 43V44H25.7724L25.3858 42.7125L24.428 43ZM17.528 43L16.5697 43.2857L16.7826 44H17.528V43ZM11.948 24.28L12.9064 23.9943L12.1794 21.5556L11.0516 23.8368L11.948 24.28ZM9.30805 29.62L8.41161 29.1768L8.30805 29.3863V29.62H9.30805ZM9.30805 43V44H10.308V43H9.30805ZM2.70805 43H1.70805V44H2.70805V43ZM2.70805 2H9.30805V-2.86102e-06H2.70805V2ZM8.30805 0.999997V18.7H10.308V0.999997H8.30805ZM10.2115 19.1287L18.6115 1.42874L16.8046 0.571253L8.40462 18.2713L10.2115 19.1287ZM17.708 2H24.308V-2.86102e-06H17.708V2ZM23.4171 0.545864L15.5571 15.9659L17.339 16.8741L25.199 1.45413L23.4171 0.545864ZM15.4903 16.7075L23.4703 43.2875L25.3858 42.7125L17.4058 16.1325L15.4903 16.7075ZM24.428 42H17.528V44H24.428V42ZM18.4864 42.7143L12.9064 23.9943L10.9897 24.5657L16.5697 43.2857L18.4864 42.7143ZM11.0516 23.8368L8.41161 29.1768L10.2045 30.0632L12.8445 24.7232L11.0516 23.8368ZM8.30805 29.62V43H10.308V29.62H8.30805ZM9.30805 42H2.70805V44H9.30805V42ZM3.70805 43V0.999997H1.70805V43H3.70805ZM27.5518 0.999997V-2.86102e-06H26.5518V0.999997H27.5518ZM34.1518 0.999997H35.1518V-2.86102e-06H34.1518V0.999997ZM34.1518 43V44H35.1518V43H34.1518ZM27.5518 43H26.5518V44H27.5518V43ZM27.5518 2H34.1518V-2.86102e-06H27.5518V2ZM33.1518 0.999997V43H35.1518V0.999997H33.1518ZM34.1518 42H27.5518V44H34.1518V42ZM28.5518 43V0.999997H26.5518V43H28.5518ZM39.0948 0.999997V-2.86102e-06H38.0948V0.999997H39.0948ZM48.5148 0.999997L49.5051 0.861621L49.3848 -2.86102e-06H48.5148V0.999997ZM52.7148 31.06L51.7244 31.1984L51.8448 32.06H52.7148V31.06ZM52.8348 31.06V32.06H53.7048L53.8251 31.1984L52.8348 31.06ZM57.0348 0.999997V-2.86102e-06H56.1648L56.0444 0.861621L57.0348 0.999997ZM66.4548 0.999997H67.4548V-2.86102e-06H66.4548V0.999997ZM66.4548 43V44H67.4548V43H66.4548ZM60.2148 43H59.2148V44H60.2148V43ZM60.2148 11.2H61.2148V10.2H60.2148V11.2ZM60.0948 11.2V10.2H59.2344L59.106 11.0507L60.0948 11.2ZM55.2948 43V44H56.1552L56.2836 43.1493L55.2948 43ZM49.7748 43L48.786 43.1493L48.9144 44H49.7748V43ZM44.9748 11.2L45.9636 11.0507L45.8352 10.2H44.9748V11.2ZM44.8548 11.2V10.2H43.8548V11.2H44.8548ZM44.8548 43V44H45.8548V43H44.8548ZM39.0948 43H38.0948V44H39.0948V43ZM39.0948 2H48.5148V-2.86102e-06H39.0948V2ZM47.5244 1.13837L51.7244 31.1984L53.7051 30.9216L49.5051 0.861621L47.5244 1.13837ZM52.7148 32.06H52.8348V30.06H52.7148V32.06ZM53.8251 31.1984L58.0251 1.13837L56.0444 0.861621L51.8444 30.9216L53.8251 31.1984ZM57.0348 2H66.4548V-2.86102e-06H57.0348V2ZM65.4548 0.999997V43H67.4548V0.999997H65.4548ZM66.4548 42H60.2148V44H66.4548V42ZM61.2148 43V11.2H59.2148V43H61.2148ZM60.2148 10.2H60.0948V12.2H60.2148V10.2ZM59.106 11.0507L54.306 42.8507L56.2836 43.1493L61.0836 11.3493L59.106 11.0507ZM55.2948 42H49.7748V44H55.2948V42ZM50.7636 42.8507L45.9636 11.0507L43.986 11.3493L48.786 43.1493L50.7636 42.8507ZM44.9748 10.2H44.8548V12.2H44.9748V10.2ZM43.8548 11.2V43H45.8548V11.2H43.8548ZM44.8548 42H39.0948V44H44.8548V42ZM40.0948 43V0.999997H38.0948V43H40.0948ZM87.0493 25.12H88.0493V24.9589L87.9987 24.8059L87.0493 25.12ZM79.0693 0.999997V-2.86102e-06H77.6851L78.1199 1.3141L79.0693 0.999997ZM86.0893 0.999997L87.0493 0.719854L86.8392 -2.86102e-06H86.0893V0.999997ZM90.5893 16.42L89.6293 16.7001L89.8394 17.42H90.5893V16.42ZM90.7093 16.42V17.42H91.4592L91.6693 16.7001L90.7093 16.42ZM95.2093 0.999997V-2.86102e-06H94.4594L94.2493 0.719854L95.2093 0.999997ZM101.629 0.999997L102.579 1.3141L103.013 -2.86102e-06H101.629V0.999997ZM93.6493 25.12L92.6999 24.8059L92.6493 24.9589V25.12H93.6493ZM93.6493 43V44H94.6493V43H93.6493ZM87.0493 43H86.0493V44H87.0493V43ZM87.9987 24.8059L80.0187 0.685896L78.1199 1.3141L86.0999 25.4341L87.9987 24.8059ZM79.0693 2H86.0893V-2.86102e-06H79.0693V2ZM85.1293 1.28014L89.6293 16.7001L91.5493 16.1399L87.0493 0.719854L85.1293 1.28014ZM90.5893 17.42H90.7093V15.42H90.5893V17.42ZM91.6693 16.7001L96.1693 1.28014L94.2493 0.719854L89.7493 16.1399L91.6693 16.7001ZM95.2093 2H101.629V-2.86102e-06H95.2093V2ZM100.68 0.685896L92.6999 24.8059L94.5987 25.4341L102.579 1.3141L100.68 0.685896ZM92.6493 25.12V43H94.6493V25.12H92.6493ZM93.6493 42H87.0493V44H93.6493V42ZM88.0493 43V25.12H86.0493V43H88.0493ZM105.648 40.84L106.378 40.1571L106.378 40.1571L105.648 40.84ZM105.648 3.16L106.378 3.84288L106.378 3.84288L105.648 3.16ZM120.528 3.16L119.797 3.84288L119.797 3.84288L120.528 3.16ZM120.528 40.84L119.797 40.1571L119.797 40.1571L120.528 40.84ZM113.088 42.6C110.041 42.6 107.859 41.7408 106.378 40.1571L104.917 41.5229C106.877 43.6192 109.655 44.6 113.088 44.6V42.6ZM106.378 40.1571C104.883 38.5572 104.068 36.233 104.068 33.04H102.068C102.068 36.567 102.973 39.4428 104.917 41.5229L106.378 40.1571ZM104.068 33.04V10.96H102.068V33.04H104.068ZM104.068 10.96C104.068 7.76696 104.883 5.44283 106.378 3.84288L104.917 2.47711C102.973 4.55716 102.068 7.43303 102.068 10.96H104.068ZM106.378 3.84288C107.859 2.25921 110.041 1.4 113.088 1.4V-0.600002C109.655 -0.600002 106.877 0.380783 104.917 2.47711L106.378 3.84288ZM113.088 1.4C116.135 1.4 118.317 2.25921 119.797 3.84288L121.258 2.47711C119.299 0.380782 116.521 -0.600002 113.088 -0.600002V1.4ZM119.797 3.84288C121.293 5.44283 122.108 7.76696 122.108 10.96H124.108C124.108 7.43303 123.203 4.55716 121.258 2.47711L119.797 3.84288ZM122.108 10.96V33.04H124.108V10.96H122.108ZM122.108 33.04C122.108 36.233 121.293 38.5572 119.797 40.1571L121.258 41.5229C123.203 39.4428 124.108 36.567 124.108 33.04H122.108ZM119.797 40.1571C118.317 41.7408 116.135 42.6 113.088 42.6V44.6C116.521 44.6 119.299 43.6192 121.258 41.5229L119.797 40.1571ZM113.088 38.6C114.438 38.6 115.614 38.1823 116.424 37.2019C117.204 36.258 117.508 34.9526 117.508 33.46H115.508C115.508 34.7274 115.242 35.492 114.882 35.9281C114.552 36.3277 114.018 36.6 113.088 36.6V38.6ZM117.508 33.46V10.54H115.508V33.46H117.508ZM117.508 10.54C117.508 9.04738 117.204 7.74196 116.424 6.79812C115.614 5.81769 114.438 5.4 113.088 5.4V7.4C114.018 7.4 114.552 7.67231 114.882 8.07188C115.242 8.50804 115.508 9.27261 115.508 10.54H117.508ZM113.088 5.4C111.738 5.4 110.562 5.81769 109.752 6.79812C108.972 7.74196 108.668 9.04738 108.668 10.54H110.668C110.668 9.27261 110.934 8.50804 111.294 8.07188C111.624 7.67231 112.158 7.4 113.088 7.4V5.4ZM108.668 10.54V33.46H110.668V10.54H108.668ZM108.668 33.46C108.668 34.9526 108.972 36.258 109.752 37.2019C110.562 38.1823 111.738 38.6 113.088 38.6V36.6C112.158 36.6 111.624 36.3277 111.294 35.9281C110.934 35.492 110.668 34.7274 110.668 33.46H108.668ZM129.851 40.9L129.113 41.5743L129.12 41.5823L129.851 40.9ZM127.331 0.999997V-2.86102e-06H126.331V0.999997H127.331ZM133.931 0.999997H134.931V-2.86102e-06H133.931V0.999997ZM134.771 36.64L134.019 37.2985L134.03 37.3114L134.042 37.3239L134.771 36.64ZM139.751 36.64L139.022 35.9561L139.01 35.9686L138.999 35.9815L139.751 36.64ZM140.651 0.999997V-2.86102e-06H139.651V0.999997H140.651ZM147.011 0.999997H148.011V-2.86102e-06H147.011V0.999997ZM144.491 40.9L145.222 41.5824L145.23 41.5743L144.491 40.9ZM137.171 42.6C134.161 42.6 132.021 41.7589 130.582 40.2177L129.12 41.5823C131.042 43.6411 133.782 44.6 137.171 44.6V42.6ZM130.59 40.2257C129.131 38.6282 128.331 36.2824 128.331 33.04H126.331C126.331 36.5976 127.211 39.4918 129.113 41.5743L130.59 40.2257ZM128.331 33.04V0.999997H126.331V33.04H128.331ZM127.331 2H133.931V-2.86102e-06H127.331V2ZM132.931 0.999997V33.52H134.931V0.999997H132.931ZM132.931 33.52C132.931 35.0475 133.221 36.3863 134.019 37.2985L135.524 35.9815C135.202 35.6137 134.931 34.8725 134.931 33.52H132.931ZM134.042 37.3239C134.873 38.2107 136.003 38.6 137.291 38.6V36.6C136.419 36.6 135.87 36.3493 135.501 35.9561L134.042 37.3239ZM137.291 38.6C138.576 38.6 139.705 38.2114 140.504 37.2985L138.999 35.9815C138.678 36.3486 138.167 36.6 137.291 36.6V38.6ZM140.481 37.3239C141.337 36.4107 141.651 35.0604 141.651 33.52H139.651C139.651 34.8596 139.366 35.5893 139.022 35.9561L140.481 37.3239ZM141.651 33.52V0.999997H139.651V33.52H141.651ZM140.651 2H147.011V-2.86102e-06H140.651V2ZM146.011 0.999997V33.04H148.011V0.999997H146.011ZM146.011 33.04C146.011 36.2824 145.211 38.6282 143.753 40.2257L145.23 41.5743C147.131 39.4918 148.011 36.5976 148.011 33.04H146.011ZM143.76 40.2177C142.322 41.7589 140.182 42.6 137.171 42.6V44.6C140.561 44.6 143.301 43.6411 145.222 41.5823L143.76 40.2177ZM151.712 0.999997V-2.86102e-06H150.712V0.999997H151.712ZM159.992 0.999997L160.961 0.752568L160.769 -2.86102e-06H159.992V0.999997ZM166.412 26.14L165.443 26.3874L165.635 27.14H166.412V26.14ZM166.532 26.14V27.14H167.532V26.14H166.532ZM166.532 0.999997V-2.86102e-06H165.532V0.999997H166.532ZM172.412 0.999997H173.412V-2.86102e-06H172.412V0.999997ZM172.412 43V44H173.412V43H172.412ZM165.632 43L164.664 43.2501L164.857 44H165.632V43ZM157.712 12.34L158.68 12.0899L158.486 11.34H157.712V12.34ZM157.592 12.34V11.34H156.592V12.34H157.592ZM157.592 43V44H158.592V43H157.592ZM151.712 43H150.712V44H151.712V43ZM151.712 2H159.992V-2.86102e-06H151.712V2ZM159.023 1.24743L165.443 26.3874L167.381 25.8926L160.961 0.752568L159.023 1.24743ZM166.412 27.14H166.532V25.14H166.412V27.14ZM167.532 26.14V0.999997H165.532V26.14H167.532ZM166.532 2H172.412V-2.86102e-06H166.532V2ZM171.412 0.999997V43H173.412V0.999997H171.412ZM172.412 42H165.632V44H172.412V42ZM166.6 42.7499L158.68 12.0899L156.744 12.5901L164.664 43.2501L166.6 42.7499ZM157.712 11.34H157.592V13.34H157.712V11.34ZM156.592 12.34V43H158.592V12.34H156.592ZM157.592 42H151.712V44H157.592V42ZM152.712 43V0.999997H150.712V43H152.712ZM179.357 40.9L178.619 41.5743L178.626 41.5823L179.357 40.9ZM179.357 3.16L180.089 3.84236L180.096 3.83427L179.357 3.16ZM193.997 3.16L193.259 3.83431L193.266 3.84232L193.997 3.16ZM196.517 14.56V15.56H197.517V14.56H196.517ZM190.277 14.56H189.277V15.56H190.277V14.56ZM190.277 25.3H191.277V24.3H190.277V25.3ZM186.977 25.3H185.977V26.3H186.977V25.3ZM186.977 19.3V18.3H185.977V19.3H186.977ZM196.517 19.3H197.517V18.3H196.517V19.3ZM193.997 40.9L194.729 41.5824L194.736 41.5743L193.997 40.9ZM186.677 42.6C183.667 42.6 181.527 41.7589 180.088 40.2177L178.626 41.5823C180.548 43.6411 183.288 44.6 186.677 44.6V42.6ZM180.096 40.2257C178.637 38.6282 177.837 36.2824 177.837 33.04H175.837C175.837 36.5976 176.718 39.4918 178.619 41.5743L180.096 40.2257ZM177.837 33.04V10.96H175.837V33.04H177.837ZM177.837 10.96C177.837 7.71589 178.638 5.39648 180.088 3.84232L178.626 2.47768C176.717 4.52352 175.837 7.4041 175.837 10.96H177.837ZM180.096 3.83427C181.536 2.2571 183.674 1.4 186.677 1.4V-0.600002C183.281 -0.600002 180.539 0.382895 178.619 2.48573L180.096 3.83427ZM186.677 1.4C189.681 1.4 191.819 2.2571 193.259 3.83427L194.736 2.48573C192.816 0.382895 190.074 -0.600002 186.677 -0.600002V1.4ZM193.266 3.84232C194.717 5.39648 195.517 7.71589 195.517 10.96H197.517C197.517 7.4041 196.638 4.52352 194.728 2.47768L193.266 3.84232ZM195.517 10.96V14.56H197.517V10.96H195.517ZM196.517 13.56H190.277V15.56H196.517V13.56ZM191.277 14.56V10.54H189.277V14.56H191.277ZM191.277 10.54C191.277 9.04738 190.973 7.74196 190.193 6.79812C189.383 5.81769 188.207 5.4 186.857 5.4V7.4C187.788 7.4 188.321 7.67231 188.651 8.07188C189.012 8.50804 189.277 9.27261 189.277 10.54H191.277ZM186.857 5.4C185.508 5.4 184.331 5.81769 183.521 6.79812C182.742 7.74196 182.437 9.04738 182.437 10.54H184.437C184.437 9.27261 184.703 8.50804 185.063 8.07188C185.393 7.67231 185.927 7.4 186.857 7.4V5.4ZM182.437 10.54V33.52H184.437V10.54H182.437ZM182.437 33.52C182.437 34.9953 182.743 36.2881 183.526 37.2224C184.338 38.1905 185.512 38.6 186.857 38.6V36.6C185.922 36.6 185.387 36.3295 185.059 35.9376C184.702 35.5119 184.437 34.7647 184.437 33.52H182.437ZM186.857 38.6C188.202 38.6 189.377 38.1905 190.189 37.2224C190.972 36.2881 191.277 34.9953 191.277 33.52H189.277C189.277 34.7647 189.013 35.5119 188.656 35.9376C188.328 36.3295 187.792 36.6 186.857 36.6V38.6ZM191.277 33.52V25.3H189.277V33.52H191.277ZM190.277 24.3H186.977V26.3H190.277V24.3ZM187.977 25.3V19.3H185.977V25.3H187.977ZM186.977 20.3H196.517V18.3H186.977V20.3ZM195.517 19.3V33.04H197.517V19.3H195.517ZM195.517 33.04C195.517 36.2824 194.718 38.6282 193.259 40.2257L194.736 41.5743C196.637 39.4918 197.517 36.5976 197.517 33.04H195.517ZM193.266 40.2177C191.828 41.7589 189.688 42.6 186.677 42.6V44.6C190.067 44.6 192.807 43.6411 194.728 41.5823L193.266 40.2177ZM210.364 0.999997V-2.86102e-06H209.364V0.999997H210.364ZM216.964 0.999997H217.964V-2.86102e-06H216.964V0.999997ZM216.964 18.1H215.964V19.1H216.964V18.1ZM224.044 18.1V19.1H225.044V18.1H224.044ZM224.044 0.999997V-2.86102e-06H223.044V0.999997H224.044ZM230.644 0.999997H231.644V-2.86102e-06H230.644V0.999997ZM230.644 43V44H231.644V43H230.644ZM224.044 43H223.044V44H224.044V43ZM224.044 24.1H225.044V23.1H224.044V24.1ZM216.964 24.1V23.1H215.964V24.1H216.964ZM216.964 43V44H217.964V43H216.964ZM210.364 43H209.364V44H210.364V43ZM210.364 2H216.964V-2.86102e-06H210.364V2ZM215.964 0.999997V18.1H217.964V0.999997H215.964ZM216.964 19.1H224.044V17.1H216.964V19.1ZM225.044 18.1V0.999997H223.044V18.1H225.044ZM224.044 2H230.644V-2.86102e-06H224.044V2ZM229.644 0.999997V43H231.644V0.999997H229.644ZM230.644 42H224.044V44H230.644V42ZM225.044 43V24.1H223.044V43H225.044ZM224.044 23.1H216.964V25.1H224.044V23.1ZM215.964 24.1V43H217.964V24.1H215.964ZM216.964 42H210.364V44H216.964V42ZM211.364 43V0.999997H209.364V43H211.364ZM237.66 40.84L238.39 40.1571L238.39 40.1571L237.66 40.84ZM237.66 3.16L238.39 3.84288L238.39 3.84288L237.66 3.16ZM252.54 3.16L251.809 3.84288L251.809 3.84288L252.54 3.16ZM252.54 40.84L251.809 40.1571L251.809 40.1571L252.54 40.84ZM245.1 42.6C242.053 42.6 239.871 41.7408 238.39 40.1571L236.929 41.5229C238.889 43.6192 241.667 44.6 245.1 44.6V42.6ZM238.39 40.1571C236.895 38.5572 236.08 36.233 236.08 33.04H234.08C234.08 36.567 234.985 39.4428 236.929 41.5229L238.39 40.1571ZM236.08 33.04V10.96H234.08V33.04H236.08ZM236.08 10.96C236.08 7.76696 236.895 5.44283 238.39 3.84288L236.929 2.47711C234.985 4.55716 234.08 7.43303 234.08 10.96H236.08ZM238.39 3.84288C239.871 2.25921 242.053 1.4 245.1 1.4V-0.600002C241.667 -0.600002 238.889 0.380783 236.929 2.47711L238.39 3.84288ZM245.1 1.4C248.147 1.4 250.329 2.25921 251.809 3.84288L253.27 2.47711C251.311 0.380782 248.533 -0.600002 245.1 -0.600002V1.4ZM251.809 3.84288C253.305 5.44283 254.12 7.76696 254.12 10.96H256.12C256.12 7.43303 255.215 4.55716 253.27 2.47711L251.809 3.84288ZM254.12 10.96V33.04H256.12V10.96H254.12ZM254.12 33.04C254.12 36.233 253.305 38.5572 251.809 40.1571L253.27 41.5229C255.215 39.4428 256.12 36.567 256.12 33.04H254.12ZM251.809 40.1571C250.329 41.7408 248.147 42.6 245.1 42.6V44.6C248.533 44.6 251.311 43.6192 253.27 41.5229L251.809 40.1571ZM245.1 38.6C246.449 38.6 247.626 38.1823 248.436 37.2019C249.215 36.258 249.52 34.9526 249.52 33.46H247.52C247.52 34.7274 247.254 35.492 246.894 35.9281C246.564 36.3277 246.03 36.6 245.1 36.6V38.6ZM249.52 33.46V10.54H247.52V33.46H249.52ZM249.52 10.54C249.52 9.04738 249.215 7.74196 248.436 6.79812C247.626 5.81769 246.449 5.4 245.1 5.4V7.4C246.03 7.4 246.564 7.67231 246.894 8.07188C247.254 8.50804 247.52 9.27261 247.52 10.54H249.52ZM245.1 5.4C243.75 5.4 242.574 5.81769 241.764 6.79812C240.984 7.74196 240.68 9.04738 240.68 10.54H242.68C242.68 9.27261 242.945 8.50804 243.306 8.07188C243.636 7.67231 244.169 7.4 245.1 7.4V5.4ZM240.68 10.54V33.46H242.68V10.54H240.68ZM240.68 33.46C240.68 34.9526 240.984 36.258 241.764 37.2019C242.574 38.1823 243.75 38.6 245.1 38.6V36.6C244.169 36.6 243.636 36.3277 243.306 35.9281C242.945 35.492 242.68 34.7274 242.68 33.46H240.68ZM261.683 40.84L262.414 40.1571L262.414 40.1571L261.683 40.84ZM261.683 3.16L262.414 3.84288L262.414 3.84288L261.683 3.16ZM276.563 3.16L275.833 3.84288L275.833 3.84288L276.563 3.16ZM276.563 40.84L275.833 40.1571L275.833 40.1571L276.563 40.84ZM269.123 42.6C266.076 42.6 263.894 41.7408 262.414 40.1571L260.953 41.5229C262.912 43.6192 265.69 44.6 269.123 44.6V42.6ZM262.414 40.1571C260.918 38.5572 260.103 36.233 260.103 33.04H258.103C258.103 36.567 259.008 39.4428 260.953 41.5229L262.414 40.1571ZM260.103 33.04V10.96H258.103V33.04H260.103ZM260.103 10.96C260.103 7.76696 260.918 5.44283 262.414 3.84288L260.953 2.47711C259.008 4.55716 258.103 7.43303 258.103 10.96H260.103ZM262.414 3.84288C263.894 2.25921 266.076 1.4 269.123 1.4V-0.600002C265.69 -0.600002 262.912 0.380783 260.953 2.47711L262.414 3.84288ZM269.123 1.4C272.17 1.4 274.352 2.25921 275.833 3.84288L277.294 2.47711C275.334 0.380782 272.556 -0.600002 269.123 -0.600002V1.4ZM275.833 3.84288C277.328 5.44283 278.143 7.76696 278.143 10.96H280.143C280.143 7.43303 279.238 4.55716 277.294 2.47711L275.833 3.84288ZM278.143 10.96V33.04H280.143V10.96H278.143ZM278.143 33.04C278.143 36.233 277.328 38.5572 275.833 40.1571L277.294 41.5229C279.238 39.4428 280.143 36.567 280.143 33.04H278.143ZM275.833 40.1571C274.352 41.7408 272.17 42.6 269.123 42.6V44.6C272.556 44.6 275.334 43.6192 277.294 41.5229L275.833 40.1571ZM269.123 38.6C270.473 38.6 271.649 38.1823 272.459 37.2019C273.239 36.258 273.543 34.9526 273.543 33.46H271.543C271.543 34.7274 271.277 35.492 270.917 35.9281C270.587 36.3277 270.053 36.6 269.123 36.6V38.6ZM273.543 33.46V10.54H271.543V33.46H273.543ZM273.543 10.54C273.543 9.04738 273.239 7.74196 272.459 6.79812C271.649 5.81769 270.473 5.4 269.123 5.4V7.4C270.053 7.4 270.587 7.67231 270.917 8.07188C271.277 8.50804 271.543 9.27261 271.543 10.54H273.543ZM269.123 5.4C267.773 5.4 266.597 5.81769 265.787 6.79812C265.007 7.74196 264.703 9.04738 264.703 10.54H266.703C266.703 9.27261 266.969 8.50804 267.329 8.07188C267.659 7.67231 268.193 7.4 269.123 7.4V5.4ZM264.703 10.54V33.46H266.703V10.54H264.703ZM264.703 33.46C264.703 34.9526 265.007 36.258 265.787 37.2019C266.597 38.1823 267.773 38.6 269.123 38.6V36.6C268.193 36.6 267.659 36.3277 267.329 35.9281C266.969 35.492 266.703 34.7274 266.703 33.46H264.703ZM283.606 0.999997V-2.86102e-06H282.606V0.999997H283.606ZM291.886 0.999997L292.855 0.752568L292.663 -2.86102e-06H291.886V0.999997ZM298.306 26.14L297.338 26.3874L297.53 27.14H298.306V26.14ZM298.426 26.14V27.14H299.426V26.14H298.426ZM298.426 0.999997V-2.86102e-06H297.426V0.999997H298.426ZM304.306 0.999997H305.306V-2.86102e-06H304.306V0.999997ZM304.306 43V44H305.306V43H304.306ZM297.526 43L296.558 43.2501L296.752 44H297.526V43ZM289.606 12.34L290.575 12.0899L290.381 11.34H289.606V12.34ZM289.486 12.34V11.34H288.486V12.34H289.486ZM289.486 43V44H290.486V43H289.486ZM283.606 43H282.606V44H283.606V43ZM283.606 2H291.886V-2.86102e-06H283.606V2ZM290.918 1.24743L297.338 26.3874L299.275 25.8926L292.855 0.752568L290.918 1.24743ZM298.306 27.14H298.426V25.14H298.306V27.14ZM299.426 26.14V0.999997H297.426V26.14H299.426ZM298.426 2H304.306V-2.86102e-06H298.426V2ZM303.306 0.999997V43H305.306V0.999997H303.306ZM304.306 42H297.526V44H304.306V42ZM298.495 42.7499L290.575 12.0899L288.638 12.5901L296.558 43.2501L298.495 42.7499ZM289.606 11.34H289.486V13.34H289.606V11.34ZM288.486 12.34V43H290.486V12.34H288.486ZM289.486 42H283.606V44H289.486V42ZM284.606 43V0.999997H282.606V43H284.606Z" fill="#D5C099"/>
</g>
<defs>
<filter id="filter0_i_198_16" x="2.70801" y="0.399994" width="301.599" height="47.2" filterUnits="userSpaceOnUse" color-interpolation-filters="sRGB">
<feFlood flood-opacity="0" result="BackgroundImageFix"/>
<feBlend mode="normal" in="SourceGraphic" in2="BackgroundImageFix" result="shape"/>
<feColorMatrix in="SourceAlpha" type="matrix" values="0 0 0 0 0 0 0 0 0 0 0 0 0 0 0 0 0 0 127 0" result="hardAlpha"/>
<feOffset dy="4"/>
<feGaussianBlur stdDeviation="2"/>
<feComposite in2="hardAlpha" operator="arithmetic" k2="-1" k3="1"/>
<feColorMatrix type="matrix" values="0 0 0 0 1 0 0 0 0 1 0 0 0 0 1 0 0 0 1 0"/>
<feBlend mode="normal" in2="shape" result="effect1_innerShadow_198_16"/>
</filter>
</defs>
</svg>
