<svg width="132" height="47" viewBox="0 0 132 47" fill="none" xmlns="http://www.w3.org/2000/svg">
<g filter="url(#filter0_i_198_14)">
<path d="M8.8933 37.448C6.50397 37.448 4.6821 36.776 3.4277 35.432C2.1733 34.0581 1.5461 32.1019 1.5461 29.5632V28.9808H6.2053V29.8768C6.2053 31.9376 7.0565 32.968 8.7589 32.968C9.68477 32.968 10.3717 32.6843 10.8197 32.1168C11.2677 31.5493 11.4917 30.5488 11.4917 29.1152V23.112H11.4021C10.536 24.9339 9.04264 25.8448 6.9221 25.8448C5.1301 25.8448 3.77117 25.2325 2.8453 24.008C1.91944 22.7835 1.4565 21.0064 1.4565 18.6768V13.0768C1.4565 10.568 2.09864 8.62667 3.3829 7.2528C4.66717 5.87893 6.5189 5.192 8.9381 5.192C11.3573 5.192 13.209 5.87893 14.4933 7.2528C15.7776 8.62667 16.4197 10.568 16.4197 13.0768V29.2944C16.4197 34.7301 13.9109 37.448 8.8933 37.448ZM8.9381 21.3648C10.6405 21.3648 11.4917 20.3344 11.4917 18.2736V12.7184C11.4917 10.6875 10.6405 9.672 8.9381 9.672C7.2357 9.672 6.3845 10.6875 6.3845 12.7184V18.2736C6.3845 20.3344 7.2357 21.3648 8.9381 21.3648ZM29.5188 10.12H19.5732V5.64H34.3572V9.9408L26.6516 37H21.634L29.5188 10.12ZM37.1075 19.08H46.9635V23.56H37.1075V19.08ZM57.0225 37.448C54.6033 37.448 52.7516 36.7611 51.4673 35.3872C50.183 34.0133 49.5409 32.072 49.5409 29.5632V13.0768C49.5409 10.568 50.183 8.62667 51.4673 7.2528C52.7516 5.87893 54.6033 5.192 57.0225 5.192C59.4417 5.192 61.2934 5.87893 62.5777 7.2528C63.862 8.62667 64.5041 10.568 64.5041 13.0768V29.5632C64.5041 32.072 63.862 34.0133 62.5777 35.3872C61.2934 36.7611 59.4417 37.448 57.0225 37.448ZM57.0225 32.968C58.7249 32.968 59.5761 31.9376 59.5761 29.8768V12.7632C59.5761 10.7024 58.7249 9.672 57.0225 9.672C55.3201 9.672 54.4689 10.7024 54.4689 12.7632V29.8768C54.4689 31.9376 55.3201 32.968 57.0225 32.968ZM74.96 37.448C72.4811 37.448 70.5696 36.7909 69.2256 35.4768C67.9115 34.1328 67.2544 32.2064 67.2544 29.6976V26.92C67.2544 25.3669 67.5083 24.0677 68.016 23.0224C68.5237 21.9472 69.3451 21.1109 70.48 20.5136V20.424C69.4347 19.8565 68.6581 19.08 68.1504 18.0944C67.6725 17.0789 67.4336 15.7947 67.4336 14.2416V12.9424C67.4336 10.4336 68.0757 8.52213 69.36 7.208C70.6741 5.864 72.5408 5.192 74.96 5.192C77.3792 5.192 79.2309 5.864 80.5152 7.208C81.8293 8.52213 82.4864 10.4336 82.4864 12.9424V14.2416C82.4864 17.2283 81.4709 19.2891 79.44 20.424V20.5136C80.5749 21.1109 81.3963 21.9472 81.904 23.0224C82.4117 24.0677 82.6656 25.3669 82.6656 26.92V29.6976C82.6656 32.2064 81.9936 34.1328 80.6496 35.4768C79.3355 36.7909 77.4389 37.448 74.96 37.448ZM74.96 18.408C76.6923 18.408 77.5584 17.3627 77.5584 15.272V12.808C77.5584 10.7173 76.6923 9.672 74.96 9.672C73.2277 9.672 72.3616 10.7173 72.3616 12.808V15.272C72.3616 17.3627 73.2277 18.408 74.96 18.408ZM74.96 32.968C76.8117 32.968 77.7376 31.7883 77.7376 29.4288V26.4272C77.7376 24.0677 76.8117 22.888 74.96 22.888C73.1083 22.888 72.1824 24.0677 72.1824 26.4272V29.4288C72.1824 31.7883 73.1083 32.968 74.96 32.968ZM85.0575 19.08H94.9135V23.56H85.0575V19.08ZM104.973 37.448C102.553 37.448 100.702 36.7611 99.4173 35.3872C98.133 34.0133 97.4909 32.072 97.4909 29.5632V13.0768C97.4909 10.568 98.133 8.62667 99.4173 7.2528C100.702 5.87893 102.553 5.192 104.973 5.192C107.392 5.192 109.243 5.87893 110.528 7.2528C111.812 8.62667 112.454 10.568 112.454 13.0768V29.5632C112.454 32.072 111.812 34.0133 110.528 35.3872C109.243 36.7611 107.392 37.448 104.973 37.448ZM104.973 32.968C106.675 32.968 107.526 31.9376 107.526 29.8768V12.7632C107.526 10.7024 106.675 9.672 104.973 9.672C103.27 9.672 102.419 10.7024 102.419 12.7632V29.8768C102.419 31.9376 103.27 32.968 104.973 32.968ZM122.91 37.448C120.431 37.448 118.52 36.7909 117.176 35.4768C115.861 34.1328 115.204 32.2064 115.204 29.6976V26.92C115.204 25.3669 115.458 24.0677 115.966 23.0224C116.474 21.9472 117.295 21.1109 118.43 20.5136V20.424C117.385 19.8565 116.608 19.08 116.1 18.0944C115.623 17.0789 115.384 15.7947 115.384 14.2416V12.9424C115.384 10.4336 116.026 8.52213 117.31 7.208C118.624 5.864 120.491 5.192 122.91 5.192C125.329 5.192 127.181 5.864 128.465 7.208C129.779 8.52213 130.436 10.4336 130.436 12.9424V14.2416C130.436 17.2283 129.421 19.2891 127.39 20.424V20.5136C128.525 21.1109 129.346 21.9472 129.854 23.0224C130.362 24.0677 130.616 25.3669 130.616 26.92V29.6976C130.616 32.2064 129.944 34.1328 128.6 35.4768C127.285 36.7909 125.389 37.448 122.91 37.448ZM122.91 18.408C124.642 18.408 125.508 17.3627 125.508 15.272V12.808C125.508 10.7173 124.642 9.672 122.91 9.672C121.178 9.672 120.312 10.7173 120.312 12.808V15.272C120.312 17.3627 121.178 18.408 122.91 18.408ZM122.91 32.968C124.762 32.968 125.688 31.7883 125.688 29.4288V26.4272C125.688 24.0677 124.762 22.888 122.91 22.888C121.058 22.888 120.132 24.0677 120.132 26.4272V29.4288C120.132 31.7883 121.058 32.968 122.91 32.968Z" fill="#D5C099"/>
</g>
<defs>
<filter id="filter0_i_198_14" x="1.45605" y="5.19199" width="129.159" height="36.256" filterUnits="userSpaceOnUse" color-interpolation-filters="sRGB">
<feFlood flood-opacity="0" result="BackgroundImageFix"/>
<feBlend mode="normal" in="SourceGraphic" in2="BackgroundImageFix" result="shape"/>
<feColorMatrix in="SourceAlpha" type="matrix" values="0 0 0 0 0 0 0 0 0 0 0 0 0 0 0 0 0 0 127 0" result="hardAlpha"/>
<feOffset dy="4"/>
<feGaussianBlur stdDeviation="2"/>
<feComposite in2="hardAlpha" operator="arithmetic" k2="-1" k3="1"/>
<feColorMatrix type="matrix" values="0 0 0 0 1 0 0 0 0 1 0 0 0 0 1 0 0 0 1 0"/>
<feBlend mode="normal" in2="shape" result="effect1_innerShadow_198_14"/>
</filter>
</defs>
</svg>
