<svg width="146" height="47" viewBox="0 0 146 47" fill="none" xmlns="http://www.w3.org/2000/svg">
<g filter="url(#filter0_i_198_18)">
<path d="M8.50883 37.448C6.11949 37.448 4.31256 36.776 3.08802 35.432C1.86349 34.0581 1.25123 32.1019 1.25123 29.5632V27.7712H5.91042V29.9216C5.91042 31.9525 6.76163 32.968 8.46403 32.968C9.30029 32.968 9.92749 32.7291 10.3456 32.2512C10.7936 31.7435 11.0176 30.9371 11.0176 29.832C11.0176 28.5179 10.719 27.368 10.1216 26.3824C9.52429 25.3669 8.41923 24.1573 6.80643 22.7536C4.77549 20.9616 3.35683 19.3488 2.55043 17.9152C1.74403 16.4517 1.34082 14.8091 1.34082 12.9872C1.34082 10.5083 1.96802 8.5968 3.22242 7.2528C4.47683 5.87893 6.29869 5.192 8.68803 5.192C11.0475 5.192 12.8246 5.87893 14.0192 7.2528C15.2438 8.5968 15.856 10.5381 15.856 13.0768V14.376H11.1968V12.7632C11.1968 11.688 10.9878 10.9115 10.5696 10.4336C10.1515 9.92587 9.53923 9.672 8.73283 9.672C7.09016 9.672 6.26883 10.6725 6.26883 12.6736C6.26883 13.8085 6.56749 14.8688 7.16483 15.8544C7.79203 16.84 8.91203 18.0347 10.5248 19.4384C12.5856 21.2304 14.0043 22.8581 14.7808 24.3216C15.5574 25.7851 15.9456 27.5024 15.9456 29.4736C15.9456 32.0421 15.3035 34.0133 14.0192 35.3872C12.7648 36.7611 10.928 37.448 8.50883 37.448ZM25.9392 37.448C23.5498 37.448 21.728 36.776 20.4736 35.432C19.2192 34.0581 18.592 32.1019 18.592 29.5632V5.64H23.52V29.9216C23.52 30.9968 23.729 31.7733 24.1472 32.2512C24.5952 32.7291 25.2224 32.968 26.0288 32.968C26.8352 32.968 27.4474 32.7291 27.8656 32.2512C28.3136 31.7733 28.5376 30.9968 28.5376 29.9216V5.64H33.2864V29.5632C33.2864 32.1019 32.6592 34.0581 31.4048 35.432C30.1504 36.776 28.3285 37.448 25.9392 37.448ZM36.7962 5.64H44.233C46.7716 5.64 48.6234 6.23733 49.7882 7.432C50.953 8.5968 51.5354 10.4037 51.5354 12.8528V14.1072C51.5354 15.72 51.2666 17.0341 50.729 18.0496C50.2212 19.0651 49.4298 19.7968 48.3546 20.2448V20.3344C50.8036 21.1707 52.0282 23.3509 52.0282 26.8752V29.5632C52.0282 31.9824 51.386 33.8341 50.1018 35.1184C48.8474 36.3728 46.9956 37 44.5466 37H36.7962V5.64ZM43.6506 18.408C44.6362 18.408 45.3679 18.1541 45.8458 17.6464C46.3535 17.1387 46.6074 16.2875 46.6074 15.0928V13.3456C46.6074 12.2107 46.3983 11.3893 45.9802 10.8816C45.5919 10.3739 44.9647 10.12 44.0986 10.12H41.7242V18.408H43.6506ZM44.5466 32.52C45.4127 32.52 46.0548 32.296 46.473 31.848C46.8911 31.3701 47.1002 30.5637 47.1002 29.4288V26.696C47.1002 25.2624 46.8463 24.2768 46.3386 23.7392C45.8607 23.1717 45.0543 22.888 43.9194 22.888H41.7242V32.52H44.5466ZM60.7845 5.64H65.7573L68.9829 29.9664H69.0725L72.2981 5.64H76.8229L72.0741 37H65.5333L60.7845 5.64ZM86.2256 37.448C83.8064 37.448 81.9547 36.7611 80.6704 35.3872C79.3862 34.0133 78.744 32.072 78.744 29.5632V13.0768C78.744 10.568 79.3862 8.62667 80.6704 7.2528C81.9547 5.87893 83.8064 5.192 86.2256 5.192C88.6448 5.192 90.4966 5.87893 91.7808 7.2528C93.0651 8.62667 93.7072 10.568 93.7072 13.0768V29.5632C93.7072 32.072 93.0651 34.0133 91.7808 35.3872C90.4966 36.7611 88.6448 37.448 86.2256 37.448ZM86.2256 32.968C87.928 32.968 88.7792 31.9376 88.7792 29.8768V12.7632C88.7792 10.7024 87.928 9.672 86.2256 9.672C84.5232 9.672 83.672 10.7024 83.672 12.7632V29.8768C83.672 31.9376 84.5232 32.968 86.2256 32.968ZM103.984 37.448C101.624 37.448 99.8175 36.776 98.5631 35.432C97.3386 34.088 96.7263 32.1915 96.7263 29.7424V12.8976C96.7263 10.4485 97.3386 8.552 98.5631 7.208C99.8175 5.864 101.624 5.192 103.984 5.192C106.343 5.192 108.135 5.864 109.36 7.208C110.614 8.552 111.242 10.4485 111.242 12.8976V16.2128H106.582V12.584C106.582 10.6427 105.761 9.672 104.118 9.672C102.476 9.672 101.654 10.6427 101.654 12.584V30.1008C101.654 32.0123 102.476 32.968 104.118 32.968C105.761 32.968 106.582 32.0123 106.582 30.1008V25.3072H111.242V29.7424C111.242 32.1915 110.614 34.088 109.36 35.432C108.135 36.776 106.343 37.448 103.984 37.448ZM117.998 5.64H124.673L129.78 37H124.852L123.956 30.7728V30.8624H118.356L117.46 37H112.891L117.998 5.64ZM123.374 26.6064L121.179 11.1056H121.089L118.939 26.6064H123.374ZM132.171 5.64H137.099V32.52H145.208V37H132.171V5.64Z" fill="#D5C099"/>
</g>
<defs>
<filter id="filter0_i_198_18" x="1.25098" y="5.19199" width="143.957" height="36.256" filterUnits="userSpaceOnUse" color-interpolation-filters="sRGB">
<feFlood flood-opacity="0" result="BackgroundImageFix"/>
<feBlend mode="normal" in="SourceGraphic" in2="BackgroundImageFix" result="shape"/>
<feColorMatrix in="SourceAlpha" type="matrix" values="0 0 0 0 0 0 0 0 0 0 0 0 0 0 0 0 0 0 127 0" result="hardAlpha"/>
<feOffset dy="4"/>
<feGaussianBlur stdDeviation="2"/>
<feComposite in2="hardAlpha" operator="arithmetic" k2="-1" k3="1"/>
<feColorMatrix type="matrix" values="0 0 0 0 1 0 0 0 0 1 0 0 0 0 1 0 0 0 1 0"/>
<feBlend mode="normal" in2="shape" result="effect1_innerShadow_198_18"/>
</filter>
</defs>
</svg>
