<svg width="561" height="337" viewBox="0 0 561 337" fill="none" xmlns="http://www.w3.org/2000/svg">
<g filter="url(#filter0_i_164_8)">
<g filter="url(#filter1_i_164_8)">
<path d="M360.165 227H280.365V84.2H360.165V100H298.365V144.6H356.565V160.2H298.365V211.2H360.165V227ZM555.498 84.2L517.498 227H499.298L471.498 133.4C470.698 130.6 469.898 127.733 469.098 124.8C468.298 121.867 467.564 119.067 466.898 116.4C466.231 113.733 465.631 111.467 465.098 109.6C464.698 107.6 464.431 106.133 464.298 105.2C464.164 106.133 463.898 107.6 463.498 109.6C463.231 111.467 462.764 113.733 462.098 116.4C461.431 119.067 460.698 121.933 459.898 125C459.231 127.933 458.431 130.933 457.498 134L430.498 227H412.298L374.498 84.2H393.298L415.498 171.4C416.298 174.467 417.031 177.533 417.698 180.6C418.364 183.533 418.964 186.467 419.498 189.4C420.164 192.2 420.698 194.933 421.098 197.6C421.498 200.267 421.898 202.867 422.298 205.4C422.698 202.733 423.098 200 423.498 197.2C424.031 194.4 424.631 191.533 425.298 188.6C425.964 185.533 426.698 182.467 427.498 179.4C428.298 176.333 429.098 173.333 429.898 170.4L455.098 84.2H473.698L499.898 171C500.831 174.067 501.698 177.2 502.498 180.4C503.298 183.467 504.031 186.467 504.698 189.4C505.364 192.333 505.898 195.2 506.298 198C506.831 200.667 507.298 203.133 507.698 205.4C508.098 202.067 508.631 198.6 509.298 195C509.964 191.267 510.764 187.4 511.698 183.4C512.631 179.4 513.631 175.333 514.698 171.2L536.698 84.2H555.498Z" fill="#1D91F1"/>
</g>
<path d="M360.165 227V228.5H361.665V227H360.165ZM280.365 227H278.865V228.5H280.365V227ZM280.365 84.2V82.7H278.865V84.2H280.365ZM360.165 84.2H361.665V82.7H360.165V84.2ZM360.165 100V101.5H361.665V100H360.165ZM298.365 100V98.5H296.865V100H298.365ZM298.365 144.6H296.865V146.1H298.365V144.6ZM356.565 144.6H358.065V143.1H356.565V144.6ZM356.565 160.2V161.7H358.065V160.2H356.565ZM298.365 160.2V158.7H296.865V160.2H298.365ZM298.365 211.2H296.865V212.7H298.365V211.2ZM360.165 211.2H361.665V209.7H360.165V211.2ZM360.165 225.5H280.365V228.5H360.165V225.5ZM281.865 227V84.2H278.865V227H281.865ZM280.365 85.7H360.165V82.7H280.365V85.7ZM358.665 84.2V100H361.665V84.2H358.665ZM360.165 98.5H298.365V101.5H360.165V98.5ZM296.865 100V144.6H299.865V100H296.865ZM298.365 146.1H356.565V143.1H298.365V146.1ZM355.065 144.6V160.2H358.065V144.6H355.065ZM356.565 158.7H298.365V161.7H356.565V158.7ZM296.865 160.2V211.2H299.865V160.2H296.865ZM298.365 212.7H360.165V209.7H298.365V212.7ZM358.665 211.2V227H361.665V211.2H358.665ZM555.498 84.2L556.947 84.5857L557.449 82.7H555.498V84.2ZM517.498 227V228.5H518.651L518.947 227.386L517.498 227ZM499.298 227L497.86 227.427L498.178 228.5H499.298V227ZM471.498 133.4L470.055 133.812L470.058 133.82L470.06 133.827L471.498 133.4ZM469.098 124.8L467.651 125.195V125.195L469.098 124.8ZM466.898 116.4L468.353 116.036L466.898 116.4ZM465.098 109.6L463.627 109.894L463.639 109.954L463.655 110.012L465.098 109.6ZM464.298 105.2L465.783 104.988H462.813L464.298 105.2ZM463.498 109.6L462.027 109.306L462.019 109.347L462.013 109.388L463.498 109.6ZM459.898 125L458.446 124.621L458.44 124.644L458.435 124.668L459.898 125ZM457.498 134L456.063 133.563L456.06 133.572L456.057 133.582L457.498 134ZM430.498 227V228.5H431.624L431.938 227.418L430.498 227ZM412.298 227L410.848 227.384L411.143 228.5H412.298V227ZM374.498 84.2V82.7H372.549L373.048 84.5838L374.498 84.2ZM393.298 84.2L394.751 83.8299L394.464 82.7H393.298V84.2ZM415.498 171.4L414.044 171.77L414.046 171.779L415.498 171.4ZM417.698 180.6L416.232 180.919L416.235 180.932L417.698 180.6ZM419.498 189.4L418.022 189.668L418.029 189.708L418.038 189.747L419.498 189.4ZM421.098 197.6L419.614 197.823L421.098 197.6ZM422.298 205.4L420.816 205.634L423.781 205.623L422.298 205.4ZM423.498 197.2L422.024 196.919L422.018 196.953L422.013 196.988L423.498 197.2ZM425.298 188.6L426.76 188.932L426.763 188.919L425.298 188.6ZM427.498 179.4L426.046 179.021L427.498 179.4ZM429.898 170.4L428.458 169.979L428.454 169.992L428.451 170.005L429.898 170.4ZM455.098 84.2V82.7H453.973L453.658 83.7791L455.098 84.2ZM473.698 84.2L475.134 83.7665L474.812 82.7H473.698V84.2ZM499.898 171L498.462 171.433L498.463 171.437L499.898 171ZM502.498 180.4L501.042 180.764L501.044 180.771L501.046 180.779L502.498 180.4ZM506.298 198L504.813 198.212L504.819 198.253L504.827 198.294L506.298 198ZM507.698 205.4L506.22 205.661L509.187 205.579L507.698 205.4ZM509.298 195L510.773 195.273L510.774 195.264L509.298 195ZM511.698 183.4L510.237 183.059L511.698 183.4ZM514.698 171.2L516.15 171.575L516.152 171.568L514.698 171.2ZM536.698 84.2V82.7H535.53L535.243 83.8323L536.698 84.2ZM554.048 83.8143L516.048 226.614L518.947 227.386L556.947 84.5857L554.048 83.8143ZM517.498 225.5H499.298V228.5H517.498V225.5ZM500.736 226.573L472.936 132.973L470.06 133.827L497.86 227.427L500.736 226.573ZM472.94 132.988C472.142 130.194 471.343 127.333 470.545 124.405L467.651 125.195C468.452 128.134 469.254 131.006 470.055 133.812L472.94 132.988ZM470.545 124.405C469.747 121.481 469.017 118.692 468.353 116.036L465.442 116.764C466.112 119.442 466.848 122.252 467.651 125.195L470.545 124.405ZM468.353 116.036C467.684 113.359 467.079 111.076 466.54 109.188L463.655 110.012C464.183 111.858 464.778 114.107 465.442 116.764L468.353 116.036ZM466.569 109.306C466.169 107.309 465.91 105.877 465.783 104.988L462.813 105.412C462.952 106.389 463.226 107.891 463.627 109.894L466.569 109.306ZM462.813 104.988C462.686 105.877 462.426 107.309 462.027 109.306L464.969 109.894C465.369 107.891 465.643 106.389 465.783 105.412L462.813 104.988ZM462.013 109.388C461.756 111.186 461.302 113.399 460.642 116.036L463.553 116.764C464.227 114.068 464.706 111.747 464.983 109.812L462.013 109.388ZM460.642 116.036C459.977 118.697 459.245 121.559 458.446 124.621L461.349 125.379C462.15 122.308 462.885 119.436 463.553 116.764L460.642 116.036ZM458.435 124.668C457.777 127.564 456.986 130.529 456.063 133.563L458.933 134.437C459.876 131.338 460.685 128.303 461.36 125.332L458.435 124.668ZM456.057 133.582L429.057 226.582L431.938 227.418L458.938 134.418L456.057 133.582ZM430.498 225.5H412.298V228.5H430.498V225.5ZM413.748 226.616L375.948 83.8162L373.048 84.5838L410.848 227.384L413.748 226.616ZM374.498 85.7H393.298V82.7H374.498V85.7ZM391.844 84.5701L414.044 171.77L416.951 171.03L394.751 83.8299L391.844 84.5701ZM414.046 171.779C414.841 174.826 415.57 177.872 416.232 180.919L419.163 180.281C418.492 177.194 417.754 174.108 416.949 171.021L414.046 171.779ZM416.235 180.932C416.897 183.845 417.492 186.757 418.022 189.668L420.973 189.132C420.436 186.177 419.832 183.222 419.16 180.268L416.235 180.932ZM418.038 189.747C418.696 192.509 419.221 195.201 419.614 197.823L422.581 197.377C422.174 194.666 421.633 191.891 420.957 189.053L418.038 189.747ZM419.614 197.823C420.015 200.493 420.415 203.097 420.816 205.634L423.779 205.166C423.38 202.637 422.981 200.041 422.581 197.377L419.614 197.823ZM423.781 205.623C424.182 202.952 424.582 200.215 424.983 197.412L422.013 196.988C421.613 199.785 421.214 202.514 420.814 205.177L423.781 205.623ZM424.971 197.481C425.501 194.699 426.097 191.85 426.76 188.932L423.835 188.268C423.165 191.217 422.561 194.101 422.024 196.919L424.971 197.481ZM426.763 188.919C427.426 185.872 428.154 182.826 428.949 179.779L426.046 179.021C425.241 182.108 424.503 185.194 423.832 188.281L426.763 188.919ZM428.949 179.779C429.748 176.717 430.546 173.722 431.345 170.795L428.451 170.005C427.649 172.944 426.848 175.95 426.046 179.021L428.949 179.779ZM431.337 170.821L456.537 84.6209L453.658 83.7791L428.458 169.979L431.337 170.821ZM455.098 85.7H473.698V82.7H455.098V85.7ZM472.262 84.6334L498.462 171.433L501.334 170.567L475.134 83.7665L472.262 84.6334ZM498.463 171.437C499.388 174.479 500.248 177.588 501.042 180.764L503.953 180.036C503.147 176.812 502.274 173.655 501.333 170.563L498.463 171.437ZM501.046 180.779C501.842 183.831 502.572 186.815 503.235 189.732L506.16 189.068C505.49 186.118 504.753 183.103 503.949 180.021L501.046 180.779ZM503.235 189.732C503.893 192.628 504.419 195.455 504.813 198.212L507.783 197.788C507.376 194.945 506.836 192.038 506.16 189.068L503.235 189.732ZM504.827 198.294C505.358 200.952 505.823 203.407 506.22 205.661L509.175 205.139C508.773 202.86 508.304 200.382 507.769 197.706L504.827 198.294ZM509.187 205.579C509.583 202.28 510.111 198.845 510.773 195.273L507.823 194.727C507.151 198.355 506.612 201.854 506.208 205.221L509.187 205.579ZM510.774 195.264C511.436 191.558 512.231 187.717 513.158 183.741L510.237 183.059C509.298 187.083 508.493 190.975 507.821 194.736L510.774 195.264ZM513.158 183.741C514.089 179.753 515.086 175.697 516.15 171.575L513.245 170.825C512.176 174.969 511.173 179.047 510.237 183.059L513.158 183.741ZM516.152 171.568L538.152 84.5677L535.243 83.8323L513.243 170.832L516.152 171.568ZM536.698 85.7H555.498V82.7H536.698V85.7Z" fill="#1D91F1"/>
<g filter="url(#filter2_i_164_8)">
<path d="M35.45 231.25C30.41 231.25 25.16 230.55 19.7 229.15C14.38 227.89 9.9 225.51 6.26 222.01C2.62 218.65 0.8 213.82 0.8 207.52C0.8 202.34 1.99 197.44 4.37 192.82C6.75 188.06 9.76 183.72 13.4 179.8C17.18 175.88 21.03 172.52 24.95 169.72C26.21 168.88 28.24 167.62 31.04 165.94C33.84 164.26 36.92 162.58 40.28 160.9C43.64 159.22 46.72 157.82 49.52 156.7C52.46 155.44 54.7 154.81 56.24 154.81C56.52 154.81 56.66 154.88 56.66 155.02C56.66 155.86 55.82 156.98 54.14 158.38C52.6 159.78 51.48 160.62 50.78 160.9C50.22 161.04 49.59 161.18 48.89 161.32C48.19 161.32 47.49 161.46 46.79 161.74C43.71 162.72 40.56 164.26 37.34 166.36C34.12 168.32 31.25 170.35 28.73 172.45C24.39 176.23 20.47 180.78 16.97 186.1C13.61 191.42 11.93 197.09 11.93 203.11C11.93 208.01 13.26 212.21 15.92 215.71C18.58 219.21 21.94 221.87 26 223.69C30.2 225.65 34.54 226.63 39.02 226.63C42.38 226.63 45.74 226.21 49.1 225.37C59.04 222.85 68.56 218.3 77.66 211.72C86.9 205.14 95.58 197.3 103.7 188.2C111.96 178.96 119.59 169.16 126.59 158.8C133.59 148.44 139.89 138.15 145.49 127.93C151.23 117.71 156.13 108.26 160.19 99.58C157.95 94.68 155.22 89.64 152 84.46C148.92 79.14 145.35 74.24 141.29 69.76C137.37 65.28 132.89 61.64 127.85 58.84C122.95 55.9 117.42 54.43 111.26 54.43C104.68 54.43 99.22 56.25 94.88 59.89C90.54 63.39 87.32 67.94 85.22 73.54C83.12 79 82.07 84.67 82.07 90.55C82.07 94.05 82.35 97.55 82.91 101.05C83.61 104.55 84.45 108.05 85.43 111.55C86.27 114.63 87.6 118.27 89.42 122.47C91.38 126.53 93.69 130.52 96.35 134.44C99.01 138.36 102.02 141.65 105.38 144.31C108.74 146.83 112.31 148.09 116.09 148.09C117.77 148.09 119.17 147.81 120.29 147.25C121.55 146.55 122.53 146.2 123.23 146.2C124.07 146.2 124.49 146.69 124.49 147.67C124.49 148.65 123.51 149.49 121.55 150.19C119.73 150.89 117.7 151.45 115.46 151.87C113.36 152.29 111.89 152.5 111.05 152.5C105.59 152.5 100.76 150.89 96.56 147.67C92.36 144.45 88.86 140.46 86.06 135.7C83.4 130.94 81.37 126.25 79.97 121.63C78.99 118.13 78.22 114.63 77.66 111.13C77.24 107.63 77.03 104.13 77.03 100.63C77.03 90.69 78.43 81.87 81.23 74.17C84.03 66.33 88.65 60.17 95.09 55.69C101.67 51.21 110.35 48.97 121.13 48.97C128.69 48.97 135.27 50.72 140.87 54.22C146.47 57.58 151.37 61.99 155.57 67.45C159.91 72.77 163.69 78.44 166.91 84.46L172.58 70.39C173 69.41 173.28 68.43 173.42 67.45C173.7 66.47 174.05 65.56 174.47 64.72C174.75 64.3 175.17 64.02 175.73 63.88C176.29 63.6 176.78 63.46 177.2 63.46C178.46 63.46 179.09 64.16 179.09 65.56C179.09 66.54 178.74 68.29 178.04 70.81C177.34 73.19 176.5 75.85 175.52 78.79C174.54 81.73 173.56 84.46 172.58 86.98C171.74 89.36 171.11 91.11 170.69 92.23C173.49 97.97 176.15 103.78 178.67 109.66C181.19 115.54 183.78 121.35 186.44 127.09C190.78 136.05 194.91 145.15 198.83 154.39C202.75 163.63 206.81 172.8 211.01 181.9C216.47 164.26 223.26 147.18 231.38 130.66C239.64 114 249.09 98.18 259.73 83.2C266.73 73.54 275.27 65.56 285.35 59.26C295.57 52.82 306.84 49.6 319.16 49.6C321.54 49.6 324.13 49.88 326.93 50.44C329.73 51 332.11 52.05 334.07 53.59C336.17 54.99 337.22 57.23 337.22 60.31C337.22 60.87 337.01 61.99 336.59 63.67C336.31 65.21 335.82 66.68 335.12 68.08C334.56 69.48 333.93 70.18 333.23 70.18C332.95 70.18 332.81 69.97 332.81 69.55C332.81 68.85 332.95 68.15 333.23 67.45C333.51 66.61 333.65 65.84 333.65 65.14C333.65 62.34 332.46 60.31 330.08 59.05C327.7 57.65 324.97 56.74 321.89 56.32C318.95 55.9 316.43 55.69 314.33 55.69C312.51 55.69 310.62 55.76 308.66 55.9C306.84 56.04 305.02 56.32 303.2 56.74C297.04 58.28 290.88 61.92 284.72 67.66C278.7 73.4 272.75 80.47 266.87 88.87C261.13 97.27 255.67 106.3 250.49 115.96C245.31 125.62 240.55 135.28 236.21 144.94C231.87 154.6 228.02 163.63 224.66 172.03C221.3 180.43 218.57 187.43 216.47 193.03C217.59 195.13 218.99 197.79 220.67 201.01C222.35 204.23 224.24 207.45 226.34 210.67C228.44 213.89 230.75 216.55 233.27 218.65C235.93 220.75 238.59 221.8 241.25 221.8C243.63 221.8 245.38 221.1 246.5 219.7C247.62 218.44 248.46 216.9 249.02 215.08C249.58 213.26 250 211.65 250.28 210.25C250.7 208.99 251.26 208.36 251.96 208.36C252.94 208.36 253.43 208.92 253.43 210.04C253.43 210.46 253.29 211.23 253.01 212.35C252.73 213.47 252.52 214.24 252.38 214.66C250.84 219 248.18 222.71 244.4 225.79C240.62 228.87 236.35 230.41 231.59 230.41C226.41 230.41 222 228.17 218.36 223.69C214.02 218.23 209.82 211.86 205.76 204.58C201.84 197.3 198.06 189.67 194.42 181.69C190.92 173.71 187.56 165.8 184.34 157.96C181.12 150.12 178.18 142.91 175.52 136.33C173.56 131.57 171.6 126.88 169.64 122.26C167.82 117.5 165.93 112.81 163.97 108.19C160.05 117.01 155.15 126.53 149.27 136.75C143.53 146.97 136.95 157.19 129.53 167.41C122.25 177.49 114.27 186.94 105.59 195.76C97.05 204.58 88.02 212 78.5 218.02C68.98 224.18 59.04 228.24 48.68 230.2C46.58 230.62 44.41 230.9 42.17 231.04C39.93 231.18 37.69 231.25 35.45 231.25ZM180.14 174.55C179.86 174.55 179.51 174.2 179.09 173.5C178.67 172.66 178.32 172.17 178.04 172.03C177.34 170.77 176.22 168.95 174.68 166.57C173.14 164.19 171.39 161.74 169.43 159.22C167.47 156.7 165.51 154.6 163.55 152.92C161.59 151.24 159.84 150.4 158.3 150.4C157.04 150.4 156.2 150.89 155.78 151.87C155.36 152.71 155.15 153.69 155.15 154.81C155.15 155.37 155.01 155.72 154.73 155.86C154.17 155.58 153.82 154.81 153.68 153.55C153.54 152.15 153.47 151.17 153.47 150.61C153.47 148.51 154.1 146.2 155.36 143.68C156.76 141.16 158.79 139.9 161.45 139.9C162.29 139.9 163.13 140.11 163.97 140.53C164.81 140.81 165.58 141.23 166.28 141.79C170.48 144.87 173.49 149.14 175.31 154.6C177.27 160.06 178.95 165.24 180.35 170.14C180.49 170.56 180.56 170.98 180.56 171.4C180.7 171.82 180.77 172.31 180.77 172.87C180.77 173.01 180.7 173.36 180.56 173.92C180.56 174.34 180.42 174.55 180.14 174.55Z" fill="#1D91F1"/>
</g>
<path d="M19.7 229.15L20.4451 226.244L20.4183 226.237L20.3914 226.231L19.7 229.15ZM6.26 222.01L8.33933 219.848L8.3173 219.826L8.29484 219.806L6.26 222.01ZM4.37 192.82L7.03692 194.194L7.0452 194.178L7.05328 194.162L4.37 192.82ZM13.4 179.8L11.2405 177.718L11.2209 177.738L11.2016 177.759L13.4 179.8ZM24.95 169.72L23.2859 167.224L23.2457 167.251L23.2063 167.279L24.95 169.72ZM31.04 165.94L32.5835 168.512L31.04 165.94ZM40.28 160.9L41.6216 163.583L40.28 160.9ZM49.52 156.7L50.6342 159.485L50.6681 159.472L50.7018 159.457L49.52 156.7ZM54.14 158.38L52.2194 156.075L52.1698 156.117L52.122 156.16L54.14 158.38ZM50.78 160.9L51.5076 163.81L51.7051 163.761L51.8942 163.685L50.78 160.9ZM48.89 161.32V164.32H49.1871L49.4784 164.262L48.89 161.32ZM46.79 161.74L47.6996 164.599L47.8032 164.566L47.9042 164.525L46.79 161.74ZM37.34 166.36L38.8998 168.923L38.9397 168.898L38.9788 168.873L37.34 166.36ZM28.73 172.45L26.8094 170.145L26.7843 170.166L26.7597 170.188L28.73 172.45ZM16.97 186.1L14.4637 184.451L14.4484 184.474L14.4335 184.498L16.97 186.1ZM26 223.69L27.2687 220.971L27.248 220.962L27.2272 220.952L26 223.69ZM49.1 225.37L49.8276 228.28L49.8372 228.278L49.1 225.37ZM77.66 211.72L75.9198 209.276L75.911 209.283L75.9022 209.289L77.66 211.72ZM103.7 188.2L101.463 186.201L101.462 186.203L103.7 188.2ZM126.59 158.8L129.076 160.48H129.076L126.59 158.8ZM145.49 127.93L142.874 126.461L142.867 126.475L142.859 126.488L145.49 127.93ZM160.19 99.58L162.907 100.851L163.495 99.5944L162.918 98.3327L160.19 99.58ZM152 84.46L149.404 85.9631L149.427 86.0038L149.452 86.0438L152 84.46ZM141.29 69.76L139.032 71.7355L139.049 71.7552L139.067 71.7745L141.29 69.76ZM127.85 58.84L126.307 61.4125L126.349 61.4382L126.393 61.4625L127.85 58.84ZM94.88 59.89L96.7633 62.2252L96.7857 62.2071L96.8078 62.1886L94.88 59.89ZM85.22 73.54L88.02 74.6169L88.0246 74.6052L88.029 74.5934L85.22 73.54ZM82.91 101.05L79.9477 101.524L79.9569 101.581L79.9683 101.638L82.91 101.05ZM85.43 111.55L88.3243 110.761L88.3216 110.751L88.3189 110.741L85.43 111.55ZM89.42 122.47L86.6673 123.663L86.6917 123.719L86.7183 123.774L89.42 122.47ZM96.35 134.44L98.8324 132.755L96.35 134.44ZM105.38 144.31L103.518 146.662L103.549 146.686L103.58 146.71L105.38 144.31ZM120.29 147.25L121.632 149.933L121.69 149.904L121.747 149.872L120.29 147.25ZM121.55 150.19L120.541 147.365L120.507 147.377L120.473 147.39L121.55 150.19ZM115.46 151.87L114.907 148.921L114.889 148.925L114.872 148.928L115.46 151.87ZM86.06 135.7L83.4412 137.163L83.4574 137.192L83.4742 137.221L86.06 135.7ZM79.97 121.63L77.0811 122.439L77.0897 122.47L77.0989 122.5L79.97 121.63ZM77.66 111.13L74.6814 111.487L74.6884 111.546L74.6977 111.604L77.66 111.13ZM81.23 74.17L84.0494 75.1952L84.0523 75.1871L84.0552 75.179L81.23 74.17ZM95.09 55.69L93.4016 53.2102L93.3892 53.2187L93.3768 53.2273L95.09 55.69ZM140.87 54.22L139.28 56.764L139.303 56.7784L139.327 56.7925L140.87 54.22ZM155.57 67.45L153.192 69.2791L153.218 69.3131L153.245 69.3464L155.57 67.45ZM166.91 84.46L164.265 85.875L167.293 91.5363L169.693 85.5813L166.91 84.46ZM172.58 70.39L169.823 69.2082L169.81 69.2383L169.797 69.2687L172.58 70.39ZM173.42 67.45L170.535 66.6258L170.479 66.8229L170.45 67.0257L173.42 67.45ZM174.47 64.72L171.974 63.0559L171.87 63.2113L171.787 63.3783L174.47 64.72ZM175.73 63.88L176.458 66.7904L176.777 66.7105L177.072 66.5633L175.73 63.88ZM178.04 70.81L180.918 71.6565L180.924 71.6348L180.931 71.6129L178.04 70.81ZM175.52 78.79L172.674 77.8413L172.674 77.8413L175.52 78.79ZM172.58 86.98L169.784 85.8926L169.767 85.9368L169.751 85.9815L172.58 86.98ZM170.69 92.23L167.881 91.1766L167.428 92.3852L167.994 93.5453L170.69 92.23ZM186.44 127.09L183.718 128.351L183.729 128.375L183.74 128.398L186.44 127.09ZM211.01 181.9L208.286 183.157L211.563 190.258L213.876 182.787L211.01 181.9ZM231.38 130.66L228.692 129.327L228.688 129.337L231.38 130.66ZM259.73 83.2L257.301 81.4397L257.292 81.4512L257.284 81.4628L259.73 83.2ZM285.35 59.26L286.94 61.804L286.949 61.7981L285.35 59.26ZM326.93 50.44L327.518 47.4982L326.93 50.44ZM334.07 53.59L332.217 55.9489L332.309 56.0212L332.406 56.0861L334.07 53.59ZM336.59 63.67L333.68 62.9424L333.656 63.0372L333.638 63.1333L336.59 63.67ZM335.12 68.08L332.437 66.7384L332.381 66.85L332.335 66.9658L335.12 68.08ZM333.23 67.45L336.015 68.5642L336.048 68.4823L336.076 68.3987L333.23 67.45ZM330.08 59.05L328.559 61.6358L328.617 61.6699L328.676 61.7014L330.08 59.05ZM321.89 56.32L321.466 59.2898L321.475 59.2912L321.485 59.2925L321.89 56.32ZM308.66 55.9L308.446 52.9076L308.438 52.9082L308.43 52.9088L308.66 55.9ZM303.2 56.74L302.525 53.8168L302.499 53.823L302.472 53.8296L303.2 56.74ZM284.72 67.66L282.675 65.4652L282.662 65.4769L282.65 65.4888L284.72 67.66ZM266.87 88.87L264.412 87.1496L264.403 87.1635L264.393 87.1774L266.87 88.87ZM250.49 115.96L247.846 114.542L250.49 115.96ZM224.66 172.03L221.875 170.916L224.66 172.03ZM216.47 193.03L213.661 191.977L213.185 193.246L213.823 194.442L216.47 193.03ZM220.67 201.01L218.01 202.398L220.67 201.01ZM226.34 210.67L223.827 212.309L226.34 210.67ZM233.27 218.65L231.349 220.955L231.38 220.98L231.411 221.005L233.27 218.65ZM246.5 219.7L244.258 217.707L244.206 217.765L244.157 217.826L246.5 219.7ZM249.02 215.08L246.153 214.198L249.02 215.08ZM250.28 210.25L247.434 209.301L247.375 209.479L247.338 209.662L250.28 210.25ZM253.01 212.35L255.92 213.078L255.92 213.078L253.01 212.35ZM252.38 214.66L255.207 215.663L255.217 215.636L255.226 215.609L252.38 214.66ZM244.4 225.79L246.295 228.116L244.4 225.79ZM218.36 223.69L216.012 225.557L216.022 225.569L216.032 225.582L218.36 223.69ZM205.76 204.58L203.119 206.002L203.129 206.022L203.14 206.041L205.76 204.58ZM194.42 181.69L191.673 182.895L191.681 182.915L191.691 182.935L194.42 181.69ZM175.52 136.33L178.301 135.206L178.298 135.197L178.294 135.188L175.52 136.33ZM169.64 122.26L166.838 123.331L166.857 123.382L166.878 123.432L169.64 122.26ZM163.97 108.19L166.732 107.018L164.034 100.659L161.229 106.972L163.97 108.19ZM149.27 136.75L146.67 135.254L146.662 135.267L146.654 135.281L149.27 136.75ZM129.53 167.41L127.102 165.647L127.098 165.654L129.53 167.41ZM105.59 195.76L103.452 193.656L103.443 193.664L103.435 193.673L105.59 195.76ZM78.5 218.02L76.8966 215.484L76.8834 215.493L76.8703 215.501L78.5 218.02ZM48.68 230.2L48.1223 227.252L48.107 227.255L48.0917 227.258L48.68 230.2ZM42.17 231.04L42.3571 234.034L42.17 231.04ZM179.09 173.5L176.407 174.842L176.458 174.945L176.518 175.043L179.09 173.5ZM178.04 172.03L175.418 173.487L175.868 174.298L176.698 174.713L178.04 172.03ZM174.68 166.57L172.161 168.2L174.68 166.57ZM163.55 152.92L161.598 155.198L163.55 152.92ZM155.78 151.87L158.463 153.212L158.503 153.133L158.537 153.052L155.78 151.87ZM154.73 155.86L153.388 158.543L154.73 159.214L156.072 158.543L154.73 155.86ZM153.68 153.55L150.695 153.849L150.697 153.865L150.698 153.881L153.68 153.55ZM155.36 143.68L152.738 142.223L152.706 142.28L152.677 142.338L155.36 143.68ZM163.97 140.53L162.628 143.213L162.819 143.309L163.021 143.376L163.97 140.53ZM166.28 141.79L164.406 144.133L164.455 144.172L164.506 144.209L166.28 141.79ZM175.31 154.6L172.464 155.549L172.475 155.581L172.486 155.614L175.31 154.6ZM180.35 170.14L177.465 170.964L177.483 171.027L177.504 171.089L180.35 170.14ZM180.56 171.4H177.56V171.887L177.714 172.349L180.56 171.4ZM180.56 173.92L177.65 173.192L177.56 173.551V173.92H180.56ZM35.45 228.25C30.689 228.25 25.69 227.589 20.4451 226.244L18.9549 232.056C24.63 233.511 30.131 234.25 35.45 234.25V228.25ZM20.3914 226.231C15.5488 225.084 11.5609 222.945 8.33933 219.848L4.18067 224.173C8.2391 228.075 13.2112 230.696 19.0086 232.069L20.3914 226.231ZM8.29484 219.806C5.42788 217.159 3.8 213.225 3.8 207.52H-2.2C-2.2 214.415 -0.187885 220.141 4.22516 224.214L8.29484 219.806ZM3.8 207.52C3.8 202.82 4.87505 198.39 7.03692 194.194L1.70308 191.446C-0.895055 196.49 -2.2 201.86 -2.2 207.52H3.8ZM7.05328 194.162C9.30506 189.658 12.1514 185.553 15.5984 181.841L11.2016 177.759C7.36857 181.887 4.19494 186.462 1.68672 191.478L7.05328 194.162ZM15.5595 181.882C19.2284 178.078 22.9408 174.842 26.6937 172.161L23.2063 167.279C19.1192 170.198 15.1316 173.682 11.2405 177.718L15.5595 181.882ZM26.6141 172.216C27.8108 171.418 29.7889 170.189 32.5835 168.512L29.4965 163.368C26.6911 165.051 24.6092 166.342 23.2859 167.224L26.6141 172.216ZM32.5835 168.512C35.3088 166.877 38.3204 165.234 41.6216 163.583L38.9384 158.217C35.5196 159.926 32.3713 161.643 29.4965 163.368L32.5835 168.512ZM41.6216 163.583C44.9245 161.932 47.9274 160.568 50.6342 159.485L48.4058 153.915C45.5126 155.072 42.3555 156.508 38.9384 158.217L41.6216 163.583ZM50.7018 159.457C53.5843 158.222 55.3478 157.81 56.24 157.81V151.81C54.0522 151.81 51.3357 152.658 48.3382 153.943L50.7018 159.457ZM56.24 157.81C56.2268 157.81 55.7702 157.824 55.2134 157.546C54.8925 157.385 54.4716 157.093 54.1376 156.592C53.7911 156.072 53.66 155.51 53.66 155.02H59.66C59.66 154.46 59.5114 153.836 59.1299 153.264C58.7609 152.711 58.2875 152.375 57.8967 152.179C57.1998 151.831 56.5332 151.81 56.24 151.81V157.81ZM53.66 155.02C53.66 154.73 53.7315 154.552 53.7451 154.521C53.7582 154.49 53.7385 154.545 53.63 154.69C53.4048 154.99 52.9685 155.451 52.2194 156.075L56.0606 160.685C56.9915 159.909 57.8152 159.11 58.43 158.29C59.0032 157.526 59.66 156.396 59.66 155.02H53.66ZM52.122 156.16C51.3917 156.824 50.8028 157.317 50.345 157.66C49.8486 158.032 49.6451 158.123 49.6658 158.115L51.8942 163.685C52.615 163.397 53.3214 162.928 53.945 162.46C54.6072 161.963 55.3483 161.336 56.158 160.6L52.122 156.16ZM50.0524 157.99C49.5478 158.116 48.9654 158.246 48.3017 158.378L49.4784 164.262C50.2146 164.114 50.8922 163.964 51.5076 163.81L50.0524 157.99ZM48.89 158.32C47.7798 158.32 46.7027 158.544 45.6758 158.955L47.9042 164.525C48.2773 164.376 48.6002 164.32 48.89 164.32V158.32ZM45.8804 158.881C42.4996 159.957 39.1062 161.627 35.7012 163.847L38.9788 168.873C42.0139 166.893 44.9204 165.483 47.6996 164.599L45.8804 158.881ZM35.7802 163.797C32.452 165.823 29.4585 167.938 26.8094 170.145L30.6506 174.755C33.0415 172.762 35.788 170.817 38.8998 168.923L35.7802 163.797ZM26.7597 170.188C22.1934 174.165 18.0979 178.927 14.4637 184.451L19.4763 187.749C22.8421 182.633 26.5866 178.295 30.7003 174.712L26.7597 170.188ZM14.4335 184.498C10.7851 190.275 8.93 196.497 8.93 203.11H14.93C14.93 197.683 16.4349 192.565 19.5065 187.702L14.4335 184.498ZM8.93 203.11C8.93 208.587 10.4294 213.444 13.5315 217.525L18.3085 213.895C16.0906 210.976 14.93 207.434 14.93 203.11H8.93ZM13.5315 217.525C16.4992 221.43 20.2604 224.405 24.7728 226.428L27.2272 220.952C23.6196 219.335 20.6608 216.99 18.3085 213.895L13.5315 217.525ZM24.7313 226.409C29.3145 228.547 34.0863 229.63 39.02 229.63V223.63C34.9937 223.63 31.0855 222.753 27.2687 220.971L24.7313 226.409ZM39.02 229.63C42.6327 229.63 46.237 229.178 49.8276 228.28L48.3724 222.46C45.243 223.242 42.1273 223.63 39.02 223.63V229.63ZM49.8372 228.278C60.178 225.656 70.0401 220.932 79.4178 214.151L75.9022 209.289C67.0799 215.668 57.902 220.044 48.3628 222.462L49.8372 228.278ZM79.4002 214.164C88.8355 207.445 97.6806 199.452 105.938 190.197L101.462 186.203C93.4794 195.148 84.9645 202.835 75.9198 209.276L79.4002 214.164ZM105.937 190.199C114.288 180.858 122.001 170.951 129.076 160.48L124.104 157.12C117.179 167.369 109.632 177.062 101.463 186.201L105.937 190.199ZM129.076 160.48C136.124 150.048 142.473 139.679 148.121 129.372L142.859 126.488C137.307 136.621 131.056 146.832 124.104 157.12L129.076 160.48ZM148.106 129.399C153.874 119.128 158.81 109.611 162.907 100.851L157.473 98.3089C153.45 106.909 148.586 116.292 142.874 126.461L148.106 129.399ZM162.918 98.3327C160.619 93.3029 157.827 88.1506 154.548 82.8762L149.452 86.0438C152.613 91.1294 155.281 96.0571 157.462 100.827L162.918 98.3327ZM154.596 82.9569C151.412 77.4568 147.717 72.3849 143.513 67.7454L139.067 71.7745C142.983 76.0951 146.428 80.8232 149.404 85.9631L154.596 82.9569ZM143.548 67.7845C139.408 63.0529 134.659 59.1909 129.307 56.2175L126.393 61.4625C131.121 64.0891 135.332 67.5071 139.032 71.7355L143.548 67.7845ZM129.393 56.2675C123.991 53.026 117.92 51.43 111.26 51.43V57.43C116.92 57.43 121.909 58.774 126.307 61.4125L129.393 56.2675ZM111.26 51.43C104.095 51.43 97.9178 53.4267 92.9522 57.5914L96.8078 62.1886C100.522 59.0733 105.265 57.43 111.26 57.43V51.43ZM92.9967 57.5548C88.2087 61.4161 84.6852 66.4221 82.411 72.4866L88.029 74.5934C89.9548 69.4579 92.8713 65.3639 96.7633 62.2252L92.9967 57.5548ZM82.42 72.4631C80.1871 78.2685 79.07 84.3037 79.07 90.55H85.07C85.07 85.0363 86.0529 79.7315 88.02 74.6169L82.42 72.4631ZM79.07 90.55C79.07 94.2107 79.3629 97.8692 79.9477 101.524L85.8723 100.576C85.3371 97.2308 85.07 93.8892 85.07 90.55H79.07ZM79.9683 101.638C80.6834 105.214 81.5411 108.787 82.5411 112.359L88.3189 110.741C87.3589 107.313 86.5366 103.886 85.8517 100.462L79.9683 101.638ZM82.5357 112.339C83.4255 115.602 84.8127 119.383 86.6673 123.663L92.1727 121.277C90.3873 117.157 89.1145 113.658 88.3243 110.761L82.5357 112.339ZM86.7183 123.774C88.7452 127.973 91.1295 132.089 93.8676 136.124L98.8324 132.755C96.2505 128.951 94.0148 125.087 92.1217 121.166L86.7183 123.774ZM93.8676 136.124C96.6812 140.271 99.8945 143.794 103.518 146.662L107.242 141.958C104.145 139.506 101.339 136.449 98.8324 132.755L93.8676 136.124ZM103.58 146.71C107.399 149.574 111.589 151.09 116.09 151.09V145.09C113.031 145.09 110.081 144.086 107.18 141.91L103.58 146.71ZM116.09 151.09C118.084 151.09 119.978 150.76 121.632 149.933L118.948 144.567C118.362 144.86 117.456 145.09 116.09 145.09V151.09ZM121.747 149.872C122.284 149.574 122.69 149.391 122.979 149.288C123.287 149.178 123.348 149.2 123.23 149.2V143.2C121.715 143.2 120.16 143.89 118.833 144.628L121.747 149.872ZM123.23 149.2C123.056 149.2 122.418 149.128 121.897 148.52C121.452 148.001 121.49 147.539 121.49 147.67H127.49C127.49 146.821 127.318 145.624 126.453 144.615C125.512 143.517 124.244 143.2 123.23 143.2V149.2ZM121.49 147.67C121.49 147.391 121.565 147.141 121.665 146.956C121.755 146.789 121.834 146.73 121.803 146.757C121.77 146.785 121.665 146.866 121.444 146.981C121.227 147.095 120.931 147.225 120.541 147.365L122.559 153.015C123.699 152.608 124.821 152.073 125.707 151.313C126.638 150.515 127.49 149.293 127.49 147.67H121.49ZM120.473 147.39C118.848 148.015 116.997 148.529 114.907 148.921L116.013 154.819C118.403 154.371 120.612 153.765 122.627 152.99L120.473 147.39ZM114.872 148.928C112.758 149.351 111.557 149.5 111.05 149.5V155.5C112.223 155.5 113.962 155.229 116.048 154.812L114.872 148.928ZM111.05 149.5C106.227 149.5 102.044 148.094 98.3853 145.289L94.7347 150.051C99.4761 153.686 104.953 155.5 111.05 155.5V149.5ZM98.3853 145.289C94.5051 142.314 91.2587 138.621 88.6458 134.179L83.4742 137.221C86.4613 142.299 90.215 146.586 94.7347 150.051L98.3853 145.289ZM88.6788 134.237C86.1107 129.641 84.1711 125.149 82.8411 120.76L77.0989 122.5C78.5689 127.351 80.6893 132.239 83.4412 137.163L88.6788 134.237ZM82.8589 120.821C81.909 117.428 81.1638 114.04 80.6223 110.656L74.6977 111.604C75.2762 115.22 76.0711 118.832 77.0811 122.439L82.8589 120.821ZM80.6386 110.773C80.2328 107.39 80.03 104.01 80.03 100.63H74.03C74.03 104.25 74.2472 107.87 74.6814 111.487L80.6386 110.773ZM80.03 100.63C80.03 90.9674 81.3913 82.505 84.0494 75.1952L78.4106 73.1448C75.4687 81.235 74.03 90.4126 74.03 100.63H80.03ZM84.0552 75.179C86.6587 67.8894 90.9085 62.2533 96.8032 58.1527L93.3768 53.2273C86.3915 58.0867 81.4014 64.7706 78.4048 73.161L84.0552 75.179ZM96.7784 58.1698C102.712 54.1296 110.744 51.97 121.13 51.97V45.97C109.956 45.97 100.628 48.2904 93.4016 53.2102L96.7784 58.1698ZM121.13 51.97C128.211 51.97 134.223 53.6032 139.28 56.764L142.46 51.676C136.317 47.8367 129.169 45.97 121.13 45.97V51.97ZM139.327 56.7925C144.587 59.9487 149.209 64.1004 153.192 69.2791L157.948 65.6209C153.531 59.8795 148.353 55.2113 142.413 51.6475L139.327 56.7925ZM153.245 69.3464C157.464 74.5175 161.136 80.0264 164.265 85.875L169.555 83.045C166.244 76.8536 162.356 71.0225 157.895 65.5536L153.245 69.3464ZM169.693 85.5813L175.363 71.5113L169.797 69.2687L164.127 83.3387L169.693 85.5813ZM175.337 71.5718C175.853 70.3682 176.21 69.1342 176.39 67.8743L170.45 67.0257C170.35 67.7258 170.147 68.4518 169.823 69.2082L175.337 71.5718ZM176.305 68.2741C176.538 67.4575 176.823 66.7224 177.153 66.0616L171.787 63.3783C171.277 64.3976 170.862 65.4825 170.535 66.6258L176.305 68.2741ZM176.966 66.3841C176.886 66.5037 176.779 66.6114 176.659 66.6911C176.545 66.7671 176.464 66.7888 176.458 66.7904L175.002 60.9696C173.83 61.2628 172.727 61.9257 171.974 63.0559L176.966 66.3841ZM177.072 66.5633C177.222 66.4882 177.31 66.4586 177.342 66.4496C177.374 66.4404 177.321 66.46 177.2 66.46V60.46C176.142 60.46 175.177 60.8022 174.388 61.1967L177.072 66.5633ZM177.2 66.46C177.245 66.46 177.154 66.4671 176.985 66.4045C176.799 66.3355 176.578 66.203 176.388 65.9919C176.013 65.5759 176.09 65.249 176.09 65.56H182.09C182.09 64.471 181.852 63.0941 180.847 61.9781C179.789 60.802 178.379 60.46 177.2 60.46V66.46ZM176.09 65.56C176.09 66.0756 175.859 67.4531 175.149 70.0071L180.931 71.6129C181.621 69.1269 182.09 67.0044 182.09 65.56H176.09ZM175.162 69.9635C174.474 72.3021 173.645 74.9273 172.674 77.8413L178.366 79.7387C179.355 76.7727 180.206 74.0779 180.918 71.6565L175.162 69.9635ZM172.674 77.8413C171.707 80.7413 170.744 83.4245 169.784 85.8926L175.376 88.0673C176.376 85.4955 177.373 82.7187 178.366 79.7387L172.674 77.8413ZM169.751 85.9815C168.912 88.3586 168.29 90.0856 167.881 91.1766L173.499 93.2834C173.93 92.1344 174.568 90.3614 175.409 87.9784L169.751 85.9815ZM167.994 93.5453C170.772 99.2412 173.412 105.007 175.913 110.842L181.427 108.478C178.888 102.553 176.208 96.6988 173.386 90.9147L167.994 93.5453ZM175.913 110.842C178.444 116.748 181.046 122.585 183.718 128.351L189.162 125.829C186.514 120.115 183.936 114.332 181.427 108.478L175.913 110.842ZM183.74 128.398C188.058 137.313 192.168 146.367 196.068 155.562L201.592 153.218C197.652 143.933 193.502 134.787 189.14 125.782L183.74 128.398ZM196.068 155.562C200 164.83 204.073 174.029 208.286 183.157L213.734 180.643C209.547 171.571 205.5 162.43 201.592 153.218L196.068 155.562ZM213.876 182.787C219.29 165.296 226.022 148.362 234.072 131.983L228.688 129.337C220.498 145.998 213.65 163.224 208.144 181.013L213.876 182.787ZM234.068 131.993C242.259 115.472 251.628 99.7874 262.176 84.9372L257.284 81.4628C246.552 96.5726 237.021 112.528 228.692 129.327L234.068 131.993ZM262.159 84.9603C268.933 75.612 277.189 67.8985 286.94 61.804L283.76 56.716C273.351 63.2215 264.527 71.468 257.301 81.4397L262.159 84.9603ZM286.949 61.7981C296.681 55.6661 307.394 52.6 319.16 52.6V46.6C306.286 46.6 294.46 49.9738 283.751 56.7219L286.949 61.7981ZM319.16 52.6C321.308 52.6 323.698 52.8531 326.342 53.3817L327.518 47.4982C324.562 46.9069 321.772 46.6 319.16 46.6V52.6ZM326.342 53.3817C328.748 53.8629 330.677 54.7395 332.217 55.9489L335.923 51.231C333.543 49.3605 330.712 48.1371 327.518 47.4982L326.342 53.3817ZM332.406 56.0861C333.481 56.8029 334.22 57.9805 334.22 60.31H340.22C340.22 56.4795 338.859 53.1771 335.734 51.0938L332.406 56.0861ZM334.22 60.31C334.22 60.299 334.212 60.4931 334.114 61.0171C334.024 61.4968 333.882 62.1339 333.68 62.9424L339.5 64.3976C339.903 62.7879 340.22 61.3038 340.22 60.31H334.22ZM333.638 63.1333C333.409 64.3936 333.01 65.5926 332.437 66.7384L337.803 69.4216C338.63 67.7674 339.211 66.0263 339.542 64.2067L333.638 63.1333ZM332.335 66.9658C332.233 67.2199 332.145 67.3995 332.077 67.5197C332.007 67.643 331.976 67.6725 331.998 67.6481C332.02 67.6237 332.129 67.5074 332.345 67.394C332.577 67.2719 332.883 67.18 333.23 67.18V73.18C334.696 73.18 335.779 72.4154 336.457 71.6619C337.108 70.9396 337.563 70.0492 337.905 69.1942L332.335 66.9658ZM333.23 67.18C333.537 67.18 333.951 67.2389 334.388 67.4574C334.837 67.682 335.179 68.0102 335.411 68.3584C335.822 68.9754 335.81 69.5214 335.81 69.55H329.81C329.81 69.9986 329.868 70.8596 330.419 71.6866C331.113 72.7282 332.216 73.18 333.23 73.18V67.18ZM335.81 69.55C335.81 69.2602 335.866 68.9373 336.015 68.5642L330.445 66.3358C330.034 67.3627 329.81 68.4398 329.81 69.55H335.81ZM336.076 68.3987C336.432 67.33 336.65 66.2348 336.65 65.14H330.65C330.65 65.4452 330.588 65.89 330.384 66.5013L336.076 68.3987ZM336.65 65.14C336.65 63.3085 336.258 61.556 335.346 60.0003C334.43 58.4383 333.093 57.2509 331.484 56.3986L328.676 61.7014C329.447 62.1091 329.895 62.5667 330.169 63.0346C330.447 63.509 330.65 64.1715 330.65 65.14H336.65ZM331.601 56.4642C328.838 54.8388 325.72 53.8145 322.295 53.3475L321.485 59.2925C324.22 59.6655 326.562 60.4612 328.559 61.6358L331.601 56.4642ZM322.314 53.3502C319.286 52.9176 316.617 52.69 314.33 52.69V58.69C316.243 58.69 318.614 58.8824 321.466 59.2898L322.314 53.3502ZM314.33 52.69C312.433 52.69 310.472 52.7629 308.446 52.9076L308.874 58.8924C310.768 58.7571 312.587 58.69 314.33 58.69V52.69ZM308.43 52.9088C306.457 53.0606 304.488 53.3638 302.525 53.8168L303.875 59.6632C305.552 59.2761 307.223 59.0194 308.89 58.8912L308.43 52.9088ZM302.472 53.8296C295.685 55.5264 289.089 59.4879 282.675 65.4652L286.765 69.8548C292.671 64.3521 298.395 61.0336 303.928 59.6504L302.472 53.8296ZM282.65 65.4888C276.457 71.3931 270.381 78.6228 264.412 87.1496L269.328 90.5904C275.119 82.3172 280.943 75.4068 286.79 69.8312L282.65 65.4888ZM264.393 87.1774C258.588 95.6725 253.073 104.795 247.846 114.542L253.134 117.378C258.267 107.805 263.672 98.8675 269.347 90.5626L264.393 87.1774ZM247.846 114.542C242.634 124.262 237.843 133.985 233.474 143.711L238.947 146.169C243.257 136.575 247.986 126.978 253.134 117.378L247.846 114.542ZM233.474 143.711C229.119 153.402 225.252 162.471 221.875 170.916L227.445 173.144C230.788 164.789 234.621 155.798 238.947 146.169L233.474 143.711ZM221.875 170.916C218.51 179.327 215.771 186.349 213.661 191.977L219.279 194.083C221.369 188.511 224.09 181.533 227.445 173.144L221.875 170.916ZM213.823 194.442C214.937 196.531 216.333 199.182 218.01 202.398L223.33 199.622C221.648 196.398 220.243 193.729 219.117 191.618L213.823 194.442ZM218.01 202.398C219.738 205.709 221.677 209.012 223.827 212.309L228.853 209.031C226.803 205.888 224.962 202.751 223.33 199.622L218.01 202.398ZM223.827 212.309C226.063 215.737 228.564 218.634 231.349 220.955L235.191 216.345C232.936 214.466 230.817 212.043 228.853 209.031L223.827 212.309ZM231.411 221.005C234.453 223.406 237.749 224.8 241.25 224.8V218.8C239.431 218.8 237.407 218.094 235.129 216.295L231.411 221.005ZM241.25 224.8C244.221 224.8 246.979 223.903 248.843 221.574L244.157 217.826C243.781 218.297 243.039 218.8 241.25 218.8V224.8ZM248.742 221.693C250.183 220.073 251.217 218.14 251.887 215.962L246.153 214.198C245.703 215.66 245.057 216.807 244.258 217.707L248.742 221.693ZM251.887 215.962C252.468 214.075 252.917 212.364 253.222 210.838L247.338 209.662C247.083 210.936 246.692 212.445 246.153 214.198L251.887 215.962ZM253.126 211.199C253.193 210.998 253.249 210.872 253.285 210.804C253.321 210.734 253.319 210.756 253.257 210.826C253.192 210.898 253.047 211.039 252.803 211.161C252.547 211.29 252.254 211.36 251.96 211.36V205.36C250.579 205.36 249.495 206.026 248.773 206.839C248.112 207.582 247.707 208.483 247.434 209.301L253.126 211.199ZM251.96 211.36C251.876 211.36 251.296 211.317 250.805 210.756C250.38 210.27 250.43 209.851 250.43 210.04H256.43C256.43 209.109 256.235 207.85 255.32 206.804C254.339 205.683 253.024 205.36 251.96 205.36V211.36ZM250.43 210.04C250.43 209.977 250.434 210.064 250.373 210.396C250.319 210.695 250.23 211.099 250.1 211.622L255.92 213.078C256.191 211.996 256.43 210.882 256.43 210.04H250.43ZM250.1 211.622C249.818 212.749 249.633 213.415 249.534 213.711L255.226 215.609C255.407 215.065 255.642 214.191 255.92 213.078L250.1 211.622ZM249.553 213.657C248.207 217.448 245.885 220.71 242.505 223.464L246.295 228.116C250.475 224.71 253.473 220.552 255.207 215.663L249.553 213.657ZM242.505 223.464C239.246 226.12 235.641 227.41 231.59 227.41V233.41C237.059 233.41 241.994 231.62 246.295 228.116L242.505 223.464ZM231.59 227.41C227.424 227.41 223.833 225.668 220.688 221.798L216.032 225.582C220.168 230.672 225.396 233.41 231.59 233.41V227.41ZM220.708 221.823C216.487 216.513 212.376 210.283 208.38 203.119L203.14 206.041C207.264 213.437 211.553 219.947 216.012 225.557L220.708 221.823ZM208.401 203.158C204.515 195.939 200.764 188.369 197.149 180.445L191.691 182.935C195.356 190.971 199.165 198.661 203.119 206.002L208.401 203.158ZM197.167 180.485C193.677 172.526 190.326 164.638 187.115 156.82L181.565 159.1C184.794 166.962 188.163 174.894 191.673 182.895L197.167 180.485ZM187.115 156.82C183.897 148.984 180.959 141.78 178.301 135.206L172.739 137.454C175.401 144.04 178.343 151.256 181.565 159.1L187.115 156.82ZM178.294 135.188C176.33 130.418 174.366 125.718 172.402 121.088L166.878 123.432C168.834 128.042 170.79 132.722 172.746 137.472L178.294 135.188ZM172.442 121.189C170.609 116.395 168.706 111.672 166.732 107.018L161.208 109.362C163.154 113.948 165.031 118.605 166.838 123.331L172.442 121.189ZM161.229 106.972C157.359 115.679 152.509 125.105 146.67 135.254L151.87 138.246C157.791 127.955 162.741 118.341 166.711 109.408L161.229 106.972ZM146.654 135.281C140.975 145.392 134.459 155.514 127.102 165.647L131.958 169.173C139.441 158.866 146.085 148.548 151.886 138.219L146.654 135.281ZM127.098 165.654C119.907 175.611 112.025 184.945 103.452 193.656L107.728 197.864C116.515 188.935 124.593 179.369 131.962 169.166L127.098 165.654ZM103.435 193.673C95.0455 202.337 86.1984 209.602 76.8966 215.484L80.1034 220.556C89.8416 214.398 99.0545 206.823 107.745 197.847L103.435 193.673ZM76.8703 215.501C67.6516 221.466 58.0725 225.37 48.1223 227.252L49.2377 233.148C60.0075 231.11 70.3084 226.894 80.1298 220.539L76.8703 215.501ZM48.0917 227.258C46.1302 227.651 44.0945 227.914 41.9829 228.046L42.3571 234.034C44.7255 233.886 47.0298 233.589 49.2683 233.142L48.0917 227.258ZM41.9829 228.046C39.805 228.182 37.6275 228.25 35.45 228.25V234.25C37.7525 234.25 40.055 234.178 42.3571 234.034L41.9829 228.046ZM180.14 171.55C180.706 171.55 181.132 171.727 181.374 171.862C181.61 171.993 181.747 172.124 181.789 172.166C181.863 172.24 181.816 172.213 181.663 171.957L176.518 175.043C176.784 175.487 177.122 175.985 177.546 176.409C177.886 176.749 178.778 177.55 180.14 177.55V171.55ZM181.773 172.158C181.527 171.666 181.255 171.181 180.954 170.759C180.711 170.419 180.202 169.757 179.382 169.347L176.698 174.713C176.535 174.632 176.411 174.547 176.326 174.482C176.24 174.416 176.179 174.359 176.142 174.322C176.071 174.251 176.049 174.215 176.071 174.246C176.091 174.273 176.131 174.334 176.192 174.439C176.252 174.542 176.323 174.675 176.407 174.842L181.773 172.158ZM180.662 170.573C179.912 169.222 178.748 167.334 177.199 164.94L172.161 168.2C173.692 170.566 174.768 172.318 175.418 173.487L180.662 170.573ZM177.199 164.94C175.606 162.479 173.805 159.958 171.798 157.378L167.062 161.062C168.975 163.522 170.674 165.901 172.161 168.2L177.199 164.94ZM171.798 157.378C169.742 154.735 167.646 152.48 165.502 150.642L161.598 155.198C163.374 156.72 165.198 158.665 167.062 161.062L171.798 157.378ZM165.502 150.642C163.338 148.787 160.903 147.4 158.3 147.4V153.4C158.777 153.4 159.842 153.693 161.598 155.198L165.502 150.642ZM158.3 147.4C157.292 147.4 156.209 147.596 155.213 148.176C154.184 148.777 153.46 149.667 153.023 150.688L158.537 153.052C158.535 153.058 158.511 153.11 158.452 153.179C158.39 153.251 158.315 153.313 158.237 153.359C158.081 153.449 158.048 153.4 158.3 153.4V147.4ZM153.097 150.528C152.432 151.858 152.15 153.313 152.15 154.81H158.15C158.15 154.067 158.288 153.562 158.463 153.212L153.097 150.528ZM152.15 154.81C152.15 154.876 152.137 154.686 152.26 154.378C152.404 154.017 152.743 153.5 153.388 153.177L156.072 158.543C157.991 157.584 158.15 155.583 158.15 154.81H152.15ZM156.072 153.177C156.592 153.437 156.769 153.81 156.779 153.831C156.785 153.846 156.767 153.809 156.741 153.699C156.714 153.591 156.686 153.434 156.662 153.219L150.698 153.881C150.788 154.685 150.962 155.535 151.316 156.314C151.676 157.105 152.308 158.003 153.388 158.543L156.072 153.177ZM156.665 153.251C156.525 151.847 156.47 151.003 156.47 150.61H150.47C150.47 151.337 150.555 152.453 150.695 153.849L156.665 153.251ZM156.47 150.61C156.47 149.107 156.924 147.261 158.043 145.022L152.677 142.338C151.276 145.139 150.47 147.913 150.47 150.61H156.47ZM157.982 145.137C158.908 143.471 159.987 142.9 161.45 142.9V136.9C157.593 136.9 154.612 138.849 152.738 142.223L157.982 145.137ZM161.45 142.9C161.772 142.9 162.155 142.977 162.628 143.213L165.312 137.847C164.105 137.243 162.808 136.9 161.45 136.9V142.9ZM163.021 143.376C163.521 143.543 163.979 143.791 164.406 144.133L168.154 139.447C167.181 138.669 166.099 138.077 164.919 137.684L163.021 143.376ZM164.506 144.209C168.153 146.883 170.819 150.613 172.464 155.549L178.156 153.651C176.161 147.667 172.807 142.857 168.054 139.371L164.506 144.209ZM172.486 155.614C174.427 161.019 176.086 166.136 177.465 170.964L183.235 169.316C181.814 164.344 180.113 159.101 178.134 153.586L172.486 155.614ZM177.504 171.089C177.548 171.219 177.56 171.32 177.56 171.4H183.56C183.56 170.64 183.432 169.901 183.196 169.191L177.504 171.089ZM177.714 172.349C177.729 172.394 177.77 172.551 177.77 172.87H183.77C183.77 172.069 183.671 171.246 183.406 170.451L177.714 172.349ZM177.77 172.87C177.77 172.77 177.776 172.696 177.779 172.661C177.783 172.622 177.786 172.597 177.787 172.59C177.789 172.578 177.787 172.595 177.776 172.649C177.754 172.758 177.714 172.934 177.65 173.192L183.47 174.648C183.546 174.346 183.611 174.067 183.659 173.826C183.692 173.664 183.77 173.273 183.77 172.87H177.77ZM177.56 173.92C177.56 173.891 177.548 173.345 177.959 172.728C178.191 172.38 178.533 172.052 178.982 171.827C179.419 171.609 179.833 171.55 180.14 171.55V177.55C181.154 177.55 182.257 177.098 182.951 176.057C183.502 175.23 183.56 174.369 183.56 173.92H177.56Z" fill="#1D91F1"/>
</g>
<defs>
<filter id="filter0_i_164_8" x="0.799805" y="48.97" width="554.698" height="186.28" filterUnits="userSpaceOnUse" color-interpolation-filters="sRGB">
<feFlood flood-opacity="0" result="BackgroundImageFix"/>
<feBlend mode="normal" in="SourceGraphic" in2="BackgroundImageFix" result="shape"/>
<feColorMatrix in="SourceAlpha" type="matrix" values="0 0 0 0 0 0 0 0 0 0 0 0 0 0 0 0 0 0 127 0" result="hardAlpha"/>
<feOffset dy="4"/>
<feGaussianBlur stdDeviation="2"/>
<feComposite in2="hardAlpha" operator="arithmetic" k2="-1" k3="1"/>
<feColorMatrix type="matrix" values="0 0 0 0 1 0 0 0 0 1 0 0 0 0 1 0 0 0 1 0"/>
<feBlend mode="normal" in2="shape" result="effect1_innerShadow_164_8"/>
</filter>
<filter id="filter1_i_164_8" x="280.365" y="84.2" width="275.133" height="146.8" filterUnits="userSpaceOnUse" color-interpolation-filters="sRGB">
<feFlood flood-opacity="0" result="BackgroundImageFix"/>
<feBlend mode="normal" in="SourceGraphic" in2="BackgroundImageFix" result="shape"/>
<feColorMatrix in="SourceAlpha" type="matrix" values="0 0 0 0 0 0 0 0 0 0 0 0 0 0 0 0 0 0 127 0" result="hardAlpha"/>
<feOffset dy="5"/>
<feGaussianBlur stdDeviation="2"/>
<feComposite in2="hardAlpha" operator="arithmetic" k2="-1" k3="1"/>
<feColorMatrix type="matrix" values="0 0 0 0 1 0 0 0 0 1 0 0 0 0 1 0 0 0 1 0"/>
<feBlend mode="normal" in2="shape" result="effect1_innerShadow_164_8"/>
</filter>
<filter id="filter2_i_164_8" x="0.799805" y="48.97" width="336.42" height="186.28" filterUnits="userSpaceOnUse" color-interpolation-filters="sRGB">
<feFlood flood-opacity="0" result="BackgroundImageFix"/>
<feBlend mode="normal" in="SourceGraphic" in2="BackgroundImageFix" result="shape"/>
<feColorMatrix in="SourceAlpha" type="matrix" values="0 0 0 0 0 0 0 0 0 0 0 0 0 0 0 0 0 0 127 0" result="hardAlpha"/>
<feOffset dy="5"/>
<feGaussianBlur stdDeviation="2"/>
<feComposite in2="hardAlpha" operator="arithmetic" k2="-1" k3="1"/>
<feColorMatrix type="matrix" values="0 0 0 0 1 0 0 0 0 1 0 0 0 0 1 0 0 0 1 0"/>
<feBlend mode="normal" in2="shape" result="effect1_innerShadow_164_8"/>
</filter>
</defs>
</svg>
