<svg width="270" height="49" viewBox="0 0 270 49" fill="none" xmlns="http://www.w3.org/2000/svg">
<g filter="url(#filter0_i_198_40)">
<path d="M11.9651 43.6C8.80508 43.6 6.38508 42.7 4.70508 40.9C3.06508 39.1 2.24508 36.56 2.24508 33.28V10.72C2.24508 7.44 3.06508 4.9 4.70508 3.1C6.38508 1.3 8.80508 0.399998 11.9651 0.399998C15.1251 0.399998 17.5251 1.3 19.1651 3.1C20.8451 4.9 21.6851 7.44 21.6851 10.72V15.16H15.4451V10.3C15.4451 7.7 14.3451 6.4 12.1451 6.4C9.94508 6.4 8.84508 7.7 8.84508 10.3V33.76C8.84508 36.32 9.94508 37.6 12.1451 37.6C14.3451 37.6 15.4451 36.32 15.4451 33.76V27.34H21.6851V33.28C21.6851 36.56 20.8451 39.1 19.1651 40.9C17.5251 42.7 15.1251 43.6 11.9651 43.6ZM25.6338 0.999997H32.2338V18.1H39.3138V0.999997H45.9138V43H39.3138V24.1H32.2338V43H25.6338V0.999997ZM60.3691 43.6C57.1291 43.6 54.6491 42.68 52.9291 40.84C51.2091 39 50.3491 36.4 50.3491 33.04V10.96C50.3491 7.6 51.2091 5 52.9291 3.16C54.6491 1.32 57.1291 0.399998 60.3691 0.399998C63.6091 0.399998 66.0891 1.32 67.8091 3.16C69.5291 5 70.3891 7.6 70.3891 10.96V33.04C70.3891 36.4 69.5291 39 67.8091 40.84C66.0891 42.68 63.6091 43.6 60.3691 43.6ZM60.3691 37.6C62.6491 37.6 63.7891 36.22 63.7891 33.46V10.54C63.7891 7.78 62.6491 6.4 60.3691 6.4C58.0891 6.4 56.9491 7.78 56.9491 10.54V33.46C56.9491 36.22 58.0891 37.6 60.3691 37.6ZM74.8526 0.999997H81.4526V43H74.8526V0.999997ZM105.305 43.6C102.145 43.6 99.7249 42.7 98.0449 40.9C96.4049 39.1 95.5849 36.56 95.5849 33.28V10.72C95.5849 7.44 96.4049 4.9 98.0449 3.1C99.7249 1.3 102.145 0.399998 105.305 0.399998C108.465 0.399998 110.865 1.3 112.505 3.1C114.185 4.9 115.025 7.44 115.025 10.72V15.16H108.785V10.3C108.785 7.7 107.685 6.4 105.485 6.4C103.285 6.4 102.185 7.7 102.185 10.3V33.76C102.185 36.32 103.285 37.6 105.485 37.6C107.685 37.6 108.785 36.32 108.785 33.76V27.34H115.025V33.28C115.025 36.56 114.185 39.1 112.505 40.9C110.865 42.7 108.465 43.6 105.305 43.6ZM118.974 0.999997H125.574V18.1H132.654V0.999997H139.254V43H132.654V24.1H125.574V43H118.974V0.999997ZM149.269 0.999997H158.209L165.049 43H158.449L157.249 34.66V34.78H149.749L148.549 43H142.429L149.269 0.999997ZM156.469 29.08L153.529 8.32H153.409L150.529 29.08H156.469ZM168.251 0.999997H176.531L182.951 26.14H183.071V0.999997H188.951V43H182.171L174.251 12.34H174.131V43H168.251V0.999997ZM203.466 0.999997H210.066V18.1H217.146V0.999997H223.746V43H217.146V24.1H210.066V43H203.466V0.999997ZM228.661 0.999997H246.661V7H235.261V18.1H244.321V24.1H235.261V37H246.661V43H228.661V0.999997ZM250.458 0.999997H268.458V7H257.058V18.1H266.118V24.1H257.058V37H268.458V43H250.458V0.999997Z" fill="#1D91F1"/>
<path d="M4.70508 40.9L3.96583 41.5735L3.97402 41.5823L4.70508 40.9ZM4.70508 3.1L3.97397 2.41763L3.96588 2.42651L4.70508 3.1ZM19.1651 3.1L18.4258 3.77354L18.434 3.78232L19.1651 3.1ZM21.6851 15.16V16.16H22.6851V15.16H21.6851ZM15.4451 15.16H14.4451V16.16H15.4451V15.16ZM15.4451 27.34V26.34H14.4451V27.34H15.4451ZM21.6851 27.34H22.6851V26.34H21.6851V27.34ZM19.1651 40.9L18.434 40.2176L18.4259 40.2265L19.1651 40.9ZM11.9651 42.6C8.99911 42.6 6.8769 41.7614 5.43613 40.2177L3.97402 41.5823C5.89326 43.6386 8.61105 44.6 11.9651 44.6V42.6ZM5.44427 40.2265C4.02305 38.6666 3.24508 36.3986 3.24508 33.28H1.24508C1.24508 36.7214 2.10711 39.5334 3.96588 41.5735L5.44427 40.2265ZM3.24508 33.28V10.72H1.24508V33.28H3.24508ZM3.24508 10.72C3.24508 7.60139 4.02305 5.33337 5.44427 3.77349L3.96588 2.42651C2.10711 4.46663 1.24508 7.27861 1.24508 10.72H3.24508ZM5.43613 3.78232C6.8769 2.23864 8.99911 1.4 11.9651 1.4V-0.600002C8.61105 -0.600002 5.89326 0.361356 3.97402 2.41768L5.43613 3.78232ZM11.9651 1.4C14.9324 1.4 17.0278 2.23905 18.4259 3.77349L19.9043 2.42651C18.0223 0.36095 15.3178 -0.600002 11.9651 -0.600002V1.4ZM18.434 3.78232C19.8903 5.3426 20.6851 7.60725 20.6851 10.72H22.6851C22.6851 7.27275 21.7999 4.4574 19.8961 2.41768L18.434 3.78232ZM20.6851 10.72V15.16H22.6851V10.72H20.6851ZM21.6851 14.16H15.4451V16.16H21.6851V14.16ZM16.4451 15.16V10.3H14.4451V15.16H16.4451ZM16.4451 10.3C16.4451 8.88286 16.1488 7.63356 15.3835 6.72906C14.591 5.79256 13.4471 5.4 12.1451 5.4V7.4C13.0431 7.4 13.5491 7.65744 13.8567 8.02094C14.1913 8.41644 14.4451 9.11714 14.4451 10.3H16.4451ZM12.1451 5.4C10.8431 5.4 9.69912 5.79256 8.90669 6.72906C8.14134 7.63356 7.84508 8.88286 7.84508 10.3H9.84508C9.84508 9.11714 10.0988 8.41644 10.4335 8.02094C10.741 7.65744 11.2471 7.4 12.1451 7.4V5.4ZM7.84508 10.3V33.76H9.84508V10.3H7.84508ZM7.84508 33.76C7.84508 35.1602 8.14266 36.3969 8.91166 37.2918C9.70558 38.2156 10.848 38.6 12.1451 38.6V36.6C11.2421 36.6 10.7346 36.3444 10.4285 35.9882C10.0975 35.6031 9.84508 34.9198 9.84508 33.76H7.84508ZM12.1451 38.6C13.4421 38.6 14.5846 38.2156 15.3785 37.2918C16.1475 36.3969 16.4451 35.1602 16.4451 33.76H14.4451C14.4451 34.9198 14.1927 35.6031 13.8617 35.9882C13.5556 36.3444 13.048 36.6 12.1451 36.6V38.6ZM16.4451 33.76V27.34H14.4451V33.76H16.4451ZM15.4451 28.34H21.6851V26.34H15.4451V28.34ZM20.6851 27.34V33.28H22.6851V27.34H20.6851ZM20.6851 33.28C20.6851 36.3928 19.8903 38.6574 18.434 40.2177L19.8961 41.5823C21.7999 39.5426 22.6851 36.7272 22.6851 33.28H20.6851ZM18.4259 40.2265C17.0278 41.761 14.9324 42.6 11.9651 42.6V44.6C15.3178 44.6 18.0223 43.639 19.9043 41.5735L18.4259 40.2265ZM25.6338 0.999997V-2.86102e-06H24.6338V0.999997H25.6338ZM32.2338 0.999997H33.2338V-2.86102e-06H32.2338V0.999997ZM32.2338 18.1H31.2338V19.1H32.2338V18.1ZM39.3138 18.1V19.1H40.3138V18.1H39.3138ZM39.3138 0.999997V-2.86102e-06H38.3138V0.999997H39.3138ZM45.9138 0.999997H46.9138V-2.86102e-06H45.9138V0.999997ZM45.9138 43V44H46.9138V43H45.9138ZM39.3138 43H38.3138V44H39.3138V43ZM39.3138 24.1H40.3138V23.1H39.3138V24.1ZM32.2338 24.1V23.1H31.2338V24.1H32.2338ZM32.2338 43V44H33.2338V43H32.2338ZM25.6338 43H24.6338V44H25.6338V43ZM25.6338 2H32.2338V-2.86102e-06H25.6338V2ZM31.2338 0.999997V18.1H33.2338V0.999997H31.2338ZM32.2338 19.1H39.3138V17.1H32.2338V19.1ZM40.3138 18.1V0.999997H38.3138V18.1H40.3138ZM39.3138 2H45.9138V-2.86102e-06H39.3138V2ZM44.9138 0.999997V43H46.9138V0.999997H44.9138ZM45.9138 42H39.3138V44H45.9138V42ZM40.3138 43V24.1H38.3138V43H40.3138ZM39.3138 23.1H32.2338V25.1H39.3138V23.1ZM31.2338 24.1V43H33.2338V24.1H31.2338ZM32.2338 42H25.6338V44H32.2338V42ZM26.6338 43V0.999997H24.6338V43H26.6338ZM52.9291 40.84L53.6597 40.1571L53.6597 40.1571L52.9291 40.84ZM52.9291 3.16L53.6597 3.84288L53.6597 3.84288L52.9291 3.16ZM67.8091 3.16L67.0786 3.84288L67.0786 3.84288L67.8091 3.16ZM67.8091 40.84L67.0786 40.1571L67.0786 40.1571L67.8091 40.84ZM60.3691 42.6C57.3222 42.6 55.1401 41.7408 53.6597 40.1571L52.1986 41.5229C54.1582 43.6192 56.9361 44.6 60.3691 44.6V42.6ZM53.6597 40.1571C52.1641 38.5572 51.3491 36.233 51.3491 33.04H49.3491C49.3491 36.567 50.2542 39.4428 52.1986 41.5229L53.6597 40.1571ZM51.3491 33.04V10.96H49.3491V33.04H51.3491ZM51.3491 10.96C51.3491 7.76696 52.1641 5.44283 53.6597 3.84288L52.1986 2.47711C50.2542 4.55716 49.3491 7.43303 49.3491 10.96H51.3491ZM53.6597 3.84288C55.1401 2.25921 57.3222 1.4 60.3691 1.4V-0.600002C56.9361 -0.600002 54.1582 0.380783 52.1986 2.47711L53.6597 3.84288ZM60.3691 1.4C63.4161 1.4 65.5982 2.25921 67.0786 3.84288L68.5397 2.47711C66.5801 0.380782 63.8022 -0.600002 60.3691 -0.600002V1.4ZM67.0786 3.84288C68.5742 5.44283 69.3891 7.76696 69.3891 10.96H71.3891C71.3891 7.43303 70.4841 4.55716 68.5397 2.47711L67.0786 3.84288ZM69.3891 10.96V33.04H71.3891V10.96H69.3891ZM69.3891 33.04C69.3891 36.233 68.5742 38.5572 67.0786 40.1571L68.5397 41.5229C70.4841 39.4428 71.3891 36.567 71.3891 33.04H69.3891ZM67.0786 40.1571C65.5982 41.7408 63.4161 42.6 60.3691 42.6V44.6C63.8022 44.6 66.5801 43.6192 68.5397 41.5229L67.0786 40.1571ZM60.3691 38.6C61.719 38.6 62.8952 38.1823 63.7051 37.2019C64.4848 36.258 64.7891 34.9526 64.7891 33.46H62.7891C62.7891 34.7274 62.5235 35.492 62.1632 35.9281C61.8331 36.3277 61.2993 36.6 60.3691 36.6V38.6ZM64.7891 33.46V10.54H62.7891V33.46H64.7891ZM64.7891 10.54C64.7891 9.04738 64.4848 7.74196 63.7051 6.79812C62.8952 5.81769 61.719 5.4 60.3691 5.4V7.4C61.2993 7.4 61.8331 7.67231 62.1632 8.07188C62.5235 8.50804 62.7891 9.27261 62.7891 10.54H64.7891ZM60.3691 5.4C59.0193 5.4 57.8431 5.81769 57.0332 6.79812C56.2535 7.74196 55.9491 9.04738 55.9491 10.54H57.9491C57.9491 9.27261 58.2148 8.50804 58.5751 8.07188C58.9052 7.67231 59.439 7.4 60.3691 7.4V5.4ZM55.9491 10.54V33.46H57.9491V10.54H55.9491ZM55.9491 33.46C55.9491 34.9526 56.2535 36.258 57.0332 37.2019C57.8431 38.1823 59.0193 38.6 60.3691 38.6V36.6C59.439 36.6 58.9052 36.3277 58.5751 35.9281C58.2148 35.492 57.9491 34.7274 57.9491 33.46H55.9491ZM74.8526 0.999997V-2.86102e-06H73.8526V0.999997H74.8526ZM81.4526 0.999997H82.4526V-2.86102e-06H81.4526V0.999997ZM81.4526 43V44H82.4526V43H81.4526ZM74.8526 43H73.8526V44H74.8526V43ZM74.8526 2H81.4526V-2.86102e-06H74.8526V2ZM80.4526 0.999997V43H82.4526V0.999997H80.4526ZM81.4526 42H74.8526V44H81.4526V42ZM75.8526 43V0.999997H73.8526V43H75.8526ZM98.0449 40.9L97.3057 41.5735L97.3139 41.5823L98.0449 40.9ZM98.0449 3.1L97.3138 2.41763L97.3057 2.42651L98.0449 3.1ZM112.505 3.1L111.766 3.77354L111.774 3.78232L112.505 3.1ZM115.025 15.16V16.16H116.025V15.16H115.025ZM108.785 15.16H107.785V16.16H108.785V15.16ZM108.785 27.34V26.34H107.785V27.34H108.785ZM115.025 27.34H116.025V26.34H115.025V27.34ZM112.505 40.9L111.774 40.2176L111.766 40.2265L112.505 40.9ZM105.305 42.6C102.339 42.6 100.217 41.7614 98.776 40.2177L97.3139 41.5823C99.2331 43.6386 101.951 44.6 105.305 44.6V42.6ZM98.7841 40.2265C97.3629 38.6666 96.5849 36.3986 96.5849 33.28H94.5849C94.5849 36.7214 95.447 39.5334 97.3057 41.5735L98.7841 40.2265ZM96.5849 33.28V10.72H94.5849V33.28H96.5849ZM96.5849 10.72C96.5849 7.60139 97.3629 5.33337 98.7841 3.77349L97.3057 2.42651C95.447 4.46663 94.5849 7.27861 94.5849 10.72H96.5849ZM98.776 3.78232C100.217 2.23864 102.339 1.4 105.305 1.4V-0.600002C101.951 -0.600002 99.2331 0.361356 97.3139 2.41768L98.776 3.78232ZM105.305 1.4C108.272 1.4 110.368 2.23905 111.766 3.77349L113.244 2.42651C111.362 0.36095 108.658 -0.600002 105.305 -0.600002V1.4ZM111.774 3.78232C113.23 5.3426 114.025 7.60725 114.025 10.72H116.025C116.025 7.27275 115.14 4.4574 113.236 2.41768L111.774 3.78232ZM114.025 10.72V15.16H116.025V10.72H114.025ZM115.025 14.16H108.785V16.16H115.025V14.16ZM109.785 15.16V10.3H107.785V15.16H109.785ZM109.785 10.3C109.785 8.88286 109.489 7.63356 108.723 6.72906C107.931 5.79256 106.787 5.4 105.485 5.4V7.4C106.383 7.4 106.889 7.65744 107.197 8.02094C107.531 8.41644 107.785 9.11714 107.785 10.3H109.785ZM105.485 5.4C104.183 5.4 103.039 5.79256 102.247 6.72906C101.481 7.63356 101.185 8.88286 101.185 10.3H103.185C103.185 9.11714 103.439 8.41644 103.773 8.02094C104.081 7.65744 104.587 7.4 105.485 7.4V5.4ZM101.185 10.3V33.76H103.185V10.3H101.185ZM101.185 33.76C101.185 35.1602 101.483 36.3969 102.252 37.2918C103.045 38.2156 104.188 38.6 105.485 38.6V36.6C104.582 36.6 104.074 36.3444 103.768 35.9882C103.437 35.6031 103.185 34.9198 103.185 33.76H101.185ZM105.485 38.6C106.782 38.6 107.924 38.2156 108.718 37.2918C109.487 36.3969 109.785 35.1602 109.785 33.76H107.785C107.785 34.9198 107.533 35.6031 107.202 35.9882C106.895 36.3444 106.388 36.6 105.485 36.6V38.6ZM109.785 33.76V27.34H107.785V33.76H109.785ZM108.785 28.34H115.025V26.34H108.785V28.34ZM114.025 27.34V33.28H116.025V27.34H114.025ZM114.025 33.28C114.025 36.3928 113.23 38.6574 111.774 40.2177L113.236 41.5823C115.14 39.5426 116.025 36.7272 116.025 33.28H114.025ZM111.766 40.2265C110.368 41.761 108.272 42.6 105.305 42.6V44.6C108.658 44.6 111.362 43.639 113.244 41.5735L111.766 40.2265ZM118.974 0.999997V-2.86102e-06H117.974V0.999997H118.974ZM125.574 0.999997H126.574V-2.86102e-06H125.574V0.999997ZM125.574 18.1H124.574V19.1H125.574V18.1ZM132.654 18.1V19.1H133.654V18.1H132.654ZM132.654 0.999997V-2.86102e-06H131.654V0.999997H132.654ZM139.254 0.999997H140.254V-2.86102e-06H139.254V0.999997ZM139.254 43V44H140.254V43H139.254ZM132.654 43H131.654V44H132.654V43ZM132.654 24.1H133.654V23.1H132.654V24.1ZM125.574 24.1V23.1H124.574V24.1H125.574ZM125.574 43V44H126.574V43H125.574ZM118.974 43H117.974V44H118.974V43ZM118.974 2H125.574V-2.86102e-06H118.974V2ZM124.574 0.999997V18.1H126.574V0.999997H124.574ZM125.574 19.1H132.654V17.1H125.574V19.1ZM133.654 18.1V0.999997H131.654V18.1H133.654ZM132.654 2H139.254V-2.86102e-06H132.654V2ZM138.254 0.999997V43H140.254V0.999997H138.254ZM139.254 42H132.654V44H139.254V42ZM133.654 43V24.1H131.654V43H133.654ZM132.654 23.1H125.574V25.1H132.654V23.1ZM124.574 24.1V43H126.574V24.1H124.574ZM125.574 42H118.974V44H125.574V42ZM119.974 43V0.999997H117.974V43H119.974ZM149.269 0.999997V-2.86102e-06H148.419L148.282 0.839258L149.269 0.999997ZM158.209 0.999997L159.196 0.839258L159.059 -2.86102e-06H158.209V0.999997ZM165.049 43V44H166.225L166.036 42.8393L165.049 43ZM158.449 43L157.459 43.1424L157.583 44H158.449V43ZM157.249 34.66L158.239 34.5176L156.249 34.66H157.249ZM157.249 34.78V35.78H158.249V34.78H157.249ZM149.749 34.78V33.78H148.884L148.759 34.6355L149.749 34.78ZM148.549 43V44H149.414L149.538 43.1445L148.549 43ZM142.429 43L141.442 42.8393L141.253 44H142.429V43ZM156.469 29.08V30.08H157.621L157.459 28.9398L156.469 29.08ZM153.529 8.32L154.519 8.17978L154.397 7.32H153.529V8.32ZM153.409 8.32V7.32H152.538L152.418 8.18259L153.409 8.32ZM150.529 29.08L149.538 28.9426L149.381 30.08H150.529V29.08ZM149.269 2H158.209V-2.86102e-06H149.269V2ZM157.222 1.16074L164.062 43.1607L166.036 42.8393L159.196 0.839258L157.222 1.16074ZM165.049 42H158.449V44H165.049V42ZM159.439 42.8576L158.239 34.5176L156.259 34.8024L157.459 43.1424L159.439 42.8576ZM156.249 34.66V34.78H158.249V34.66H156.249ZM157.249 33.78H149.749V35.78H157.249V33.78ZM148.759 34.6355L147.559 42.8555L149.538 43.1445L150.738 34.9245L148.759 34.6355ZM148.549 42H142.429V44H148.549V42ZM143.416 43.1607L150.256 1.16074L148.282 0.839258L141.442 42.8393L143.416 43.1607ZM157.459 28.9398L154.519 8.17978L152.539 8.46022L155.479 29.2202L157.459 28.9398ZM153.529 7.32H153.409V9.32H153.529V7.32ZM152.418 8.18259L149.538 28.9426L151.519 29.2174L154.399 8.45741L152.418 8.18259ZM150.529 30.08H156.469V28.08H150.529V30.08ZM168.251 0.999997V-2.86102e-06H167.251V0.999997H168.251ZM176.531 0.999997L177.5 0.752568L177.308 -2.86102e-06H176.531V0.999997ZM182.951 26.14L181.982 26.3874L182.174 27.14H182.951V26.14ZM183.071 26.14V27.14H184.071V26.14H183.071ZM183.071 0.999997V-2.86102e-06H182.071V0.999997H183.071ZM188.951 0.999997H189.951V-2.86102e-06H188.951V0.999997ZM188.951 43V44H189.951V43H188.951ZM182.171 43L181.203 43.2501L181.397 44H182.171V43ZM174.251 12.34L175.219 12.0899L175.026 11.34H174.251V12.34ZM174.131 12.34V11.34H173.131V12.34H174.131ZM174.131 43V44H175.131V43H174.131ZM168.251 43H167.251V44H168.251V43ZM168.251 2H176.531V-2.86102e-06H168.251V2ZM175.562 1.24743L181.982 26.3874L183.92 25.8926L177.5 0.752568L175.562 1.24743ZM182.951 27.14H183.071V25.14H182.951V27.14ZM184.071 26.14V0.999997H182.071V26.14H184.071ZM183.071 2H188.951V-2.86102e-06H183.071V2ZM187.951 0.999997V43H189.951V0.999997H187.951ZM188.951 42H182.171V44H188.951V42ZM183.139 42.7499L175.219 12.0899L173.283 12.5901L181.203 43.2501L183.139 42.7499ZM174.251 11.34H174.131V13.34H174.251V11.34ZM173.131 12.34V43H175.131V12.34H173.131ZM174.131 42H168.251V44H174.131V42ZM169.251 43V0.999997H167.251V43H169.251ZM203.466 0.999997V-2.86102e-06H202.466V0.999997H203.466ZM210.066 0.999997H211.066V-2.86102e-06H210.066V0.999997ZM210.066 18.1H209.066V19.1H210.066V18.1ZM217.146 18.1V19.1H218.146V18.1H217.146ZM217.146 0.999997V-2.86102e-06H216.146V0.999997H217.146ZM223.746 0.999997H224.746V-2.86102e-06H223.746V0.999997ZM223.746 43V44H224.746V43H223.746ZM217.146 43H216.146V44H217.146V43ZM217.146 24.1H218.146V23.1H217.146V24.1ZM210.066 24.1V23.1H209.066V24.1H210.066ZM210.066 43V44H211.066V43H210.066ZM203.466 43H202.466V44H203.466V43ZM203.466 2H210.066V-2.86102e-06H203.466V2ZM209.066 0.999997V18.1H211.066V0.999997H209.066ZM210.066 19.1H217.146V17.1H210.066V19.1ZM218.146 18.1V0.999997H216.146V18.1H218.146ZM217.146 2H223.746V-2.86102e-06H217.146V2ZM222.746 0.999997V43H224.746V0.999997H222.746ZM223.746 42H217.146V44H223.746V42ZM218.146 43V24.1H216.146V43H218.146ZM217.146 23.1H210.066V25.1H217.146V23.1ZM209.066 24.1V43H211.066V24.1H209.066ZM210.066 42H203.466V44H210.066V42ZM204.466 43V0.999997H202.466V43H204.466ZM228.661 0.999997V-2.86102e-06H227.661V0.999997H228.661ZM246.661 0.999997H247.661V-2.86102e-06H246.661V0.999997ZM246.661 7V8H247.661V7H246.661ZM235.261 7V6H234.261V7H235.261ZM235.261 18.1H234.261V19.1H235.261V18.1ZM244.321 18.1H245.321V17.1H244.321V18.1ZM244.321 24.1V25.1H245.321V24.1H244.321ZM235.261 24.1V23.1H234.261V24.1H235.261ZM235.261 37H234.261V38H235.261V37ZM246.661 37H247.661V36H246.661V37ZM246.661 43V44H247.661V43H246.661ZM228.661 43H227.661V44H228.661V43ZM228.661 2H246.661V-2.86102e-06H228.661V2ZM245.661 0.999997V7H247.661V0.999997H245.661ZM246.661 6H235.261V8H246.661V6ZM234.261 7V18.1H236.261V7H234.261ZM235.261 19.1H244.321V17.1H235.261V19.1ZM243.321 18.1V24.1H245.321V18.1H243.321ZM244.321 23.1H235.261V25.1H244.321V23.1ZM234.261 24.1V37H236.261V24.1H234.261ZM235.261 38H246.661V36H235.261V38ZM245.661 37V43H247.661V37H245.661ZM246.661 42H228.661V44H246.661V42ZM229.661 43V0.999997H227.661V43H229.661ZM250.458 0.999997V-2.86102e-06H249.458V0.999997H250.458ZM268.458 0.999997H269.458V-2.86102e-06H268.458V0.999997ZM268.458 7V8H269.458V7H268.458ZM257.058 7V6H256.058V7H257.058ZM257.058 18.1H256.058V19.1H257.058V18.1ZM266.118 18.1H267.118V17.1H266.118V18.1ZM266.118 24.1V25.1H267.118V24.1H266.118ZM257.058 24.1V23.1H256.058V24.1H257.058ZM257.058 37H256.058V38H257.058V37ZM268.458 37H269.458V36H268.458V37ZM268.458 43V44H269.458V43H268.458ZM250.458 43H249.458V44H250.458V43ZM250.458 2H268.458V-2.86102e-06H250.458V2ZM267.458 0.999997V7H269.458V0.999997H267.458ZM268.458 6H257.058V8H268.458V6ZM256.058 7V18.1H258.058V7H256.058ZM257.058 19.1H266.118V17.1H257.058V19.1ZM265.118 18.1V24.1H267.118V18.1H265.118ZM266.118 23.1H257.058V25.1H266.118V23.1ZM256.058 24.1V37H258.058V24.1H256.058ZM257.058 38H268.458V36H257.058V38ZM267.458 37V43H269.458V37H267.458ZM268.458 42H250.458V44H268.458V42ZM251.458 43V0.999997H249.458V43H251.458Z" fill="#1D91F1"/>
</g>
<defs>
<filter id="filter0_i_198_40" x="2.24512" y="0.400024" width="266.213" height="47.2" filterUnits="userSpaceOnUse" color-interpolation-filters="sRGB">
<feFlood flood-opacity="0" result="BackgroundImageFix"/>
<feBlend mode="normal" in="SourceGraphic" in2="BackgroundImageFix" result="shape"/>
<feColorMatrix in="SourceAlpha" type="matrix" values="0 0 0 0 0 0 0 0 0 0 0 0 0 0 0 0 0 0 127 0" result="hardAlpha"/>
<feOffset dy="4"/>
<feGaussianBlur stdDeviation="2"/>
<feComposite in2="hardAlpha" operator="arithmetic" k2="-1" k3="1"/>
<feColorMatrix type="matrix" values="0 0 0 0 1 0 0 0 0 1 0 0 0 0 1 0 0 0 1 0"/>
<feBlend mode="normal" in2="shape" result="effect1_innerShadow_198_40"/>
</filter>
</defs>
</svg>
