<svg width="132" height="47" viewBox="0 0 132 47" fill="none" xmlns="http://www.w3.org/2000/svg">
<g filter="url(#filter0_i_198_38)">
<path d="M8.8933 37.448C6.50397 37.448 4.6821 36.776 3.4277 35.432C2.1733 34.0581 1.5461 32.1019 1.5461 29.5632V28.9808H6.2053V29.8768C6.2053 31.9376 7.0565 32.968 8.7589 32.968C9.68477 32.968 10.3717 32.6843 10.8197 32.1168C11.2677 31.5493 11.4917 30.5488 11.4917 29.1152V23.112H11.4021C10.536 24.9339 9.04264 25.8448 6.9221 25.8448C5.1301 25.8448 3.77117 25.2325 2.8453 24.008C1.91944 22.7835 1.4565 21.0064 1.4565 18.6768V13.0768C1.4565 10.568 2.09864 8.62667 3.3829 7.2528C4.66717 5.87893 6.5189 5.192 8.9381 5.192C11.3573 5.192 13.209 5.87893 14.4933 7.2528C15.7776 8.62667 16.4197 10.568 16.4197 13.0768V29.2944C16.4197 34.7301 13.9109 37.448 8.8933 37.448ZM8.9381 21.3648C10.6405 21.3648 11.4917 20.3344 11.4917 18.2736V12.7184C11.4917 10.6875 10.6405 9.672 8.9381 9.672C7.2357 9.672 6.3845 10.6875 6.3845 12.7184V18.2736C6.3845 20.3344 7.2357 21.3648 8.9381 21.3648ZM27.01 37.448C24.5311 37.448 22.6196 36.7909 21.2756 35.4768C19.9615 34.1328 19.3044 32.2064 19.3044 29.6976V26.92C19.3044 25.3669 19.5583 24.0677 20.066 23.0224C20.5737 21.9472 21.3951 21.1109 22.53 20.5136V20.424C21.4847 19.8565 20.7081 19.08 20.2004 18.0944C19.7225 17.0789 19.4836 15.7947 19.4836 14.2416V12.9424C19.4836 10.4336 20.1257 8.52213 21.41 7.208C22.7241 5.864 24.5908 5.192 27.01 5.192C29.4292 5.192 31.2809 5.864 32.5652 7.208C33.8793 8.52213 34.5364 10.4336 34.5364 12.9424V14.2416C34.5364 17.2283 33.5209 19.2891 31.49 20.424V20.5136C32.6249 21.1109 33.4463 21.9472 33.954 23.0224C34.4617 24.0677 34.7156 25.3669 34.7156 26.92V29.6976C34.7156 32.2064 34.0436 34.1328 32.6996 35.4768C31.3855 36.7909 29.4889 37.448 27.01 37.448ZM27.01 18.408C28.7423 18.408 29.6084 17.3627 29.6084 15.272V12.808C29.6084 10.7173 28.7423 9.672 27.01 9.672C25.2777 9.672 24.4116 10.7173 24.4116 12.808V15.272C24.4116 17.3627 25.2777 18.408 27.01 18.408ZM27.01 32.968C28.8617 32.968 29.7876 31.7883 29.7876 29.4288V26.4272C29.7876 24.0677 28.8617 22.888 27.01 22.888C25.1583 22.888 24.2324 24.0677 24.2324 26.4272V29.4288C24.2324 31.7883 25.1583 32.968 27.01 32.968ZM37.1075 19.08H46.9635V23.56H37.1075V19.08ZM57.0225 37.448C54.6033 37.448 52.7516 36.7611 51.4673 35.3872C50.183 34.0133 49.5409 32.072 49.5409 29.5632V13.0768C49.5409 10.568 50.183 8.62667 51.4673 7.2528C52.7516 5.87893 54.6033 5.192 57.0225 5.192C59.4417 5.192 61.2934 5.87893 62.5777 7.2528C63.862 8.62667 64.5041 10.568 64.5041 13.0768V29.5632C64.5041 32.072 63.862 34.0133 62.5777 35.3872C61.2934 36.7611 59.4417 37.448 57.0225 37.448ZM57.0225 32.968C58.7249 32.968 59.5761 31.9376 59.5761 29.8768V12.7632C59.5761 10.7024 58.7249 9.672 57.0225 9.672C55.3201 9.672 54.4689 10.7024 54.4689 12.7632V29.8768C54.4689 31.9376 55.3201 32.968 57.0225 32.968ZM76.08 31.3104H66.672V26.8304L75.632 5.64H81.008V26.8304H83.3376V31.3104H81.008V37H76.08V31.3104ZM76.08 26.8304V14.6H75.9904L71.152 26.8304H76.08ZM85.0575 19.08H94.9135V23.56H85.0575V19.08ZM97.7597 33.5952C97.7597 31.3552 98.1181 29.4437 98.8349 27.8608C99.5517 26.248 100.836 24.4709 102.688 22.5296C104.51 20.5883 105.764 18.9307 106.451 17.5568C107.168 16.1829 107.526 14.7493 107.526 13.256C107.526 11.912 107.302 10.9861 106.854 10.4784C106.436 9.9408 105.809 9.672 104.973 9.672C103.27 9.672 102.419 10.7024 102.419 12.7632V16.1232H97.7597V13.0768C97.7597 10.5381 98.3869 8.5968 99.6413 7.2528C100.896 5.87893 102.718 5.192 105.107 5.192C107.496 5.192 109.318 5.87893 110.573 7.2528C111.827 8.5968 112.454 10.5381 112.454 13.0768C112.454 14.9883 111.991 16.8549 111.065 18.6768C110.169 20.4987 108.601 22.5893 106.361 24.9488C104.898 26.5019 103.912 27.7712 103.405 28.7568C102.897 29.7125 102.643 30.7429 102.643 31.848V32.52H112.006V37H97.7597V33.5952ZM123.044 37.448C120.625 37.448 118.773 36.7611 117.489 35.3872C116.205 34.0133 115.563 32.072 115.563 29.5632V13.3456C115.563 7.90987 118.072 5.192 123.089 5.192C125.479 5.192 127.3 5.87893 128.555 7.2528C129.809 8.5968 130.436 10.5381 130.436 13.0768V13.6592H125.777V12.7632C125.777 10.7024 124.926 9.672 123.224 9.672C122.298 9.672 121.611 9.95573 121.163 10.5232C120.715 11.0907 120.491 12.0912 120.491 13.5248V19.528H120.58C121.447 17.7061 122.94 16.7952 125.06 16.7952C126.852 16.7952 128.211 17.4075 129.137 18.632C130.063 19.8565 130.526 21.6336 130.526 23.9632V29.5632C130.526 32.072 129.884 34.0133 128.6 35.3872C127.315 36.7611 125.464 37.448 123.044 37.448ZM123.044 32.968C124.747 32.968 125.598 31.9525 125.598 29.9216V24.3664C125.598 22.3056 124.747 21.2752 123.044 21.2752C121.342 21.2752 120.491 22.3056 120.491 24.3664V29.9216C120.491 31.9525 121.342 32.968 123.044 32.968Z" fill="#1D91F1"/>
</g>
<defs>
<filter id="filter0_i_198_38" x="1.45605" y="5.19202" width="129.07" height="36.256" filterUnits="userSpaceOnUse" color-interpolation-filters="sRGB">
<feFlood flood-opacity="0" result="BackgroundImageFix"/>
<feBlend mode="normal" in="SourceGraphic" in2="BackgroundImageFix" result="shape"/>
<feColorMatrix in="SourceAlpha" type="matrix" values="0 0 0 0 0 0 0 0 0 0 0 0 0 0 0 0 0 0 127 0" result="hardAlpha"/>
<feOffset dy="4"/>
<feGaussianBlur stdDeviation="2"/>
<feComposite in2="hardAlpha" operator="arithmetic" k2="-1" k3="1"/>
<feColorMatrix type="matrix" values="0 0 0 0 1 0 0 0 0 1 0 0 0 0 1 0 0 0 1 0"/>
<feBlend mode="normal" in2="shape" result="effect1_innerShadow_198_38"/>
</filter>
</defs>
</svg>
