<svg width="920" height="334" viewBox="0 0 920 334" fill="none" xmlns="http://www.w3.org/2000/svg">
<g filter="url(#filter0_i_164_17)">
<g filter="url(#filter1_i_164_17)">
<path d="M102.099 185.8C102.099 194.333 100.033 201.6 95.8992 207.6C91.7659 213.467 85.8326 218 78.0992 221.2C70.4992 224.4 61.4992 226 51.0992 226C45.7659 226 40.6326 225.733 35.6992 225.2C30.8992 224.667 26.4992 223.933 22.4992 223C18.4992 221.933 14.9659 220.667 11.8992 219.2V202C16.6992 204.133 22.6326 206.067 29.6992 207.8C36.8992 209.533 44.2992 210.4 51.8992 210.4C58.9659 210.4 64.8992 209.467 69.6992 207.6C74.4992 205.733 78.0992 203.067 80.4992 199.6C82.8992 196.133 84.0992 192.067 84.0992 187.4C84.0992 182.733 83.0992 178.8 81.0992 175.6C79.0992 172.4 75.6326 169.467 70.6992 166.8C65.8992 164 59.1659 161.067 50.4992 158C44.3659 155.733 38.9659 153.333 34.2992 150.8C29.7659 148.133 25.9659 145.133 22.8992 141.8C19.8326 138.467 17.4992 134.667 15.8992 130.4C14.4326 126.133 13.6992 121.2 13.6992 115.6C13.6992 108 15.6326 101.533 19.4992 96.2C23.3659 90.7333 28.6992 86.5333 35.4992 83.6C42.4326 80.6667 50.3659 79.2 59.2992 79.2C67.1659 79.2 74.3659 79.9333 80.8992 81.4C87.4326 82.8667 93.3659 84.8 98.6992 87.2L93.0992 102.6C88.1659 100.467 82.7659 98.6667 76.8992 97.2C71.1659 95.7333 65.1659 95 58.8992 95C52.8992 95 47.8992 95.8667 43.8992 97.6C39.8992 99.3333 36.8992 101.8 34.8992 105C32.8992 108.067 31.8992 111.667 31.8992 115.8C31.8992 120.6 32.8992 124.6 34.8992 127.8C36.8992 131 40.1659 133.867 44.6992 136.4C49.2326 138.933 55.3659 141.667 63.0992 144.6C71.4992 147.667 78.5659 151 84.2992 154.6C90.1659 158.067 94.5659 162.267 97.4992 167.2C100.566 172.133 102.099 178.333 102.099 185.8ZM239.465 173.6C239.465 183.467 237.465 192.4 233.465 200.4C229.465 208.267 223.332 214.533 215.065 219.2C206.932 223.733 196.532 226 183.865 226C166.132 226 152.598 221.2 143.265 211.6C134.065 201.867 129.465 189.067 129.465 173.2V81.2H147.465V173.8C147.465 185.4 150.532 194.4 156.665 200.8C162.932 207.2 172.332 210.4 184.865 210.4C193.532 210.4 200.532 208.867 205.865 205.8C211.332 202.6 215.332 198.267 217.865 192.8C220.398 187.2 221.665 180.8 221.665 173.6V81.2H239.465V173.6ZM390.354 224H369.354L292.954 105.4H292.154C292.287 107.8 292.421 110.467 292.554 113.4C292.821 116.333 293.021 119.533 293.154 123C293.287 126.333 293.421 129.8 293.554 133.4C293.687 137 293.754 140.6 293.754 144.2V224H277.154V81.2H297.954L374.154 199.4H374.954C374.821 197.8 374.687 195.6 374.554 192.8C374.421 189.867 374.287 186.667 374.154 183.2C374.021 179.6 373.887 175.933 373.754 172.2C373.621 168.467 373.554 165 373.554 161.8V81.2H390.354V224ZM593.107 81.2L555.107 224H536.907L509.107 130.4C508.307 127.6 507.507 124.733 506.707 121.8C505.907 118.867 505.174 116.067 504.507 113.4C503.84 110.733 503.24 108.467 502.707 106.6C502.307 104.6 502.04 103.133 501.907 102.2C501.774 103.133 501.507 104.6 501.107 106.6C500.84 108.467 500.374 110.733 499.707 113.4C499.04 116.067 498.307 118.933 497.507 122C496.84 124.933 496.04 127.933 495.107 131L468.107 224H449.907L412.107 81.2H430.907L453.107 168.4C453.907 171.467 454.64 174.533 455.307 177.6C455.974 180.533 456.574 183.467 457.107 186.4C457.774 189.2 458.307 191.933 458.707 194.6C459.107 197.267 459.507 199.867 459.907 202.4C460.307 199.733 460.707 197 461.107 194.2C461.64 191.4 462.24 188.533 462.907 185.6C463.574 182.533 464.307 179.467 465.107 176.4C465.907 173.333 466.707 170.333 467.507 167.4L492.707 81.2H511.307L537.507 168C538.44 171.067 539.307 174.2 540.107 177.4C540.907 180.467 541.64 183.467 542.307 186.4C542.974 189.333 543.507 192.2 543.907 195C544.44 197.667 544.907 200.133 545.307 202.4C545.707 199.067 546.24 195.6 546.907 192C547.574 188.267 548.374 184.4 549.307 180.4C550.24 176.4 551.24 172.333 552.307 168.2L574.307 81.2H593.107ZM906.051 152.4C906.051 163.467 904.651 173.533 901.851 182.6C899.051 191.533 894.851 199.267 889.251 205.8C883.784 212.333 876.917 217.333 868.651 220.8C860.517 224.267 851.051 226 840.251 226C829.051 226 819.317 224.267 811.051 220.8C802.784 217.2 795.917 212.2 790.451 205.8C784.984 199.267 780.917 191.467 778.251 182.4C775.584 173.333 774.251 163.267 774.251 152.2C774.251 137.533 776.651 124.733 781.451 113.8C786.251 102.867 793.517 94.3333 803.251 88.2C813.117 82.0667 825.517 79 840.451 79C854.717 79 866.717 82.0667 876.451 88.2C886.184 94.2 893.517 102.733 898.451 113.8C903.517 124.733 906.051 137.6 906.051 152.4ZM793.251 152.4C793.251 164.4 794.917 174.733 798.251 183.4C801.584 192.067 806.717 198.733 813.651 203.4C820.717 208.067 829.584 210.4 840.251 210.4C851.051 210.4 859.851 208.067 866.651 203.4C873.584 198.733 878.717 192.067 882.051 183.4C885.384 174.733 887.051 164.4 887.051 152.4C887.051 134.4 883.317 120.333 875.851 110.2C868.384 99.9333 856.584 94.8 840.451 94.8C829.651 94.8 820.717 97.1333 813.651 101.8C806.717 106.333 801.584 112.933 798.251 121.6C794.917 130.133 793.251 140.4 793.251 152.4Z" fill="#FC0F1E"/>
</g>
<path d="M95.8992 207.6L97.1254 208.464L97.13 208.457L97.1345 208.451L95.8992 207.6ZM78.0992 221.2L77.5257 219.814L77.5171 219.818L78.0992 221.2ZM35.6992 225.2L35.5336 226.691L35.538 226.691L35.6992 225.2ZM22.4992 223L22.1127 224.449L22.1355 224.455L22.1584 224.461L22.4992 223ZM11.8992 219.2H10.3992V220.145L11.252 220.553L11.8992 219.2ZM11.8992 202L12.5084 200.629L10.3992 199.692V202H11.8992ZM29.6992 207.8L29.3419 209.257L29.3481 209.258L29.6992 207.8ZM69.6992 207.6L69.1555 206.202L69.6992 207.6ZM80.4992 199.6L79.2659 198.746L80.4992 199.6ZM81.0992 175.6L79.8272 176.395L81.0992 175.6ZM70.6992 166.8L69.9434 168.096L69.9645 168.108L69.9859 168.12L70.6992 166.8ZM50.4992 158L49.9792 159.407L49.989 159.411L49.9989 159.414L50.4992 158ZM34.2992 150.8L33.5387 152.093L33.5609 152.106L33.5836 152.118L34.2992 150.8ZM15.8992 130.4L14.4807 130.888L14.4874 130.907L14.4947 130.927L15.8992 130.4ZM19.4992 96.2L20.7136 97.0804L20.7188 97.0733L20.7238 97.0662L19.4992 96.2ZM35.4992 83.6L34.9147 82.2185L34.9051 82.2227L35.4992 83.6ZM80.8992 81.4L81.2278 79.9364L80.8992 81.4ZM98.6992 87.2L100.109 87.7126L100.585 86.4037L99.3148 85.8321L98.6992 87.2ZM93.0992 102.6L92.5039 103.977L93.9649 104.609L94.5089 103.113L93.0992 102.6ZM76.8992 97.2L76.5275 98.6532L76.5354 98.6552L76.8992 97.2ZM43.8992 97.6L43.3028 96.2237L43.8992 97.6ZM34.8992 105L36.1556 105.819L36.1635 105.807L36.1712 105.795L34.8992 105ZM34.8992 127.8L36.1712 127.005V127.005L34.8992 127.8ZM44.6992 136.4L43.9675 137.709L44.6992 136.4ZM63.0992 144.6L62.5672 146.002L62.576 146.006L62.5848 146.009L63.0992 144.6ZM84.2992 154.6L83.5016 155.87L83.5187 155.881L83.5361 155.891L84.2992 154.6ZM97.4992 167.2L96.2099 167.967L96.2175 167.979L96.2253 167.992L97.4992 167.2ZM100.599 185.8C100.599 194.083 98.5969 201.04 94.664 206.749L97.1345 208.451C101.468 202.16 103.599 194.584 103.599 185.8H100.599ZM94.673 206.736C90.729 212.334 85.0409 216.704 77.5257 219.814L78.6728 222.586C86.6243 219.296 92.8027 214.599 97.1254 208.464L94.673 206.736ZM77.5171 219.818C70.1427 222.923 61.3496 224.5 51.0992 224.5V227.5C61.6488 227.5 70.8557 225.877 78.6813 222.582L77.5171 219.818ZM51.0992 224.5C45.8158 224.5 40.7364 224.236 35.8604 223.709L35.538 226.691C40.5287 227.231 45.716 227.5 51.0992 227.5V224.5ZM35.8649 223.709C31.1139 223.181 26.7733 222.457 22.8401 221.539L22.1584 224.461C26.2251 225.41 30.6846 226.152 35.5336 226.691L35.8649 223.709ZM22.8857 221.551C18.9568 220.503 15.5136 219.266 12.5464 217.847L11.252 220.553C14.4182 222.067 18.0416 223.364 22.1127 224.449L22.8857 221.551ZM13.3992 219.2V202H10.3992V219.2H13.3992ZM11.29 203.371C16.1955 205.551 22.2192 207.51 29.3419 209.257L30.0566 206.343C23.0459 204.624 17.2029 202.716 12.5084 200.629L11.29 203.371ZM29.3481 209.258C36.6661 211.02 44.1841 211.9 51.8992 211.9V208.9C44.4144 208.9 37.1323 208.047 30.0503 206.342L29.3481 209.258ZM51.8992 211.9C59.0873 211.9 65.2181 210.952 70.2429 208.998L69.1555 206.202C64.5803 207.981 58.8445 208.9 51.8992 208.9V211.9ZM70.2429 208.998C75.2595 207.047 79.1276 204.217 81.7325 200.454L79.2659 198.746C77.0709 201.917 73.739 204.42 69.1555 206.202L70.2429 208.998ZM81.7325 200.454C84.3246 196.71 85.5992 192.338 85.5992 187.4H82.5992C82.5992 191.796 81.4739 195.557 79.2659 198.746L81.7325 200.454ZM85.5992 187.4C85.5992 182.519 84.5519 178.294 82.3712 174.805L79.8272 176.395C81.6465 179.306 82.5992 182.948 82.5992 187.4H85.5992ZM82.3712 174.805C80.1825 171.303 76.4713 168.215 71.4125 165.48L69.9859 168.12C74.7938 170.718 78.0159 173.497 79.8272 176.395L82.3712 174.805ZM71.455 165.504C66.5384 162.636 59.7055 159.666 50.9996 156.586L49.9989 159.414C58.6263 162.467 65.26 165.364 69.9434 168.096L71.455 165.504ZM51.0192 156.593C44.9384 154.346 39.6061 151.974 35.0149 149.482L33.5836 152.118C38.3257 154.693 43.7934 157.121 49.9792 159.407L51.0192 156.593ZM35.0597 149.507C30.6339 146.904 26.955 143.993 24.0031 140.784L21.7953 142.816C24.9768 146.274 28.8979 149.363 33.5387 152.093L35.0597 149.507ZM24.0031 140.784C21.068 137.594 18.8363 133.96 17.3037 129.873L14.4947 130.927C16.1621 135.373 18.5971 139.339 21.7953 142.816L24.0031 140.784ZM17.3177 129.912C15.9162 125.835 15.1992 121.072 15.1992 115.6H12.1992C12.1992 121.328 12.9489 126.431 14.4807 130.888L17.3177 129.912ZM15.1992 115.6C15.1992 108.266 17.0601 102.12 20.7136 97.0804L18.2848 95.3195C14.205 100.947 12.1992 107.734 12.1992 115.6H15.1992ZM20.7238 97.0662C24.4148 91.848 29.5188 87.8134 36.0934 84.9773L34.9051 82.2227C27.8796 85.2533 22.317 89.6187 18.2746 95.3338L20.7238 97.0662ZM36.0837 84.9814C42.8009 82.1395 50.5299 80.7 59.2992 80.7V77.7C50.2019 77.7 42.0642 79.1938 34.9148 82.2185L36.0837 84.9814ZM59.2992 80.7C67.074 80.7 74.162 81.4249 80.5707 82.8636L81.2278 79.9364C74.5698 78.4418 67.2578 77.7 59.2992 77.7V80.7ZM80.5707 82.8636C87.0192 84.3112 92.8547 86.2148 98.0837 88.5679L99.3148 85.8321C93.8771 83.3852 87.8459 81.4221 81.2278 79.9364L80.5707 82.8636ZM97.2895 86.6874L91.6895 102.087L94.5089 103.113L100.109 87.7126L97.2895 86.6874ZM93.6946 101.223C88.6777 99.0538 83.1992 97.2288 77.263 95.7448L76.5354 98.6552C82.3325 100.104 87.6541 101.88 92.5039 103.977L93.6946 101.223ZM77.271 95.7468C71.4092 94.2473 65.2839 93.5 58.8992 93.5V96.5C65.0479 96.5 70.9225 97.2194 76.5275 98.6532L77.271 95.7468ZM58.8992 93.5C52.7664 93.5 47.5477 94.3842 43.3028 96.2237L44.4956 98.9763C48.2507 97.3491 53.032 96.5 58.8992 96.5V93.5ZM43.3028 96.2237C39.0685 98.0585 35.8123 100.709 33.6272 104.205L36.1712 105.795C37.9861 102.891 40.7299 100.608 44.4956 98.9763L43.3028 96.2237ZM33.6428 104.181C31.464 107.521 30.3992 111.414 30.3992 115.8H33.3992C33.3992 111.919 34.3345 108.612 36.1556 105.819L33.6428 104.181ZM30.3992 115.8C30.3992 120.805 31.4426 125.1 33.6272 128.595L36.1712 127.005C34.3558 124.1 33.3992 120.395 33.3992 115.8H30.3992ZM33.6272 128.595C35.802 132.075 39.2926 135.097 43.9675 137.709L45.431 135.091C41.0392 132.636 37.9964 129.925 36.1712 127.005L33.6272 128.595ZM43.9675 137.709C48.5911 140.293 54.8003 143.056 62.5672 146.002L63.6312 143.197C55.9315 140.277 49.874 137.573 45.431 135.091L43.9675 137.709ZM62.5848 146.009C70.9153 149.05 77.8807 152.341 83.5016 155.87L85.0969 153.33C79.2511 149.659 72.0831 146.283 63.6136 143.191L62.5848 146.009ZM83.5361 155.891C89.2267 159.254 93.4273 163.287 96.2099 167.967L98.7885 166.433C95.7045 161.247 91.1051 156.879 85.0623 153.309L83.5361 155.891ZM96.2253 167.992C99.1075 172.629 100.599 178.534 100.599 185.8H103.599C103.599 178.132 102.024 171.638 98.7732 166.408L96.2253 167.992ZM233.465 200.4L234.802 201.08L234.806 201.071L233.465 200.4ZM215.065 219.2L215.795 220.51L215.802 220.506L215.065 219.2ZM143.265 211.6L142.175 212.63L142.182 212.638L142.189 212.646L143.265 211.6ZM129.465 81.2V79.7H127.965V81.2H129.465ZM147.465 81.2H148.965V79.7H147.465V81.2ZM156.665 200.8L155.582 201.838L155.587 201.844L155.593 201.849L156.665 200.8ZM205.865 205.8L206.613 207.1L206.623 207.095L205.865 205.8ZM217.865 192.8L219.226 193.431L219.232 193.418L217.865 192.8ZM221.665 81.2V79.7H220.165V81.2H221.665ZM239.465 81.2H240.965V79.7H239.465V81.2ZM237.965 173.6C237.965 183.258 236.009 191.958 232.123 199.729L234.806 201.071C238.921 192.842 240.965 183.675 240.965 173.6H237.965ZM232.128 199.72C228.272 207.303 222.357 213.361 214.327 217.894L215.802 220.506C224.306 215.706 230.658 209.23 234.802 201.08L232.128 199.72ZM214.335 217.89C206.491 222.262 196.364 224.5 183.865 224.5V227.5C196.699 227.5 207.372 225.205 215.795 220.51L214.335 217.89ZM183.865 224.5C166.4 224.5 153.308 219.779 144.34 210.554L142.189 212.646C151.888 222.621 165.863 227.5 183.865 227.5V224.5ZM144.355 210.57C135.466 201.165 130.965 188.759 130.965 173.2H127.965C127.965 189.374 132.664 202.568 142.175 212.63L144.355 210.57ZM130.965 173.2V81.2H127.965V173.2H130.965ZM129.465 82.7H147.465V79.7H129.465V82.7ZM145.965 81.2V173.8H148.965V81.2H145.965ZM145.965 173.8C145.965 185.663 149.106 195.081 155.582 201.838L157.748 199.762C151.957 193.719 148.965 185.137 148.965 173.8H145.965ZM155.593 201.849C162.239 208.637 172.092 211.9 184.865 211.9V208.9C172.571 208.9 163.624 205.763 157.737 199.751L155.593 201.849ZM184.865 211.9C193.692 211.9 200.977 210.341 206.613 207.1L205.117 204.5C200.086 207.393 193.371 208.9 184.865 208.9V211.9ZM206.623 207.095C212.339 203.748 216.557 199.19 219.226 193.431L216.504 192.169C214.106 197.344 210.324 201.452 205.107 204.505L206.623 207.095ZM219.232 193.418C221.867 187.594 223.165 180.977 223.165 173.6H220.165C220.165 180.623 218.93 186.806 216.498 192.182L219.232 193.418ZM223.165 173.6V81.2H220.165V173.6H223.165ZM221.665 82.7H239.465V79.7H221.665V82.7ZM237.965 81.2V173.6H240.965V81.2H237.965ZM390.354 224V225.5H391.854V224H390.354ZM369.354 224L368.093 224.812L368.536 225.5H369.354V224ZM292.954 105.4L294.215 104.588L293.772 103.9H292.954V105.4ZM292.154 105.4V103.9H290.568L290.656 105.483L292.154 105.4ZM292.554 113.4L291.055 113.468L291.057 113.502L291.06 113.536L292.554 113.4ZM293.154 123L291.655 123.058L291.655 123.06L293.154 123ZM293.554 133.4L292.055 133.456L293.554 133.4ZM293.754 224V225.5H295.254V224H293.754ZM277.154 224H275.654V225.5H277.154V224ZM277.154 81.2V79.7H275.654V81.2H277.154ZM297.954 81.2L299.215 80.3872L298.772 79.7H297.954V81.2ZM374.154 199.4L372.893 200.213L373.336 200.9H374.154V199.4ZM374.954 199.4V200.9H376.584L376.449 199.275L374.954 199.4ZM374.554 192.8L373.055 192.868L373.056 192.871L374.554 192.8ZM374.154 183.2L372.655 183.256L372.655 183.258L374.154 183.2ZM373.754 172.2L372.255 172.254L373.754 172.2ZM373.554 81.2V79.7H372.054V81.2H373.554ZM390.354 81.2H391.854V79.7H390.354V81.2ZM390.354 222.5H369.354V225.5H390.354V222.5ZM370.615 223.188L294.215 104.588L291.693 106.212L368.093 224.812L370.615 223.188ZM292.954 103.9H292.154V106.9H292.954V103.9ZM290.656 105.483C290.789 107.877 290.922 110.539 291.055 113.468L294.052 113.332C293.919 110.395 293.785 107.723 293.652 105.317L290.656 105.483ZM291.06 113.536C291.324 116.439 291.523 119.613 291.655 123.058L294.653 122.942C294.519 119.454 294.317 116.228 294.048 113.264L291.06 113.536ZM291.655 123.06C291.788 126.392 291.922 129.857 292.055 133.456L295.053 133.344C294.919 129.743 294.786 126.275 294.653 122.94L291.655 123.06ZM292.055 133.456C292.188 137.037 292.254 140.619 292.254 144.2H295.254C295.254 140.581 295.187 136.963 295.053 133.344L292.055 133.456ZM292.254 144.2V224H295.254V144.2H292.254ZM293.754 222.5H277.154V225.5H293.754V222.5ZM278.654 224V81.2H275.654V224H278.654ZM277.154 82.7H297.954V79.7H277.154V82.7ZM296.693 82.0127L372.893 200.213L375.415 198.587L299.215 80.3872L296.693 82.0127ZM374.154 200.9H374.954V197.9H374.154V200.9ZM376.449 199.275C376.318 197.701 376.185 195.522 376.052 192.729L373.056 192.871C373.189 195.678 373.324 197.899 373.459 199.525L376.449 199.275ZM376.052 192.732C375.919 189.803 375.786 186.606 375.653 183.142L372.655 183.258C372.788 186.727 372.922 189.931 373.055 192.868L376.052 192.732ZM375.653 183.144C375.52 179.545 375.386 175.879 375.253 172.146L372.255 172.254C372.388 175.988 372.522 179.655 372.655 183.256L375.653 183.144ZM375.253 172.146C375.12 168.428 375.054 164.979 375.054 161.8H372.054C372.054 165.02 372.121 168.505 372.255 172.254L375.253 172.146ZM375.054 161.8V81.2H372.054V161.8H375.054ZM373.554 82.7H390.354V79.7H373.554V82.7ZM388.854 81.2V224H391.854V81.2H388.854ZM593.107 81.2L594.557 81.5857L595.058 79.7H593.107V81.2ZM555.107 224V225.5H556.26L556.557 224.386L555.107 224ZM536.907 224L535.469 224.427L535.788 225.5H536.907V224ZM509.107 130.4L507.665 130.812L507.667 130.82L507.669 130.827L509.107 130.4ZM506.707 121.8L505.26 122.195V122.195L506.707 121.8ZM504.507 113.4L505.962 113.036L504.507 113.4ZM502.707 106.6L501.236 106.894L501.248 106.954L501.265 107.012L502.707 106.6ZM501.907 102.2L503.392 101.988H500.422L501.907 102.2ZM501.107 106.6L499.636 106.306L499.628 106.347L499.622 106.388L501.107 106.6ZM497.507 122L496.056 121.621L496.05 121.644L496.044 121.668L497.507 122ZM495.107 131L493.672 130.563L493.669 130.572L493.667 130.582L495.107 131ZM468.107 224V225.5H469.233L469.548 224.418L468.107 224ZM449.907 224L448.457 224.384L448.752 225.5H449.907V224ZM412.107 81.2V79.7H410.158L410.657 81.5838L412.107 81.2ZM430.907 81.2L432.361 80.8299L432.073 79.7H430.907V81.2ZM453.107 168.4L451.653 168.77L451.656 168.779L453.107 168.4ZM455.307 177.6L453.841 177.919L453.844 177.932L455.307 177.6ZM457.107 186.4L455.631 186.668L455.638 186.708L455.648 186.747L457.107 186.4ZM458.707 194.6L457.224 194.823L458.707 194.6ZM459.907 202.4L458.425 202.634L461.39 202.623L459.907 202.4ZM461.107 194.2L459.634 193.919L459.627 193.953L459.622 193.988L461.107 194.2ZM462.907 185.6L464.37 185.932L464.373 185.919L462.907 185.6ZM465.107 176.4L463.656 176.021L465.107 176.4ZM467.507 167.4L466.067 166.979L466.063 166.992L466.06 167.005L467.507 167.4ZM492.707 81.2V79.7H491.583L491.267 80.7791L492.707 81.2ZM511.307 81.2L512.743 80.7665L512.421 79.7H511.307V81.2ZM537.507 168L536.071 168.433L536.072 168.437L537.507 168ZM540.107 177.4L538.652 177.764L538.654 177.771L538.656 177.779L540.107 177.4ZM543.907 195L542.422 195.212L542.428 195.253L542.436 195.294L543.907 195ZM545.307 202.4L543.83 202.661L546.796 202.579L545.307 202.4ZM546.907 192L548.382 192.273L548.384 192.264L546.907 192ZM549.307 180.4L547.846 180.059L549.307 180.4ZM552.307 168.2L553.759 168.575L553.761 168.568L552.307 168.2ZM574.307 81.2V79.7H573.139L572.853 80.8323L574.307 81.2ZM591.657 80.8143L553.657 223.614L556.557 224.386L594.557 81.5857L591.657 80.8143ZM555.107 222.5H536.907V225.5H555.107V222.5ZM538.345 223.573L510.545 129.973L507.669 130.827L535.469 224.427L538.345 223.573ZM510.549 129.988C509.751 127.194 508.953 124.333 508.154 121.405L505.26 122.195C506.061 125.134 506.863 128.006 507.665 130.812L510.549 129.988ZM508.154 121.405C507.357 118.481 506.626 115.692 505.962 113.036L503.052 113.764C503.721 116.442 504.457 119.252 505.26 122.195L508.154 121.405ZM505.962 113.036C505.293 110.359 504.689 108.076 504.149 106.188L501.265 107.012C501.792 108.858 502.388 111.107 503.052 113.764L505.962 113.036ZM504.178 106.306C503.779 104.309 503.519 102.877 503.392 101.988L500.422 102.412C500.562 103.389 500.835 104.891 501.236 106.894L504.178 106.306ZM500.422 101.988C500.295 102.877 500.035 104.309 499.636 106.306L502.578 106.894C502.979 104.891 503.252 103.389 503.392 102.412L500.422 101.988ZM499.622 106.388C499.365 108.186 498.911 110.399 498.252 113.036L501.162 113.764C501.836 111.068 502.316 108.747 502.592 106.812L499.622 106.388ZM498.252 113.036C497.587 115.697 496.855 118.559 496.056 121.621L498.958 122.379C499.76 119.308 500.494 116.436 501.162 113.764L498.252 113.036ZM496.044 121.668C495.386 124.564 494.596 127.529 493.672 130.563L496.542 131.437C497.485 128.338 498.295 125.303 498.97 122.332L496.044 121.668ZM493.667 130.582L466.667 223.582L469.548 224.418L496.548 131.418L493.667 130.582ZM468.107 222.5H449.907V225.5H468.107V222.5ZM451.357 223.616L413.557 80.8162L410.657 81.5838L448.457 224.384L451.357 223.616ZM412.107 82.7H430.907V79.7H412.107V82.7ZM429.453 81.5701L451.653 168.77L454.561 168.03L432.361 80.8299L429.453 81.5701ZM451.656 168.779C452.45 171.826 453.179 174.872 453.841 177.919L456.773 177.281C456.102 174.194 455.364 171.108 454.558 168.021L451.656 168.779ZM453.844 177.932C454.506 180.845 455.102 183.757 455.631 186.668L458.583 186.132C458.046 183.177 457.441 180.222 456.77 177.268L453.844 177.932ZM455.648 186.747C456.305 189.509 456.83 192.201 457.224 194.823L460.19 194.377C459.784 191.666 459.242 188.891 458.566 186.053L455.648 186.747ZM457.224 194.823C457.624 197.493 458.025 200.097 458.425 202.634L461.389 202.166C460.989 199.637 460.59 197.041 460.19 194.377L457.224 194.823ZM461.39 202.623C461.791 199.952 462.191 197.215 462.592 194.412L459.622 193.988C459.223 196.785 458.823 199.514 458.424 202.177L461.39 202.623ZM462.581 194.481C463.11 191.699 463.707 188.85 464.37 185.932L461.444 185.268C460.774 188.217 460.17 191.101 459.634 193.919L462.581 194.481ZM464.373 185.919C465.035 182.872 465.764 179.826 466.558 176.779L463.656 176.021C462.85 179.108 462.112 182.194 461.441 185.281L464.373 185.919ZM466.558 176.779C467.357 173.717 468.156 170.722 468.954 167.795L466.06 167.005C465.258 169.944 464.457 172.95 463.656 176.021L466.558 176.779ZM468.947 167.821L494.147 81.6209L491.267 80.7791L466.067 166.979L468.947 167.821ZM492.707 82.7H511.307V79.7H492.707V82.7ZM509.871 81.6334L536.071 168.433L538.943 167.567L512.743 80.7665L509.871 81.6334ZM536.072 168.437C536.998 171.479 537.858 174.588 538.652 177.764L541.562 177.036C540.756 173.812 539.883 170.655 538.942 167.563L536.072 168.437ZM538.656 177.779C539.452 180.831 540.181 183.815 540.844 186.732L543.77 186.068C543.099 183.118 542.362 180.103 541.558 177.021L538.656 177.779ZM540.844 186.732C541.503 189.628 542.028 192.455 542.422 195.212L545.392 194.788C544.986 191.945 544.445 189.038 543.77 186.068L540.844 186.732ZM542.436 195.294C542.968 197.952 543.432 200.407 543.83 202.661L546.784 202.139C546.382 199.86 545.913 197.382 545.378 194.706L542.436 195.294ZM546.796 202.579C547.192 199.28 547.721 195.845 548.382 192.273L545.432 191.727C544.76 195.355 544.222 198.854 543.818 202.221L546.796 202.579ZM548.384 192.264C549.045 188.558 549.84 184.717 550.768 180.741L547.846 180.059C546.907 184.083 546.102 187.975 545.43 191.736L548.384 192.264ZM550.768 180.741C551.698 176.753 552.696 172.697 553.759 168.575L550.855 167.825C549.785 171.969 548.782 176.047 547.846 180.059L550.768 180.741ZM553.761 168.568L575.761 81.5677L572.853 80.8323L550.853 167.832L553.761 168.568ZM574.307 82.7H593.107V79.7H574.307V82.7ZM901.851 182.6L903.282 183.049L903.284 183.043L901.851 182.6ZM889.251 205.8L888.112 204.824L888.106 204.831L888.1 204.837L889.251 205.8ZM868.651 220.8L868.071 219.417L868.063 219.42L868.651 220.8ZM811.051 220.8L810.452 222.175L810.461 222.179L810.471 222.183L811.051 220.8ZM790.451 205.8L789.3 206.763L789.305 206.768L789.31 206.774L790.451 205.8ZM778.251 182.4L776.812 182.823L778.251 182.4ZM781.451 113.8L782.824 114.403L781.451 113.8ZM803.251 88.2L802.459 86.926L802.451 86.9309L803.251 88.2ZM876.451 88.2L875.651 89.4691L875.657 89.473L875.664 89.4769L876.451 88.2ZM898.451 113.8L897.081 114.411L897.085 114.421L897.09 114.431L898.451 113.8ZM813.651 203.4L812.813 204.644L812.824 204.652L813.651 203.4ZM866.651 203.4L865.813 202.156L865.802 202.163L866.651 203.4ZM882.051 183.4L880.651 182.862L882.051 183.4ZM875.851 110.2L874.638 111.082L874.643 111.09L875.851 110.2ZM813.651 101.8L814.472 103.055L814.477 103.052L813.651 101.8ZM798.251 121.6L799.648 122.146L799.651 122.138L798.251 121.6ZM904.551 152.4C904.551 163.341 903.167 173.256 900.418 182.157L903.284 183.043C906.135 173.811 907.551 163.592 907.551 152.4H904.551ZM900.419 182.151C897.675 190.908 893.568 198.458 888.112 204.824L890.39 206.776C896.133 200.076 900.427 192.159 903.282 183.049L900.419 182.151ZM888.1 204.837C882.796 211.177 876.128 216.038 868.071 219.417L869.231 222.183C877.707 218.629 884.773 213.489 890.401 206.763L888.1 204.837ZM868.063 219.42C860.152 222.792 850.892 224.5 840.251 224.5V227.5C851.209 227.5 860.883 225.741 869.239 222.18L868.063 219.42ZM840.251 224.5C829.202 224.5 819.674 222.79 811.631 219.417L810.471 222.183C818.961 225.744 828.9 227.5 840.251 227.5V224.5ZM811.65 219.425C803.576 215.909 796.9 211.041 791.591 204.826L789.31 206.774C794.935 213.359 801.992 218.491 810.452 222.175L811.65 219.425ZM791.601 204.837C786.281 198.479 782.305 190.867 779.69 181.977L776.812 182.823C779.53 192.066 783.688 200.055 789.3 206.763L791.601 204.837ZM779.69 181.977C777.07 173.069 775.751 163.147 775.751 152.2H772.751C772.751 163.386 774.098 173.598 776.812 182.823L779.69 181.977ZM775.751 152.2C775.751 137.695 778.124 125.108 782.824 114.403L780.077 113.197C775.177 124.359 772.751 137.372 772.751 152.2H775.751ZM782.824 114.403C787.509 103.733 794.581 95.4364 804.05 89.4691L802.451 86.9309C792.454 93.2303 784.993 102 780.077 113.197L782.824 114.403ZM804.043 89.4739C813.613 83.525 825.719 80.5 840.451 80.5V77.5C825.316 77.5 812.622 80.6083 802.459 86.9261L804.043 89.4739ZM840.451 80.5C854.502 80.5 866.209 83.5191 875.651 89.4691L877.25 86.9309C867.226 80.6142 854.933 77.5 840.451 77.5V80.5ZM875.664 89.4769C885.124 95.3088 892.263 103.602 897.081 114.411L899.821 113.189C894.772 101.864 887.244 93.0912 877.238 86.9231L875.664 89.4769ZM897.09 114.431C902.046 125.127 904.551 137.769 904.551 152.4H907.551C907.551 137.431 904.988 124.34 899.812 113.169L897.09 114.431ZM791.751 152.4C791.751 164.533 793.435 175.058 796.851 183.938L799.651 182.862C796.4 174.409 794.751 164.267 794.751 152.4H791.751ZM796.851 183.938C800.282 192.859 805.596 199.787 812.813 204.644L814.488 202.156C807.839 197.68 802.886 191.274 799.651 182.862L796.851 183.938ZM812.824 204.652C820.193 209.518 829.366 211.9 840.251 211.9V208.9C829.802 208.9 821.242 206.616 814.477 202.148L812.824 204.652ZM840.251 211.9C851.261 211.9 860.383 209.521 867.5 204.637L865.802 202.163C859.319 206.613 850.841 208.9 840.251 208.9V211.9ZM867.488 204.644C874.705 199.787 880.02 192.859 883.451 183.938L880.651 182.862C877.415 191.274 872.463 197.68 865.813 202.156L867.488 204.644ZM883.451 183.938C886.866 175.058 888.551 164.533 888.551 152.4H885.551C885.551 164.267 883.902 174.409 880.651 182.862L883.451 183.938ZM888.551 152.4C888.551 134.213 884.781 119.791 877.058 109.31L874.643 111.09C881.854 120.876 885.551 134.587 885.551 152.4H888.551ZM877.064 109.318C869.24 98.5595 856.92 93.3 840.451 93.3V96.3C856.248 96.3 867.529 101.307 874.638 111.082L877.064 109.318ZM840.451 93.3C829.437 93.3 820.196 95.6804 812.824 100.548L814.477 103.052C821.239 98.5863 829.864 96.3 840.451 96.3V93.3ZM812.83 100.545C805.602 105.271 800.283 112.138 796.851 121.062L799.651 122.138C802.885 113.729 807.833 107.396 814.472 103.055L812.83 100.545ZM796.854 121.054C793.435 129.806 791.751 140.268 791.751 152.4H794.751C794.751 140.532 796.4 130.46 799.648 122.146L796.854 121.054Z" fill="#FC0F1E"/>
<g filter="url(#filter2_i_164_17)">
<path d="M635.14 232.4C622.82 232.4 612.74 229.11 604.9 222.53C597.2 215.95 593.35 206.29 593.35 193.55C593.35 185.85 594.75 178.43 597.55 171.29C600.49 164.01 603.71 157.15 607.21 150.71C603.71 147.07 600.63 143.08 597.97 138.74C595.45 134.26 594.19 129.43 594.19 124.25C594.19 117.95 596.08 112.49 599.86 107.87C603.78 103.11 608.68 99.12 614.56 95.9C620.44 92.54 626.53 89.81 632.83 87.71C639.13 85.61 644.73 84.07 649.63 83.09C660.83 80.99 672.03 79.94 683.23 79.94H689.95C697.51 77.28 705.28 75.32 713.26 74.06C721.24 72.8 729.22 72.17 737.2 72.17C741.4 72.17 745.6 72.38 749.8 72.8C754.14 73.08 758.34 73.57 762.4 74.27C767.3 75.11 771.57 77.07 775.21 80.15C778.85 83.23 780.67 87.5 780.67 92.96C780.67 93.94 780.39 95.48 779.83 97.58C779.41 99.54 778.78 101.43 777.94 103.25C777.1 104.93 776.12 105.77 775 105.77C773.88 105.77 773.32 105.21 773.32 104.09C773.32 103.39 774.02 102.13 775.42 100.31C776.82 98.49 777.52 96.04 777.52 92.96C777.52 89.18 776.54 86.17 774.58 83.93C772.62 81.55 770.1 79.87 767.02 78.89C763.94 77.77 760.72 77.07 757.36 76.79C754 76.37 750.92 76.16 748.12 76.16C742.1 76.16 736.08 76.72 730.06 77.84C724.18 78.82 718.37 80.29 712.63 82.25C718.37 83.09 724.6 84.42 731.32 86.24C738.04 87.92 744.41 90.3 750.43 93.38C756.45 96.46 761.35 100.52 765.13 105.56C768.91 110.46 770.8 116.55 770.8 123.83C770.8 129.85 769.61 135.87 767.23 141.89C764.85 147.77 761.7 153.44 757.78 158.9C753.86 164.36 749.66 169.54 745.18 174.44C740.7 179.2 736.36 183.47 732.16 187.25C733.7 187.11 735.8 186.83 738.46 186.41C741.12 185.85 742.94 185.57 743.92 185.57C745.18 185.57 745.81 186.06 745.81 187.04C745.81 187.74 745.39 188.23 744.55 188.51C741.89 189.21 739.16 189.7 736.36 189.98C733.7 190.26 730.97 190.54 728.17 190.82C721.17 196.84 713.19 202.86 704.23 208.88C695.27 214.9 686.45 219.59 677.77 222.95C671.19 225.61 664.19 227.85 656.77 229.67C649.49 231.49 642.28 232.4 635.14 232.4ZM612.04 142.73C619.74 130.69 628.91 119.77 639.55 109.97C650.33 100.17 662.23 92.19 675.25 86.03C670.91 86.17 666.5 86.59 662.02 87.29C657.68 87.99 653.27 88.9 648.79 90.02C644.73 91 640.25 92.54 635.35 94.64C630.59 96.6 625.97 99.12 621.49 102.2C617.15 105.14 613.51 108.64 610.57 112.7C607.77 116.62 606.37 121.1 606.37 126.14C606.37 129.08 606.93 132.02 608.05 134.96C609.31 137.76 610.64 140.35 612.04 142.73ZM716.2 187.67C719.98 183.61 723.97 178.78 728.17 173.18C732.37 167.44 736.36 161.35 740.14 154.91C743.92 148.33 747 141.82 749.38 135.38C751.76 128.8 752.95 122.71 752.95 117.11C752.95 110.53 751.13 105.35 747.49 101.57C743.99 97.79 739.44 94.92 733.84 92.96C728.38 91 722.64 89.67 716.62 88.97C710.6 88.13 705.21 87.43 700.45 86.87C690.09 91.21 679.94 96.81 670 103.67C660.06 110.53 650.89 118.23 642.49 126.77C634.09 135.17 626.88 144.2 620.86 153.86C626.46 159.32 633.11 164.15 640.81 168.35C648.51 172.41 656.7 175.84 665.38 178.64C674.2 181.3 682.95 183.4 691.63 184.94C700.31 186.34 708.5 187.25 716.2 187.67ZM658.87 165.41C658.03 165.41 657.61 164.99 657.61 164.15C657.61 163.03 658.52 161.42 660.34 159.32C662.16 157.08 664.33 154.77 666.85 152.39C669.37 150.01 671.82 148.05 674.2 146.51C676.58 144.83 678.33 143.99 679.45 143.99C680.01 143.99 680.5 144.41 680.92 145.25C681.62 146.37 682.18 147.49 682.6 148.61C683.16 149.59 683.93 150.64 684.91 151.76C685.61 152.32 686.94 153.09 688.9 154.07C690.86 154.91 691.84 155.61 691.84 156.17C691.84 156.59 691.63 156.94 691.21 157.22C690.79 157.5 690.44 157.78 690.16 158.06C689.6 158.48 688.06 158.97 685.54 159.53C683.02 159.95 680.43 160.37 677.77 160.79C675.25 161.07 673.5 161.28 672.52 161.42C670.28 161.7 668.18 162.26 666.22 163.1C664.4 163.8 662.44 164.5 660.34 165.2C660.06 165.34 659.57 165.41 658.87 165.41ZM642.07 225.68C651.45 225.68 660.27 224.14 668.53 221.06C676.93 217.98 684.77 213.85 692.05 208.67C699.47 203.35 706.33 197.54 712.63 191.24C702.13 190.82 691.14 189.35 679.66 186.83C668.32 184.17 657.26 180.53 646.48 175.91C635.7 171.29 626.04 165.83 617.5 159.53C614.56 164.85 611.9 170.73 609.52 177.17C607.14 183.61 605.95 189.91 605.95 196.07C605.95 203.07 607.63 208.81 610.99 213.29C614.49 217.63 618.97 220.78 624.43 222.74C629.89 224.7 635.77 225.68 642.07 225.68Z" fill="#FC0F1E"/>
</g>
<path d="M604.9 222.53L602.951 224.811L602.961 224.819L602.971 224.828L604.9 222.53ZM597.55 171.29L594.768 170.167L594.763 170.181L594.757 170.195L597.55 171.29ZM607.21 150.71L609.846 152.143L610.894 150.213L609.373 148.631L607.21 150.71ZM597.97 138.74L595.355 140.211L595.383 140.26L595.412 140.308L597.97 138.74ZM599.86 107.87L597.544 105.963L597.538 105.97L599.86 107.87ZM614.56 95.9L616.001 98.5313L616.025 98.5182L616.048 98.5047L614.56 95.9ZM632.83 87.71L631.881 84.8639H631.881L632.83 87.71ZM649.63 83.09L649.077 80.1414L649.059 80.1447L649.042 80.1483L649.63 83.09ZM689.95 79.94V82.94H690.462L690.946 82.7699L689.95 79.94ZM713.26 74.06L712.792 71.0967L713.26 74.06ZM749.8 72.8L749.501 75.7851L749.554 75.7904L749.607 75.7938L749.8 72.8ZM762.4 74.27L761.89 77.2264L761.893 77.2269L762.4 74.27ZM775.21 80.15L777.148 77.8598L775.21 80.15ZM779.83 97.58L776.931 96.807L776.912 96.8788L776.897 96.9514L779.83 97.58ZM777.94 103.25L780.623 104.592L780.644 104.55L780.664 104.507L777.94 103.25ZM775.42 100.31L777.798 102.139V102.139L775.42 100.31ZM774.58 83.93L772.264 85.8371L772.293 85.8717L772.322 85.9055L774.58 83.93ZM767.02 78.89L765.995 81.7094L766.052 81.7302L766.11 81.7488L767.02 78.89ZM757.36 76.79L756.988 79.7668L757.049 79.7745L757.111 79.7796L757.36 76.79ZM730.06 77.84L730.553 80.7992L730.581 80.7945L730.609 80.7894L730.06 77.84ZM712.63 82.25L711.661 79.4109L712.196 85.2184L712.63 82.25ZM731.32 86.24L730.536 89.1357L730.564 89.1433L730.592 89.1504L731.32 86.24ZM750.43 93.38L751.796 90.7093V90.7092L750.43 93.38ZM765.13 105.56L762.73 107.36L762.742 107.376L762.755 107.392L765.13 105.56ZM767.23 141.89L770.011 143.016L770.015 143.004L770.02 142.993L767.23 141.89ZM757.78 158.9L760.217 160.65V160.65L757.78 158.9ZM745.18 174.44L747.365 176.496L747.379 176.48L747.394 176.464L745.18 174.44ZM732.16 187.25L730.153 185.02L723.448 191.054L732.432 190.238L732.16 187.25ZM738.46 186.41L738.928 189.373L739.003 189.361L739.078 189.346L738.46 186.41ZM744.55 188.51L745.313 191.411L745.407 191.387L745.499 191.356L744.55 188.51ZM736.36 189.98L736.061 186.995L736.054 186.996L736.046 186.996L736.36 189.98ZM728.17 190.82L727.871 187.835L726.931 187.929L726.214 188.545L728.17 190.82ZM704.23 208.88L702.557 206.39L704.23 208.88ZM677.77 222.95L676.687 220.152L676.666 220.16L676.646 220.169L677.77 222.95ZM656.77 229.67L656.055 226.756L656.042 226.76L656.77 229.67ZM612.04 142.73L609.454 144.251L611.933 148.465L614.567 144.346L612.04 142.73ZM639.55 109.97L637.532 107.75L637.525 107.757L637.518 107.763L639.55 109.97ZM675.25 86.03L676.533 88.7418L675.153 83.0316L675.25 86.03ZM662.02 87.29L661.557 84.326L661.55 84.3271L661.542 84.3283L662.02 87.29ZM648.79 90.02L649.494 92.9362L649.506 92.9334L649.518 92.9304L648.79 90.02ZM635.35 94.64L636.492 97.414L636.512 97.4059L636.532 97.3974L635.35 94.64ZM621.49 102.2L623.173 104.684L623.181 104.678L623.19 104.672L621.49 102.2ZM610.57 112.7L608.14 110.94L608.134 110.948L608.129 110.956L610.57 112.7ZM608.05 134.96L605.247 136.028L605.278 136.111L605.314 136.191L608.05 134.96ZM716.2 187.67L716.037 190.666L717.439 190.742L718.396 189.714L716.2 187.67ZM728.17 173.18L730.57 174.98L730.581 174.966L730.591 174.952L728.17 173.18ZM740.14 154.91L742.727 156.429L742.734 156.417L742.741 156.404L740.14 154.91ZM749.38 135.38L752.194 136.42L752.198 136.41L752.201 136.4L749.38 135.38ZM747.49 101.57L745.289 103.608L745.309 103.63L745.329 103.651L747.49 101.57ZM733.84 92.96L732.826 95.7836L732.838 95.7876L732.849 95.7916L733.84 92.96ZM716.62 88.97L716.205 91.9412L716.239 91.946L716.273 91.9499L716.62 88.97ZM700.45 86.87L700.801 83.8905L700.018 83.7984L699.291 84.103L700.45 86.87ZM670 103.67L671.704 106.139L670 103.67ZM642.49 126.77L644.611 128.891L644.62 128.883L644.629 128.874L642.49 126.77ZM620.86 153.86L618.314 152.273L617.037 154.322L618.766 156.008L620.86 153.86ZM640.81 168.35L639.373 170.984L639.392 170.994L639.411 171.004L640.81 168.35ZM665.38 178.64L664.459 181.495L664.486 181.504L664.514 181.512L665.38 178.64ZM691.63 184.94L691.106 187.894L691.129 187.898L691.152 187.902L691.63 184.94ZM660.34 159.32L662.607 161.285L662.638 161.249L662.668 161.212L660.34 159.32ZM666.85 152.39L664.79 150.209H664.79L666.85 152.39ZM674.2 146.51L675.83 149.029L675.881 148.996L675.93 148.961L674.2 146.51ZM680.92 145.25L678.237 146.592L678.3 146.719L678.376 146.84L680.92 145.25ZM682.6 148.61L679.791 149.663L679.876 149.889L679.995 150.098L682.6 148.61ZM684.91 151.76L682.652 153.736L682.828 153.936L683.036 154.103L684.91 151.76ZM688.9 154.07L687.558 156.753L687.637 156.793L687.718 156.827L688.9 154.07ZM691.21 157.22L692.874 159.716L692.874 159.716L691.21 157.22ZM690.16 158.06L691.96 160.46L692.131 160.332L692.281 160.181L690.16 158.06ZM685.54 159.53L686.033 162.489L686.112 162.476L686.191 162.459L685.54 159.53ZM677.77 160.79L678.101 163.772L678.17 163.764L678.238 163.753L677.77 160.79ZM672.52 161.42L672.892 164.397L672.918 164.394L672.944 164.39L672.52 161.42ZM666.22 163.1L667.297 165.9L667.35 165.88L667.402 165.857L666.22 163.1ZM660.34 165.2L659.391 162.354L659.189 162.421L658.998 162.517L660.34 165.2ZM668.53 221.06L667.497 218.243L667.49 218.246L667.482 218.249L668.53 221.06ZM692.05 208.67L693.789 211.114L693.798 211.108L692.05 208.67ZM712.63 191.24L714.751 193.361L719.596 188.516L712.75 188.242L712.63 191.24ZM679.66 186.83L678.975 189.751L678.996 189.756L679.017 189.76L679.66 186.83ZM646.48 175.91L647.662 173.153L646.48 175.91ZM617.5 159.53L619.281 157.116L616.529 155.085L614.874 158.079L617.5 159.53ZM609.52 177.17L606.706 176.13L609.52 177.17ZM610.99 213.29L608.59 215.09L608.622 215.132L608.655 215.173L610.99 213.29ZM624.43 222.74L623.416 225.564L624.43 222.74ZM635.14 229.4C623.376 229.4 614.024 226.271 606.829 220.232L602.971 224.828C611.456 231.949 622.264 235.4 635.14 235.4V229.4ZM606.849 220.249C599.982 214.381 596.35 205.657 596.35 193.55H590.35C590.35 206.923 594.418 217.519 602.951 224.811L606.849 220.249ZM596.35 193.55C596.35 186.223 597.68 179.175 600.343 172.385L594.757 170.195C591.82 177.685 590.35 185.477 590.35 193.55H596.35ZM600.332 172.413C603.232 165.232 606.404 158.476 609.846 152.143L604.574 149.277C601.016 155.824 597.748 162.788 594.768 170.167L600.332 172.413ZM609.373 148.631C606.024 145.148 603.076 141.33 600.528 137.172L595.412 140.308C598.184 144.83 601.396 148.992 605.048 152.789L609.373 148.631ZM600.585 137.269C598.319 133.242 597.19 128.919 597.19 124.25H591.19C591.19 129.941 592.581 135.278 595.355 140.211L600.585 137.269ZM597.19 124.25C597.19 118.601 598.866 113.823 602.182 109.77L597.538 105.97C593.294 111.157 591.19 117.299 591.19 124.25H597.19ZM602.176 109.777C605.833 105.337 610.427 101.584 616.001 98.5313L613.119 93.2687C606.933 96.6561 601.727 100.883 597.544 105.963L602.176 109.777ZM616.048 98.5047C621.76 95.2408 627.67 92.5923 633.779 90.556L631.881 84.8639C625.39 87.0276 619.12 89.8392 613.072 93.2953L616.048 98.5047ZM633.779 90.556C639.996 88.4835 645.472 86.9809 650.218 86.0317L649.042 80.1483C643.988 81.1591 638.264 82.7365 631.881 84.8639L633.779 90.556ZM650.183 86.0386C661.204 83.9722 672.219 82.94 683.23 82.94V76.94C671.841 76.94 660.456 78.0078 649.077 80.1414L650.183 86.0386ZM683.23 82.94H689.95V76.94H683.23V82.94ZM690.946 82.7699C698.333 80.1708 705.926 78.2551 713.728 77.0233L712.792 71.0967C704.634 72.3848 696.687 74.3892 688.954 77.1101L690.946 82.7699ZM713.728 77.0233C721.555 75.7874 729.379 75.17 737.2 75.17V69.17C729.061 69.17 720.925 69.8126 712.792 71.0967L713.728 77.0233ZM737.2 75.17C741.3 75.17 745.4 75.375 749.501 75.7851L750.099 69.8149C745.8 69.385 741.5 69.17 737.2 69.17V75.17ZM749.607 75.7938C753.847 76.0673 757.941 76.5454 761.89 77.2264L762.91 71.3136C758.739 70.5946 754.433 70.0927 749.993 69.8062L749.607 75.7938ZM761.893 77.2269C766.289 77.9804 770.059 79.7212 773.272 82.4401L777.148 77.8598C773.081 74.4188 768.311 72.2396 762.907 71.3131L761.893 77.2269ZM773.272 82.4401C776.137 84.8639 777.67 88.2395 777.67 92.96H783.67C783.67 86.7605 781.563 81.5961 777.148 77.8598L773.272 82.4401ZM777.67 92.96C777.67 93.517 777.485 94.7296 776.931 96.807L782.729 98.353C783.295 96.2304 783.67 94.363 783.67 92.96H777.67ZM776.897 96.9514C776.523 98.6948 775.963 100.374 775.216 101.993L780.664 104.507C781.597 102.486 782.297 100.385 782.763 98.2086L776.897 96.9514ZM775.257 101.908C774.941 102.54 774.704 102.793 774.623 102.862C774.593 102.888 774.617 102.86 774.7 102.827C774.788 102.792 774.895 102.77 775 102.77V108.77C777.891 108.77 779.641 106.557 780.623 104.592L775.257 101.908ZM775 102.77C774.902 102.77 775.38 102.748 775.861 103.229C776.342 103.71 776.32 104.188 776.32 104.09H770.32C770.32 105.112 770.578 106.43 771.619 107.471C772.66 108.512 773.978 108.77 775 108.77V102.77ZM776.32 104.09C776.32 104.383 776.254 104.532 776.276 104.469C776.292 104.425 776.344 104.299 776.467 104.077C776.716 103.63 777.142 102.992 777.798 102.139L773.042 98.4809C772.298 99.4484 771.674 100.35 771.223 101.163C770.835 101.86 770.32 102.925 770.32 104.09H776.32ZM777.798 102.139C779.72 99.6409 780.52 96.4771 780.52 92.96H774.52C774.52 95.6029 773.92 97.3391 773.042 98.4809L777.798 102.139ZM780.52 92.96C780.52 88.6554 779.394 84.8764 776.838 81.9545L772.322 85.9055C773.686 87.4636 774.52 89.7046 774.52 92.96H780.52ZM776.896 82.0229C774.55 79.1747 771.532 77.1775 767.93 76.0312L766.11 81.7488C768.668 82.5625 770.69 83.9253 772.264 85.8371L776.896 82.0229ZM768.045 76.0706C764.708 74.8571 761.227 74.1018 757.609 73.8004L757.111 79.7796C760.213 80.0382 763.172 80.6829 765.995 81.7094L768.045 76.0706ZM757.732 73.8132C754.273 73.3808 751.067 73.16 748.12 73.16V79.16C750.773 79.16 753.727 79.3592 756.988 79.7668L757.732 73.8132ZM748.12 73.16C741.913 73.16 735.709 73.7375 729.511 74.8906L730.609 80.7894C736.451 79.7025 742.287 79.16 748.12 79.16V73.16ZM729.567 74.8808C723.522 75.8882 717.553 77.3989 711.661 79.4109L713.599 85.0891C719.187 83.1811 724.838 81.7517 730.553 80.7992L729.567 74.8808ZM712.196 85.2184C717.797 86.0381 723.909 87.3409 730.536 89.1357L732.104 83.3443C725.291 81.4991 718.943 80.1419 713.064 79.2816L712.196 85.2184ZM730.592 89.1504C737.096 90.7764 743.252 93.0772 749.064 96.0507L751.796 90.7092C745.568 87.5228 738.984 85.0636 732.048 83.3296L730.592 89.1504ZM749.064 96.0507C754.708 98.9384 759.244 102.711 762.73 107.36L767.53 103.76C763.456 98.3285 758.192 93.9815 751.796 90.7093L749.064 96.0507ZM762.755 107.392C766.061 111.679 767.8 117.092 767.8 123.83H773.8C773.8 116.008 771.759 109.241 767.505 103.728L762.755 107.392ZM767.8 123.83C767.8 129.445 766.692 135.092 764.44 140.787L770.02 142.993C772.528 136.648 773.8 130.255 773.8 123.83H767.8ZM764.449 140.764C762.164 146.411 759.132 151.872 755.343 157.15L760.217 160.65C764.268 155.007 767.536 149.129 770.011 143.016L764.449 140.764ZM755.343 157.15C751.491 162.516 747.365 167.604 742.966 172.416L747.394 176.464C751.955 171.476 756.229 166.204 760.217 160.65L755.343 157.15ZM742.995 172.384C738.564 177.093 734.283 181.303 730.153 185.02L734.167 189.48C738.437 185.637 742.836 181.307 747.365 176.496L742.995 172.384ZM732.432 190.238C734.068 190.089 736.243 189.797 738.928 189.373L737.992 183.447C735.357 183.863 733.332 184.131 731.888 184.262L732.432 190.238ZM739.078 189.346C741.772 188.778 743.298 188.57 743.92 188.57V182.57C742.582 182.57 740.468 182.922 737.842 183.474L739.078 189.346ZM743.92 188.57C744.244 188.57 743.935 188.647 743.496 188.306C743.252 188.116 743.055 187.86 742.934 187.579C742.821 187.315 742.81 187.112 742.81 187.04H748.81C748.81 185.858 748.392 184.512 747.179 183.569C746.11 182.738 744.856 182.57 743.92 182.57V188.57ZM742.81 187.04C742.81 186.912 742.83 186.732 742.902 186.527C742.976 186.319 743.087 186.132 743.217 185.98C743.469 185.686 743.69 185.634 743.601 185.664L745.499 191.356C746.25 191.106 747.101 190.669 747.773 189.885C748.49 189.048 748.81 188.041 748.81 187.04H742.81ZM743.787 185.609C741.283 186.268 738.708 186.73 736.061 186.995L736.659 192.965C739.612 192.67 742.497 192.152 745.313 191.411L743.787 185.609ZM736.046 186.996C733.391 187.276 730.667 187.555 727.871 187.835L728.469 193.805C731.273 193.525 734.009 193.244 736.674 192.964L736.046 186.996ZM726.214 188.545C719.317 194.476 711.434 200.425 702.557 206.39L705.903 211.37C714.946 205.295 723.023 199.204 730.126 193.095L726.214 188.545ZM702.557 206.39C693.753 212.305 685.13 216.884 676.687 220.152L678.853 225.748C687.77 222.296 696.787 217.495 705.903 211.37L702.557 206.39ZM676.646 220.169C670.209 222.771 663.346 224.968 656.055 226.756L657.485 232.584C665.034 230.732 672.171 228.449 678.894 225.731L676.646 220.169ZM656.042 226.76C648.988 228.523 642.023 229.4 635.14 229.4V235.4C642.537 235.4 649.992 234.457 657.498 232.58L656.042 226.76ZM614.567 144.346C622.127 132.526 631.13 121.804 641.582 112.177L637.518 107.763C626.69 117.736 617.353 128.854 609.513 141.114L614.567 144.346ZM641.568 112.19C652.131 102.587 663.784 94.7736 676.533 88.7418L673.967 83.3182C660.676 89.6064 648.529 97.7531 637.532 107.75L641.568 112.19ZM675.153 83.0316C670.685 83.1757 666.153 83.6078 661.557 84.326L662.483 90.254C666.847 89.5722 671.135 89.1643 675.347 89.0284L675.153 83.0316ZM661.542 84.3283C657.114 85.0425 652.621 85.97 648.062 87.1096L649.518 92.9304C653.919 91.83 658.246 90.9375 662.498 90.2517L661.542 84.3283ZM648.086 87.1038C643.825 88.1322 639.183 89.7335 634.168 91.8826L636.532 97.3974C641.317 95.3465 645.635 93.8677 649.494 92.9362L648.086 87.1038ZM634.208 91.866C629.241 93.911 624.435 96.5345 619.79 99.7279L623.19 104.672C627.505 101.705 631.939 99.289 636.492 97.414L634.208 91.866ZM619.807 99.7162C615.191 102.843 611.294 106.585 608.14 110.94L613 114.46C615.726 110.695 619.109 107.437 623.173 104.684L619.807 99.7162ZM608.129 110.956C604.948 115.41 603.37 120.505 603.37 126.14H609.37C609.37 121.695 610.592 117.83 613.011 114.444L608.129 110.956ZM603.37 126.14C603.37 129.47 604.006 132.771 605.247 136.028L610.853 133.892C609.854 131.269 609.37 128.69 609.37 126.14H603.37ZM605.314 136.191C606.614 139.08 607.993 141.767 609.454 144.251L614.626 141.209C613.287 138.933 612.006 136.44 610.786 133.729L605.314 136.191ZM718.396 189.714C722.264 185.56 726.322 180.644 730.57 174.98L725.77 171.38C721.618 176.916 717.696 181.66 714.004 185.626L718.396 189.714ZM730.591 174.952C734.854 169.126 738.899 162.951 742.727 156.429L737.553 153.391C733.821 159.749 729.886 165.754 725.749 171.408L730.591 174.952ZM742.741 156.404C746.596 149.694 749.75 143.033 752.194 136.42L746.566 134.34C744.25 140.607 741.244 146.966 737.539 153.416L742.741 156.404ZM752.201 136.4C754.671 129.572 755.95 123.132 755.95 117.11H749.95C749.95 122.287 748.849 128.028 746.559 134.36L752.201 136.4ZM755.95 117.11C755.95 109.961 753.957 103.961 749.651 99.4891L745.329 103.651C748.303 106.739 749.95 111.099 749.95 117.11H755.95ZM749.691 99.5318C745.811 95.3414 740.823 92.2255 734.831 90.1284L732.849 95.7916C738.057 97.6145 742.169 100.239 745.289 103.608L749.691 99.5318ZM734.854 90.1364C729.169 88.0956 723.204 86.7154 716.967 85.9901L716.273 91.9499C722.076 92.6246 727.592 93.9044 732.826 95.7836L734.854 90.1364ZM717.035 85.9988C710.999 85.1565 705.587 84.4536 700.801 83.8905L700.099 89.8494C704.833 90.4064 710.201 91.1034 716.205 91.9412L717.035 85.9988ZM699.291 84.103C688.726 88.5289 678.394 94.2318 668.296 101.201L671.704 106.139C681.486 99.3882 691.454 93.8911 701.609 89.637L699.291 84.103ZM668.296 101.201C658.201 108.168 648.885 115.99 640.351 124.666L644.629 128.874C652.895 120.47 661.919 112.892 671.704 106.139L668.296 101.201ZM640.369 124.649C631.814 133.203 624.46 142.411 618.314 152.273L623.406 155.447C629.3 145.989 636.366 137.137 644.611 128.891L640.369 124.649ZM618.766 156.008C624.584 161.681 631.462 166.668 639.373 170.984L642.247 165.716C634.758 161.632 628.336 156.959 622.954 151.712L618.766 156.008ZM639.411 171.004C647.271 175.148 655.622 178.644 664.459 181.495L666.301 175.785C657.778 173.036 649.749 169.672 642.209 165.696L639.411 171.004ZM664.514 181.512C673.441 184.205 682.305 186.332 691.106 187.894L692.154 181.986C683.595 180.468 674.959 178.395 666.246 175.768L664.514 181.512ZM691.152 187.902C699.922 189.316 708.218 190.239 716.037 190.666L716.363 184.674C708.782 184.261 700.698 183.364 692.108 181.978L691.152 187.902ZM658.87 162.41C658.912 162.41 659.495 162.423 660.046 162.974C660.597 163.525 660.61 164.108 660.61 164.15H654.61C654.61 165.032 654.833 166.245 655.804 167.216C656.775 168.187 657.988 168.41 658.87 168.41V162.41ZM660.61 164.15C660.61 164.341 660.556 164.194 660.904 163.579C661.225 163.011 661.77 162.251 662.607 161.285L658.073 157.355C657.09 158.489 656.27 159.584 655.681 160.626C655.119 161.621 654.61 162.839 654.61 164.15H660.61ZM662.668 161.212C664.391 159.092 666.467 156.878 668.91 154.571L664.79 150.209C662.193 152.662 659.929 155.068 658.012 157.428L662.668 161.212ZM668.91 154.571C671.325 152.29 673.632 150.45 675.83 149.029L672.57 143.991C670.008 145.65 667.415 147.73 664.79 150.209L668.91 154.571ZM675.93 148.961C677.044 148.175 677.926 147.646 678.596 147.325C679.321 146.976 679.556 146.99 679.45 146.99V140.99C678.224 140.99 677.024 141.424 675.999 141.915C674.919 142.434 673.736 143.165 672.47 144.059L675.93 148.961ZM679.45 146.99C679.205 146.99 678.962 146.942 678.743 146.854C678.529 146.769 678.378 146.662 678.285 146.583C678.121 146.442 678.131 146.38 678.237 146.592L683.603 143.908C683.041 142.783 681.781 140.99 679.45 140.99V146.99ZM678.376 146.84C678.981 147.808 679.448 148.749 679.791 149.663L685.409 147.557C684.912 146.231 684.259 144.932 683.464 143.66L678.376 146.84ZM679.995 150.098C680.68 151.297 681.58 152.51 682.652 153.736L687.168 149.784C686.28 148.77 685.64 147.883 685.205 147.122L679.995 150.098ZM683.036 154.103C684.011 154.883 685.603 155.775 687.558 156.753L690.242 151.387C688.277 150.405 687.209 149.757 686.784 149.417L683.036 154.103ZM687.718 156.827C688.627 157.217 689.131 157.502 689.361 157.666C689.477 157.749 689.41 157.722 689.288 157.566C689.171 157.414 688.84 156.929 688.84 156.17H694.84C694.84 155.131 694.387 154.348 694.024 153.882C693.658 153.411 693.223 153.051 692.849 152.784C692.099 152.248 691.133 151.763 690.082 151.313L687.718 156.827ZM688.84 156.17C688.84 155.853 688.927 155.509 689.11 155.204C689.281 154.919 689.472 154.773 689.546 154.724L692.874 159.716C693.935 159.009 694.84 157.805 694.84 156.17H688.84ZM689.546 154.724C689.004 155.085 688.49 155.487 688.039 155.939L692.281 160.181C692.39 160.073 692.576 159.915 692.874 159.716L689.546 154.724ZM688.36 155.66C688.488 155.564 688.528 155.564 688.363 155.635C688.222 155.697 688 155.78 687.675 155.884C687.025 156.091 686.107 156.331 684.889 156.601L686.191 162.459C687.493 162.169 688.605 161.884 689.495 161.601C690.276 161.353 691.237 161.002 691.96 160.46L688.36 155.66ZM685.047 156.571C682.536 156.989 679.954 157.408 677.302 157.827L678.238 163.753C680.906 163.332 683.504 162.911 686.033 162.489L685.047 156.571ZM677.439 157.808C674.921 158.088 673.128 158.303 672.096 158.45L672.944 164.39C673.872 164.257 675.579 164.052 678.101 163.772L677.439 157.808ZM672.148 158.443C669.645 158.756 667.271 159.386 665.038 160.343L667.402 165.857C669.089 165.134 670.915 164.644 672.892 164.397L672.148 158.443ZM665.143 160.3C663.371 160.982 661.454 161.666 659.391 162.354L661.289 168.046C663.426 167.334 665.429 166.618 667.297 165.9L665.143 160.3ZM658.998 162.517C659.074 162.479 659.139 162.452 659.188 162.434C659.237 162.416 659.276 162.404 659.301 162.398C659.349 162.384 659.366 162.384 659.338 162.388C659.313 162.391 659.261 162.397 659.179 162.402C659.098 162.407 658.996 162.41 658.87 162.41V168.41C659.596 168.41 660.718 168.365 661.682 167.883L658.998 162.517ZM642.07 228.68C651.785 228.68 660.962 227.084 669.578 223.871L667.482 218.249C659.578 221.196 651.115 222.68 642.07 222.68V228.68ZM669.563 223.877C678.213 220.705 686.291 216.45 693.789 211.114L690.311 206.226C683.249 211.25 675.647 215.255 667.497 218.243L669.563 223.877ZM693.798 211.108C701.348 205.695 708.333 199.78 714.751 193.361L710.509 189.119C704.327 195.3 697.592 201.005 690.302 206.232L693.798 211.108ZM712.75 188.242C702.445 187.83 691.631 186.386 680.303 183.9L679.017 189.76C690.649 192.314 701.815 193.81 712.51 194.238L712.75 188.242ZM680.345 183.909C669.176 181.289 658.282 177.704 647.662 173.153L645.298 178.667C656.238 183.356 667.464 187.051 678.975 189.751L680.345 183.909ZM647.662 173.153C637.072 168.614 627.617 163.265 619.281 157.116L615.719 161.944C624.463 168.395 634.328 173.966 645.298 178.667L647.662 173.153ZM614.874 158.079C611.853 163.547 609.132 169.566 606.706 176.13L612.334 178.21C614.668 171.894 617.267 166.153 620.126 160.981L614.874 158.079ZM606.706 176.13C604.217 182.865 602.95 189.517 602.95 196.07H608.95C608.95 190.303 610.063 184.355 612.334 178.21L606.706 176.13ZM602.95 196.07C602.95 203.554 604.752 209.973 608.59 215.09L613.39 211.49C610.508 207.647 608.95 202.586 608.95 196.07H602.95ZM608.655 215.173C612.515 219.96 617.46 223.425 623.416 225.564L625.444 219.916C620.48 218.135 616.465 215.3 613.325 211.407L608.655 215.173ZM623.416 225.564C629.228 227.65 635.454 228.68 642.07 228.68V222.68C636.086 222.68 630.552 221.75 625.444 219.916L623.416 225.564Z" fill="#FC0F1E"/>
</g>
<defs>
<filter id="filter0_i_164_17" x="11.8994" y="72.1699" width="894.151" height="164.23" filterUnits="userSpaceOnUse" color-interpolation-filters="sRGB">
<feFlood flood-opacity="0" result="BackgroundImageFix"/>
<feBlend mode="normal" in="SourceGraphic" in2="BackgroundImageFix" result="shape"/>
<feColorMatrix in="SourceAlpha" type="matrix" values="0 0 0 0 0 0 0 0 0 0 0 0 0 0 0 0 0 0 127 0" result="hardAlpha"/>
<feOffset dy="4"/>
<feGaussianBlur stdDeviation="2"/>
<feComposite in2="hardAlpha" operator="arithmetic" k2="-1" k3="1"/>
<feColorMatrix type="matrix" values="0 0 0 0 1 0 0 0 0 1 0 0 0 0 1 0 0 0 1 0"/>
<feBlend mode="normal" in2="shape" result="effect1_innerShadow_164_17"/>
</filter>
<filter id="filter1_i_164_17" x="11.8994" y="79" width="894.151" height="151" filterUnits="userSpaceOnUse" color-interpolation-filters="sRGB">
<feFlood flood-opacity="0" result="BackgroundImageFix"/>
<feBlend mode="normal" in="SourceGraphic" in2="BackgroundImageFix" result="shape"/>
<feColorMatrix in="SourceAlpha" type="matrix" values="0 0 0 0 0 0 0 0 0 0 0 0 0 0 0 0 0 0 127 0" result="hardAlpha"/>
<feOffset dy="5"/>
<feGaussianBlur stdDeviation="2"/>
<feComposite in2="hardAlpha" operator="arithmetic" k2="-1" k3="1"/>
<feColorMatrix type="matrix" values="0 0 0 0 1 0 0 0 0 1 0 0 0 0 1 0 0 0 1 0"/>
<feBlend mode="normal" in2="shape" result="effect1_innerShadow_164_17"/>
</filter>
<filter id="filter2_i_164_17" x="593.35" y="72.1699" width="187.32" height="164.23" filterUnits="userSpaceOnUse" color-interpolation-filters="sRGB">
<feFlood flood-opacity="0" result="BackgroundImageFix"/>
<feBlend mode="normal" in="SourceGraphic" in2="BackgroundImageFix" result="shape"/>
<feColorMatrix in="SourceAlpha" type="matrix" values="0 0 0 0 0 0 0 0 0 0 0 0 0 0 0 0 0 0 127 0" result="hardAlpha"/>
<feOffset dy="5"/>
<feGaussianBlur stdDeviation="2"/>
<feComposite in2="hardAlpha" operator="arithmetic" k2="-1" k3="1"/>
<feColorMatrix type="matrix" values="0 0 0 0 1 0 0 0 0 1 0 0 0 0 1 0 0 0 1 0"/>
<feBlend mode="normal" in2="shape" result="effect1_innerShadow_164_17"/>
</filter>
</defs>
</svg>
