<svg width="242" height="49" viewBox="0 0 242 49" fill="none" xmlns="http://www.w3.org/2000/svg">
<g filter="url(#filter0_i_198_52)">
<path d="M2.75688 0.999997H9.35688V18.7L17.7569 0.999997H24.3569L16.4969 16.42L24.4769 43H17.5769L11.9969 24.28L9.35688 29.62V43H2.75688V0.999997ZM27.6006 0.999997H34.2006V43H27.6006V0.999997ZM39.1436 0.999997H48.5636L52.7636 31.06H52.8836L57.0836 0.999997H66.5036V43H60.2636V11.2H60.1436L55.3436 43H49.8236L45.0236 11.2H44.9036V43H39.1436V0.999997ZM89.6181 43.6C86.4181 43.6 83.9981 42.7 82.3581 40.9C80.7181 39.06 79.8981 36.44 79.8981 33.04V30.64H86.1381V33.52C86.1381 36.24 87.2781 37.6 89.5581 37.6C90.6781 37.6 91.5181 37.28 92.0781 36.64C92.6781 35.96 92.9781 34.88 92.9781 33.4C92.9781 31.64 92.5781 30.1 91.7781 28.78C90.9781 27.42 89.4981 25.8 87.3381 23.92C84.6181 21.52 82.7181 19.36 81.6381 17.44C80.5581 15.48 80.0181 13.28 80.0181 10.84C80.0181 7.52 80.8581 4.96 82.5381 3.16C84.2181 1.32 86.6581 0.399998 89.8581 0.399998C93.0181 0.399998 95.3981 1.32 96.9981 3.16C98.6381 4.96 99.4581 7.56 99.4581 10.96V12.7H93.2181V10.54C93.2181 9.1 92.9381 8.06 92.3781 7.42C91.8181 6.74 90.9981 6.4 89.9181 6.4C87.7181 6.4 86.6181 7.74 86.6181 10.42C86.6181 11.94 87.0181 13.36 87.8181 14.68C88.6581 16 90.1581 17.6 92.3181 19.48C95.0781 21.88 96.9781 24.06 98.0181 26.02C99.0581 27.98 99.5781 30.28 99.5781 32.92C99.5781 36.36 98.7181 39 96.9981 40.84C95.3181 42.68 92.8581 43.6 89.6181 43.6ZM112.962 43.6C109.762 43.6 107.322 42.7 105.642 40.9C103.962 39.06 103.122 36.44 103.122 33.04V0.999997H109.722V33.52C109.722 34.96 110.002 36 110.562 36.64C111.162 37.28 112.002 37.6 113.082 37.6C114.162 37.6 114.982 37.28 115.542 36.64C116.142 36 116.442 34.96 116.442 33.52V0.999997H122.802V33.04C122.802 36.44 121.962 39.06 120.282 40.9C118.602 42.7 116.162 43.6 112.962 43.6ZM127.503 0.999997H135.783L142.203 26.14H142.323V0.999997H148.203V43H141.423L133.503 12.34H133.383V43H127.503V0.999997ZM161.158 0.999997H167.518L170.458 33.28H170.578L173.698 0.999997H180.898L184.018 33.28H184.138L187.078 0.999997H192.778L188.518 43H180.298L177.298 14.68H177.178L174.178 43H165.418L161.158 0.999997ZM205.656 43.6C202.416 43.6 199.936 42.68 198.216 40.84C196.496 39 195.636 36.4 195.636 33.04V10.96C195.636 7.6 196.496 5 198.216 3.16C199.936 1.32 202.416 0.399998 205.656 0.399998C208.896 0.399998 211.376 1.32 213.096 3.16C214.816 5 215.676 7.6 215.676 10.96V33.04C215.676 36.4 214.816 39 213.096 40.84C211.376 42.68 208.896 43.6 205.656 43.6ZM205.656 37.6C207.936 37.6 209.076 36.22 209.076 33.46V10.54C209.076 7.78 207.936 6.4 205.656 6.4C203.376 6.4 202.236 7.78 202.236 10.54V33.46C202.236 36.22 203.376 37.6 205.656 37.6ZM229.68 43.6C226.44 43.6 223.96 42.68 222.24 40.84C220.52 39 219.66 36.4 219.66 33.04V10.96C219.66 7.6 220.52 5 222.24 3.16C223.96 1.32 226.44 0.399998 229.68 0.399998C232.92 0.399998 235.4 1.32 237.12 3.16C238.84 5 239.7 7.6 239.7 10.96V33.04C239.7 36.4 238.84 39 237.12 40.84C235.4 42.68 232.92 43.6 229.68 43.6ZM229.68 37.6C231.96 37.6 233.1 36.22 233.1 33.46V10.54C233.1 7.78 231.96 6.4 229.68 6.4C227.4 6.4 226.26 7.78 226.26 10.54V33.46C226.26 36.22 227.4 37.6 229.68 37.6Z" fill="#FC0F1E"/>
<path d="M2.75688 0.999997V-2.86102e-06H1.75688V0.999997H2.75688ZM9.35688 0.999997H10.3569V-2.86102e-06H9.35688V0.999997ZM9.35688 18.7H8.35688L10.2603 19.1287L9.35688 18.7ZM17.7569 0.999997V-2.86102e-06H17.1246L16.8534 0.571253L17.7569 0.999997ZM24.3569 0.999997L25.2478 1.45413L25.989 -2.86102e-06H24.3569V0.999997ZM16.4969 16.42L15.6059 15.9659L15.4237 16.3233L15.5391 16.7075L16.4969 16.42ZM24.4769 43V44H25.8212L25.4346 42.7125L24.4769 43ZM17.5769 43L16.6185 43.2857L16.8315 44H17.5769V43ZM11.9969 24.28L12.9552 23.9943L12.2283 21.5556L11.1004 23.8368L11.9969 24.28ZM9.35688 29.62L8.46044 29.1768L8.35688 29.3863V29.62H9.35688ZM9.35688 43V44H10.3569V43H9.35688ZM2.75688 43H1.75688V44H2.75688V43ZM2.75688 2H9.35688V-2.86102e-06H2.75688V2ZM8.35688 0.999997V18.7H10.3569V0.999997H8.35688ZM10.2603 19.1287L18.6603 1.42874L16.8534 0.571253L8.45345 18.2713L10.2603 19.1287ZM17.7569 2H24.3569V-2.86102e-06H17.7569V2ZM23.4659 0.545864L15.6059 15.9659L17.3878 16.8741L25.2478 1.45413L23.4659 0.545864ZM15.5391 16.7075L23.5191 43.2875L25.4346 42.7125L17.4546 16.1325L15.5391 16.7075ZM24.4769 42H17.5769V44H24.4769V42ZM18.5352 42.7143L12.9552 23.9943L11.0385 24.5657L16.6185 43.2857L18.5352 42.7143ZM11.1004 23.8368L8.46044 29.1768L10.2533 30.0632L12.8933 24.7232L11.1004 23.8368ZM8.35688 29.62V43H10.3569V29.62H8.35688ZM9.35688 42H2.75688V44H9.35688V42ZM3.75688 43V0.999997H1.75688V43H3.75688ZM27.6006 0.999997V-2.86102e-06H26.6006V0.999997H27.6006ZM34.2006 0.999997H35.2006V-2.86102e-06H34.2006V0.999997ZM34.2006 43V44H35.2006V43H34.2006ZM27.6006 43H26.6006V44H27.6006V43ZM27.6006 2H34.2006V-2.86102e-06H27.6006V2ZM33.2006 0.999997V43H35.2006V0.999997H33.2006ZM34.2006 42H27.6006V44H34.2006V42ZM28.6006 43V0.999997H26.6006V43H28.6006ZM39.1436 0.999997V-2.86102e-06H38.1436V0.999997H39.1436ZM48.5636 0.999997L49.554 0.861621L49.4336 -2.86102e-06H48.5636V0.999997ZM52.7636 31.06L51.7732 31.1984L51.8936 32.06H52.7636V31.06ZM52.8836 31.06V32.06H53.7536L53.874 31.1984L52.8836 31.06ZM57.0836 0.999997V-2.86102e-06H56.2136L56.0932 0.861621L57.0836 0.999997ZM66.5036 0.999997H67.5036V-2.86102e-06H66.5036V0.999997ZM66.5036 43V44H67.5036V43H66.5036ZM60.2636 43H59.2636V44H60.2636V43ZM60.2636 11.2H61.2636V10.2H60.2636V11.2ZM60.1436 11.2V10.2H59.2832L59.1548 11.0507L60.1436 11.2ZM55.3436 43V44H56.204L56.3324 43.1493L55.3436 43ZM49.8236 43L48.8348 43.1493L48.9632 44H49.8236V43ZM45.0236 11.2L46.0124 11.0507L45.884 10.2H45.0236V11.2ZM44.9036 11.2V10.2H43.9036V11.2H44.9036ZM44.9036 43V44H45.9036V43H44.9036ZM39.1436 43H38.1436V44H39.1436V43ZM39.1436 2H48.5636V-2.86102e-06H39.1436V2ZM47.5732 1.13837L51.7732 31.1984L53.754 30.9216L49.554 0.861621L47.5732 1.13837ZM52.7636 32.06H52.8836V30.06H52.7636V32.06ZM53.874 31.1984L58.074 1.13837L56.0932 0.861621L51.8932 30.9216L53.874 31.1984ZM57.0836 2H66.5036V-2.86102e-06H57.0836V2ZM65.5036 0.999997V43H67.5036V0.999997H65.5036ZM66.5036 42H60.2636V44H66.5036V42ZM61.2636 43V11.2H59.2636V43H61.2636ZM60.2636 10.2H60.1436V12.2H60.2636V10.2ZM59.1548 11.0507L54.3548 42.8507L56.3324 43.1493L61.1324 11.3493L59.1548 11.0507ZM55.3436 42H49.8236V44H55.3436V42ZM50.8124 42.8507L46.0124 11.0507L44.0348 11.3493L48.8348 43.1493L50.8124 42.8507ZM45.0236 10.2H44.9036V12.2H45.0236V10.2ZM43.9036 11.2V43H45.9036V11.2H43.9036ZM44.9036 42H39.1436V44H44.9036V42ZM40.1436 43V0.999997H38.1436V43H40.1436ZM82.3581 40.9L81.6116 41.5654L81.6189 41.5735L82.3581 40.9ZM79.8981 30.64V29.64H78.8981V30.64H79.8981ZM86.1381 30.64H87.1381V29.64H86.1381V30.64ZM92.0781 36.64L91.3283 35.9784L91.3255 35.9815L92.0781 36.64ZM91.7781 28.78L90.9161 29.2871L90.9229 29.2983L91.7781 28.78ZM87.3381 23.92L86.6765 24.6699L86.6816 24.6743L87.3381 23.92ZM81.6381 17.44L80.7623 17.9226L80.7665 17.9303L81.6381 17.44ZM82.5381 3.16L83.2692 3.84236L83.2766 3.83427L82.5381 3.16ZM96.9981 3.16L96.2435 3.81618L96.2511 3.82492L96.2589 3.83349L96.9981 3.16ZM99.4581 12.7V13.7H100.458V12.7H99.4581ZM93.2181 12.7H92.2181V13.7H93.2181V12.7ZM92.3781 7.42L91.6062 8.0557L91.6157 8.06725L91.6255 8.0785L92.3781 7.42ZM87.8181 14.68L86.9629 15.1983L86.9686 15.2076L86.9745 15.2169L87.8181 14.68ZM92.3181 19.48L91.6616 20.2343L91.6619 20.2346L92.3181 19.48ZM98.0181 26.02L97.1348 26.4887L97.1348 26.4887L98.0181 26.02ZM96.9981 40.84L96.2675 40.1571L96.2596 40.1657L96.9981 40.84ZM89.6181 42.6C86.6063 42.6 84.4931 41.7584 83.0973 40.2265L81.6189 41.5735C83.5032 43.6416 86.2299 44.6 89.6181 44.6V42.6ZM83.1046 40.2346C81.6809 38.6373 80.8981 36.288 80.8981 33.04H78.8981C78.8981 36.592 79.7554 39.4827 81.6116 41.5654L83.1046 40.2346ZM80.8981 33.04V30.64H78.8981V33.04H80.8981ZM79.8981 31.64H86.1381V29.64H79.8981V31.64ZM85.1381 30.64V33.52H87.1381V30.64H85.1381ZM85.1381 33.52C85.1381 34.9953 85.4436 36.2881 86.2268 37.2224C87.0382 38.1905 88.2131 38.6 89.5581 38.6V36.6C88.6231 36.6 88.088 36.3295 87.7595 35.9376C87.4026 35.5119 87.1381 34.7647 87.1381 33.52H85.1381ZM89.5581 38.6C90.8696 38.6 92.0252 38.2191 92.8307 37.2985L91.3255 35.9815C91.0111 36.3409 90.4867 36.6 89.5581 36.6V38.6ZM92.828 37.3016C93.6642 36.3539 93.9781 34.9793 93.9781 33.4H91.9781C91.9781 34.7807 91.692 35.5661 91.3283 35.9784L92.828 37.3016ZM93.9781 33.4C93.9781 31.4834 93.5407 29.759 92.6333 28.2617L90.9229 29.2983C91.6155 30.441 91.9781 31.7966 91.9781 33.4H93.9781ZM92.6401 28.273C91.7578 26.7731 90.1811 25.0687 87.9947 23.1657L86.6816 24.6743C88.8152 26.5313 90.1985 28.0669 90.9162 29.287L92.6401 28.273ZM87.9997 23.1702C85.3168 20.8028 83.5107 18.7293 82.5097 16.9497L80.7665 17.9303C81.9255 19.9907 83.9195 22.2372 86.6765 24.6698L87.9997 23.1702ZM82.514 16.9574C81.5226 15.1583 81.0181 13.1269 81.0181 10.84H79.0181C79.0181 13.4331 79.5936 15.8017 80.7623 17.9226L82.514 16.9574ZM81.0181 10.84C81.0181 7.68343 81.8149 5.40052 83.2692 3.84232L81.8071 2.47768C79.9014 4.51948 79.0181 7.35657 79.0181 10.84H81.0181ZM83.2766 3.83427C84.7166 2.2571 86.8543 1.4 89.8581 1.4V-0.600002C86.462 -0.600002 83.7196 0.382895 81.7996 2.48573L83.2766 3.83427ZM89.8581 1.4C92.8201 1.4 94.8862 2.25524 96.2435 3.81618L97.7527 2.50382C95.9101 0.384755 93.2161 -0.600002 89.8581 -0.600002V1.4ZM96.2589 3.83349C97.6747 5.38736 98.4581 7.71023 98.4581 10.96H100.458C100.458 7.40977 99.6016 4.53264 97.7373 2.48651L96.2589 3.83349ZM98.4581 10.96V12.7H100.458V10.96H98.4581ZM99.4581 11.7H93.2181V13.7H99.4581V11.7ZM94.2181 12.7V10.54H92.2181V12.7H94.2181ZM94.2181 10.54C94.2181 9.01251 93.9289 7.67373 93.1307 6.76149L91.6255 8.0785C91.9473 8.44627 92.2181 9.18749 92.2181 10.54H94.2181ZM93.1501 6.78429C92.3575 5.82192 91.2228 5.4 89.9181 5.4V7.4C90.7735 7.4 91.2787 7.65808 91.6062 8.0557L93.1501 6.78429ZM89.9181 5.4C88.6062 5.4 87.4594 5.80909 86.6702 6.77051C85.912 7.69414 85.6181 8.96854 85.6181 10.42H87.6181C87.6181 9.19145 87.8743 8.45586 88.2161 8.03949C88.5268 7.66091 89.03 7.4 89.9181 7.4V5.4ZM85.6181 10.42C85.6181 12.1257 86.0698 13.7246 86.9629 15.1983L88.6733 14.1617C87.9665 12.9954 87.6181 11.7543 87.6181 10.42H85.6181ZM86.9745 15.2169C87.8923 16.6592 89.4786 18.3343 91.6616 20.2343L92.9747 18.7257C90.8377 16.8657 89.424 15.3408 88.6618 14.1431L86.9745 15.2169ZM91.6619 20.2346C94.3815 22.5994 96.1776 24.6849 97.1348 26.4887L98.9015 25.5513C97.7786 23.4351 95.7748 21.1606 92.9743 18.7254L91.6619 20.2346ZM97.1348 26.4887C98.0849 28.2793 98.5781 30.4125 98.5781 32.92H100.578C100.578 30.1475 100.031 27.6807 98.9015 25.5513L97.1348 26.4887ZM98.5781 32.92C98.5781 36.2005 97.7594 38.5612 96.2676 40.1571L97.7287 41.5229C99.6768 39.4388 100.578 36.5195 100.578 32.92H98.5781ZM96.2596 40.1657C94.8219 41.7404 92.6664 42.6 89.6181 42.6V44.6C93.0499 44.6 95.8143 43.6196 97.7366 41.5143L96.2596 40.1657ZM105.642 40.9L104.904 41.5743L104.911 41.5823L105.642 40.9ZM103.122 0.999997V-2.86102e-06H102.122V0.999997H103.122ZM109.722 0.999997H110.722V-2.86102e-06H109.722V0.999997ZM110.562 36.64L109.81 37.2985L109.821 37.3114L109.833 37.3239L110.562 36.64ZM115.542 36.64L114.813 35.9561L114.801 35.9686L114.79 35.9815L115.542 36.64ZM116.442 0.999997V-2.86102e-06H115.442V0.999997H116.442ZM122.802 0.999997H123.802V-2.86102e-06H122.802V0.999997ZM120.282 40.9L121.013 41.5824L121.021 41.5743L120.282 40.9ZM112.962 42.6C109.952 42.6 107.812 41.7589 106.373 40.2177L104.911 41.5823C106.833 43.6411 109.573 44.6 112.962 44.6V42.6ZM106.381 40.2257C104.922 38.6282 104.122 36.2824 104.122 33.04H102.122C102.122 36.5976 103.002 39.4918 104.904 41.5743L106.381 40.2257ZM104.122 33.04V0.999997H102.122V33.04H104.122ZM103.122 2H109.722V-2.86102e-06H103.122V2ZM108.722 0.999997V33.52H110.722V0.999997H108.722ZM108.722 33.52C108.722 35.0475 109.012 36.3863 109.81 37.2985L111.315 35.9815C110.993 35.6137 110.722 34.8725 110.722 33.52H108.722ZM109.833 37.3239C110.664 38.2107 111.794 38.6 113.082 38.6V36.6C112.21 36.6 111.661 36.3493 111.292 35.9561L109.833 37.3239ZM113.082 38.6C114.367 38.6 115.496 38.2114 116.295 37.2985L114.79 35.9815C114.469 36.3486 113.958 36.6 113.082 36.6V38.6ZM116.272 37.3239C117.128 36.4107 117.442 35.0604 117.442 33.52H115.442C115.442 34.8596 115.157 35.5893 114.813 35.9561L116.272 37.3239ZM117.442 33.52V0.999997H115.442V33.52H117.442ZM116.442 2H122.802V-2.86102e-06H116.442V2ZM121.802 0.999997V33.04H123.802V0.999997H121.802ZM121.802 33.04C121.802 36.2824 121.002 38.6282 119.544 40.2257L121.021 41.5743C122.922 39.4918 123.802 36.5976 123.802 33.04H121.802ZM119.551 40.2177C118.113 41.7589 115.973 42.6 112.962 42.6V44.6C116.352 44.6 119.092 43.6411 121.013 41.5823L119.551 40.2177ZM127.503 0.999997V-2.86102e-06H126.503V0.999997H127.503ZM135.783 0.999997L136.752 0.752568L136.56 -2.86102e-06H135.783V0.999997ZM142.203 26.14L141.234 26.3874L141.426 27.14H142.203V26.14ZM142.323 26.14V27.14H143.323V26.14H142.323ZM142.323 0.999997V-2.86102e-06H141.323V0.999997H142.323ZM148.203 0.999997H149.203V-2.86102e-06H148.203V0.999997ZM148.203 43V44H149.203V43H148.203ZM141.423 43L140.455 43.2501L140.648 44H141.423V43ZM133.503 12.34L134.471 12.0899L134.277 11.34H133.503V12.34ZM133.383 12.34V11.34H132.383V12.34H133.383ZM133.383 43V44H134.383V43H133.383ZM127.503 43H126.503V44H127.503V43ZM127.503 2H135.783V-2.86102e-06H127.503V2ZM134.814 1.24743L141.234 26.3874L143.172 25.8926L136.752 0.752568L134.814 1.24743ZM142.203 27.14H142.323V25.14H142.203V27.14ZM143.323 26.14V0.999997H141.323V26.14H143.323ZM142.323 2H148.203V-2.86102e-06H142.323V2ZM147.203 0.999997V43H149.203V0.999997H147.203ZM148.203 42H141.423V44H148.203V42ZM142.391 42.7499L134.471 12.0899L132.535 12.5901L140.455 43.2501L142.391 42.7499ZM133.503 11.34H133.383V13.34H133.503V11.34ZM132.383 12.34V43H134.383V12.34H132.383ZM133.383 42H127.503V44H133.383V42ZM128.503 43V0.999997H126.503V43H128.503ZM161.158 0.999997V-2.86102e-06H160.051L160.163 1.10091L161.158 0.999997ZM167.518 0.999997L168.514 0.909295L168.431 -2.86102e-06H167.518V0.999997ZM170.458 33.28L169.462 33.3707L169.545 34.28H170.458V33.28ZM170.578 33.28V34.28H171.486L171.573 33.3762L170.578 33.28ZM173.698 0.999997V-2.86102e-06H172.79L172.702 0.903791L173.698 0.999997ZM180.898 0.999997L181.893 0.903791L181.806 -2.86102e-06H180.898V0.999997ZM184.018 33.28L183.022 33.3762L183.11 34.28H184.018V33.28ZM184.138 33.28V34.28H185.051L185.134 33.3707L184.138 33.28ZM187.078 0.999997V-2.86102e-06H186.165L186.082 0.909295L187.078 0.999997ZM192.778 0.999997L193.773 1.10091L193.884 -2.86102e-06H192.778V0.999997ZM188.518 43V44H189.422L189.513 43.1009L188.518 43ZM180.298 43L179.303 43.1053L179.398 44H180.298V43ZM177.298 14.68L178.292 14.5747L178.197 13.68H177.298V14.68ZM177.178 14.68V13.68H176.278L176.183 14.5747L177.178 14.68ZM174.178 43V44H175.077L175.172 43.1053L174.178 43ZM165.418 43L164.423 43.1009L164.514 44H165.418V43ZM161.158 2H167.518V-2.86102e-06H161.158V2ZM166.522 1.0907L169.462 33.3707L171.454 33.1893L168.514 0.909295L166.522 1.0907ZM170.458 34.28H170.578V32.28H170.458V34.28ZM171.573 33.3762L174.693 1.0962L172.702 0.903791L169.582 33.1838L171.573 33.3762ZM173.698 2H180.898V-2.86102e-06H173.698V2ZM179.902 1.0962L183.022 33.3762L185.013 33.1838L181.893 0.903791L179.902 1.0962ZM184.018 34.28H184.138V32.28H184.018V34.28ZM185.134 33.3707L188.074 1.0907L186.082 0.909295L183.142 33.1893L185.134 33.3707ZM187.078 2H192.778V-2.86102e-06H187.078V2ZM191.783 0.899086L187.523 42.8991L189.513 43.1009L193.773 1.10091L191.783 0.899086ZM188.518 42H180.298V44H188.518V42ZM181.292 42.8947L178.292 14.5747L176.303 14.7853L179.303 43.1053L181.292 42.8947ZM177.298 13.68H177.178V15.68H177.298V13.68ZM176.183 14.5747L173.183 42.8947L175.172 43.1053L178.172 14.7853L176.183 14.5747ZM174.178 42H165.418V44H174.178V42ZM166.413 42.8991L162.153 0.899086L160.163 1.10091L164.423 43.1009L166.413 42.8991ZM198.216 40.84L198.947 40.1571L198.947 40.1571L198.216 40.84ZM198.216 3.16L198.947 3.84288L198.947 3.84288L198.216 3.16ZM213.096 3.16L212.366 3.84288L212.366 3.84288L213.096 3.16ZM213.096 40.84L212.366 40.1571L212.366 40.1571L213.096 40.84ZM205.656 42.6C202.609 42.6 200.427 41.7408 198.947 40.1571L197.486 41.5229C199.445 43.6192 202.223 44.6 205.656 44.6V42.6ZM198.947 40.1571C197.451 38.5572 196.636 36.233 196.636 33.04H194.636C194.636 36.567 195.541 39.4428 197.486 41.5229L198.947 40.1571ZM196.636 33.04V10.96H194.636V33.04H196.636ZM196.636 10.96C196.636 7.76696 197.451 5.44283 198.947 3.84288L197.486 2.47711C195.541 4.55716 194.636 7.43303 194.636 10.96H196.636ZM198.947 3.84288C200.427 2.25921 202.609 1.4 205.656 1.4V-0.600002C202.223 -0.600002 199.445 0.380783 197.486 2.47711L198.947 3.84288ZM205.656 1.4C208.703 1.4 210.885 2.25921 212.366 3.84288L213.827 2.47711C211.867 0.380782 209.089 -0.600002 205.656 -0.600002V1.4ZM212.366 3.84288C213.861 5.44283 214.676 7.76696 214.676 10.96H216.676C216.676 7.43303 215.771 4.55716 213.827 2.47711L212.366 3.84288ZM214.676 10.96V33.04H216.676V10.96H214.676ZM214.676 33.04C214.676 36.233 213.861 38.5572 212.366 40.1571L213.827 41.5229C215.771 39.4428 216.676 36.567 216.676 33.04H214.676ZM212.366 40.1571C210.885 41.7408 208.703 42.6 205.656 42.6V44.6C209.089 44.6 211.867 43.6192 213.827 41.5229L212.366 40.1571ZM205.656 38.6C207.006 38.6 208.182 38.1823 208.992 37.2019C209.772 36.258 210.076 34.9526 210.076 33.46H208.076C208.076 34.7274 207.811 35.492 207.45 35.9281C207.12 36.3277 206.586 36.6 205.656 36.6V38.6ZM210.076 33.46V10.54H208.076V33.46H210.076ZM210.076 10.54C210.076 9.04738 209.772 7.74196 208.992 6.79812C208.182 5.81769 207.006 5.4 205.656 5.4V7.4C206.586 7.4 207.12 7.67231 207.45 8.07188C207.811 8.50804 208.076 9.27261 208.076 10.54H210.076ZM205.656 5.4C204.306 5.4 203.13 5.81769 202.32 6.79812C201.541 7.74196 201.236 9.04738 201.236 10.54H203.236C203.236 9.27261 203.502 8.50804 203.862 8.07188C204.192 7.67231 204.726 7.4 205.656 7.4V5.4ZM201.236 10.54V33.46H203.236V10.54H201.236ZM201.236 33.46C201.236 34.9526 201.541 36.258 202.32 37.2019C203.13 38.1823 204.306 38.6 205.656 38.6V36.6C204.726 36.6 204.192 36.3277 203.862 35.9281C203.502 35.492 203.236 34.7274 203.236 33.46H201.236ZM222.24 40.84L222.97 40.1571L222.97 40.1571L222.24 40.84ZM222.24 3.16L222.97 3.84288L222.97 3.84288L222.24 3.16ZM237.12 3.16L236.389 3.84288L236.389 3.84288L237.12 3.16ZM237.12 40.84L236.389 40.1571L236.389 40.1571L237.12 40.84ZM229.68 42.6C226.633 42.6 224.451 41.7408 222.97 40.1571L221.509 41.5229C223.469 43.6192 226.247 44.6 229.68 44.6V42.6ZM222.97 40.1571C221.475 38.5572 220.66 36.233 220.66 33.04H218.66C218.66 36.567 219.565 39.4428 221.509 41.5229L222.97 40.1571ZM220.66 33.04V10.96H218.66V33.04H220.66ZM220.66 10.96C220.66 7.76696 221.475 5.44283 222.97 3.84288L221.509 2.47711C219.565 4.55716 218.66 7.43303 218.66 10.96H220.66ZM222.97 3.84288C224.451 2.25921 226.633 1.4 229.68 1.4V-0.600002C226.247 -0.600002 223.469 0.380783 221.509 2.47711L222.97 3.84288ZM229.68 1.4C232.727 1.4 234.909 2.25921 236.389 3.84288L237.85 2.47711C235.891 0.380782 233.113 -0.600002 229.68 -0.600002V1.4ZM236.389 3.84288C237.885 5.44283 238.7 7.76696 238.7 10.96H240.7C240.7 7.43303 239.795 4.55716 237.85 2.47711L236.389 3.84288ZM238.7 10.96V33.04H240.7V10.96H238.7ZM238.7 33.04C238.7 36.233 237.885 38.5572 236.389 40.1571L237.85 41.5229C239.795 39.4428 240.7 36.567 240.7 33.04H238.7ZM236.389 40.1571C234.909 41.7408 232.727 42.6 229.68 42.6V44.6C233.113 44.6 235.891 43.6192 237.85 41.5229L236.389 40.1571ZM229.68 38.6C231.03 38.6 232.206 38.1823 233.016 37.2019C233.795 36.258 234.1 34.9526 234.1 33.46H232.1C232.1 34.7274 231.834 35.492 231.474 35.9281C231.144 36.3277 230.61 36.6 229.68 36.6V38.6ZM234.1 33.46V10.54H232.1V33.46H234.1ZM234.1 10.54C234.1 9.04738 233.795 7.74196 233.016 6.79812C232.206 5.81769 231.03 5.4 229.68 5.4V7.4C230.61 7.4 231.144 7.67231 231.474 8.07188C231.834 8.50804 232.1 9.27261 232.1 10.54H234.1ZM229.68 5.4C228.33 5.4 227.154 5.81769 226.344 6.79812C225.564 7.74196 225.26 9.04738 225.26 10.54H227.26C227.26 9.27261 227.525 8.50804 227.886 8.07188C228.216 7.67231 228.75 7.4 229.68 7.4V5.4ZM225.26 10.54V33.46H227.26V10.54H225.26ZM225.26 33.46C225.26 34.9526 225.564 36.258 226.344 37.2019C227.154 38.1823 228.33 38.6 229.68 38.6V36.6C228.75 36.6 228.216 36.3277 227.886 35.9281C227.525 35.492 227.26 34.7274 227.26 33.46H225.26Z" fill="#FC0F1E"/>
</g>
<defs>
<filter id="filter0_i_198_52" x="2.75684" y="0.399902" width="236.942" height="47.2002" filterUnits="userSpaceOnUse" color-interpolation-filters="sRGB">
<feFlood flood-opacity="0" result="BackgroundImageFix"/>
<feBlend mode="normal" in="SourceGraphic" in2="BackgroundImageFix" result="shape"/>
<feColorMatrix in="SourceAlpha" type="matrix" values="0 0 0 0 0 0 0 0 0 0 0 0 0 0 0 0 0 0 127 0" result="hardAlpha"/>
<feOffset dy="4"/>
<feGaussianBlur stdDeviation="2"/>
<feComposite in2="hardAlpha" operator="arithmetic" k2="-1" k3="1"/>
<feColorMatrix type="matrix" values="0 0 0 0 1 0 0 0 0 1 0 0 0 0 1 0 0 0 1 0"/>
<feBlend mode="normal" in2="shape" result="effect1_innerShadow_198_52"/>
</filter>
</defs>
</svg>
