<svg width="132" height="47" viewBox="0 0 132 47" fill="none" xmlns="http://www.w3.org/2000/svg">
<g filter="url(#filter0_i_198_50)">
<path d="M9.0725 37.448C6.6533 37.448 4.80157 36.7611 3.5173 35.3872C2.23304 34.0133 1.5909 32.072 1.5909 29.5632V13.0768C1.5909 10.568 2.23304 8.62667 3.5173 7.2528C4.80157 5.87893 6.6533 5.192 9.0725 5.192C11.4917 5.192 13.3434 5.87893 14.6277 7.2528C15.912 8.62667 16.5541 10.568 16.5541 13.0768V29.5632C16.5541 32.072 15.912 34.0133 14.6277 35.3872C13.3434 36.7611 11.4917 37.448 9.0725 37.448ZM9.0725 32.968C10.7749 32.968 11.6261 31.9376 11.6261 29.8768V12.7632C11.6261 10.7024 10.7749 9.672 9.0725 9.672C7.3701 9.672 6.5189 10.7024 6.5189 12.7632V29.8768C6.5189 31.9376 7.3701 32.968 9.0725 32.968ZM27.01 37.448C24.5908 37.448 22.7391 36.7611 21.4548 35.3872C20.1705 34.0133 19.5284 32.072 19.5284 29.5632V13.0768C19.5284 10.568 20.1705 8.62667 21.4548 7.2528C22.7391 5.87893 24.5908 5.192 27.01 5.192C29.4292 5.192 31.2809 5.87893 32.5652 7.2528C33.8495 8.62667 34.4916 10.568 34.4916 13.0768V29.5632C34.4916 32.072 33.8495 34.0133 32.5652 35.3872C31.2809 36.7611 29.4292 37.448 27.01 37.448ZM27.01 32.968C28.7124 32.968 29.5636 31.9376 29.5636 29.8768V12.7632C29.5636 10.7024 28.7124 9.672 27.01 9.672C25.3076 9.672 24.4564 10.7024 24.4564 12.7632V29.8768C24.4564 31.9376 25.3076 32.968 27.01 32.968ZM37.1075 19.08H46.9635V23.56H37.1075V19.08ZM57.0225 37.448C54.6033 37.448 52.7516 36.7611 51.4673 35.3872C50.183 34.0133 49.5409 32.072 49.5409 29.5632V13.0768C49.5409 10.568 50.183 8.62667 51.4673 7.2528C52.7516 5.87893 54.6033 5.192 57.0225 5.192C59.4417 5.192 61.2934 5.87893 62.5777 7.2528C63.862 8.62667 64.5041 10.568 64.5041 13.0768V29.5632C64.5041 32.072 63.862 34.0133 62.5777 35.3872C61.2934 36.7611 59.4417 37.448 57.0225 37.448ZM57.0225 32.968C58.7249 32.968 59.5761 31.9376 59.5761 29.8768V12.7632C59.5761 10.7024 58.7249 9.672 57.0225 9.672C55.3201 9.672 54.4689 10.7024 54.4689 12.7632V29.8768C54.4689 31.9376 55.3201 32.968 57.0225 32.968ZM76.08 31.3104H66.672V26.8304L75.632 5.64H81.008V26.8304H83.3376V31.3104H81.008V37H76.08V31.3104ZM76.08 26.8304V14.6H75.9904L71.152 26.8304H76.08ZM85.0575 19.08H94.9135V23.56H85.0575V19.08ZM104.749 13.0768H99.5965V9.5824C101 9.5824 102.12 9.46293 102.957 9.224C103.823 8.98507 104.51 8.5968 105.017 8.0592C105.525 7.49173 105.973 6.68533 106.361 5.64H109.677V37H104.749V13.0768ZM115.697 33.5952C115.697 31.3552 116.056 29.4437 116.772 27.8608C117.489 26.248 118.773 24.4709 120.625 22.5296C122.447 20.5883 123.701 18.9307 124.388 17.5568C125.105 16.1829 125.464 14.7493 125.464 13.256C125.464 11.912 125.24 10.9861 124.792 10.4784C124.373 9.9408 123.746 9.672 122.91 9.672C121.208 9.672 120.356 10.7024 120.356 12.7632V16.1232H115.697V13.0768C115.697 10.5381 116.324 8.5968 117.579 7.2528C118.833 5.87893 120.655 5.192 123.044 5.192C125.434 5.192 127.256 5.87893 128.51 7.2528C129.764 8.5968 130.392 10.5381 130.392 13.0768C130.392 14.9883 129.929 16.8549 129.003 18.6768C128.107 20.4987 126.539 22.5893 124.299 24.9488C122.835 26.5019 121.85 27.7712 121.342 28.7568C120.834 29.7125 120.58 30.7429 120.58 31.848V32.52H129.944V37H115.697V33.5952Z" fill="#FC0F1E"/>
</g>
<defs>
<filter id="filter0_i_198_50" x="1.59082" y="5.19189" width="128.801" height="36.2561" filterUnits="userSpaceOnUse" color-interpolation-filters="sRGB">
<feFlood flood-opacity="0" result="BackgroundImageFix"/>
<feBlend mode="normal" in="SourceGraphic" in2="BackgroundImageFix" result="shape"/>
<feColorMatrix in="SourceAlpha" type="matrix" values="0 0 0 0 0 0 0 0 0 0 0 0 0 0 0 0 0 0 127 0" result="hardAlpha"/>
<feOffset dy="4"/>
<feGaussianBlur stdDeviation="2"/>
<feComposite in2="hardAlpha" operator="arithmetic" k2="-1" k3="1"/>
<feColorMatrix type="matrix" values="0 0 0 0 1 0 0 0 0 1 0 0 0 0 1 0 0 0 1 0"/>
<feBlend mode="normal" in2="shape" result="effect1_innerShadow_198_50"/>
</filter>
</defs>
</svg>
