<svg width="182" height="47" viewBox="0 0 182 47" fill="none" xmlns="http://www.w3.org/2000/svg">
<g filter="url(#filter0_i_198_54)">
<path d="M1.85867 5.64H8.89227L12.0283 28.0848H12.1179L15.2539 5.64H22.2875V37H17.6283V13.256H17.5387L13.9547 37H9.83307L6.24907 13.256H6.15947V37H1.85867V5.64ZM29.7729 5.64H36.4481L41.5553 37H36.6273L35.7313 30.7728V30.8624H30.1313L29.2353 37H24.6657L29.7729 5.64ZM35.1489 26.6064L32.9537 11.1056H32.8641L30.7137 26.6064H35.1489ZM43.9462 5.64H48.8742V37H43.9462V5.64ZM52.5649 5.64H58.7473L63.5409 24.4112H63.6305V5.64H68.0209V37H62.9585L57.0449 14.1072H56.9553V37H52.5649V5.64ZM78.8587 5.64H86.1611C88.6997 5.64 90.5515 6.23733 91.7163 7.432C92.8811 8.5968 93.4635 10.4037 93.4635 12.8528V14.7792C93.4635 18.0347 92.3883 20.0955 90.2379 20.9616V21.0512C91.4325 21.4096 92.2688 22.1413 92.7467 23.2464C93.2544 24.3515 93.5083 25.8299 93.5083 27.6816V33.192C93.5083 34.088 93.5381 34.8197 93.5979 35.3872C93.6576 35.9248 93.8069 36.4624 94.0459 37H89.0283C88.8491 36.4923 88.7296 36.0144 88.6699 35.5664C88.6101 35.1184 88.5803 34.312 88.5803 33.1472V27.4128C88.5803 25.9792 88.3413 24.9787 87.8635 24.4112C87.4155 23.8437 86.624 23.56 85.4891 23.56H83.7867V37H78.8587V5.64ZM85.5787 19.08C86.5643 19.08 87.296 18.8261 87.7739 18.3184C88.2816 17.8107 88.5355 16.9595 88.5355 15.7648V13.3456C88.5355 12.2107 88.3264 11.3893 87.9083 10.8816C87.52 10.3739 86.8928 10.12 86.0267 10.12H83.7867V19.08H85.5787ZM100.735 5.64H107.411L112.518 37H107.59L106.694 30.7728V30.8624H101.094L100.198 37H95.6282L100.735 5.64ZM106.111 26.6064L103.916 11.1056H103.827L101.676 26.6064H106.111ZM114.909 5.64H122.166C124.615 5.64 126.452 6.29707 127.677 7.6112C128.901 8.92533 129.513 10.8517 129.513 13.3904V16.4816C129.513 19.0203 128.901 20.9467 127.677 22.2608C126.452 23.5749 124.615 24.232 122.166 24.232H119.837V37H114.909V5.64ZM122.166 19.752C122.973 19.752 123.57 19.528 123.958 19.08C124.376 18.632 124.585 17.8704 124.585 16.7952V13.0768C124.585 12.0016 124.376 11.24 123.958 10.792C123.57 10.344 122.973 10.12 122.166 10.12H119.837V19.752H122.166ZM132.19 5.64H139.448C141.897 5.64 143.733 6.29707 144.958 7.6112C146.182 8.92533 146.795 10.8517 146.795 13.3904V16.4816C146.795 19.0203 146.182 20.9467 144.958 22.2608C143.733 23.5749 141.897 24.232 139.448 24.232H137.118V37H132.19V5.64ZM139.448 19.752C140.254 19.752 140.851 19.528 141.24 19.08C141.658 18.632 141.867 17.8704 141.867 16.7952V13.0768C141.867 12.0016 141.658 11.24 141.24 10.792C140.851 10.344 140.254 10.12 139.448 10.12H137.118V19.752H139.448ZM149.471 5.64H162.911V10.12H154.399V18.408H161.164V22.888H154.399V32.52H162.911V37H149.471V5.64ZM165.746 5.64H173.049C175.587 5.64 177.439 6.23733 178.604 7.432C179.769 8.5968 180.351 10.4037 180.351 12.8528V14.7792C180.351 18.0347 179.276 20.0955 177.125 20.9616V21.0512C178.32 21.4096 179.156 22.1413 179.634 23.2464C180.142 24.3515 180.396 25.8299 180.396 27.6816V33.192C180.396 34.088 180.426 34.8197 180.485 35.3872C180.545 35.9248 180.694 36.4624 180.933 37H175.916C175.737 36.4923 175.617 36.0144 175.557 35.5664C175.498 35.1184 175.468 34.312 175.468 33.1472V27.4128C175.468 25.9792 175.229 24.9787 174.751 24.4112C174.303 23.8437 173.511 23.56 172.377 23.56H170.674V37H165.746V5.64ZM172.466 19.08C173.452 19.08 174.183 18.8261 174.661 18.3184C175.169 17.8107 175.423 16.9595 175.423 15.7648V13.3456C175.423 12.2107 175.214 11.3893 174.796 10.8816C174.407 10.3739 173.78 10.12 172.914 10.12H170.674V19.08H172.466Z" fill="#FC0F1E"/>
</g>
<defs>
<filter id="filter0_i_198_54" x="1.8584" y="5.63989" width="179.075" height="35.3601" filterUnits="userSpaceOnUse" color-interpolation-filters="sRGB">
<feFlood flood-opacity="0" result="BackgroundImageFix"/>
<feBlend mode="normal" in="SourceGraphic" in2="BackgroundImageFix" result="shape"/>
<feColorMatrix in="SourceAlpha" type="matrix" values="0 0 0 0 0 0 0 0 0 0 0 0 0 0 0 0 0 0 127 0" result="hardAlpha"/>
<feOffset dy="4"/>
<feGaussianBlur stdDeviation="2"/>
<feComposite in2="hardAlpha" operator="arithmetic" k2="-1" k3="1"/>
<feColorMatrix type="matrix" values="0 0 0 0 1 0 0 0 0 1 0 0 0 0 1 0 0 0 1 0"/>
<feBlend mode="normal" in2="shape" result="effect1_innerShadow_198_54"/>
</filter>
</defs>
</svg>
