<svg width="789" height="334" viewBox="0 0 789 334" fill="none" xmlns="http://www.w3.org/2000/svg">
<g filter="url(#filter0_i_163_18)">
<g filter="url(#filter1_i_163_18)">
<path d="M21.825 262C18.625 262 15.825 261.733 13.425 261.2C11.025 260.8 8.89167 260.2 7.025 259.4V244.2C9.15833 244.733 11.425 245.2 13.825 245.6C16.225 246 18.7583 246.2 21.425 246.2C24.7583 246.2 27.8917 245.533 30.825 244.2C33.8917 242.867 36.3583 240.533 38.225 237.2C40.0917 233.867 41.025 229.2 41.025 223.2V81.2H59.025V221.8C59.025 231 57.4917 238.533 54.425 244.4C51.3583 250.4 47.025 254.8 41.425 257.6C35.825 260.533 29.2917 262 21.825 262ZM205.313 173.6C205.313 183.467 203.313 192.4 199.313 200.4C195.313 208.267 189.179 214.533 180.913 219.2C172.779 223.733 162.379 226 149.713 226C131.979 226 118.446 221.2 109.113 211.6C99.9125 201.867 95.3125 189.067 95.3125 173.2V81.2H113.313V173.8C113.313 185.4 116.379 194.4 122.513 200.8C128.779 207.2 138.179 210.4 150.713 210.4C159.379 210.4 166.379 208.867 171.713 205.8C177.179 202.6 181.179 198.267 183.713 192.8C186.246 187.2 187.512 180.8 187.512 173.6V81.2H205.313V173.6ZM280.202 151.4L317.402 81.2H336.802L289.202 168.6V224H271.202V169.4L223.602 81.2H243.202L280.202 151.4ZM436.083 224H356.283V81.2H436.083V97H374.283V141.6H432.483V157.2H374.283V208.2H436.083V224ZM747.022 224H726.022L649.622 105.4H648.822C648.955 107.8 649.089 110.467 649.222 113.4C649.489 116.333 649.689 119.533 649.822 123C649.955 126.333 650.089 129.8 650.222 133.4C650.355 137 650.422 140.6 650.422 144.2V224H633.822V81.2H654.622L730.822 199.4H731.622C731.489 197.8 731.355 195.6 731.222 192.8C731.089 189.867 730.955 186.667 730.822 183.2C730.689 179.6 730.555 175.933 730.422 172.2C730.289 168.467 730.222 165 730.222 161.8V81.2H747.022V224Z" fill="#F5F5F5"/>
</g>
<path d="M13.425 261.2L13.7504 259.736L13.7112 259.727L13.6716 259.72L13.425 261.2ZM7.025 259.4H5.525V260.389L6.43412 260.779L7.025 259.4ZM7.025 244.2L7.3888 242.745L5.525 242.279V244.2H7.025ZM13.825 245.6L14.0716 244.12L13.825 245.6ZM30.825 244.2L30.2269 242.824L30.2156 242.829L30.2043 242.834L30.825 244.2ZM38.225 237.2L36.9162 236.467L38.225 237.2ZM41.025 81.2V79.7H39.525V81.2H41.025ZM59.025 81.2H60.525V79.7H59.025V81.2ZM54.425 244.4L53.0956 243.705L53.0894 243.717L54.425 244.4ZM41.425 257.6L40.7542 256.258L40.7415 256.265L40.729 256.271L41.425 257.6ZM21.825 260.5C18.7036 260.5 16.0172 260.239 13.7504 259.736L13.0996 262.664C15.6328 263.227 18.5464 263.5 21.825 263.5V260.5ZM13.6716 259.72C11.3674 259.336 9.35305 258.766 7.61588 258.021L6.43412 260.779C8.43029 261.634 10.6826 262.264 13.1784 262.68L13.6716 259.72ZM8.525 259.4V244.2H5.525V259.4H8.525ZM6.6612 245.655C8.83708 246.199 11.1431 246.674 13.5784 247.08L14.0716 244.12C11.7069 243.726 9.47959 243.267 7.3888 242.745L6.6612 245.655ZM13.5784 247.08C16.0672 247.494 18.6835 247.7 21.425 247.7V244.7C18.8332 244.7 16.3828 244.506 14.0716 244.12L13.5784 247.08ZM21.425 247.7C24.9649 247.7 28.3107 246.991 31.4457 245.566L30.2043 242.834C27.4727 244.076 24.5518 244.7 21.425 244.7V247.7ZM31.4231 245.576C34.8325 244.093 37.5307 241.51 39.5338 237.933L36.9162 236.467C35.186 239.557 32.9509 241.64 30.2269 242.824L31.4231 245.576ZM39.5338 237.933C41.5777 234.283 42.525 229.324 42.525 223.2H39.525C39.525 229.076 38.6056 233.45 36.9162 236.467L39.5338 237.933ZM42.525 223.2V81.2H39.525V223.2H42.525ZM41.025 82.7H59.025V79.7H41.025V82.7ZM57.525 81.2V221.8H60.525V81.2H57.525ZM57.525 221.8C57.525 230.847 56.0151 238.12 53.0957 243.705L55.7543 245.095C58.9682 238.947 60.525 231.153 60.525 221.8H57.525ZM53.0894 243.717C50.1566 249.455 46.0457 253.613 40.7542 256.258L42.0958 258.942C48.0043 255.987 52.5601 251.345 55.7607 245.083L53.0894 243.717ZM40.729 256.271C35.3795 259.073 29.0931 260.5 21.825 260.5V263.5C29.4903 263.5 36.2705 261.993 42.121 258.929L40.729 256.271ZM199.312 200.4L200.65 201.08L200.654 201.071L199.312 200.4ZM180.913 219.2L181.643 220.51L181.65 220.506L180.913 219.2ZM109.113 211.6L108.022 212.63L108.03 212.638L108.037 212.646L109.113 211.6ZM95.3125 81.2V79.7H93.8125V81.2H95.3125ZM113.312 81.2H114.812V79.7H113.312V81.2ZM122.513 200.8L121.43 201.838L121.435 201.844L121.441 201.849L122.513 200.8ZM171.713 205.8L172.46 207.1L172.47 207.095L171.713 205.8ZM183.712 192.8L185.074 193.431L185.079 193.418L183.712 192.8ZM187.512 81.2V79.7H186.012V81.2H187.512ZM205.313 81.2H206.813V79.7H205.313V81.2ZM203.813 173.6C203.813 183.258 201.856 191.958 197.971 199.729L200.654 201.071C204.769 192.842 206.813 183.675 206.813 173.6H203.813ZM197.975 199.72C194.12 207.303 188.205 213.361 180.175 217.894L181.65 220.506C190.153 215.706 196.505 209.23 200.65 201.08L197.975 199.72ZM180.182 217.89C172.338 222.262 162.212 224.5 149.713 224.5V227.5C162.547 227.5 173.22 225.205 181.643 220.51L180.182 217.89ZM149.713 224.5C132.248 224.5 119.156 219.779 110.188 210.554L108.037 212.646C117.736 222.621 131.711 227.5 149.713 227.5V224.5ZM110.203 210.57C101.313 201.165 96.8125 188.759 96.8125 173.2H93.8125C93.8125 189.374 98.5116 202.568 108.022 212.63L110.203 210.57ZM96.8125 173.2V81.2H93.8125V173.2H96.8125ZM95.3125 82.7H113.312V79.7H95.3125V82.7ZM111.812 81.2V173.8H114.812V81.2H111.812ZM111.812 173.8C111.812 185.663 114.954 195.081 121.43 201.838L123.595 199.762C117.804 193.719 114.812 185.137 114.812 173.8H111.812ZM121.441 201.849C128.087 208.637 137.94 211.9 150.713 211.9V208.9C138.418 208.9 129.472 205.763 123.584 199.751L121.441 201.849ZM150.713 211.9C159.54 211.9 166.825 210.341 172.46 207.1L170.965 204.5C165.933 207.393 159.218 208.9 150.713 208.9V211.9ZM172.47 207.095C178.187 203.748 182.405 199.19 185.073 193.431L182.352 192.169C179.954 197.344 176.172 201.452 170.955 204.505L172.47 207.095ZM185.079 193.418C187.714 187.594 189.012 180.977 189.012 173.6H186.012C186.012 180.623 184.777 186.806 182.346 192.182L185.079 193.418ZM189.012 173.6V81.2H186.012V173.6H189.012ZM187.512 82.7H205.313V79.7H187.512V82.7ZM203.813 81.2V173.6H206.813V81.2H203.813ZM280.202 151.4L278.875 152.099L280.198 154.61L281.527 152.102L280.202 151.4ZM317.402 81.2V79.7H316.499L316.076 80.4976L317.402 81.2ZM336.802 81.2L338.119 81.9174L339.327 79.7H336.802V81.2ZM289.202 168.6L287.884 167.883L287.702 168.218V168.6H289.202ZM289.202 224V225.5H290.702V224H289.202ZM271.202 224H269.702V225.5H271.202V224ZM271.202 169.4H272.702V169.021L272.522 168.688L271.202 169.4ZM223.602 81.2V79.7H221.088L222.282 81.9124L223.602 81.2ZM243.202 81.2L244.529 80.5006L244.107 79.7H243.202V81.2ZM281.527 152.102L318.727 81.9023L316.076 80.4976L278.876 150.698L281.527 152.102ZM317.402 82.7H336.802V79.7H317.402V82.7ZM335.484 80.4826L287.884 167.883L290.519 169.317L338.119 81.9174L335.484 80.4826ZM287.702 168.6V224H290.702V168.6H287.702ZM289.202 222.5H271.202V225.5H289.202V222.5ZM272.702 224V169.4H269.702V224H272.702ZM272.522 168.688L224.922 80.4876L222.282 81.9124L269.882 170.112L272.522 168.688ZM223.602 82.7H243.202V79.7H223.602V82.7ZM241.875 81.8994L278.875 152.099L281.529 150.701L244.529 80.5006L241.875 81.8994ZM436.083 224V225.5H437.583V224H436.083ZM356.283 224H354.783V225.5H356.283V224ZM356.283 81.2V79.7H354.783V81.2H356.283ZM436.083 81.2H437.583V79.7H436.083V81.2ZM436.083 97V98.5H437.583V97H436.083ZM374.283 97V95.5H372.783V97H374.283ZM374.283 141.6H372.783V143.1H374.283V141.6ZM432.483 141.6H433.983V140.1H432.483V141.6ZM432.483 157.2V158.7H433.983V157.2H432.483ZM374.283 157.2V155.7H372.783V157.2H374.283ZM374.283 208.2H372.783V209.7H374.283V208.2ZM436.083 208.2H437.583V206.7H436.083V208.2ZM436.083 222.5H356.283V225.5H436.083V222.5ZM357.783 224V81.2H354.783V224H357.783ZM356.283 82.7H436.083V79.7H356.283V82.7ZM434.583 81.2V97H437.583V81.2H434.583ZM436.083 95.5H374.283V98.5H436.083V95.5ZM372.783 97V141.6H375.783V97H372.783ZM374.283 143.1H432.483V140.1H374.283V143.1ZM430.983 141.6V157.2H433.983V141.6H430.983ZM432.483 155.7H374.283V158.7H432.483V155.7ZM372.783 157.2V208.2H375.783V157.2H372.783ZM374.283 209.7H436.083V206.7H374.283V209.7ZM434.583 208.2V224H437.583V208.2H434.583ZM747.022 224V225.5H748.522V224H747.022ZM726.022 224L724.761 224.812L725.204 225.5H726.022V224ZM649.622 105.4L650.883 104.588L650.44 103.9H649.622V105.4ZM648.822 105.4V103.9H647.236L647.324 105.483L648.822 105.4ZM649.222 113.4L647.723 113.468L647.725 113.502L647.728 113.536L649.222 113.4ZM649.822 123L648.323 123.058L648.323 123.06L649.822 123ZM650.222 133.4L648.723 133.456L650.222 133.4ZM650.422 224V225.5H651.922V224H650.422ZM633.822 224H632.322V225.5H633.822V224ZM633.822 81.2V79.7H632.322V81.2H633.822ZM654.622 81.2L655.883 80.3872L655.44 79.7H654.622V81.2ZM730.822 199.4L729.561 200.213L730.004 200.9H730.822V199.4ZM731.622 199.4V200.9H733.252L733.117 199.275L731.622 199.4ZM731.222 192.8L729.723 192.868L729.724 192.871L731.222 192.8ZM730.822 183.2L729.323 183.256L729.323 183.258L730.822 183.2ZM730.422 172.2L728.923 172.254L730.422 172.2ZM730.222 81.2V79.7H728.722V81.2H730.222ZM747.022 81.2H748.522V79.7H747.022V81.2ZM747.022 222.5H726.022V225.5H747.022V222.5ZM727.283 223.188L650.883 104.588L648.361 106.212L724.761 224.812L727.283 223.188ZM649.622 103.9H648.822V106.9H649.622V103.9ZM647.324 105.483C647.457 107.877 647.59 110.539 647.723 113.468L650.72 113.332C650.587 110.395 650.453 107.723 650.32 105.317L647.324 105.483ZM647.728 113.536C647.992 116.439 648.19 119.613 648.323 123.058L651.321 122.942C651.187 119.454 650.985 116.228 650.716 113.264L647.728 113.536ZM648.323 123.06C648.456 126.392 648.59 129.857 648.723 133.456L651.721 133.344C651.587 129.743 651.454 126.275 651.321 122.94L648.323 123.06ZM648.723 133.456C648.856 137.037 648.922 140.619 648.922 144.2H651.922C651.922 140.581 651.855 136.963 651.721 133.344L648.723 133.456ZM648.922 144.2V224H651.922V144.2H648.922ZM650.422 222.5H633.822V225.5H650.422V222.5ZM635.322 224V81.2H632.322V224H635.322ZM633.822 82.7H654.622V79.7H633.822V82.7ZM653.361 82.0127L729.561 200.213L732.083 198.587L655.883 80.3872L653.361 82.0127ZM730.822 200.9H731.622V197.9H730.822V200.9ZM733.117 199.275C732.986 197.701 732.853 195.522 732.72 192.729L729.724 192.871C729.857 195.678 729.992 197.899 730.127 199.525L733.117 199.275ZM732.72 192.732C732.587 189.803 732.454 186.606 732.321 183.142L729.323 183.258C729.456 186.727 729.59 189.931 729.723 192.868L732.72 192.732ZM732.321 183.144C732.188 179.545 732.054 175.879 731.921 172.146L728.923 172.254C729.056 175.988 729.19 179.655 729.323 183.256L732.321 183.144ZM731.921 172.146C731.788 168.428 731.722 164.979 731.722 161.8H728.722C728.722 165.02 728.789 168.505 728.923 172.254L731.921 172.146ZM731.722 161.8V81.2H728.722V161.8H731.722ZM730.222 82.7H747.022V79.7H730.222V82.7ZM745.522 81.2V224H748.522V81.2H745.522Z" fill="#F5F5F5"/>
<g filter="url(#filter2_i_163_18)">
<path d="M481.99 232.4C469.67 232.4 459.59 229.11 451.75 222.53C444.05 215.95 440.2 206.29 440.2 193.55C440.2 185.85 441.6 178.43 444.4 171.29C447.34 164.01 450.56 157.15 454.06 150.71C450.56 147.07 447.48 143.08 444.82 138.74C442.3 134.26 441.04 129.43 441.04 124.25C441.04 117.95 442.93 112.49 446.71 107.87C450.63 103.11 455.53 99.12 461.41 95.9C467.29 92.54 473.38 89.81 479.68 87.71C485.98 85.61 491.58 84.07 496.48 83.09C507.68 80.99 518.88 79.94 530.08 79.94H536.8C544.36 77.28 552.13 75.32 560.11 74.06C568.09 72.8 576.07 72.17 584.05 72.17C588.25 72.17 592.45 72.38 596.65 72.8C600.99 73.08 605.19 73.57 609.25 74.27C614.15 75.11 618.42 77.07 622.06 80.15C625.7 83.23 627.52 87.5 627.52 92.96C627.52 93.94 627.24 95.48 626.68 97.58C626.26 99.54 625.63 101.43 624.79 103.25C623.95 104.93 622.97 105.77 621.85 105.77C620.73 105.77 620.17 105.21 620.17 104.09C620.17 103.39 620.87 102.13 622.27 100.31C623.67 98.49 624.37 96.04 624.37 92.96C624.37 89.18 623.39 86.17 621.43 83.93C619.47 81.55 616.95 79.87 613.87 78.89C610.79 77.77 607.57 77.07 604.21 76.79C600.85 76.37 597.77 76.16 594.97 76.16C588.95 76.16 582.93 76.72 576.91 77.84C571.03 78.82 565.22 80.29 559.48 82.25C565.22 83.09 571.45 84.42 578.17 86.24C584.89 87.92 591.26 90.3 597.28 93.38C603.3 96.46 608.2 100.52 611.98 105.56C615.76 110.46 617.65 116.55 617.65 123.83C617.65 129.85 616.46 135.87 614.08 141.89C611.7 147.77 608.55 153.44 604.63 158.9C600.71 164.36 596.51 169.54 592.03 174.44C587.55 179.2 583.21 183.47 579.01 187.25C580.55 187.11 582.65 186.83 585.31 186.41C587.97 185.85 589.79 185.57 590.77 185.57C592.03 185.57 592.66 186.06 592.66 187.04C592.66 187.74 592.24 188.23 591.4 188.51C588.74 189.21 586.01 189.7 583.21 189.98C580.55 190.26 577.82 190.54 575.02 190.82C568.02 196.84 560.04 202.86 551.08 208.88C542.12 214.9 533.3 219.59 524.62 222.95C518.04 225.61 511.04 227.85 503.62 229.67C496.34 231.49 489.13 232.4 481.99 232.4ZM458.89 142.73C466.59 130.69 475.76 119.77 486.4 109.97C497.18 100.17 509.08 92.19 522.1 86.03C517.76 86.17 513.35 86.59 508.87 87.29C504.53 87.99 500.12 88.9 495.64 90.02C491.58 91 487.1 92.54 482.2 94.64C477.44 96.6 472.82 99.12 468.34 102.2C464 105.14 460.36 108.64 457.42 112.7C454.62 116.62 453.22 121.1 453.22 126.14C453.22 129.08 453.78 132.02 454.9 134.96C456.16 137.76 457.49 140.35 458.89 142.73ZM563.05 187.67C566.83 183.61 570.82 178.78 575.02 173.18C579.22 167.44 583.21 161.35 586.99 154.91C590.77 148.33 593.85 141.82 596.23 135.38C598.61 128.8 599.8 122.71 599.8 117.11C599.8 110.53 597.98 105.35 594.34 101.57C590.84 97.79 586.29 94.92 580.69 92.96C575.23 91 569.49 89.67 563.47 88.97C557.45 88.13 552.06 87.43 547.3 86.87C536.94 91.21 526.79 96.81 516.85 103.67C506.91 110.53 497.74 118.23 489.34 126.77C480.94 135.17 473.73 144.2 467.71 153.86C473.31 159.32 479.96 164.15 487.66 168.35C495.36 172.41 503.55 175.84 512.23 178.64C521.05 181.3 529.8 183.4 538.48 184.94C547.16 186.34 555.35 187.25 563.05 187.67ZM505.72 165.41C504.88 165.41 504.46 164.99 504.46 164.15C504.46 163.03 505.37 161.42 507.19 159.32C509.01 157.08 511.18 154.77 513.7 152.39C516.22 150.01 518.67 148.05 521.05 146.51C523.43 144.83 525.18 143.99 526.3 143.99C526.86 143.99 527.35 144.41 527.77 145.25C528.47 146.37 529.03 147.49 529.45 148.61C530.01 149.59 530.78 150.64 531.76 151.76C532.46 152.32 533.79 153.09 535.75 154.07C537.71 154.91 538.69 155.61 538.69 156.17C538.69 156.59 538.48 156.94 538.06 157.22C537.64 157.5 537.29 157.78 537.01 158.06C536.45 158.48 534.91 158.97 532.39 159.53C529.87 159.95 527.28 160.37 524.62 160.79C522.1 161.07 520.35 161.28 519.37 161.42C517.13 161.7 515.03 162.26 513.07 163.1C511.25 163.8 509.29 164.5 507.19 165.2C506.91 165.34 506.42 165.41 505.72 165.41ZM488.92 225.68C498.3 225.68 507.12 224.14 515.38 221.06C523.78 217.98 531.62 213.85 538.9 208.67C546.32 203.35 553.18 197.54 559.48 191.24C548.98 190.82 537.99 189.35 526.51 186.83C515.17 184.17 504.11 180.53 493.33 175.91C482.55 171.29 472.89 165.83 464.35 159.53C461.41 164.85 458.75 170.73 456.37 177.17C453.99 183.61 452.8 189.91 452.8 196.07C452.8 203.07 454.48 208.81 457.84 213.29C461.34 217.63 465.82 220.78 471.28 222.74C476.74 224.7 482.62 225.68 488.92 225.68Z" fill="#F5F5F5"/>
</g>
<path d="M451.75 222.53L449.801 224.811L449.811 224.819L449.821 224.828L451.75 222.53ZM444.4 171.29L441.618 170.167L441.612 170.181L441.607 170.195L444.4 171.29ZM454.06 150.71L456.695 152.143L457.744 150.213L456.222 148.631L454.06 150.71ZM444.82 138.74L442.205 140.211L442.232 140.26L442.262 140.308L444.82 138.74ZM446.71 107.87L444.394 105.963L444.388 105.97L446.71 107.87ZM461.41 95.9L462.851 98.5313L462.874 98.5182L462.898 98.5047L461.41 95.9ZM479.68 87.71L478.731 84.8639H478.731L479.68 87.71ZM496.48 83.09L495.927 80.1414L495.909 80.1447L495.891 80.1483L496.48 83.09ZM536.8 79.94V82.94H537.312L537.795 82.7699L536.8 79.94ZM560.11 74.06L559.642 71.0967L560.11 74.06ZM596.65 72.8L596.351 75.7851L596.404 75.7904L596.456 75.7938L596.65 72.8ZM609.25 74.27L608.74 77.2264L608.743 77.2269L609.25 74.27ZM622.06 80.15L623.997 77.8598L622.06 80.15ZM626.68 97.58L623.781 96.807L623.762 96.8788L623.746 96.9514L626.68 97.58ZM624.79 103.25L627.473 104.592L627.494 104.55L627.513 104.507L624.79 103.25ZM622.27 100.31L624.647 102.139V102.139L622.27 100.31ZM621.43 83.93L619.114 85.8371L619.142 85.8717L619.172 85.9055L621.43 83.93ZM613.87 78.89L612.844 81.7094L612.902 81.7302L612.96 81.7488L613.87 78.89ZM604.21 76.79L603.838 79.7668L603.899 79.7745L603.96 79.7796L604.21 76.79ZM576.91 77.84L577.403 80.7992L577.431 80.7945L577.458 80.7894L576.91 77.84ZM559.48 82.25L558.51 79.4109L559.045 85.2184L559.48 82.25ZM578.17 86.24L577.385 89.1357L577.414 89.1433L577.442 89.1504L578.17 86.24ZM597.28 93.38L598.646 90.7093V90.7092L597.28 93.38ZM611.98 105.56L609.58 107.36L609.592 107.376L609.604 107.392L611.98 105.56ZM614.08 141.89L616.86 143.016L616.865 143.004L616.869 142.993L614.08 141.89ZM604.63 158.9L607.067 160.65V160.65L604.63 158.9ZM592.03 174.44L594.214 176.496L594.229 176.48L594.244 176.464L592.03 174.44ZM579.01 187.25L577.003 185.02L570.298 191.054L579.281 190.238L579.01 187.25ZM585.31 186.41L585.777 189.373L585.853 189.361L585.928 189.346L585.31 186.41ZM591.4 188.51L592.163 191.411L592.257 191.387L592.348 191.356L591.4 188.51ZM583.21 189.98L582.911 186.995L582.903 186.996L582.896 186.996L583.21 189.98ZM575.02 190.82L574.721 187.835L573.78 187.929L573.064 188.545L575.02 190.82ZM551.08 208.88L549.407 206.39L551.08 208.88ZM524.62 222.95L523.537 220.152L523.516 220.16L523.495 220.169L524.62 222.95ZM503.62 229.67L502.905 226.756L502.892 226.76L503.62 229.67ZM458.89 142.73L456.304 144.251L458.783 148.465L461.417 144.346L458.89 142.73ZM486.4 109.97L484.382 107.75L484.374 107.757L484.367 107.763L486.4 109.97ZM522.1 86.03L523.383 88.7418L522.003 83.0316L522.1 86.03ZM508.87 87.29L508.406 84.326L508.399 84.3271L508.392 84.3283L508.87 87.29ZM495.64 90.02L496.344 92.9362L496.355 92.9334L496.367 92.9304L495.64 90.02ZM482.2 94.64L483.342 97.414L483.362 97.4059L483.381 97.3974L482.2 94.64ZM468.34 102.2L470.022 104.684L470.031 104.678L470.039 104.672L468.34 102.2ZM457.42 112.7L454.99 110.94L454.984 110.948L454.978 110.956L457.42 112.7ZM454.9 134.96L452.096 136.028L452.128 136.111L452.164 136.191L454.9 134.96ZM563.05 187.67L562.886 190.666L564.288 190.742L565.245 189.714L563.05 187.67ZM575.02 173.18L577.42 174.98L577.43 174.966L577.441 174.952L575.02 173.18ZM586.99 154.91L589.577 156.429L589.584 156.417L589.591 156.404L586.99 154.91ZM596.23 135.38L599.044 136.42L599.047 136.41L599.051 136.4L596.23 135.38ZM594.34 101.57L592.138 103.608L592.158 103.63L592.179 103.651L594.34 101.57ZM580.69 92.96L579.676 95.7836L579.687 95.7876L579.699 95.7916L580.69 92.96ZM563.47 88.97L563.055 91.9412L563.089 91.946L563.123 91.9499L563.47 88.97ZM547.3 86.87L547.65 83.8905L546.867 83.7984L546.14 84.103L547.3 86.87ZM516.85 103.67L518.554 106.139L516.85 103.67ZM489.34 126.77L491.461 128.891L491.47 128.883L491.478 128.874L489.34 126.77ZM467.71 153.86L465.164 152.273L463.887 154.322L465.615 156.008L467.71 153.86ZM487.66 168.35L486.223 170.984L486.242 170.994L486.26 171.004L487.66 168.35ZM512.23 178.64L511.309 181.495L511.336 181.504L511.363 181.512L512.23 178.64ZM538.48 184.94L537.956 187.894L537.979 187.898L538.002 187.902L538.48 184.94ZM507.19 159.32L509.457 161.285L509.488 161.249L509.518 161.212L507.19 159.32ZM513.7 152.39L511.64 150.209H511.64L513.7 152.39ZM521.05 146.51L522.679 149.029L522.73 148.996L522.78 148.961L521.05 146.51ZM527.77 145.25L525.086 146.592L525.15 146.719L525.226 146.84L527.77 145.25ZM529.45 148.61L526.641 149.663L526.725 149.889L526.845 150.098L529.45 148.61ZM531.76 151.76L529.502 153.736L529.677 153.936L529.886 154.103L531.76 151.76ZM535.75 154.07L534.408 156.753L534.487 156.793L534.568 156.827L535.75 154.07ZM538.06 157.22L539.724 159.716L539.724 159.716L538.06 157.22ZM537.01 158.06L538.81 160.46L538.98 160.332L539.131 160.181L537.01 158.06ZM532.39 159.53L532.883 162.489L532.962 162.476L533.04 162.459L532.39 159.53ZM524.62 160.79L524.951 163.772L525.019 163.764L525.087 163.753L524.62 160.79ZM519.37 161.42L519.742 164.397L519.768 164.394L519.794 164.39L519.37 161.42ZM513.07 163.1L514.147 165.9L514.199 165.88L514.251 165.857L513.07 163.1ZM507.19 165.2L506.241 162.354L506.039 162.421L505.848 162.517L507.19 165.2ZM515.38 221.06L514.347 218.243L514.339 218.246L514.331 218.249L515.38 221.06ZM538.9 208.67L540.639 211.114L540.648 211.108L538.9 208.67ZM559.48 191.24L561.601 193.361L566.446 188.516L559.6 188.242L559.48 191.24ZM526.51 186.83L525.825 189.751L525.845 189.756L525.866 189.76L526.51 186.83ZM493.33 175.91L494.511 173.153L493.33 175.91ZM464.35 159.53L466.131 157.116L463.378 155.085L461.724 158.079L464.35 159.53ZM456.37 177.17L453.556 176.13L456.37 177.17ZM457.84 213.29L455.44 215.09L455.471 215.132L455.504 215.173L457.84 213.29ZM471.28 222.74L470.266 225.564L471.28 222.74ZM481.99 229.4C470.225 229.4 460.873 226.271 453.678 220.232L449.821 224.828C458.306 231.949 469.114 235.4 481.99 235.4V229.4ZM453.699 220.249C446.831 214.381 443.2 205.657 443.2 193.55H437.2C437.2 206.923 441.268 217.519 449.801 224.811L453.699 220.249ZM443.2 193.55C443.2 186.223 444.53 179.175 447.193 172.385L441.607 170.195C438.669 177.685 437.2 185.477 437.2 193.55H443.2ZM447.181 172.413C450.082 165.232 453.254 158.476 456.695 152.143L451.424 149.277C447.866 155.824 444.598 162.788 441.618 170.167L447.181 172.413ZM456.222 148.631C452.873 145.148 449.925 141.33 447.377 137.172L442.262 140.308C445.034 144.83 448.246 148.992 451.897 152.789L456.222 148.631ZM447.434 137.269C445.169 133.242 444.04 128.919 444.04 124.25H438.04C438.04 129.941 439.43 135.278 442.205 140.211L447.434 137.269ZM444.04 124.25C444.04 118.601 445.716 113.823 449.031 109.77L444.388 105.97C440.144 111.157 438.04 117.299 438.04 124.25H444.04ZM449.025 109.777C452.682 105.337 457.276 101.584 462.851 98.5313L459.969 93.2687C453.783 96.6561 448.577 100.883 444.394 105.963L449.025 109.777ZM462.898 98.5047C468.61 95.2408 474.519 92.5923 480.628 90.556L478.731 84.8639C472.24 87.0276 465.969 89.8392 459.921 93.2953L462.898 98.5047ZM480.628 90.556C486.846 88.4835 492.322 86.9809 497.068 86.0317L495.891 80.1483C490.837 81.1591 485.113 82.7365 478.731 84.8639L480.628 90.556ZM497.032 86.0386C508.053 83.9722 519.068 82.94 530.08 82.94V76.94C518.691 76.94 507.306 78.0078 495.927 80.1414L497.032 86.0386ZM530.08 82.94H536.8V76.94H530.08V82.94ZM537.795 82.7699C545.182 80.1708 552.776 78.2551 560.577 77.0233L559.642 71.0967C551.484 72.3848 543.537 74.3892 535.804 77.1101L537.795 82.7699ZM560.577 77.0233C568.405 75.7874 576.228 75.17 584.05 75.17V69.17C575.911 69.17 567.775 69.8126 559.642 71.0967L560.577 77.0233ZM584.05 75.17C588.149 75.17 592.25 75.375 596.351 75.7851L596.948 69.8149C592.649 69.385 588.35 69.17 584.05 69.17V75.17ZM596.456 75.7938C600.696 76.0673 604.79 76.5454 608.74 77.2264L609.759 71.3136C605.589 70.5946 601.283 70.0927 596.843 69.8062L596.456 75.7938ZM608.743 77.2269C613.138 77.9804 616.909 79.7212 620.122 82.4401L623.997 77.8598C619.931 74.4188 615.161 72.2396 609.757 71.3131L608.743 77.2269ZM620.122 82.4401C622.986 84.8639 624.52 88.2395 624.52 92.96H630.52C630.52 86.7605 628.413 81.5961 623.997 77.8598L620.122 82.4401ZM624.52 92.96C624.52 93.517 624.335 94.7296 623.781 96.807L629.578 98.353C630.144 96.2304 630.52 94.363 630.52 92.96H624.52ZM623.746 96.9514C623.373 98.6948 622.813 100.374 622.066 101.993L627.513 104.507C628.446 102.486 629.147 100.385 629.613 98.2086L623.746 96.9514ZM622.106 101.908C621.791 102.54 621.553 102.793 621.472 102.862C621.442 102.888 621.467 102.86 621.549 102.827C621.638 102.792 621.744 102.77 621.85 102.77V108.77C624.741 108.77 626.49 106.557 627.473 104.592L622.106 101.908ZM621.85 102.77C621.752 102.77 622.23 102.748 622.711 103.229C623.192 103.71 623.17 104.188 623.17 104.09H617.17C617.17 105.112 617.427 106.43 618.468 107.471C619.509 108.512 620.827 108.77 621.85 108.77V102.77ZM623.17 104.09C623.17 104.383 623.103 104.532 623.126 104.469C623.142 104.425 623.194 104.299 623.317 104.077C623.566 103.63 623.992 102.992 624.647 102.139L619.892 98.4809C619.147 99.4484 618.524 100.35 618.072 101.163C617.685 101.86 617.17 102.925 617.17 104.09H623.17ZM624.647 102.139C626.569 99.6409 627.37 96.4771 627.37 92.96H621.37C621.37 95.6029 620.77 97.3391 619.892 98.4809L624.647 102.139ZM627.37 92.96C627.37 88.6554 626.244 84.8764 623.687 81.9545L619.172 85.9055C620.535 87.4636 621.37 89.7046 621.37 92.96H627.37ZM623.745 82.0229C621.4 79.1747 618.382 77.1775 614.779 76.0312L612.96 81.7488C615.517 82.5625 617.539 83.9253 619.114 85.8371L623.745 82.0229ZM614.895 76.0706C611.558 74.8571 608.076 74.1018 604.459 73.8004L603.96 79.7796C607.063 80.0382 610.022 80.6829 612.844 81.7094L614.895 76.0706ZM604.582 73.8132C601.123 73.3808 597.917 73.16 594.97 73.16V79.16C597.623 79.16 600.576 79.3592 603.838 79.7668L604.582 73.8132ZM594.97 73.16C588.762 73.16 582.559 73.7375 576.361 74.8906L577.458 80.7894C583.3 79.7025 589.137 79.16 594.97 79.16V73.16ZM576.416 74.8808C570.372 75.8882 564.403 77.3989 558.51 79.4109L560.449 85.0891C566.037 83.1811 571.687 81.7517 577.403 80.7992L576.416 74.8808ZM559.045 85.2184C564.647 86.0381 570.758 87.3409 577.385 89.1357L578.954 83.3443C572.141 81.4991 565.793 80.1419 559.914 79.2816L559.045 85.2184ZM577.442 89.1504C583.946 90.7764 590.101 93.0772 595.913 96.0507L598.646 90.7092C592.418 87.5228 585.833 85.0636 578.897 83.3296L577.442 89.1504ZM595.913 96.0507C601.557 98.9384 606.093 102.711 609.58 107.36L614.38 103.76C610.306 98.3285 605.042 93.9815 598.646 90.7093L595.913 96.0507ZM609.604 107.392C612.911 111.679 614.65 117.092 614.65 123.83H620.65C620.65 116.008 618.608 109.241 614.355 103.728L609.604 107.392ZM614.65 123.83C614.65 129.445 613.541 135.092 611.29 140.787L616.869 142.993C619.378 136.648 620.65 130.255 620.65 123.83H614.65ZM611.299 140.764C609.013 146.411 605.982 151.872 602.193 157.15L607.067 160.65C611.117 155.007 614.386 149.129 616.86 143.016L611.299 140.764ZM602.193 157.15C598.341 162.516 594.215 167.604 589.816 172.416L594.244 176.464C598.804 171.476 603.079 166.204 607.067 160.65L602.193 157.15ZM589.845 172.384C585.413 177.093 581.132 181.303 577.003 185.02L581.017 189.48C585.287 185.637 589.686 181.307 594.214 176.496L589.845 172.384ZM579.281 190.238C580.918 190.089 583.092 189.797 585.777 189.373L584.842 183.447C582.207 183.863 580.182 184.131 578.738 184.262L579.281 190.238ZM585.928 189.346C588.622 188.778 590.148 188.57 590.77 188.57V182.57C589.432 182.57 587.317 182.922 584.692 183.474L585.928 189.346ZM590.77 188.57C591.094 188.57 590.784 188.647 590.345 188.306C590.101 188.116 589.905 187.86 589.784 187.579C589.671 187.315 589.66 187.112 589.66 187.04H595.66C595.66 185.858 595.241 184.512 594.029 183.569C592.96 182.738 591.706 182.57 590.77 182.57V188.57ZM589.66 187.04C589.66 186.912 589.68 186.732 589.752 186.527C589.826 186.319 589.936 186.132 590.067 185.98C590.319 185.686 590.539 185.634 590.451 185.664L592.348 191.356C593.1 191.106 593.951 190.669 594.622 189.885C595.339 189.048 595.66 188.041 595.66 187.04H589.66ZM590.636 185.609C588.132 186.268 585.558 186.73 582.911 186.995L583.508 192.965C586.461 192.67 589.347 192.152 592.163 191.411L590.636 185.609ZM582.896 186.996C580.241 187.276 577.516 187.555 574.721 187.835L575.318 193.805C578.123 193.525 580.858 193.244 583.524 192.964L582.896 186.996ZM573.064 188.545C566.167 194.476 558.284 200.425 549.407 206.39L552.753 211.37C561.795 205.295 569.872 199.204 576.976 193.095L573.064 188.545ZM549.407 206.39C540.603 212.305 531.979 216.884 523.537 220.152L525.703 225.748C534.62 222.296 543.637 217.495 552.753 211.37L549.407 206.39ZM523.495 220.169C517.058 222.771 510.196 224.968 502.905 226.756L504.334 232.584C511.883 230.732 519.021 228.449 525.744 225.731L523.495 220.169ZM502.892 226.76C495.838 228.523 488.872 229.4 481.99 229.4V235.4C489.387 235.4 496.841 234.457 504.347 232.58L502.892 226.76ZM461.417 144.346C468.976 132.526 477.979 121.804 488.432 112.177L484.367 107.763C473.54 117.736 464.203 128.854 456.362 141.114L461.417 144.346ZM488.418 112.19C498.981 102.587 510.634 94.7736 523.383 88.7418L520.817 83.3182C507.526 89.6064 495.378 97.7531 484.382 107.75L488.418 112.19ZM522.003 83.0316C517.535 83.1757 513.002 83.6078 508.406 84.326L509.333 90.254C513.697 89.5722 517.984 89.1643 522.196 89.0284L522.003 83.0316ZM508.392 84.3283C503.964 85.0425 499.47 85.97 494.912 87.1096L496.367 92.9304C500.769 91.83 505.095 90.9375 509.347 90.2517L508.392 84.3283ZM494.936 87.1038C490.675 88.1322 486.032 89.7335 481.018 91.8826L483.381 97.3974C488.167 95.3465 492.484 93.8677 496.344 92.9362L494.936 87.1038ZM481.057 91.866C476.091 93.911 471.285 96.5345 466.64 99.7279L470.039 104.672C474.354 101.705 478.788 99.289 483.342 97.414L481.057 91.866ZM466.657 99.7162C462.041 102.843 458.144 106.585 454.99 110.94L459.849 114.46C462.575 110.695 465.958 107.437 470.022 104.684L466.657 99.7162ZM454.978 110.956C451.798 115.41 450.22 120.505 450.22 126.14H456.22C456.22 121.695 457.442 117.83 459.861 114.444L454.978 110.956ZM450.22 126.14C450.22 129.47 450.855 132.771 452.096 136.028L457.703 133.892C456.704 131.269 456.22 128.69 456.22 126.14H450.22ZM452.164 136.191C453.464 139.08 454.843 141.767 456.304 144.251L461.475 141.209C460.136 138.933 458.856 136.44 457.635 133.729L452.164 136.191ZM565.245 189.714C569.113 185.56 573.172 180.644 577.42 174.98L572.62 171.38C568.468 176.916 564.546 181.66 560.854 185.626L565.245 189.714ZM577.441 174.952C581.703 169.126 585.748 162.951 589.577 156.429L584.402 153.391C580.671 159.749 576.736 165.754 572.599 171.408L577.441 174.952ZM589.591 156.404C593.446 149.694 596.6 143.033 599.044 136.42L593.416 134.34C591.099 140.607 588.093 146.966 584.388 153.416L589.591 156.404ZM599.051 136.4C601.521 129.572 602.8 123.132 602.8 117.11H596.8C596.8 122.287 595.698 128.028 593.408 134.36L599.051 136.4ZM602.8 117.11C602.8 109.961 600.807 103.961 596.501 99.4891L592.179 103.651C595.152 106.739 596.8 111.099 596.8 117.11H602.8ZM596.541 99.5318C592.661 95.3414 587.672 92.2255 581.681 90.1284L579.699 95.7916C584.907 97.6145 589.018 100.239 592.138 103.608L596.541 99.5318ZM581.703 90.1364C576.018 88.0956 570.054 86.7154 563.816 85.9901L563.123 91.9499C568.926 92.6246 574.441 93.9044 579.676 95.7836L581.703 90.1364ZM563.884 85.9988C557.848 85.1565 552.436 84.4536 547.65 83.8905L546.949 89.8494C551.683 90.4064 557.051 91.1034 563.055 91.9412L563.884 85.9988ZM546.14 84.103C535.575 88.5289 525.244 94.2318 515.146 101.201L518.554 106.139C528.336 99.3882 538.304 93.8911 548.459 89.637L546.14 84.103ZM515.146 101.201C505.051 108.168 495.735 115.99 487.201 124.666L491.478 128.874C499.744 120.47 508.768 112.892 518.554 106.139L515.146 101.201ZM487.218 124.649C478.664 133.203 471.309 142.411 465.164 152.273L470.256 155.447C476.15 145.989 483.215 137.137 491.461 128.891L487.218 124.649ZM465.615 156.008C471.433 161.681 478.311 166.668 486.223 170.984L489.096 165.716C481.608 161.632 475.186 156.959 469.804 151.712L465.615 156.008ZM486.26 171.004C494.121 175.148 502.472 178.644 511.309 181.495L513.151 175.785C504.628 173.036 496.598 169.672 489.059 165.696L486.26 171.004ZM511.363 181.512C520.291 184.205 529.155 186.332 537.956 187.894L539.004 181.986C530.444 180.468 521.808 178.395 513.096 175.768L511.363 181.512ZM538.002 187.902C546.772 189.316 555.068 190.239 562.886 190.666L563.213 184.674C555.632 184.261 547.547 183.364 538.957 181.978L538.002 187.902ZM505.72 162.41C505.762 162.41 506.345 162.423 506.896 162.974C507.447 163.525 507.46 164.108 507.46 164.15H501.46C501.46 165.032 501.682 166.245 502.653 167.216C503.624 168.187 504.837 168.41 505.72 168.41V162.41ZM507.46 164.15C507.46 164.341 507.406 164.194 507.754 163.579C508.075 163.011 508.619 162.251 509.457 161.285L504.923 157.355C503.94 158.489 503.12 159.584 502.53 160.626C501.968 161.621 501.46 162.839 501.46 164.15H507.46ZM509.518 161.212C511.24 159.092 513.317 156.878 515.759 154.571L511.64 150.209C509.042 152.662 506.779 155.068 504.861 157.428L509.518 161.212ZM515.759 154.571C518.175 152.29 520.482 150.45 522.679 149.029L519.42 143.991C516.857 145.65 514.264 147.73 511.64 150.209L515.759 154.571ZM522.78 148.961C523.894 148.175 524.776 147.646 525.445 147.325C526.171 146.976 526.405 146.99 526.3 146.99V140.99C525.074 140.99 523.874 141.424 522.849 141.915C521.769 142.434 520.586 143.165 519.32 144.059L522.78 148.961ZM526.3 146.99C526.054 146.99 525.812 146.942 525.592 146.854C525.378 146.769 525.227 146.662 525.135 146.583C524.971 146.442 524.981 146.38 525.086 146.592L530.453 143.908C529.89 142.783 528.631 140.99 526.3 140.99V146.99ZM525.226 146.84C525.83 147.808 526.298 148.749 526.641 149.663L532.259 147.557C531.762 146.231 531.109 144.932 530.314 143.66L525.226 146.84ZM526.845 150.098C527.53 151.297 528.429 152.51 529.502 153.736L534.017 149.784C533.13 148.77 532.49 147.883 532.054 147.122L526.845 150.098ZM529.886 154.103C530.861 154.883 532.452 155.775 534.408 156.753L537.091 151.387C535.127 150.405 534.059 149.757 533.634 149.417L529.886 154.103ZM534.568 156.827C535.476 157.217 535.981 157.502 536.211 157.666C536.327 157.749 536.259 157.722 536.138 157.566C536.02 157.414 535.69 156.929 535.69 156.17H541.69C541.69 155.131 541.236 154.348 540.874 153.882C540.507 153.411 540.072 153.051 539.698 152.784C538.948 152.248 537.983 151.763 536.931 151.313L534.568 156.827ZM535.69 156.17C535.69 155.853 535.776 155.509 535.96 155.204C536.131 154.919 536.321 154.773 536.396 154.724L539.724 159.716C540.785 159.009 541.69 157.805 541.69 156.17H535.69ZM536.396 154.724C535.854 155.085 535.34 155.487 534.888 155.939L539.131 160.181C539.239 160.073 539.426 159.915 539.724 159.716L536.396 154.724ZM535.21 155.66C535.338 155.564 535.378 155.564 535.213 155.635C535.072 155.697 534.85 155.78 534.525 155.884C533.875 156.091 532.956 156.331 531.739 156.601L533.04 162.459C534.343 162.169 535.454 161.884 536.344 161.601C537.125 161.353 538.087 161.002 538.81 160.46L535.21 155.66ZM531.896 156.571C529.385 156.989 526.804 157.408 524.152 157.827L525.087 163.753C527.755 163.332 530.354 162.911 532.883 162.489L531.896 156.571ZM524.288 157.808C521.77 158.088 519.977 158.303 518.945 158.45L519.794 164.39C520.722 164.257 522.429 164.052 524.951 163.772L524.288 157.808ZM518.998 158.443C516.495 158.756 514.121 159.386 511.888 160.343L514.251 165.857C515.938 165.134 517.764 164.644 519.742 164.397L518.998 158.443ZM511.993 160.3C510.22 160.982 508.303 161.666 506.241 162.354L508.138 168.046C510.276 167.334 512.279 166.618 514.147 165.9L511.993 160.3ZM505.848 162.517C505.924 162.479 505.989 162.452 506.038 162.434C506.087 162.416 506.126 162.404 506.151 162.398C506.199 162.384 506.215 162.384 506.188 162.388C506.162 162.391 506.111 162.397 506.029 162.402C505.948 162.407 505.846 162.41 505.72 162.41V168.41C506.446 168.41 507.567 168.365 508.531 167.883L505.848 162.517ZM488.92 228.68C498.634 228.68 507.811 227.084 516.428 223.871L514.331 218.249C506.428 221.196 497.965 222.68 488.92 222.68V228.68ZM516.412 223.877C525.063 220.705 533.141 216.45 540.639 211.114L537.16 206.226C530.099 211.25 522.496 215.255 514.347 218.243L516.412 223.877ZM540.648 211.108C548.197 205.695 555.183 199.78 561.601 193.361L557.358 189.119C551.177 195.3 544.442 201.005 537.152 206.232L540.648 211.108ZM559.6 188.242C549.295 187.83 538.481 186.386 527.153 183.9L525.866 189.76C537.499 192.314 548.664 193.81 559.36 194.238L559.6 188.242ZM527.195 183.909C516.026 181.289 505.132 177.704 494.511 173.153L492.148 178.667C503.087 183.356 514.313 187.051 525.825 189.751L527.195 183.909ZM494.511 173.153C483.922 168.614 474.466 163.265 466.131 157.116L462.569 161.944C471.313 168.395 481.178 173.966 492.148 178.667L494.511 173.153ZM461.724 158.079C458.702 163.547 455.981 169.566 453.556 176.13L459.184 178.21C461.518 171.894 464.117 166.153 466.975 160.981L461.724 158.079ZM453.556 176.13C451.067 182.865 449.8 189.517 449.8 196.07H455.8C455.8 190.303 456.913 184.355 459.184 178.21L453.556 176.13ZM449.8 196.07C449.8 203.554 451.602 209.973 455.44 215.09L460.24 211.49C457.358 207.647 455.8 202.586 455.8 196.07H449.8ZM455.504 215.173C459.365 219.96 464.309 223.425 470.266 225.564L472.293 219.916C467.33 218.135 463.315 215.3 460.175 211.407L455.504 215.173ZM470.266 225.564C476.078 227.65 482.304 228.68 488.92 228.68V222.68C482.935 222.68 477.401 221.75 472.293 219.916L470.266 225.564Z" fill="#F5F5F5"/>
</g>
<defs>
<filter id="filter0_i_163_18" x="7.0249" y="72.17" width="739.997" height="193.83" filterUnits="userSpaceOnUse" color-interpolation-filters="sRGB">
<feFlood flood-opacity="0" result="BackgroundImageFix"/>
<feBlend mode="normal" in="SourceGraphic" in2="BackgroundImageFix" result="shape"/>
<feColorMatrix in="SourceAlpha" type="matrix" values="0 0 0 0 0 0 0 0 0 0 0 0 0 0 0 0 0 0 127 0" result="hardAlpha"/>
<feOffset dy="4"/>
<feGaussianBlur stdDeviation="2"/>
<feComposite in2="hardAlpha" operator="arithmetic" k2="-1" k3="1"/>
<feColorMatrix type="matrix" values="0 0 0 0 1 0 0 0 0 1 0 0 0 0 1 0 0 0 1 0"/>
<feBlend mode="normal" in2="shape" result="effect1_innerShadow_163_18"/>
</filter>
<filter id="filter1_i_163_18" x="7.0249" y="81.2" width="739.997" height="184.8" filterUnits="userSpaceOnUse" color-interpolation-filters="sRGB">
<feFlood flood-opacity="0" result="BackgroundImageFix"/>
<feBlend mode="normal" in="SourceGraphic" in2="BackgroundImageFix" result="shape"/>
<feColorMatrix in="SourceAlpha" type="matrix" values="0 0 0 0 0 0 0 0 0 0 0 0 0 0 0 0 0 0 127 0" result="hardAlpha"/>
<feOffset dy="5"/>
<feGaussianBlur stdDeviation="2"/>
<feComposite in2="hardAlpha" operator="arithmetic" k2="-1" k3="1"/>
<feColorMatrix type="matrix" values="0 0 0 0 1 0 0 0 0 1 0 0 0 0 1 0 0 0 1 0"/>
<feBlend mode="normal" in2="shape" result="effect1_innerShadow_163_18"/>
</filter>
<filter id="filter2_i_163_18" x="440.2" y="72.17" width="187.32" height="164.23" filterUnits="userSpaceOnUse" color-interpolation-filters="sRGB">
<feFlood flood-opacity="0" result="BackgroundImageFix"/>
<feBlend mode="normal" in="SourceGraphic" in2="BackgroundImageFix" result="shape"/>
<feColorMatrix in="SourceAlpha" type="matrix" values="0 0 0 0 0 0 0 0 0 0 0 0 0 0 0 0 0 0 127 0" result="hardAlpha"/>
<feOffset dy="5"/>
<feGaussianBlur stdDeviation="2"/>
<feComposite in2="hardAlpha" operator="arithmetic" k2="-1" k3="1"/>
<feColorMatrix type="matrix" values="0 0 0 0 1 0 0 0 0 1 0 0 0 0 1 0 0 0 1 0"/>
<feBlend mode="normal" in2="shape" result="effect1_innerShadow_163_18"/>
</filter>
</defs>
</svg>
