<svg width="219" height="49" viewBox="0 0 219 49" fill="none" xmlns="http://www.w3.org/2000/svg">
<g filter="url(#filter0_i_198_28)">
<path d="M2.71195 0.999997H9.31195V37H20.172V43H2.71195V0.999997ZM23.337 0.999997H41.337V7H29.937V18.1H38.997V24.1H29.937V37H41.337V43H23.337V0.999997ZM45.1338 0.999997H63.1338V7H51.7338V18.1H60.7938V24.1H51.7338V37H63.1338V43H45.1338V0.999997ZM78.1001 43.24C76.9001 43.24 75.8801 43.16 75.0401 43V37C75.6801 37.16 76.4001 37.24 77.2001 37.24C78.5201 37.24 79.5001 36.92 80.1401 36.28C80.7801 35.6 81.1001 34.58 81.1001 33.22V0.999997H87.7001V33.04C87.7001 36.48 86.9001 39.04 85.3001 40.72C83.7401 42.4 81.3401 43.24 78.1001 43.24ZM102.019 43.6C98.819 43.6 96.379 42.7 94.699 40.9C93.019 39.06 92.179 36.44 92.179 33.04V0.999997H98.779V33.52C98.779 34.96 99.059 36 99.619 36.64C100.219 37.28 101.059 37.6 102.139 37.6C103.219 37.6 104.039 37.28 104.599 36.64C105.199 36 105.499 34.96 105.499 33.52V0.999997H111.859V33.04C111.859 36.44 111.019 39.06 109.339 40.9C107.659 42.7 105.219 43.6 102.019 43.6ZM132.229 25.12L124.249 0.999997H131.269L135.769 16.42H135.889L140.389 0.999997H146.809L138.829 25.12V43H132.229V25.12ZM149.782 0.999997H167.782V7H156.382V18.1H165.442V24.1H156.382V37H167.782V43H149.782V0.999997ZM181.119 43.6C177.879 43.6 175.399 42.68 173.679 40.84C171.959 39 171.099 36.4 171.099 33.04V10.96C171.099 7.6 171.959 5 173.679 3.16C175.399 1.32 177.879 0.399998 181.119 0.399998C184.359 0.399998 186.839 1.32 188.559 3.16C190.279 5 191.139 7.6 191.139 10.96V33.04C191.139 36.4 190.279 39 188.559 40.84C186.839 42.68 184.359 43.6 181.119 43.6ZM181.119 37.6C183.399 37.6 184.539 36.22 184.539 33.46V10.54C184.539 7.78 183.399 6.4 181.119 6.4C178.839 6.4 177.699 7.78 177.699 10.54V33.46C177.699 36.22 178.839 37.6 181.119 37.6ZM195.603 0.999997H203.883L210.303 26.14H210.423V0.999997H216.303V43H209.523L201.603 12.34H201.483V43H195.603V0.999997Z" fill="#F5F5F5"/>
<path d="M2.71195 0.999997V-2.86102e-06H1.71195V0.999997H2.71195ZM9.31195 0.999997H10.312V-2.86102e-06H9.31195V0.999997ZM9.31195 37H8.31195V38H9.31195V37ZM20.172 37H21.172V36H20.172V37ZM20.172 43V44H21.172V43H20.172ZM2.71195 43H1.71195V44H2.71195V43ZM2.71195 2H9.31195V-2.86102e-06H2.71195V2ZM8.31195 0.999997V37H10.312V0.999997H8.31195ZM9.31195 38H20.172V36H9.31195V38ZM19.172 37V43H21.172V37H19.172ZM20.172 42H2.71195V44H20.172V42ZM3.71195 43V0.999997H1.71195V43H3.71195ZM23.337 0.999997V-2.86102e-06H22.337V0.999997H23.337ZM41.337 0.999997H42.337V-2.86102e-06H41.337V0.999997ZM41.337 7V8H42.337V7H41.337ZM29.937 7V6H28.937V7H29.937ZM29.937 18.1H28.937V19.1H29.937V18.1ZM38.997 18.1H39.997V17.1H38.997V18.1ZM38.997 24.1V25.1H39.997V24.1H38.997ZM29.937 24.1V23.1H28.937V24.1H29.937ZM29.937 37H28.937V38H29.937V37ZM41.337 37H42.337V36H41.337V37ZM41.337 43V44H42.337V43H41.337ZM23.337 43H22.337V44H23.337V43ZM23.337 2H41.337V-2.86102e-06H23.337V2ZM40.337 0.999997V7H42.337V0.999997H40.337ZM41.337 6H29.937V8H41.337V6ZM28.937 7V18.1H30.937V7H28.937ZM29.937 19.1H38.997V17.1H29.937V19.1ZM37.997 18.1V24.1H39.997V18.1H37.997ZM38.997 23.1H29.937V25.1H38.997V23.1ZM28.937 24.1V37H30.937V24.1H28.937ZM29.937 38H41.337V36H29.937V38ZM40.337 37V43H42.337V37H40.337ZM41.337 42H23.337V44H41.337V42ZM24.337 43V0.999997H22.337V43H24.337ZM45.1338 0.999997V-2.86102e-06H44.1338V0.999997H45.1338ZM63.1338 0.999997H64.1338V-2.86102e-06H63.1338V0.999997ZM63.1338 7V8H64.1338V7H63.1338ZM51.7338 7V6H50.7338V7H51.7338ZM51.7338 18.1H50.7338V19.1H51.7338V18.1ZM60.7938 18.1H61.7938V17.1H60.7938V18.1ZM60.7938 24.1V25.1H61.7938V24.1H60.7938ZM51.7338 24.1V23.1H50.7338V24.1H51.7338ZM51.7338 37H50.7338V38H51.7338V37ZM63.1338 37H64.1338V36H63.1338V37ZM63.1338 43V44H64.1338V43H63.1338ZM45.1338 43H44.1338V44H45.1338V43ZM45.1338 2H63.1338V-2.86102e-06H45.1338V2ZM62.1338 0.999997V7H64.1338V0.999997H62.1338ZM63.1338 6H51.7338V8H63.1338V6ZM50.7338 7V18.1H52.7338V7H50.7338ZM51.7338 19.1H60.7938V17.1H51.7338V19.1ZM59.7938 18.1V24.1H61.7938V18.1H59.7938ZM60.7938 23.1H51.7338V25.1H60.7938V23.1ZM50.7338 24.1V37H52.7338V24.1H50.7338ZM51.7338 38H63.1338V36H51.7338V38ZM62.1338 37V43H64.1338V37H62.1338ZM63.1338 42H45.1338V44H63.1338V42ZM46.1338 43V0.999997H44.1338V43H46.1338ZM75.0401 43H74.0401V43.8275L74.853 43.9823L75.0401 43ZM75.0401 37L75.2826 36.0299L74.0401 35.7192V37H75.0401ZM80.1401 36.28L80.8472 36.9871L80.8579 36.9764L80.8683 36.9654L80.1401 36.28ZM81.1001 0.999997V-2.86102e-06H80.1001V0.999997H81.1001ZM87.7001 0.999997H88.7001V-2.86102e-06H87.7001V0.999997ZM85.3001 40.72L84.5759 40.0303L84.5673 40.0395L85.3001 40.72ZM78.1001 42.24C76.9399 42.24 75.9864 42.1623 75.2272 42.0177L74.853 43.9823C75.7737 44.1577 76.8603 44.24 78.1001 44.24V42.24ZM76.0401 43V37H74.0401V43H76.0401ZM74.7975 37.9701C75.5315 38.1536 76.335 38.24 77.2001 38.24V36.24C76.4652 36.24 75.8286 36.1664 75.2826 36.0299L74.7975 37.9701ZM77.2001 38.24C78.6638 38.24 79.9484 37.8859 80.8472 36.9871L79.433 35.5729C79.0518 35.9541 78.3763 36.24 77.2001 36.24V38.24ZM80.8683 36.9654C81.7484 36.0302 82.1001 34.7196 82.1001 33.22H80.1001C80.1001 34.4404 79.8118 35.1698 79.4119 35.5946L80.8683 36.9654ZM82.1001 33.22V0.999997H80.1001V33.22H82.1001ZM81.1001 2H87.7001V-2.86102e-06H81.1001V2ZM86.7001 0.999997V33.04H88.7001V0.999997H86.7001ZM86.7001 33.04C86.7001 36.3454 85.9295 38.6091 84.5759 40.0303L86.0242 41.4097C87.8706 39.4709 88.7001 36.6146 88.7001 33.04H86.7001ZM84.5673 40.0395C83.2639 41.4432 81.1796 42.24 78.1001 42.24V44.24C81.5006 44.24 84.2163 43.3568 86.0329 41.4005L84.5673 40.0395ZM94.699 40.9L93.9605 41.5743L93.9679 41.5823L94.699 40.9ZM92.179 0.999997V-2.86102e-06H91.179V0.999997H92.179ZM98.779 0.999997H99.779V-2.86102e-06H98.779V0.999997ZM99.619 36.64L98.8664 37.2985L98.8777 37.3114L98.8894 37.3239L99.619 36.64ZM104.599 36.64L103.869 35.9561L103.858 35.9686L103.846 35.9815L104.599 36.64ZM105.499 0.999997V-2.86102e-06H104.499V0.999997H105.499ZM111.859 0.999997H112.859V-2.86102e-06H111.859V0.999997ZM109.339 40.9L110.07 41.5824L110.077 41.5743L109.339 40.9ZM102.019 42.6C99.0086 42.6 96.8685 41.7589 95.43 40.2177L93.9679 41.5823C95.8895 43.6411 98.6293 44.6 102.019 44.6V42.6ZM95.4375 40.2257C93.9788 38.6282 93.179 36.2824 93.179 33.04H91.179C91.179 36.5976 92.0591 39.4918 93.9605 41.5743L95.4375 40.2257ZM93.179 33.04V0.999997H91.179V33.04H93.179ZM92.179 2H98.779V-2.86102e-06H92.179V2ZM97.779 0.999997V33.52H99.779V0.999997H97.779ZM97.779 33.52C97.779 35.0475 98.0682 36.3863 98.8664 37.2985L100.372 35.9815C100.05 35.6137 99.779 34.8725 99.779 33.52H97.779ZM98.8894 37.3239C99.7207 38.2107 100.851 38.6 102.139 38.6V36.6C101.267 36.6 100.717 36.3493 100.349 35.9561L98.8894 37.3239ZM102.139 38.6C103.424 38.6 104.553 38.2114 105.352 37.2985L103.846 35.9815C103.525 36.3486 103.014 36.6 102.139 36.6V38.6ZM105.329 37.3239C106.185 36.4107 106.499 35.0604 106.499 33.52H104.499C104.499 34.8596 104.213 35.5893 103.869 35.9561L105.329 37.3239ZM106.499 33.52V0.999997H104.499V33.52H106.499ZM105.499 2H111.859V-2.86102e-06H105.499V2ZM110.859 0.999997V33.04H112.859V0.999997H110.859ZM110.859 33.04C110.859 36.2824 110.059 38.6282 108.6 40.2257L110.077 41.5743C111.979 39.4918 112.859 36.5976 112.859 33.04H110.859ZM108.608 40.2177C107.169 41.7589 105.029 42.6 102.019 42.6V44.6C105.409 44.6 108.148 43.6411 110.07 41.5823L108.608 40.2177ZM132.229 25.12H133.229V24.9589L133.178 24.8059L132.229 25.12ZM124.249 0.999997V-2.86102e-06H122.865L123.3 1.3141L124.249 0.999997ZM131.269 0.999997L132.229 0.719854L132.019 -2.86102e-06H131.269V0.999997ZM135.769 16.42L134.809 16.7001L135.019 17.42H135.769V16.42ZM135.889 16.42V17.42H136.639L136.849 16.7001L135.889 16.42ZM140.389 0.999997V-2.86102e-06H139.639L139.429 0.719854L140.389 0.999997ZM146.809 0.999997L147.758 1.3141L148.193 -2.86102e-06H146.809V0.999997ZM138.829 25.12L137.88 24.8059L137.829 24.9589V25.12H138.829ZM138.829 43V44H139.829V43H138.829ZM132.229 43H131.229V44H132.229V43ZM133.178 24.8059L125.198 0.685896L123.3 1.3141L131.28 25.4341L133.178 24.8059ZM124.249 2H131.269V-2.86102e-06H124.249V2ZM130.309 1.28014L134.809 16.7001L136.729 16.1399L132.229 0.719854L130.309 1.28014ZM135.769 17.42H135.889V15.42H135.769V17.42ZM136.849 16.7001L141.349 1.28014L139.429 0.719854L134.929 16.1399L136.849 16.7001ZM140.389 2H146.809V-2.86102e-06H140.389V2ZM145.86 0.685896L137.88 24.8059L139.778 25.4341L147.758 1.3141L145.86 0.685896ZM137.829 25.12V43H139.829V25.12H137.829ZM138.829 42H132.229V44H138.829V42ZM133.229 43V25.12H131.229V43H133.229ZM149.782 0.999997V-2.86102e-06H148.782V0.999997H149.782ZM167.782 0.999997H168.782V-2.86102e-06H167.782V0.999997ZM167.782 7V8H168.782V7H167.782ZM156.382 7V6H155.382V7H156.382ZM156.382 18.1H155.382V19.1H156.382V18.1ZM165.442 18.1H166.442V17.1H165.442V18.1ZM165.442 24.1V25.1H166.442V24.1H165.442ZM156.382 24.1V23.1H155.382V24.1H156.382ZM156.382 37H155.382V38H156.382V37ZM167.782 37H168.782V36H167.782V37ZM167.782 43V44H168.782V43H167.782ZM149.782 43H148.782V44H149.782V43ZM149.782 2H167.782V-2.86102e-06H149.782V2ZM166.782 0.999997V7H168.782V0.999997H166.782ZM167.782 6H156.382V8H167.782V6ZM155.382 7V18.1H157.382V7H155.382ZM156.382 19.1H165.442V17.1H156.382V19.1ZM164.442 18.1V24.1H166.442V18.1H164.442ZM165.442 23.1H156.382V25.1H165.442V23.1ZM155.382 24.1V37H157.382V24.1H155.382ZM156.382 38H167.782V36H156.382V38ZM166.782 37V43H168.782V37H166.782ZM167.782 42H149.782V44H167.782V42ZM150.782 43V0.999997H148.782V43H150.782ZM173.679 40.84L174.41 40.1571L174.41 40.1571L173.679 40.84ZM173.679 3.16L174.41 3.84288L174.41 3.84288L173.679 3.16ZM188.559 3.16L187.829 3.84288L187.829 3.84288L188.559 3.16ZM188.559 40.84L187.829 40.1571L187.829 40.1571L188.559 40.84ZM181.119 42.6C178.072 42.6 175.89 41.7408 174.41 40.1571L172.949 41.5229C174.908 43.6192 177.686 44.6 181.119 44.6V42.6ZM174.41 40.1571C172.914 38.5572 172.099 36.233 172.099 33.04H170.099C170.099 36.567 171.004 39.4428 172.949 41.5229L174.41 40.1571ZM172.099 33.04V10.96H170.099V33.04H172.099ZM172.099 10.96C172.099 7.76696 172.914 5.44283 174.41 3.84288L172.949 2.47711C171.004 4.55716 170.099 7.43303 170.099 10.96H172.099ZM174.41 3.84288C175.89 2.25921 178.072 1.4 181.119 1.4V-0.600002C177.686 -0.600002 174.908 0.380783 172.949 2.47711L174.41 3.84288ZM181.119 1.4C184.166 1.4 186.348 2.25921 187.829 3.84288L189.29 2.47711C187.33 0.380782 184.552 -0.600002 181.119 -0.600002V1.4ZM187.829 3.84288C189.324 5.44283 190.139 7.76696 190.139 10.96H192.139C192.139 7.43303 191.234 4.55716 189.29 2.47711L187.829 3.84288ZM190.139 10.96V33.04H192.139V10.96H190.139ZM190.139 33.04C190.139 36.233 189.324 38.5572 187.829 40.1571L189.29 41.5229C191.234 39.4428 192.139 36.567 192.139 33.04H190.139ZM187.829 40.1571C186.348 41.7408 184.166 42.6 181.119 42.6V44.6C184.552 44.6 187.33 43.6192 189.29 41.5229L187.829 40.1571ZM181.119 38.6C182.469 38.6 183.645 38.1823 184.455 37.2019C185.235 36.258 185.539 34.9526 185.539 33.46H183.539C183.539 34.7274 183.273 35.492 182.913 35.9281C182.583 36.3277 182.049 36.6 181.119 36.6V38.6ZM185.539 33.46V10.54H183.539V33.46H185.539ZM185.539 10.54C185.539 9.04738 185.235 7.74196 184.455 6.79812C183.645 5.81769 182.469 5.4 181.119 5.4V7.4C182.049 7.4 182.583 7.67231 182.913 8.07188C183.273 8.50804 183.539 9.27261 183.539 10.54H185.539ZM181.119 5.4C179.769 5.4 178.593 5.81769 177.783 6.79812C177.003 7.74196 176.699 9.04738 176.699 10.54H178.699C178.699 9.27261 178.965 8.50804 179.325 8.07188C179.655 7.67231 180.189 7.4 181.119 7.4V5.4ZM176.699 10.54V33.46H178.699V10.54H176.699ZM176.699 33.46C176.699 34.9526 177.003 36.258 177.783 37.2019C178.593 38.1823 179.769 38.6 181.119 38.6V36.6C180.189 36.6 179.655 36.3277 179.325 35.9281C178.965 35.492 178.699 34.7274 178.699 33.46H176.699ZM195.603 0.999997V-2.86102e-06H194.603V0.999997H195.603ZM203.883 0.999997L204.851 0.752568L204.659 -2.86102e-06H203.883V0.999997ZM210.303 26.14L209.334 26.3874L209.526 27.14H210.303V26.14ZM210.423 26.14V27.14H211.423V26.14H210.423ZM210.423 0.999997V-2.86102e-06H209.423V0.999997H210.423ZM216.303 0.999997H217.303V-2.86102e-06H216.303V0.999997ZM216.303 43V44H217.303V43H216.303ZM209.523 43L208.554 43.2501L208.748 44H209.523V43ZM201.603 12.34L202.571 12.0899L202.377 11.34H201.603V12.34ZM201.483 12.34V11.34H200.483V12.34H201.483ZM201.483 43V44H202.483V43H201.483ZM195.603 43H194.603V44H195.603V43ZM195.603 2H203.883V-2.86102e-06H195.603V2ZM202.914 1.24743L209.334 26.3874L211.271 25.8926L204.851 0.752568L202.914 1.24743ZM210.303 27.14H210.423V25.14H210.303V27.14ZM211.423 26.14V0.999997H209.423V26.14H211.423ZM210.423 2H216.303V-2.86102e-06H210.423V2ZM215.303 0.999997V43H217.303V0.999997H215.303ZM216.303 42H209.523V44H216.303V42ZM210.491 42.7499L202.571 12.0899L200.634 12.5901L208.554 43.2501L210.491 42.7499ZM201.603 11.34H201.483V13.34H201.603V11.34ZM200.483 12.34V43H202.483V12.34H200.483ZM201.483 42H195.603V44H201.483V42ZM196.603 43V0.999997H194.603V43H196.603Z" fill="#F5F5F5"/>
</g>
<defs>
<filter id="filter0_i_198_28" x="2.71191" y="0.400024" width="213.591" height="47.2" filterUnits="userSpaceOnUse" color-interpolation-filters="sRGB">
<feFlood flood-opacity="0" result="BackgroundImageFix"/>
<feBlend mode="normal" in="SourceGraphic" in2="BackgroundImageFix" result="shape"/>
<feColorMatrix in="SourceAlpha" type="matrix" values="0 0 0 0 0 0 0 0 0 0 0 0 0 0 0 0 0 0 127 0" result="hardAlpha"/>
<feOffset dy="4"/>
<feGaussianBlur stdDeviation="2"/>
<feComposite in2="hardAlpha" operator="arithmetic" k2="-1" k3="1"/>
<feColorMatrix type="matrix" values="0 0 0 0 1 0 0 0 0 1 0 0 0 0 1 0 0 0 1 0"/>
<feBlend mode="normal" in2="shape" result="effect1_innerShadow_198_28"/>
</filter>
</defs>
</svg>
