<svg width="132" height="47" viewBox="0 0 132 47" fill="none" xmlns="http://www.w3.org/2000/svg">
<g filter="url(#filter0_i_198_26)">
<path d="M8.8933 37.448C6.50397 37.448 4.6821 36.776 3.4277 35.432C2.1733 34.0581 1.5461 32.1019 1.5461 29.5632V28.9808H6.2053V29.8768C6.2053 31.9376 7.0565 32.968 8.7589 32.968C9.68477 32.968 10.3717 32.6843 10.8197 32.1168C11.2677 31.5493 11.4917 30.5488 11.4917 29.1152V23.112H11.4021C10.536 24.9339 9.04264 25.8448 6.9221 25.8448C5.1301 25.8448 3.77117 25.2325 2.8453 24.008C1.91944 22.7835 1.4565 21.0064 1.4565 18.6768V13.0768C1.4565 10.568 2.09864 8.62667 3.3829 7.2528C4.66717 5.87893 6.5189 5.192 8.9381 5.192C11.3573 5.192 13.209 5.87893 14.4933 7.2528C15.7776 8.62667 16.4197 10.568 16.4197 13.0768V29.2944C16.4197 34.7301 13.9109 37.448 8.8933 37.448ZM8.9381 21.3648C10.6405 21.3648 11.4917 20.3344 11.4917 18.2736V12.7184C11.4917 10.6875 10.6405 9.672 8.9381 9.672C7.2357 9.672 6.3845 10.6875 6.3845 12.7184V18.2736C6.3845 20.3344 7.2357 21.3648 8.9381 21.3648ZM27.01 37.448C24.5311 37.448 22.6196 36.7909 21.2756 35.4768C19.9615 34.1328 19.3044 32.2064 19.3044 29.6976V26.92C19.3044 25.3669 19.5583 24.0677 20.066 23.0224C20.5737 21.9472 21.3951 21.1109 22.53 20.5136V20.424C21.4847 19.8565 20.7081 19.08 20.2004 18.0944C19.7225 17.0789 19.4836 15.7947 19.4836 14.2416V12.9424C19.4836 10.4336 20.1257 8.52213 21.41 7.208C22.7241 5.864 24.5908 5.192 27.01 5.192C29.4292 5.192 31.2809 5.864 32.5652 7.208C33.8793 8.52213 34.5364 10.4336 34.5364 12.9424V14.2416C34.5364 17.2283 33.5209 19.2891 31.49 20.424V20.5136C32.6249 21.1109 33.4463 21.9472 33.954 23.0224C34.4617 24.0677 34.7156 25.3669 34.7156 26.92V29.6976C34.7156 32.2064 34.0436 34.1328 32.6996 35.4768C31.3855 36.7909 29.4889 37.448 27.01 37.448ZM27.01 18.408C28.7423 18.408 29.6084 17.3627 29.6084 15.272V12.808C29.6084 10.7173 28.7423 9.672 27.01 9.672C25.2777 9.672 24.4116 10.7173 24.4116 12.808V15.272C24.4116 17.3627 25.2777 18.408 27.01 18.408ZM27.01 32.968C28.8617 32.968 29.7876 31.7883 29.7876 29.4288V26.4272C29.7876 24.0677 28.8617 22.888 27.01 22.888C25.1583 22.888 24.2324 24.0677 24.2324 26.4272V29.4288C24.2324 31.7883 25.1583 32.968 27.01 32.968ZM37.1075 19.08H46.9635V23.56H37.1075V19.08ZM57.0225 37.448C54.6033 37.448 52.7516 36.7611 51.4673 35.3872C50.183 34.0133 49.5409 32.072 49.5409 29.5632V13.0768C49.5409 10.568 50.183 8.62667 51.4673 7.2528C52.7516 5.87893 54.6033 5.192 57.0225 5.192C59.4417 5.192 61.2934 5.87893 62.5777 7.2528C63.862 8.62667 64.5041 10.568 64.5041 13.0768V29.5632C64.5041 32.072 63.862 34.0133 62.5777 35.3872C61.2934 36.7611 59.4417 37.448 57.0225 37.448ZM57.0225 32.968C58.7249 32.968 59.5761 31.9376 59.5761 29.8768V12.7632C59.5761 10.7024 58.7249 9.672 57.0225 9.672C55.3201 9.672 54.4689 10.7024 54.4689 12.7632V29.8768C54.4689 31.9376 55.3201 32.968 57.0225 32.968ZM74.736 13.0768H69.584V9.5824C70.9877 9.5824 72.1077 9.46293 72.944 9.224C73.8101 8.98507 74.4971 8.5968 75.0048 8.0592C75.5125 7.49173 75.9605 6.68533 76.3488 5.64H79.664V37H74.736V13.0768ZM85.0575 19.08H94.9135V23.56H85.0575V19.08ZM104.749 13.0768H99.5965V9.5824C101 9.5824 102.12 9.46293 102.957 9.224C103.823 8.98507 104.51 8.5968 105.017 8.0592C105.525 7.49173 105.973 6.68533 106.361 5.64H109.677V37H104.749V13.0768ZM123 37.448C120.61 37.448 118.788 36.776 117.534 35.432C116.28 34.0581 115.652 32.1019 115.652 29.5632V27.0992H120.312V29.9216C120.312 31.9525 121.163 32.968 122.865 32.968C124.568 32.968 125.419 31.9525 125.419 29.9216V22.888C125.419 20.8272 124.568 19.7968 122.865 19.7968C121.163 19.7968 120.312 20.8272 120.312 22.888V23.1568H115.652L116.548 5.64H129.54V10.12H120.939L120.536 17.6016H120.625C121.551 16.0784 122.97 15.3168 124.881 15.3168C126.673 15.3168 128.032 15.9291 128.958 17.1536C129.884 18.3781 130.347 20.1552 130.347 22.4848V29.5632C130.347 32.1019 129.72 34.0581 128.465 35.432C127.211 36.776 125.389 37.448 123 37.448Z" fill="#F5F5F5"/>
</g>
<defs>
<filter id="filter0_i_198_26" x="1.45605" y="5.19202" width="128.891" height="36.256" filterUnits="userSpaceOnUse" color-interpolation-filters="sRGB">
<feFlood flood-opacity="0" result="BackgroundImageFix"/>
<feBlend mode="normal" in="SourceGraphic" in2="BackgroundImageFix" result="shape"/>
<feColorMatrix in="SourceAlpha" type="matrix" values="0 0 0 0 0 0 0 0 0 0 0 0 0 0 0 0 0 0 127 0" result="hardAlpha"/>
<feOffset dy="4"/>
<feGaussianBlur stdDeviation="2"/>
<feComposite in2="hardAlpha" operator="arithmetic" k2="-1" k3="1"/>
<feColorMatrix type="matrix" values="0 0 0 0 1 0 0 0 0 1 0 0 0 0 1 0 0 0 1 0"/>
<feBlend mode="normal" in2="shape" result="effect1_innerShadow_198_26"/>
</filter>
</defs>
</svg>
