<svg width="184" height="47" viewBox="0 0 184 47" fill="none" xmlns="http://www.w3.org/2000/svg">
<g filter="url(#filter0_i_198_30)">
<path d="M1.98368 5.64H9.01728L12.1533 28.0848H12.2429L15.3789 5.64H22.4125V37H17.7533V13.256H17.6637L14.0797 37H9.95808L6.37408 13.256H6.28448V37H1.98368V5.64ZM29.8979 5.64H36.5731L41.6803 37H36.7523L35.8563 30.7728V30.8624H30.2563L29.3603 37H24.7907L29.8979 5.64ZM35.2739 26.6064L33.0787 11.1056H32.9891L30.8387 26.6064H35.2739ZM44.0712 5.64H48.9992V37H44.0712V5.64ZM52.6899 5.64H58.8723L63.6659 24.4112H63.7555V5.64H68.1459V37H63.0835L57.1699 14.1072H57.0803V37H52.6899V5.64ZM78.9837 5.64H86.5101C88.9591 5.64 90.7959 6.29707 92.0205 7.6112C93.245 8.92533 93.8573 10.8517 93.8573 13.3904V29.2496C93.8573 31.7883 93.245 33.7147 92.0205 35.0288C90.7959 36.3429 88.9591 37 86.5101 37H78.9837V5.64ZM86.4205 32.52C87.2269 32.52 87.8391 32.2811 88.2573 31.8032C88.7053 31.3253 88.9293 30.5488 88.9293 29.4736V13.1664C88.9293 12.0912 88.7053 11.3147 88.2573 10.8368C87.8391 10.3589 87.2269 10.12 86.4205 10.12H83.9117V32.52H86.4205ZM100.904 5.64H107.579L112.687 37H107.759L106.863 30.7728V30.8624H101.263L100.367 37H95.797L100.904 5.64ZM106.28 26.6064L104.085 11.1056H103.995L101.845 26.6064H106.28ZM115.077 5.64H121.26L126.053 24.4112H126.143V5.64H130.533V37H125.471L119.557 14.1072H119.468V37H115.077V5.64ZM141.14 37.448C138.781 37.448 136.974 36.776 135.719 35.432C134.495 34.088 133.883 32.1915 133.883 29.7424V12.8976C133.883 10.4485 134.495 8.552 135.719 7.208C136.974 5.864 138.781 5.192 141.14 5.192C143.5 5.192 145.292 5.864 146.516 7.208C147.771 8.552 148.398 10.4485 148.398 12.8976V16.2128H143.739V12.584C143.739 10.6427 142.917 9.672 141.275 9.672C139.632 9.672 138.811 10.6427 138.811 12.584V30.1008C138.811 32.0123 139.632 32.968 141.275 32.968C142.917 32.968 143.739 32.0123 143.739 30.1008V25.3072H148.398V29.7424C148.398 32.1915 147.771 34.088 146.516 35.432C145.292 36.776 143.5 37.448 141.14 37.448ZM151.346 5.64H164.786V10.12H156.274V18.408H163.039V22.888H156.274V32.52H164.786V37H151.346V5.64ZM167.621 5.64H174.924C177.462 5.64 179.314 6.23733 180.479 7.432C181.644 8.5968 182.226 10.4037 182.226 12.8528V14.7792C182.226 18.0347 181.151 20.0955 179 20.9616V21.0512C180.195 21.4096 181.031 22.1413 181.509 23.2464C182.017 24.3515 182.271 25.8299 182.271 27.6816V33.192C182.271 34.088 182.301 34.8197 182.36 35.3872C182.42 35.9248 182.569 36.4624 182.808 37H177.791C177.612 36.4923 177.492 36.0144 177.432 35.5664C177.373 35.1184 177.343 34.312 177.343 33.1472V27.4128C177.343 25.9792 177.104 24.9787 176.626 24.4112C176.178 23.8437 175.387 23.56 174.252 23.56H172.549V37H167.621V5.64ZM174.341 19.08C175.327 19.08 176.059 18.8261 176.536 18.3184C177.044 17.8107 177.298 16.9595 177.298 15.7648V13.3456C177.298 12.2107 177.089 11.3893 176.671 10.8816C176.283 10.3739 175.655 10.12 174.789 10.12H172.549V19.08H174.341Z" fill="#F5F5F5"/>
</g>
<defs>
<filter id="filter0_i_198_30" x="1.9834" y="5.19202" width="180.825" height="36.256" filterUnits="userSpaceOnUse" color-interpolation-filters="sRGB">
<feFlood flood-opacity="0" result="BackgroundImageFix"/>
<feBlend mode="normal" in="SourceGraphic" in2="BackgroundImageFix" result="shape"/>
<feColorMatrix in="SourceAlpha" type="matrix" values="0 0 0 0 0 0 0 0 0 0 0 0 0 0 0 0 0 0 127 0" result="hardAlpha"/>
<feOffset dy="4"/>
<feGaussianBlur stdDeviation="2"/>
<feComposite in2="hardAlpha" operator="arithmetic" k2="-1" k3="1"/>
<feColorMatrix type="matrix" values="0 0 0 0 1 0 0 0 0 1 0 0 0 0 1 0 0 0 1 0"/>
<feBlend mode="normal" in2="shape" result="effect1_innerShadow_198_30"/>
</filter>
</defs>
</svg>
