<svg width="244" height="48" viewBox="0 0 244 48" fill="none" xmlns="http://www.w3.org/2000/svg">
<g filter="url(#filter0_i_198_22)">
<path d="M2.64359 -2.86102e-06H9.24359V36H20.1036V42H2.64359V-2.86102e-06ZM23.2686 -2.86102e-06H41.2686V6H29.8686V17.1H38.9286V23.1H29.8686V36H41.2686V42H23.2686V-2.86102e-06ZM45.0655 -2.86102e-06H63.0655V6H51.6655V17.1H60.7255V23.1H51.6655V36H63.0655V42H45.0655V-2.86102e-06ZM78.0317 42.24C76.8317 42.24 75.8117 42.16 74.9717 42V36C75.6117 36.16 76.3317 36.24 77.1317 36.24C78.4517 36.24 79.4317 35.92 80.0717 35.28C80.7117 34.6 81.0317 33.58 81.0317 32.22V-2.86102e-06H87.6317V32.04C87.6317 35.48 86.8317 38.04 85.2317 39.72C83.6717 41.4 81.2717 42.24 78.0317 42.24ZM97.3334 -2.86102e-06H106.273L113.113 42H106.513L105.313 33.66V33.78H97.8134L96.6134 42H90.4934L97.3334 -2.86102e-06ZM104.533 28.08L101.593 7.32H101.473L98.5934 28.08H104.533ZM116.315 -2.86102e-06H134.315V6H122.915V17.1H131.975V23.1H122.915V36H134.315V42H116.315V-2.86102e-06ZM147.722 -2.86102e-06H154.322V17.1H161.402V-2.86102e-06H168.002V42H161.402V23.1H154.322V42H147.722V-2.86102e-06ZM178.977 24.12L170.997 -2.86102e-06H178.017L182.517 15.42H182.637L187.137 -2.86102e-06H193.557L185.577 24.12V42H178.977V24.12ZM206.13 42.6C202.93 42.6 200.49 41.7 198.81 39.9C197.13 38.06 196.29 35.44 196.29 32.04V-2.86102e-06H202.89V32.52C202.89 33.96 203.17 35 203.73 35.64C204.33 36.28 205.17 36.6 206.25 36.6C207.33 36.6 208.15 36.28 208.71 35.64C209.31 35 209.61 33.96 209.61 32.52V-2.86102e-06H215.97V32.04C215.97 35.44 215.13 38.06 213.45 39.9C211.77 41.7 209.33 42.6 206.13 42.6ZM220.671 -2.86102e-06H228.951L235.371 25.14H235.491V-2.86102e-06H241.371V42H234.591L226.671 11.34H226.551V42H220.671V-2.86102e-06Z" fill="#A4DDC2"/>
<path d="M2.64359 -2.86102e-06V-1H1.64359V-2.86102e-06H2.64359ZM9.24359 -2.86102e-06H10.2436V-1H9.24359V-2.86102e-06ZM9.24359 36H8.24359V37H9.24359V36ZM20.1036 36H21.1036V35H20.1036V36ZM20.1036 42V43H21.1036V42H20.1036ZM2.64359 42H1.64359V43H2.64359V42ZM2.64359 0.999997H9.24359V-1H2.64359V0.999997ZM8.24359 -2.86102e-06V36H10.2436V-2.86102e-06H8.24359ZM9.24359 37H20.1036V35H9.24359V37ZM19.1036 36V42H21.1036V36H19.1036ZM20.1036 41H2.64359V43H20.1036V41ZM3.64359 42V-2.86102e-06H1.64359V42H3.64359ZM23.2686 -2.86102e-06V-1H22.2686V-2.86102e-06H23.2686ZM41.2686 -2.86102e-06H42.2686V-1H41.2686V-2.86102e-06ZM41.2686 6V7H42.2686V6H41.2686ZM29.8686 6V5H28.8686V6H29.8686ZM29.8686 17.1H28.8686V18.1H29.8686V17.1ZM38.9286 17.1H39.9286V16.1H38.9286V17.1ZM38.9286 23.1V24.1H39.9286V23.1H38.9286ZM29.8686 23.1V22.1H28.8686V23.1H29.8686ZM29.8686 36H28.8686V37H29.8686V36ZM41.2686 36H42.2686V35H41.2686V36ZM41.2686 42V43H42.2686V42H41.2686ZM23.2686 42H22.2686V43H23.2686V42ZM23.2686 0.999997H41.2686V-1H23.2686V0.999997ZM40.2686 -2.86102e-06V6H42.2686V-2.86102e-06H40.2686ZM41.2686 5H29.8686V7H41.2686V5ZM28.8686 6V17.1H30.8686V6H28.8686ZM29.8686 18.1H38.9286V16.1H29.8686V18.1ZM37.9286 17.1V23.1H39.9286V17.1H37.9286ZM38.9286 22.1H29.8686V24.1H38.9286V22.1ZM28.8686 23.1V36H30.8686V23.1H28.8686ZM29.8686 37H41.2686V35H29.8686V37ZM40.2686 36V42H42.2686V36H40.2686ZM41.2686 41H23.2686V43H41.2686V41ZM24.2686 42V-2.86102e-06H22.2686V42H24.2686ZM45.0655 -2.86102e-06V-1H44.0655V-2.86102e-06H45.0655ZM63.0655 -2.86102e-06H64.0655V-1H63.0655V-2.86102e-06ZM63.0655 6V7H64.0655V6H63.0655ZM51.6655 6V5H50.6655V6H51.6655ZM51.6655 17.1H50.6655V18.1H51.6655V17.1ZM60.7255 17.1H61.7255V16.1H60.7255V17.1ZM60.7255 23.1V24.1H61.7255V23.1H60.7255ZM51.6655 23.1V22.1H50.6655V23.1H51.6655ZM51.6655 36H50.6655V37H51.6655V36ZM63.0655 36H64.0655V35H63.0655V36ZM63.0655 42V43H64.0655V42H63.0655ZM45.0655 42H44.0655V43H45.0655V42ZM45.0655 0.999997H63.0655V-1H45.0655V0.999997ZM62.0655 -2.86102e-06V6H64.0655V-2.86102e-06H62.0655ZM63.0655 5H51.6655V7H63.0655V5ZM50.6655 6V17.1H52.6655V6H50.6655ZM51.6655 18.1H60.7255V16.1H51.6655V18.1ZM59.7255 17.1V23.1H61.7255V17.1H59.7255ZM60.7255 22.1H51.6655V24.1H60.7255V22.1ZM50.6655 23.1V36H52.6655V23.1H50.6655ZM51.6655 37H63.0655V35H51.6655V37ZM62.0655 36V42H64.0655V36H62.0655ZM63.0655 41H45.0655V43H63.0655V41ZM46.0655 42V-2.86102e-06H44.0655V42H46.0655ZM74.9717 42H73.9717V42.8275L74.7846 42.9823L74.9717 42ZM74.9717 36L75.2143 35.0299L73.9717 34.7192V36H74.9717ZM80.0717 35.28L80.7788 35.9871L80.7895 35.9764L80.7999 35.9654L80.0717 35.28ZM81.0317 -2.86102e-06V-1H80.0317V-2.86102e-06H81.0317ZM87.6317 -2.86102e-06H88.6317V-1H87.6317V-2.86102e-06ZM85.2317 39.72L84.5075 39.0303L84.4989 39.0395L85.2317 39.72ZM78.0317 41.24C76.8715 41.24 75.9181 41.1623 75.1588 41.0177L74.7846 42.9823C75.7054 43.1577 76.7919 43.24 78.0317 43.24V41.24ZM75.9717 42V36H73.9717V42H75.9717ZM74.7292 36.9701C75.4632 37.1536 76.2666 37.24 77.1317 37.24V35.24C76.3968 35.24 75.7603 35.1664 75.2143 35.0299L74.7292 36.9701ZM77.1317 37.24C78.5955 37.24 79.88 36.8859 80.7788 35.9871L79.3646 34.5729C78.9834 34.9541 78.308 35.24 77.1317 35.24V37.24ZM80.7999 35.9654C81.68 35.0302 82.0317 33.7196 82.0317 32.22H80.0317C80.0317 33.4404 79.7434 34.1698 79.3435 34.5946L80.7999 35.9654ZM82.0317 32.22V-2.86102e-06H80.0317V32.22H82.0317ZM81.0317 0.999997H87.6317V-1H81.0317V0.999997ZM86.6317 -2.86102e-06V32.04H88.6317V-2.86102e-06H86.6317ZM86.6317 32.04C86.6317 35.3454 85.8612 37.6091 84.5076 39.0303L85.9559 40.4097C87.8023 38.4709 88.6317 35.6146 88.6317 32.04H86.6317ZM84.4989 39.0395C83.1955 40.4432 81.1112 41.24 78.0317 41.24V43.24C81.4322 43.24 84.1479 42.3568 85.9645 40.4005L84.4989 39.0395ZM97.3334 -2.86102e-06V-1H96.4831L96.3464 -0.160742L97.3334 -2.86102e-06ZM106.273 -2.86102e-06L107.26 -0.160742L107.124 -1H106.273V-2.86102e-06ZM113.113 42V43H114.289L114.1 41.8393L113.113 42ZM106.513 42L105.524 42.1424L105.647 43H106.513V42ZM105.313 33.66L106.303 33.5176L104.313 33.66H105.313ZM105.313 33.78V34.78H106.313V33.78H105.313ZM97.8134 33.78V32.78H96.9488L96.8239 33.6355L97.8134 33.78ZM96.6134 42V43H97.4781L97.6029 42.1445L96.6134 42ZM90.4934 42L89.5064 41.8393L89.3174 43H90.4934V42ZM104.533 28.08V29.08H105.685L105.524 27.9398L104.533 28.08ZM101.593 7.32L102.584 7.17978L102.462 6.32H101.593V7.32ZM101.473 7.32V6.32H100.603L100.483 7.18259L101.473 7.32ZM98.5934 28.08L97.6029 27.9426L97.4451 29.08H98.5934V28.08ZM97.3334 0.999997H106.273V-1H97.3334V0.999997ZM105.286 0.160737L112.126 42.1607L114.1 41.8393L107.26 -0.160742L105.286 0.160737ZM113.113 41H106.513V43H113.113V41ZM107.503 41.8576L106.303 33.5176L104.324 33.8024L105.524 42.1424L107.503 41.8576ZM104.313 33.66V33.78H106.313V33.66H104.313ZM105.313 32.78H97.8134V34.78H105.313V32.78ZM96.8239 33.6355L95.6239 41.8555L97.6029 42.1445L98.8029 33.9245L96.8239 33.6355ZM96.6134 41H90.4934V43H96.6134V41ZM91.4804 42.1607L98.3204 0.160737L96.3464 -0.160742L89.5064 41.8393L91.4804 42.1607ZM105.524 27.9398L102.584 7.17978L100.603 7.46022L103.543 28.2202L105.524 27.9398ZM101.593 6.32H101.473V8.32H101.593V6.32ZM100.483 7.18259L97.6029 27.9426L99.584 28.2174L102.464 7.45741L100.483 7.18259ZM98.5934 29.08H104.533V27.08H98.5934V29.08ZM116.315 -2.86102e-06V-1H115.315V-2.86102e-06H116.315ZM134.315 -2.86102e-06H135.315V-1H134.315V-2.86102e-06ZM134.315 6V7H135.315V6H134.315ZM122.915 6V5H121.915V6H122.915ZM122.915 17.1H121.915V18.1H122.915V17.1ZM131.975 17.1H132.975V16.1H131.975V17.1ZM131.975 23.1V24.1H132.975V23.1H131.975ZM122.915 23.1V22.1H121.915V23.1H122.915ZM122.915 36H121.915V37H122.915V36ZM134.315 36H135.315V35H134.315V36ZM134.315 42V43H135.315V42H134.315ZM116.315 42H115.315V43H116.315V42ZM116.315 0.999997H134.315V-1H116.315V0.999997ZM133.315 -2.86102e-06V6H135.315V-2.86102e-06H133.315ZM134.315 5H122.915V7H134.315V5ZM121.915 6V17.1H123.915V6H121.915ZM122.915 18.1H131.975V16.1H122.915V18.1ZM130.975 17.1V23.1H132.975V17.1H130.975ZM131.975 22.1H122.915V24.1H131.975V22.1ZM121.915 23.1V36H123.915V23.1H121.915ZM122.915 37H134.315V35H122.915V37ZM133.315 36V42H135.315V36H133.315ZM134.315 41H116.315V43H134.315V41ZM117.315 42V-2.86102e-06H115.315V42H117.315ZM147.722 -2.86102e-06V-1H146.722V-2.86102e-06H147.722ZM154.322 -2.86102e-06H155.322V-1H154.322V-2.86102e-06ZM154.322 17.1H153.322V18.1H154.322V17.1ZM161.402 17.1V18.1H162.402V17.1H161.402ZM161.402 -2.86102e-06V-1H160.402V-2.86102e-06H161.402ZM168.002 -2.86102e-06H169.002V-1H168.002V-2.86102e-06ZM168.002 42V43H169.002V42H168.002ZM161.402 42H160.402V43H161.402V42ZM161.402 23.1H162.402V22.1H161.402V23.1ZM154.322 23.1V22.1H153.322V23.1H154.322ZM154.322 42V43H155.322V42H154.322ZM147.722 42H146.722V43H147.722V42ZM147.722 0.999997H154.322V-1H147.722V0.999997ZM153.322 -2.86102e-06V17.1H155.322V-2.86102e-06H153.322ZM154.322 18.1H161.402V16.1H154.322V18.1ZM162.402 17.1V-2.86102e-06H160.402V17.1H162.402ZM161.402 0.999997H168.002V-1H161.402V0.999997ZM167.002 -2.86102e-06V42H169.002V-2.86102e-06H167.002ZM168.002 41H161.402V43H168.002V41ZM162.402 42V23.1H160.402V42H162.402ZM161.402 22.1H154.322V24.1H161.402V22.1ZM153.322 23.1V42H155.322V23.1H153.322ZM154.322 41H147.722V43H154.322V41ZM148.722 42V-2.86102e-06H146.722V42H148.722ZM178.977 24.12H179.977V23.9589L179.926 23.8059L178.977 24.12ZM170.997 -2.86102e-06V-1H169.613L170.048 0.314099L170.997 -2.86102e-06ZM178.017 -2.86102e-06L178.977 -0.280146L178.767 -1H178.017V-2.86102e-06ZM182.517 15.42L181.557 15.7001L181.767 16.42H182.517V15.42ZM182.637 15.42V16.42H183.387L183.597 15.7001L182.637 15.42ZM187.137 -2.86102e-06V-1H186.387L186.177 -0.280146L187.137 -2.86102e-06ZM193.557 -2.86102e-06L194.506 0.314099L194.941 -1H193.557V-2.86102e-06ZM185.577 24.12L184.628 23.8059L184.577 23.9589V24.12H185.577ZM185.577 42V43H186.577V42H185.577ZM178.977 42H177.977V43H178.977V42ZM179.926 23.8059L171.946 -0.314104L170.048 0.314099L178.028 24.4341L179.926 23.8059ZM170.997 0.999997H178.017V-1H170.997V0.999997ZM177.057 0.280141L181.557 15.7001L183.477 15.1399L178.977 -0.280146L177.057 0.280141ZM182.517 16.42H182.637V14.42H182.517V16.42ZM183.597 15.7001L188.097 0.280141L186.177 -0.280146L181.677 15.1399L183.597 15.7001ZM187.137 0.999997H193.557V-1H187.137V0.999997ZM192.608 -0.314104L184.628 23.8059L186.526 24.4341L194.506 0.314099L192.608 -0.314104ZM184.577 24.12V42H186.577V24.12H184.577ZM185.577 41H178.977V43H185.577V41ZM179.977 42V24.12H177.977V42H179.977ZM198.81 39.9L198.072 40.5743L198.079 40.5823L198.81 39.9ZM196.29 -2.86102e-06V-1H195.29V-2.86102e-06H196.29ZM202.89 -2.86102e-06H203.89V-1H202.89V-2.86102e-06ZM203.73 35.64L202.978 36.2985L202.989 36.3114L203.001 36.3239L203.73 35.64ZM208.71 35.64L207.981 34.9561L207.969 34.9686L207.958 34.9815L208.71 35.64ZM209.61 -2.86102e-06V-1H208.61V-2.86102e-06H209.61ZM215.97 -2.86102e-06H216.97V-1H215.97V-2.86102e-06ZM213.45 39.9L214.181 40.5824L214.189 40.5743L213.45 39.9ZM206.13 41.6C203.12 41.6 200.98 40.7589 199.541 39.2177L198.079 40.5823C200.001 42.6411 202.741 43.6 206.13 43.6V41.6ZM199.549 39.2257C198.09 37.6282 197.29 35.2824 197.29 32.04H195.29C195.29 35.5976 196.17 38.4918 198.072 40.5743L199.549 39.2257ZM197.29 32.04V-2.86102e-06H195.29V32.04H197.29ZM196.29 0.999997H202.89V-1H196.29V0.999997ZM201.89 -2.86102e-06V32.52H203.89V-2.86102e-06H201.89ZM201.89 32.52C201.89 34.0475 202.18 35.3863 202.978 36.2985L204.483 34.9815C204.161 34.6137 203.89 33.8725 203.89 32.52H201.89ZM203.001 36.3239C203.832 37.2107 204.962 37.6 206.25 37.6V35.6C205.378 35.6 204.829 35.3493 204.46 34.9561L203.001 36.3239ZM206.25 37.6C207.535 37.6 208.664 37.2114 209.463 36.2985L207.958 34.9815C207.636 35.3486 207.126 35.6 206.25 35.6V37.6ZM209.44 36.3239C210.296 35.4107 210.61 34.0604 210.61 32.52H208.61C208.61 33.8596 208.325 34.5893 207.981 34.9561L209.44 36.3239ZM210.61 32.52V-2.86102e-06H208.61V32.52H210.61ZM209.61 0.999997H215.97V-1H209.61V0.999997ZM214.97 -2.86102e-06V32.04H216.97V-2.86102e-06H214.97ZM214.97 32.04C214.97 35.2824 214.17 37.6282 212.712 39.2257L214.189 40.5743C216.09 38.4918 216.97 35.5976 216.97 32.04H214.97ZM212.719 39.2177C211.281 40.7589 209.141 41.6 206.13 41.6V43.6C209.52 43.6 212.26 42.6411 214.181 40.5823L212.719 39.2177ZM220.671 -2.86102e-06V-1H219.671V-2.86102e-06H220.671ZM228.951 -2.86102e-06L229.92 -0.247432L229.728 -1H228.951V-2.86102e-06ZM235.371 25.14L234.402 25.3874L234.594 26.14H235.371V25.14ZM235.491 25.14V26.14H236.491V25.14H235.491ZM235.491 -2.86102e-06V-1H234.491V-2.86102e-06H235.491ZM241.371 -2.86102e-06H242.371V-1H241.371V-2.86102e-06ZM241.371 42V43H242.371V42H241.371ZM234.591 42L233.623 42.2501L233.816 43H234.591V42ZM226.671 11.34L227.639 11.0899L227.445 10.34H226.671V11.34ZM226.551 11.34V10.34H225.551V11.34H226.551ZM226.551 42V43H227.551V42H226.551ZM220.671 42H219.671V43H220.671V42ZM220.671 0.999997H228.951V-1H220.671V0.999997ZM227.982 0.247427L234.402 25.3874L236.34 24.8926L229.92 -0.247432L227.982 0.247427ZM235.371 26.14H235.491V24.14H235.371V26.14ZM236.491 25.14V-2.86102e-06H234.491V25.14H236.491ZM235.491 0.999997H241.371V-1H235.491V0.999997ZM240.371 -2.86102e-06V42H242.371V-2.86102e-06H240.371ZM241.371 41H234.591V43H241.371V41ZM235.559 41.7499L227.639 11.0899L225.703 11.5901L233.623 42.2501L235.559 41.7499ZM226.671 10.34H226.551V12.34H226.671V10.34ZM225.551 11.34V42H227.551V11.34H225.551ZM226.551 41H220.671V43H226.551V41ZM221.671 42V-2.86102e-06H219.671V42H221.671Z" fill="#A4DDC2"/>
</g>
<defs>
<filter id="filter0_i_198_22" x="2.64355" y="0" width="238.728" height="46.6" filterUnits="userSpaceOnUse" color-interpolation-filters="sRGB">
<feFlood flood-opacity="0" result="BackgroundImageFix"/>
<feBlend mode="normal" in="SourceGraphic" in2="BackgroundImageFix" result="shape"/>
<feColorMatrix in="SourceAlpha" type="matrix" values="0 0 0 0 0 0 0 0 0 0 0 0 0 0 0 0 0 0 127 0" result="hardAlpha"/>
<feOffset dy="4"/>
<feGaussianBlur stdDeviation="2"/>
<feComposite in2="hardAlpha" operator="arithmetic" k2="-1" k3="1"/>
<feColorMatrix type="matrix" values="0 0 0 0 1 0 0 0 0 1 0 0 0 0 1 0 0 0 1 0"/>
<feBlend mode="normal" in2="shape" result="effect1_innerShadow_198_22"/>
</filter>
</defs>
</svg>
