<svg width="132" height="47" viewBox="0 0 132 47" fill="none" xmlns="http://www.w3.org/2000/svg">
<g filter="url(#filter0_i_198_20)">
<path d="M8.8933 37.448C6.50397 37.448 4.6821 36.776 3.4277 35.432C2.1733 34.0581 1.5461 32.1019 1.5461 29.5632V28.9808H6.2053V29.8768C6.2053 31.9376 7.0565 32.968 8.7589 32.968C9.68477 32.968 10.3717 32.6843 10.8197 32.1168C11.2677 31.5493 11.4917 30.5488 11.4917 29.1152V23.112H11.4021C10.536 24.9339 9.04264 25.8448 6.9221 25.8448C5.1301 25.8448 3.77117 25.2325 2.8453 24.008C1.91944 22.7835 1.4565 21.0064 1.4565 18.6768V13.0768C1.4565 10.568 2.09864 8.62667 3.3829 7.2528C4.66717 5.87893 6.5189 5.192 8.9381 5.192C11.3573 5.192 13.209 5.87893 14.4933 7.2528C15.7776 8.62667 16.4197 10.568 16.4197 13.0768V29.2944C16.4197 34.7301 13.9109 37.448 8.8933 37.448ZM8.9381 21.3648C10.6405 21.3648 11.4917 20.3344 11.4917 18.2736V12.7184C11.4917 10.6875 10.6405 9.672 8.9381 9.672C7.2357 9.672 6.3845 10.6875 6.3845 12.7184V18.2736C6.3845 20.3344 7.2357 21.3648 8.9381 21.3648ZM29.5188 10.12H19.5732V5.64H34.3572V9.9408L26.6516 37H21.634L29.5188 10.12ZM37.1075 19.08H46.9635V23.56H37.1075V19.08ZM57.0225 37.448C54.6033 37.448 52.7516 36.7611 51.4673 35.3872C50.183 34.0133 49.5409 32.072 49.5409 29.5632V13.0768C49.5409 10.568 50.183 8.62667 51.4673 7.2528C52.7516 5.87893 54.6033 5.192 57.0225 5.192C59.4417 5.192 61.2934 5.87893 62.5777 7.2528C63.862 8.62667 64.5041 10.568 64.5041 13.0768V29.5632C64.5041 32.072 63.862 34.0133 62.5777 35.3872C61.2934 36.7611 59.4417 37.448 57.0225 37.448ZM57.0225 32.968C58.7249 32.968 59.5761 31.9376 59.5761 29.8768V12.7632C59.5761 10.7024 58.7249 9.672 57.0225 9.672C55.3201 9.672 54.4689 10.7024 54.4689 12.7632V29.8768C54.4689 31.9376 55.3201 32.968 57.0225 32.968ZM74.7808 37.448C72.3915 37.448 70.5696 36.776 69.3152 35.432C68.0608 34.0581 67.4336 32.1019 67.4336 29.5632V28.9808H72.0928V29.8768C72.0928 31.9376 72.944 32.968 74.6464 32.968C75.5723 32.968 76.2592 32.6843 76.7072 32.1168C77.1552 31.5493 77.3792 30.5488 77.3792 29.1152V23.112H77.2896C76.4235 24.9339 74.9301 25.8448 72.8096 25.8448C71.0176 25.8448 69.6587 25.2325 68.7328 24.008C67.8069 22.7835 67.344 21.0064 67.344 18.6768V13.0768C67.344 10.568 67.9861 8.62667 69.2704 7.2528C70.5547 5.87893 72.4064 5.192 74.8256 5.192C77.2448 5.192 79.0965 5.87893 80.3808 7.2528C81.6651 8.62667 82.3072 10.568 82.3072 13.0768V29.2944C82.3072 34.7301 79.7984 37.448 74.7808 37.448ZM74.8256 21.3648C76.528 21.3648 77.3792 20.3344 77.3792 18.2736V12.7184C77.3792 10.6875 76.528 9.672 74.8256 9.672C73.1232 9.672 72.272 10.6875 72.272 12.7184V18.2736C72.272 20.3344 73.1232 21.3648 74.8256 21.3648ZM85.0575 19.08H94.9135V23.56H85.0575V19.08ZM104.749 13.0768H99.5965V9.5824C101 9.5824 102.12 9.46293 102.957 9.224C103.823 8.98507 104.51 8.5968 105.017 8.0592C105.525 7.49173 105.973 6.68533 106.361 5.64H109.677V37H104.749V13.0768ZM122.776 37.448C120.356 37.448 118.52 36.776 117.265 35.432C116.041 34.088 115.428 32.1616 115.428 29.6528V27.0992H120.088V29.8768C120.088 31.9376 120.939 32.968 122.641 32.968C123.477 32.968 124.105 32.7141 124.523 32.2064C124.971 31.6688 125.195 30.7429 125.195 29.4288V26.8752C125.195 25.4416 124.941 24.4261 124.433 23.8288C123.925 23.2016 123.104 22.888 121.969 22.888H120.312V18.408H122.104C123.089 18.408 123.821 18.1541 124.299 17.6464C124.807 17.1387 125.06 16.2875 125.06 15.0928V12.808C125.06 11.7328 124.836 10.9413 124.388 10.4336C123.94 9.92587 123.343 9.672 122.596 9.672C121.013 9.672 120.222 10.6427 120.222 12.584V14.6448H115.563V12.9872C115.563 10.4784 116.175 8.552 117.4 7.208C118.654 5.864 120.446 5.192 122.776 5.192C125.135 5.192 126.927 5.864 128.152 7.208C129.376 8.52213 129.988 10.4336 129.988 12.9424V14.0624C129.988 15.7648 129.705 17.1387 129.137 18.184C128.57 19.1995 127.689 19.9312 126.494 20.3792V20.4688C127.778 20.9467 128.704 21.7232 129.272 22.7984C129.839 23.8736 130.123 25.2475 130.123 26.92V29.6976C130.123 32.2064 129.496 34.1328 128.241 35.4768C127.017 36.7909 125.195 37.448 122.776 37.448Z" fill="#A4DDC2"/>
</g>
<defs>
<filter id="filter0_i_198_20" x="1.45605" y="5.19202" width="128.667" height="36.256" filterUnits="userSpaceOnUse" color-interpolation-filters="sRGB">
<feFlood flood-opacity="0" result="BackgroundImageFix"/>
<feBlend mode="normal" in="SourceGraphic" in2="BackgroundImageFix" result="shape"/>
<feColorMatrix in="SourceAlpha" type="matrix" values="0 0 0 0 0 0 0 0 0 0 0 0 0 0 0 0 0 0 127 0" result="hardAlpha"/>
<feOffset dy="4"/>
<feGaussianBlur stdDeviation="2"/>
<feComposite in2="hardAlpha" operator="arithmetic" k2="-1" k3="1"/>
<feColorMatrix type="matrix" values="0 0 0 0 1 0 0 0 0 1 0 0 0 0 1 0 0 0 1 0"/>
<feBlend mode="normal" in2="shape" result="effect1_innerShadow_198_20"/>
</filter>
</defs>
</svg>
