<svg width="161" height="47" viewBox="0 0 161 47" fill="none" xmlns="http://www.w3.org/2000/svg">
<g filter="url(#filter0_i_198_24)">
<path d="M2.07743 5.64H7.00543V32.52H15.1142V37H2.07743V5.64ZM17.4774 5.64H30.9174V10.12H22.4054V18.408H29.1702V22.888H22.4054V32.52H30.9174V37H17.4774V5.64ZM37.5604 5.64H44.2356L49.3428 37H44.4148L43.5188 30.7728V30.8624H37.9188L37.0228 37H32.4532L37.5604 5.64ZM42.9364 26.6064L40.7412 11.1056H40.6516L38.5012 26.6064H42.9364ZM51.7337 5.64H59.2601C61.7091 5.64 63.5459 6.29707 64.7705 7.6112C65.995 8.92533 66.6073 10.8517 66.6073 13.3904V29.2496C66.6073 31.7883 65.995 33.7147 64.7705 35.0288C63.5459 36.3429 61.7091 37 59.2601 37H51.7337V5.64ZM59.1705 32.52C59.9769 32.52 60.5891 32.2811 61.0073 31.8032C61.4553 31.3253 61.6793 30.5488 61.6793 29.4736V13.1664C61.6793 12.0912 61.4553 11.3147 61.0073 10.8368C60.5891 10.3589 59.9769 10.12 59.1705 10.12H56.6617V32.52H59.1705ZM75.8095 5.64H80.7823L84.0079 29.9664H84.0975L87.3231 5.64H91.8479L87.0991 37H80.5583L75.8095 5.64ZM101.251 37.448C98.8314 37.448 96.9797 36.7611 95.6954 35.3872C94.4112 34.0133 93.769 32.072 93.769 29.5632V13.0768C93.769 10.568 94.4112 8.62667 95.6954 7.2528C96.9797 5.87893 98.8314 5.192 101.251 5.192C103.67 5.192 105.522 5.87893 106.806 7.2528C108.09 8.62667 108.732 10.568 108.732 13.0768V29.5632C108.732 32.072 108.09 34.0133 106.806 35.3872C105.522 36.7611 103.67 37.448 101.251 37.448ZM101.251 32.968C102.953 32.968 103.804 31.9376 103.804 29.8768V12.7632C103.804 10.7024 102.953 9.672 101.251 9.672C99.5482 9.672 98.697 10.7024 98.697 12.7632V29.8768C98.697 31.9376 99.5482 32.968 101.251 32.968ZM119.009 37.448C116.649 37.448 114.843 36.776 113.588 35.432C112.364 34.088 111.751 32.1915 111.751 29.7424V12.8976C111.751 10.4485 112.364 8.552 113.588 7.208C114.843 5.864 116.649 5.192 119.009 5.192C121.368 5.192 123.16 5.864 124.385 7.208C125.639 8.552 126.267 10.4485 126.267 12.8976V16.2128H121.607V12.584C121.607 10.6427 120.786 9.672 119.143 9.672C117.501 9.672 116.679 10.6427 116.679 12.584V30.1008C116.679 32.0123 117.501 32.968 119.143 32.968C120.786 32.968 121.607 32.0123 121.607 30.1008V25.3072H126.267V29.7424C126.267 32.1915 125.639 34.088 124.385 35.432C123.16 36.776 121.368 37.448 119.009 37.448ZM133.023 5.64H139.698L144.805 37H139.877L138.981 30.7728V30.8624H133.381L132.485 37H127.916L133.023 5.64ZM138.399 26.6064L136.204 11.1056H136.114L133.964 26.6064H138.399ZM147.196 5.64H152.124V32.52H160.233V37H147.196V5.64Z" fill="#A4DDC2"/>
</g>
<defs>
<filter id="filter0_i_198_24" x="2.07715" y="5.19202" width="158.156" height="36.256" filterUnits="userSpaceOnUse" color-interpolation-filters="sRGB">
<feFlood flood-opacity="0" result="BackgroundImageFix"/>
<feBlend mode="normal" in="SourceGraphic" in2="BackgroundImageFix" result="shape"/>
<feColorMatrix in="SourceAlpha" type="matrix" values="0 0 0 0 0 0 0 0 0 0 0 0 0 0 0 0 0 0 127 0" result="hardAlpha"/>
<feOffset dy="4"/>
<feGaussianBlur stdDeviation="2"/>
<feComposite in2="hardAlpha" operator="arithmetic" k2="-1" k3="1"/>
<feColorMatrix type="matrix" values="0 0 0 0 1 0 0 0 0 1 0 0 0 0 1 0 0 0 1 0"/>
<feBlend mode="normal" in2="shape" result="effect1_innerShadow_198_24"/>
</filter>
</defs>
</svg>
