<svg width="255" height="49" viewBox="0 0 255 49" fill="none" xmlns="http://www.w3.org/2000/svg">
<g filter="url(#filter0_i_198_46)">
<path d="M4.51805 43.24C3.31805 43.24 2.29805 43.16 1.45805 43V37C2.09805 37.16 2.81805 37.24 3.61805 37.24C4.93805 37.24 5.91805 36.92 6.55805 36.28C7.19805 35.6 7.51805 34.58 7.51805 33.22V0.999997H14.118V33.04C14.118 36.48 13.318 39.04 11.718 40.72C10.158 42.4 7.75805 43.24 4.51805 43.24ZM28.437 43.6C25.237 43.6 22.797 42.7 21.117 40.9C19.437 39.06 18.597 36.44 18.597 33.04V0.999997H25.197V33.52C25.197 34.96 25.477 36 26.037 36.64C26.637 37.28 27.477 37.6 28.557 37.6C29.637 37.6 30.457 37.28 31.017 36.64C31.617 36 31.917 34.96 31.917 33.52V0.999997H38.277V33.04C38.277 36.44 37.437 39.06 35.757 40.9C34.077 42.7 31.637 43.6 28.437 43.6ZM52.587 0.999997H59.187V18.1H66.267V0.999997H72.867V43H66.267V24.1H59.187V43H52.587V0.999997ZM82.8823 0.999997H91.8223L98.6623 43H92.0623L90.8623 34.66V34.78H83.3623L82.1623 43H76.0423L82.8823 0.999997ZM90.0823 29.08L87.1423 8.32H87.0223L84.1423 29.08H90.0823ZM101.864 0.999997H108.464V18.7L116.864 0.999997H123.464L115.604 16.42L123.584 43H116.684L111.104 24.28L108.464 29.62V43H101.864V0.999997ZM136.317 0.999997H144.597L151.017 26.14H151.137V0.999997H157.017V43H150.237L142.317 12.34H142.197V43H136.317V0.999997ZM167.983 25.12L160.003 0.999997H167.023L171.523 16.42H171.643L176.143 0.999997H182.563L174.583 25.12V43H167.983V25.12ZM185.536 0.999997H203.536V7H192.136V18.1H201.196V24.1H192.136V37H203.536V43H185.536V0.999997ZM216.873 43.6C213.633 43.6 211.153 42.68 209.433 40.84C207.713 39 206.853 36.4 206.853 33.04V10.96C206.853 7.6 207.713 5 209.433 3.16C211.153 1.32 213.633 0.399998 216.873 0.399998C220.113 0.399998 222.593 1.32 224.313 3.16C226.033 5 226.893 7.6 226.893 10.96V33.04C226.893 36.4 226.033 39 224.313 40.84C222.593 42.68 220.113 43.6 216.873 43.6ZM216.873 37.6C219.153 37.6 220.293 36.22 220.293 33.46V10.54C220.293 7.78 219.153 6.4 216.873 6.4C214.593 6.4 213.453 7.78 213.453 10.54V33.46C213.453 36.22 214.593 37.6 216.873 37.6ZM231.356 0.999997H239.636L246.056 26.14H246.176V0.999997H252.056V43H245.276L237.356 12.34H237.236V43H231.356V0.999997Z" fill="#A5A9FF"/>
<path d="M1.45805 43H0.458047V43.8275L1.27093 43.9823L1.45805 43ZM1.45805 37L1.70058 36.0299L0.458047 35.7192V37H1.45805ZM6.55805 36.28L7.26515 36.9871L7.27587 36.9764L7.28625 36.9654L6.55805 36.28ZM7.51805 0.999997V-2.86102e-06H6.51805V0.999997H7.51805ZM14.118 0.999997H15.118V-2.86102e-06H14.118V0.999997ZM11.718 40.72L10.9939 40.0303L10.9853 40.0395L11.718 40.72ZM4.51805 42.24C3.35784 42.24 2.40439 42.1623 1.64516 42.0177L1.27093 43.9823C2.1917 44.1577 3.27825 44.24 4.51805 44.24V42.24ZM2.45805 43V37H0.458047V43H2.45805ZM1.21551 37.9701C1.94951 38.1536 2.75294 38.24 3.61805 38.24V36.24C2.88315 36.24 2.24658 36.1664 1.70058 36.0299L1.21551 37.9701ZM3.61805 38.24C5.08178 38.24 6.36635 37.8859 7.26515 36.9871L5.85094 35.5729C5.46975 35.9541 4.79431 36.24 3.61805 36.24V38.24ZM7.28625 36.9654C8.16637 36.0302 8.51805 34.7196 8.51805 33.22H6.51805C6.51805 34.4404 6.22972 35.1698 5.82985 35.5946L7.28625 36.9654ZM8.51805 33.22V0.999997H6.51805V33.22H8.51805ZM7.51805 2H14.118V-2.86102e-06H7.51805V2ZM13.118 0.999997V33.04H15.118V0.999997H13.118ZM13.118 33.04C13.118 36.3454 12.3475 38.6091 10.9939 40.0303L12.4422 41.4097C14.2886 39.4709 15.118 36.6146 15.118 33.04H13.118ZM10.9853 40.0395C9.68187 41.4432 7.59756 42.24 4.51805 42.24V44.24C7.91854 44.24 10.6342 43.3568 12.4508 41.4005L10.9853 40.0395ZM21.117 40.9L20.3784 41.5743L20.3859 41.5823L21.117 40.9ZM18.597 0.999997V-2.86102e-06H17.597V0.999997H18.597ZM25.197 0.999997H26.197V-2.86102e-06H25.197V0.999997ZM26.037 36.64L25.2844 37.2985L25.2957 37.3114L25.3074 37.3239L26.037 36.64ZM31.017 36.64L30.2874 35.9561L30.2757 35.9686L30.2644 35.9815L31.017 36.64ZM31.917 0.999997V-2.86102e-06H30.917V0.999997H31.917ZM38.277 0.999997H39.277V-2.86102e-06H38.277V0.999997ZM35.757 40.9L36.4881 41.5824L36.4954 41.5743L35.757 40.9ZM28.437 42.6C25.4266 42.6 23.2865 41.7589 21.848 40.2177L20.3859 41.5823C22.3075 43.6411 25.0473 44.6 28.437 44.6V42.6ZM21.8554 40.2257C20.3968 38.6282 19.597 36.2824 19.597 33.04H17.597C17.597 36.5976 18.4771 39.4918 20.3785 41.5743L21.8554 40.2257ZM19.597 33.04V0.999997H17.597V33.04H19.597ZM18.597 2H25.197V-2.86102e-06H18.597V2ZM24.197 0.999997V33.52H26.197V0.999997H24.197ZM24.197 33.52C24.197 35.0475 24.4862 36.3863 25.2844 37.2985L26.7895 35.9815C26.4677 35.6137 26.197 34.8725 26.197 33.52H24.197ZM25.3074 37.3239C26.1387 38.2107 27.2691 38.6 28.557 38.6V36.6C27.6849 36.6 27.1352 36.3493 26.7665 35.9561L25.3074 37.3239ZM28.557 38.6C29.8417 38.6 30.9708 38.2114 31.7695 37.2985L30.2644 35.9815C29.9431 36.3486 29.4322 36.6 28.557 36.6V38.6ZM31.7465 37.3239C32.6026 36.4107 32.917 35.0604 32.917 33.52H30.917C30.917 34.8596 30.6313 35.5893 30.2874 35.9561L31.7465 37.3239ZM32.917 33.52V0.999997H30.917V33.52H32.917ZM31.917 2H38.277V-2.86102e-06H31.917V2ZM37.277 0.999997V33.04H39.277V0.999997H37.277ZM37.277 33.04C37.277 36.2824 36.4771 38.6282 35.0185 40.2257L36.4954 41.5743C38.3968 39.4918 39.277 36.5976 39.277 33.04H37.277ZM35.0259 40.2177C33.5875 41.7589 31.4473 42.6 28.437 42.6V44.6C31.8266 44.6 34.5665 43.6411 36.488 41.5823L35.0259 40.2177ZM52.587 0.999997V-2.86102e-06H51.587V0.999997H52.587ZM59.187 0.999997H60.187V-2.86102e-06H59.187V0.999997ZM59.187 18.1H58.187V19.1H59.187V18.1ZM66.267 18.1V19.1H67.267V18.1H66.267ZM66.267 0.999997V-2.86102e-06H65.267V0.999997H66.267ZM72.867 0.999997H73.867V-2.86102e-06H72.867V0.999997ZM72.867 43V44H73.867V43H72.867ZM66.267 43H65.267V44H66.267V43ZM66.267 24.1H67.267V23.1H66.267V24.1ZM59.187 24.1V23.1H58.187V24.1H59.187ZM59.187 43V44H60.187V43H59.187ZM52.587 43H51.587V44H52.587V43ZM52.587 2H59.187V-2.86102e-06H52.587V2ZM58.187 0.999997V18.1H60.187V0.999997H58.187ZM59.187 19.1H66.267V17.1H59.187V19.1ZM67.267 18.1V0.999997H65.267V18.1H67.267ZM66.267 2H72.867V-2.86102e-06H66.267V2ZM71.867 0.999997V43H73.867V0.999997H71.867ZM72.867 42H66.267V44H72.867V42ZM67.267 43V24.1H65.267V43H67.267ZM66.267 23.1H59.187V25.1H66.267V23.1ZM58.187 24.1V43H60.187V24.1H58.187ZM59.187 42H52.587V44H59.187V42ZM53.587 43V0.999997H51.587V43H53.587ZM82.8823 0.999997V-2.86102e-06H82.0319L81.8953 0.839258L82.8823 0.999997ZM91.8223 0.999997L92.8093 0.839258L92.6726 -2.86102e-06H91.8223V0.999997ZM98.6623 43V44H99.8383L99.6493 42.8393L98.6623 43ZM92.0623 43L91.0725 43.1424L91.1959 44H92.0623V43ZM90.8623 34.66L91.8521 34.5176L89.8623 34.66H90.8623ZM90.8623 34.78V35.78H91.8623V34.78H90.8623ZM83.3623 34.78V33.78H82.4977L82.3728 34.6355L83.3623 34.78ZM82.1623 43V44H83.0269L83.1518 43.1445L82.1623 43ZM76.0423 43L75.0553 42.8393L74.8662 44H76.0423V43ZM90.0823 29.08V30.08H91.2339L91.0724 28.9398L90.0823 29.08ZM87.1423 8.32L88.1324 8.17978L88.0106 7.32H87.1423V8.32ZM87.0223 8.32V7.32H86.1514L86.0318 8.18259L87.0223 8.32ZM84.1423 29.08L83.1518 28.9426L82.994 30.08H84.1423V29.08ZM82.8823 2H91.8223V-2.86102e-06H82.8823V2ZM90.8353 1.16074L97.6753 43.1607L99.6493 42.8393L92.8093 0.839258L90.8353 1.16074ZM98.6623 42H92.0623V44H98.6623V42ZM93.0521 42.8576L91.8521 34.5176L89.8725 34.8024L91.0725 43.1424L93.0521 42.8576ZM89.8623 34.66V34.78H91.8623V34.66H89.8623ZM90.8623 33.78H83.3623V35.78H90.8623V33.78ZM82.3728 34.6355L81.1728 42.8555L83.1518 43.1445L84.3518 34.9245L82.3728 34.6355ZM82.1623 42H76.0423V44H82.1623V42ZM77.0293 43.1607L83.8693 1.16074L81.8953 0.839258L75.0553 42.8393L77.0293 43.1607ZM91.0724 28.9398L88.1324 8.17978L86.1521 8.46022L89.0921 29.2202L91.0724 28.9398ZM87.1423 7.32H87.0223V9.32H87.1423V7.32ZM86.0318 8.18259L83.1518 28.9426L85.1328 29.2174L88.0128 8.45741L86.0318 8.18259ZM84.1423 30.08H90.0823V28.08H84.1423V30.08ZM101.864 0.999997V-2.86102e-06H100.864V0.999997H101.864ZM108.464 0.999997H109.464V-2.86102e-06H108.464V0.999997ZM108.464 18.7H107.464L109.368 19.1287L108.464 18.7ZM116.864 0.999997V-2.86102e-06H116.232L115.961 0.571253L116.864 0.999997ZM123.464 0.999997L124.355 1.45413L125.096 -2.86102e-06H123.464V0.999997ZM115.604 16.42L114.713 15.9659L114.531 16.3233L114.647 16.7075L115.604 16.42ZM123.584 43V44H124.929L124.542 42.7125L123.584 43ZM116.684 43L115.726 43.2857L115.939 44H116.684V43ZM111.104 24.28L112.063 23.9943L111.336 21.5556L110.208 23.8368L111.104 24.28ZM108.464 29.62L107.568 29.1768L107.464 29.3863V29.62H108.464ZM108.464 43V44H109.464V43H108.464ZM101.864 43H100.864V44H101.864V43ZM101.864 2H108.464V-2.86102e-06H101.864V2ZM107.464 0.999997V18.7H109.464V0.999997H107.464ZM109.368 19.1287L117.768 1.42874L115.961 0.571253L107.561 18.2713L109.368 19.1287ZM116.864 2H123.464V-2.86102e-06H116.864V2ZM122.573 0.545864L114.713 15.9659L116.495 16.8741L124.355 1.45413L122.573 0.545864ZM114.647 16.7075L122.627 43.2875L124.542 42.7125L116.562 16.1325L114.647 16.7075ZM123.584 42H116.684V44H123.584V42ZM117.643 42.7143L112.063 23.9943L110.146 24.5657L115.726 43.2857L117.643 42.7143ZM110.208 23.8368L107.568 29.1768L109.361 30.0632L112.001 24.7232L110.208 23.8368ZM107.464 29.62V43H109.464V29.62H107.464ZM108.464 42H101.864V44H108.464V42ZM102.864 43V0.999997H100.864V43H102.864ZM136.317 0.999997V-2.86102e-06H135.317V0.999997H136.317ZM144.597 0.999997L145.566 0.752568L145.374 -2.86102e-06H144.597V0.999997ZM151.017 26.14L150.049 26.3874L150.241 27.14H151.017V26.14ZM151.137 26.14V27.14H152.137V26.14H151.137ZM151.137 0.999997V-2.86102e-06H150.137V0.999997H151.137ZM157.017 0.999997H158.017V-2.86102e-06H157.017V0.999997ZM157.017 43V44H158.017V43H157.017ZM150.237 43L149.269 43.2501L149.463 44H150.237V43ZM142.317 12.34L143.286 12.0899L143.092 11.34H142.317V12.34ZM142.197 12.34V11.34H141.197V12.34H142.197ZM142.197 43V44H143.197V43H142.197ZM136.317 43H135.317V44H136.317V43ZM136.317 2H144.597V-2.86102e-06H136.317V2ZM143.629 1.24743L150.049 26.3874L151.986 25.8926L145.566 0.752568L143.629 1.24743ZM151.017 27.14H151.137V25.14H151.017V27.14ZM152.137 26.14V0.999997H150.137V26.14H152.137ZM151.137 2H157.017V-2.86102e-06H151.137V2ZM156.017 0.999997V43H158.017V0.999997H156.017ZM157.017 42H150.237V44H157.017V42ZM151.206 42.7499L143.286 12.0899L141.349 12.5901L149.269 43.2501L151.206 42.7499ZM142.317 11.34H142.197V13.34H142.317V11.34ZM141.197 12.34V43H143.197V12.34H141.197ZM142.197 42H136.317V44H142.197V42ZM137.317 43V0.999997H135.317V43H137.317ZM167.983 25.12H168.983V24.9589L168.932 24.8059L167.983 25.12ZM160.003 0.999997V-2.86102e-06H158.619L159.054 1.3141L160.003 0.999997ZM167.023 0.999997L167.983 0.719854L167.773 -2.86102e-06H167.023V0.999997ZM171.523 16.42L170.563 16.7001L170.773 17.42H171.523V16.42ZM171.643 16.42V17.42H172.393L172.603 16.7001L171.643 16.42ZM176.143 0.999997V-2.86102e-06H175.393L175.183 0.719854L176.143 0.999997ZM182.563 0.999997L183.512 1.3141L183.947 -2.86102e-06H182.563V0.999997ZM174.583 25.12L173.634 24.8059L173.583 24.9589V25.12H174.583ZM174.583 43V44H175.583V43H174.583ZM167.983 43H166.983V44H167.983V43ZM168.932 24.8059L160.952 0.685896L159.054 1.3141L167.034 25.4341L168.932 24.8059ZM160.003 2H167.023V-2.86102e-06H160.003V2ZM166.063 1.28014L170.563 16.7001L172.483 16.1399L167.983 0.719854L166.063 1.28014ZM171.523 17.42H171.643V15.42H171.523V17.42ZM172.603 16.7001L177.103 1.28014L175.183 0.719854L170.683 16.1399L172.603 16.7001ZM176.143 2H182.563V-2.86102e-06H176.143V2ZM181.614 0.685896L173.634 24.8059L175.532 25.4341L183.512 1.3141L181.614 0.685896ZM173.583 25.12V43H175.583V25.12H173.583ZM174.583 42H167.983V44H174.583V42ZM168.983 43V25.12H166.983V43H168.983ZM185.536 0.999997V-2.86102e-06H184.536V0.999997H185.536ZM203.536 0.999997H204.536V-2.86102e-06H203.536V0.999997ZM203.536 7V8H204.536V7H203.536ZM192.136 7V6H191.136V7H192.136ZM192.136 18.1H191.136V19.1H192.136V18.1ZM201.196 18.1H202.196V17.1H201.196V18.1ZM201.196 24.1V25.1H202.196V24.1H201.196ZM192.136 24.1V23.1H191.136V24.1H192.136ZM192.136 37H191.136V38H192.136V37ZM203.536 37H204.536V36H203.536V37ZM203.536 43V44H204.536V43H203.536ZM185.536 43H184.536V44H185.536V43ZM185.536 2H203.536V-2.86102e-06H185.536V2ZM202.536 0.999997V7H204.536V0.999997H202.536ZM203.536 6H192.136V8H203.536V6ZM191.136 7V18.1H193.136V7H191.136ZM192.136 19.1H201.196V17.1H192.136V19.1ZM200.196 18.1V24.1H202.196V18.1H200.196ZM201.196 23.1H192.136V25.1H201.196V23.1ZM191.136 24.1V37H193.136V24.1H191.136ZM192.136 38H203.536V36H192.136V38ZM202.536 37V43H204.536V37H202.536ZM203.536 42H185.536V44H203.536V42ZM186.536 43V0.999997H184.536V43H186.536ZM209.433 40.84L210.164 40.1571L210.164 40.1571L209.433 40.84ZM209.433 3.16L210.164 3.84288L210.164 3.84288L209.433 3.16ZM224.313 3.16L223.583 3.84288L223.583 3.84288L224.313 3.16ZM224.313 40.84L223.583 40.1571L223.583 40.1571L224.313 40.84ZM216.873 42.6C213.826 42.6 211.644 41.7408 210.164 40.1571L208.703 41.5229C210.662 43.6192 213.44 44.6 216.873 44.6V42.6ZM210.164 40.1571C208.668 38.5572 207.853 36.233 207.853 33.04H205.853C205.853 36.567 206.758 39.4428 208.703 41.5229L210.164 40.1571ZM207.853 33.04V10.96H205.853V33.04H207.853ZM207.853 10.96C207.853 7.76696 208.668 5.44283 210.164 3.84288L208.703 2.47711C206.758 4.55716 205.853 7.43303 205.853 10.96H207.853ZM210.164 3.84288C211.644 2.25921 213.826 1.4 216.873 1.4V-0.600002C213.44 -0.600002 210.662 0.380783 208.703 2.47711L210.164 3.84288ZM216.873 1.4C219.92 1.4 222.102 2.25921 223.583 3.84288L225.044 2.47711C223.084 0.380782 220.306 -0.600002 216.873 -0.600002V1.4ZM223.583 3.84288C225.078 5.44283 225.893 7.76696 225.893 10.96H227.893C227.893 7.43303 226.988 4.55716 225.044 2.47711L223.583 3.84288ZM225.893 10.96V33.04H227.893V10.96H225.893ZM225.893 33.04C225.893 36.233 225.078 38.5572 223.583 40.1571L225.044 41.5229C226.988 39.4428 227.893 36.567 227.893 33.04H225.893ZM223.583 40.1571C222.102 41.7408 219.92 42.6 216.873 42.6V44.6C220.306 44.6 223.084 43.6192 225.044 41.5229L223.583 40.1571ZM216.873 38.6C218.223 38.6 219.399 38.1823 220.209 37.2019C220.989 36.258 221.293 34.9526 221.293 33.46H219.293C219.293 34.7274 219.027 35.492 218.667 35.9281C218.337 36.3277 217.803 36.6 216.873 36.6V38.6ZM221.293 33.46V10.54H219.293V33.46H221.293ZM221.293 10.54C221.293 9.04738 220.989 7.74196 220.209 6.79812C219.399 5.81769 218.223 5.4 216.873 5.4V7.4C217.803 7.4 218.337 7.67231 218.667 8.07188C219.027 8.50804 219.293 9.27261 219.293 10.54H221.293ZM216.873 5.4C215.523 5.4 214.347 5.81769 213.537 6.79812C212.757 7.74196 212.453 9.04738 212.453 10.54H214.453C214.453 9.27261 214.719 8.50804 215.079 8.07188C215.409 7.67231 215.943 7.4 216.873 7.4V5.4ZM212.453 10.54V33.46H214.453V10.54H212.453ZM212.453 33.46C212.453 34.9526 212.757 36.258 213.537 37.2019C214.347 38.1823 215.523 38.6 216.873 38.6V36.6C215.943 36.6 215.409 36.3277 215.079 35.9281C214.719 35.492 214.453 34.7274 214.453 33.46H212.453ZM231.356 0.999997V-2.86102e-06H230.356V0.999997H231.356ZM239.636 0.999997L240.605 0.752568L240.413 -2.86102e-06H239.636V0.999997ZM246.056 26.14L245.088 26.3874L245.28 27.14H246.056V26.14ZM246.176 26.14V27.14H247.176V26.14H246.176ZM246.176 0.999997V-2.86102e-06H245.176V0.999997H246.176ZM252.056 0.999997H253.056V-2.86102e-06H252.056V0.999997ZM252.056 43V44H253.056V43H252.056ZM245.276 43L244.308 43.2501L244.502 44H245.276V43ZM237.356 12.34L238.325 12.0899L238.131 11.34H237.356V12.34ZM237.236 12.34V11.34H236.236V12.34H237.236ZM237.236 43V44H238.236V43H237.236ZM231.356 43H230.356V44H231.356V43ZM231.356 2H239.636V-2.86102e-06H231.356V2ZM238.668 1.24743L245.088 26.3874L247.025 25.8926L240.605 0.752568L238.668 1.24743ZM246.056 27.14H246.176V25.14H246.056V27.14ZM247.176 26.14V0.999997H245.176V26.14H247.176ZM246.176 2H252.056V-2.86102e-06H246.176V2ZM251.056 0.999997V43H253.056V0.999997H251.056ZM252.056 42H245.276V44H252.056V42ZM246.245 42.7499L238.325 12.0899L236.388 12.5901L244.308 43.2501L246.245 42.7499ZM237.356 11.34H237.236V13.34H237.356V11.34ZM236.236 12.34V43H238.236V12.34H236.236ZM237.236 42H231.356V44H237.236V42ZM232.356 43V0.999997H230.356V43H232.356Z" fill="#A5A9FF"/>
</g>
<defs>
<filter id="filter0_i_198_46" x="1.45801" y="0.399902" width="250.599" height="47.2002" filterUnits="userSpaceOnUse" color-interpolation-filters="sRGB">
<feFlood flood-opacity="0" result="BackgroundImageFix"/>
<feBlend mode="normal" in="SourceGraphic" in2="BackgroundImageFix" result="shape"/>
<feColorMatrix in="SourceAlpha" type="matrix" values="0 0 0 0 0 0 0 0 0 0 0 0 0 0 0 0 0 0 127 0" result="hardAlpha"/>
<feOffset dy="4"/>
<feGaussianBlur stdDeviation="2"/>
<feComposite in2="hardAlpha" operator="arithmetic" k2="-1" k3="1"/>
<feColorMatrix type="matrix" values="0 0 0 0 1 0 0 0 0 1 0 0 0 0 1 0 0 0 1 0"/>
<feBlend mode="normal" in2="shape" result="effect1_innerShadow_198_46"/>
</filter>
</defs>
</svg>
