<svg width="132" height="47" viewBox="0 0 132 47" fill="none" xmlns="http://www.w3.org/2000/svg">
<g filter="url(#filter0_i_198_44)">
<path d="M8.8933 37.448C6.50397 37.448 4.6821 36.776 3.4277 35.432C2.1733 34.0581 1.5461 32.1019 1.5461 29.5632V28.9808H6.2053V29.8768C6.2053 31.9376 7.0565 32.968 8.7589 32.968C9.68477 32.968 10.3717 32.6843 10.8197 32.1168C11.2677 31.5493 11.4917 30.5488 11.4917 29.1152V23.112H11.4021C10.536 24.9339 9.04264 25.8448 6.9221 25.8448C5.1301 25.8448 3.77117 25.2325 2.8453 24.008C1.91944 22.7835 1.4565 21.0064 1.4565 18.6768V13.0768C1.4565 10.568 2.09864 8.62667 3.3829 7.2528C4.66717 5.87893 6.5189 5.192 8.9381 5.192C11.3573 5.192 13.209 5.87893 14.4933 7.2528C15.7776 8.62667 16.4197 10.568 16.4197 13.0768V29.2944C16.4197 34.7301 13.9109 37.448 8.8933 37.448ZM8.9381 21.3648C10.6405 21.3648 11.4917 20.3344 11.4917 18.2736V12.7184C11.4917 10.6875 10.6405 9.672 8.9381 9.672C7.2357 9.672 6.3845 10.6875 6.3845 12.7184V18.2736C6.3845 20.3344 7.2357 21.3648 8.9381 21.3648ZM26.8308 37.448C24.4415 37.448 22.6196 36.776 21.3652 35.432C20.1108 34.0581 19.4836 32.1019 19.4836 29.5632V28.9808H24.1428V29.8768C24.1428 31.9376 24.994 32.968 26.6964 32.968C27.6223 32.968 28.3092 32.6843 28.7572 32.1168C29.2052 31.5493 29.4292 30.5488 29.4292 29.1152V23.112H29.3396C28.4735 24.9339 26.9801 25.8448 24.8596 25.8448C23.0676 25.8448 21.7087 25.2325 20.7828 24.008C19.8569 22.7835 19.394 21.0064 19.394 18.6768V13.0768C19.394 10.568 20.0361 8.62667 21.3204 7.2528C22.6047 5.87893 24.4564 5.192 26.8756 5.192C29.2948 5.192 31.1465 5.87893 32.4308 7.2528C33.7151 8.62667 34.3572 10.568 34.3572 13.0768V29.2944C34.3572 34.7301 31.8484 37.448 26.8308 37.448ZM26.8756 21.3648C28.578 21.3648 29.4292 20.3344 29.4292 18.2736V12.7184C29.4292 10.6875 28.578 9.672 26.8756 9.672C25.1732 9.672 24.322 10.6875 24.322 12.7184V18.2736C24.322 20.3344 25.1732 21.3648 26.8756 21.3648ZM37.1075 19.08H46.9635V23.56H37.1075V19.08ZM57.0225 37.448C54.6033 37.448 52.7516 36.7611 51.4673 35.3872C50.183 34.0133 49.5409 32.072 49.5409 29.5632V13.0768C49.5409 10.568 50.183 8.62667 51.4673 7.2528C52.7516 5.87893 54.6033 5.192 57.0225 5.192C59.4417 5.192 61.2934 5.87893 62.5777 7.2528C63.862 8.62667 64.5041 10.568 64.5041 13.0768V29.5632C64.5041 32.072 63.862 34.0133 62.5777 35.3872C61.2934 36.7611 59.4417 37.448 57.0225 37.448ZM57.0225 32.968C58.7249 32.968 59.5761 31.9376 59.5761 29.8768V12.7632C59.5761 10.7024 58.7249 9.672 57.0225 9.672C55.3201 9.672 54.4689 10.7024 54.4689 12.7632V29.8768C54.4689 31.9376 55.3201 32.968 57.0225 32.968ZM74.8256 37.448C72.4064 37.448 70.5696 36.776 69.3152 35.432C68.0907 34.088 67.4784 32.1616 67.4784 29.6528V27.0992H72.1376V29.8768C72.1376 31.9376 72.9888 32.968 74.6912 32.968C75.5275 32.968 76.1547 32.7141 76.5728 32.2064C77.0208 31.6688 77.2448 30.7429 77.2448 29.4288V26.8752C77.2448 25.4416 76.9909 24.4261 76.4832 23.8288C75.9755 23.2016 75.1541 22.888 74.0192 22.888H72.3616V18.408H74.1536C75.1392 18.408 75.8709 18.1541 76.3488 17.6464C76.8565 17.1387 77.1104 16.2875 77.1104 15.0928V12.808C77.1104 11.7328 76.8864 10.9413 76.4384 10.4336C75.9904 9.92587 75.3931 9.672 74.6464 9.672C73.0635 9.672 72.272 10.6427 72.272 12.584V14.6448H67.6128V12.9872C67.6128 10.4784 68.2251 8.552 69.4496 7.208C70.704 5.864 72.496 5.192 74.8256 5.192C77.1851 5.192 78.9771 5.864 80.2016 7.208C81.4261 8.52213 82.0384 10.4336 82.0384 12.9424V14.0624C82.0384 15.7648 81.7547 17.1387 81.1872 18.184C80.6197 19.1995 79.7387 19.9312 78.544 20.3792V20.4688C79.8283 20.9467 80.7541 21.7232 81.3216 22.7984C81.8891 23.8736 82.1728 25.2475 82.1728 26.92V29.6976C82.1728 32.2064 81.5456 34.1328 80.2912 35.4768C79.0667 36.7909 77.2448 37.448 74.8256 37.448ZM85.0575 19.08H94.9135V23.56H85.0575V19.08ZM104.973 37.448C102.553 37.448 100.702 36.7611 99.4173 35.3872C98.133 34.0133 97.4909 32.072 97.4909 29.5632V13.0768C97.4909 10.568 98.133 8.62667 99.4173 7.2528C100.702 5.87893 102.553 5.192 104.973 5.192C107.392 5.192 109.243 5.87893 110.528 7.2528C111.812 8.62667 112.454 10.568 112.454 13.0768V29.5632C112.454 32.072 111.812 34.0133 110.528 35.3872C109.243 36.7611 107.392 37.448 104.973 37.448ZM104.973 32.968C106.675 32.968 107.526 31.9376 107.526 29.8768V12.7632C107.526 10.7024 106.675 9.672 104.973 9.672C103.27 9.672 102.419 10.7024 102.419 12.7632V29.8768C102.419 31.9376 103.27 32.968 104.973 32.968ZM122.731 37.448C120.341 37.448 118.52 36.776 117.265 35.432C116.011 34.0581 115.384 32.1019 115.384 29.5632V28.9808H120.043V29.8768C120.043 31.9376 120.894 32.968 122.596 32.968C123.522 32.968 124.209 32.6843 124.657 32.1168C125.105 31.5493 125.329 30.5488 125.329 29.1152V23.112H125.24C124.373 24.9339 122.88 25.8448 120.76 25.8448C118.968 25.8448 117.609 25.2325 116.683 24.008C115.757 22.7835 115.294 21.0064 115.294 18.6768V13.0768C115.294 10.568 115.936 8.62667 117.22 7.2528C118.505 5.87893 120.356 5.192 122.776 5.192C125.195 5.192 127.047 5.87893 128.331 7.2528C129.615 8.62667 130.257 10.568 130.257 13.0768V29.2944C130.257 34.7301 127.748 37.448 122.731 37.448ZM122.776 21.3648C124.478 21.3648 125.329 20.3344 125.329 18.2736V12.7184C125.329 10.6875 124.478 9.672 122.776 9.672C121.073 9.672 120.222 10.6875 120.222 12.7184V18.2736C120.222 20.3344 121.073 21.3648 122.776 21.3648Z" fill="#A5A9FF"/>
</g>
<defs>
<filter id="filter0_i_198_44" x="1.45605" y="5.19189" width="128.801" height="36.2561" filterUnits="userSpaceOnUse" color-interpolation-filters="sRGB">
<feFlood flood-opacity="0" result="BackgroundImageFix"/>
<feBlend mode="normal" in="SourceGraphic" in2="BackgroundImageFix" result="shape"/>
<feColorMatrix in="SourceAlpha" type="matrix" values="0 0 0 0 0 0 0 0 0 0 0 0 0 0 0 0 0 0 127 0" result="hardAlpha"/>
<feOffset dy="4"/>
<feGaussianBlur stdDeviation="2"/>
<feComposite in2="hardAlpha" operator="arithmetic" k2="-1" k3="1"/>
<feColorMatrix type="matrix" values="0 0 0 0 1 0 0 0 0 1 0 0 0 0 1 0 0 0 1 0"/>
<feBlend mode="normal" in2="shape" result="effect1_innerShadow_198_44"/>
</filter>
</defs>
</svg>
