<svg width="191" height="49" viewBox="0 0 191 49" fill="none" xmlns="http://www.w3.org/2000/svg">
<g filter="url(#filter0_i_198_10)">
<path d="M4.10008 43.24C2.90008 43.24 1.88008 43.16 1.04008 43V37C1.68008 37.16 2.40008 37.24 3.20008 37.24C4.52008 37.24 5.50008 36.92 6.14008 36.28C6.78008 35.6 7.10008 34.58 7.10008 33.22V0.999997H13.7001V33.04C13.7001 36.48 12.9001 39.04 11.3001 40.72C9.74008 42.4 7.34008 43.24 4.10008 43.24ZM23.4018 0.999997H32.3418L39.1818 43H32.5818L31.3818 34.66V34.78H23.8818L22.6818 43H16.5618L23.4018 0.999997ZM30.6018 29.08L27.6618 8.32H27.5418L24.6618 29.08H30.6018ZM51.5666 43.6C48.4066 43.6 45.9866 42.7 44.3066 40.9C42.6666 39.1 41.8466 36.56 41.8466 33.28V10.72C41.8466 7.44 42.6666 4.9 44.3066 3.1C45.9866 1.3 48.4066 0.399998 51.5666 0.399998C54.7266 0.399998 57.1266 1.3 58.7666 3.1C60.4466 4.9 61.2866 7.44 61.2866 10.72V15.16H55.0466V10.3C55.0466 7.7 53.9466 6.4 51.7466 6.4C49.5466 6.4 48.4466 7.7 48.4466 10.3V33.76C48.4466 36.32 49.5466 37.6 51.7466 37.6C53.9466 37.6 55.0466 36.32 55.0466 33.76V27.34H61.2866V33.28C61.2866 36.56 60.4466 39.1 58.7666 40.9C57.1266 42.7 54.7266 43.6 51.5666 43.6ZM74.8926 43.6C71.6526 43.6 69.1726 42.68 67.4526 40.84C65.7326 39 64.8726 36.4 64.8726 33.04V10.96C64.8726 7.6 65.7326 5 67.4526 3.16C69.1726 1.32 71.6526 0.399998 74.8926 0.399998C78.1326 0.399998 80.6126 1.32 82.3326 3.16C84.0526 5 84.9126 7.6 84.9126 10.96V33.04C84.9126 36.4 84.0526 39 82.3326 40.84C80.6126 42.68 78.1326 43.6 74.8926 43.6ZM74.8926 37.6C77.1726 37.6 78.3126 36.22 78.3126 33.46V10.54C78.3126 7.78 77.1726 6.4 74.8926 6.4C72.6126 6.4 71.4726 7.78 71.4726 10.54V33.46C71.4726 36.22 72.6126 37.6 74.8926 37.6ZM89.376 0.999997H99.336C102.736 0.999997 105.216 1.8 106.776 3.4C108.336 4.96 109.116 7.38 109.116 10.66V12.34C109.116 14.5 108.756 16.26 108.036 17.62C107.356 18.98 106.296 19.96 104.856 20.56V20.68C108.136 21.8 109.776 24.72 109.776 29.44V33.04C109.776 36.28 108.916 38.76 107.196 40.48C105.516 42.16 103.036 43 99.756 43H89.376V0.999997ZM98.556 18.1C99.876 18.1 100.856 17.76 101.496 17.08C102.176 16.4 102.516 15.26 102.516 13.66V11.32C102.516 9.8 102.236 8.7 101.676 8.02C101.156 7.34 100.316 7 99.156 7H95.976V18.1H98.556ZM99.756 37C100.916 37 101.776 36.7 102.336 36.1C102.896 35.46 103.176 34.38 103.176 32.86V29.2C103.176 27.28 102.836 25.96 102.156 25.24C101.516 24.48 100.436 24.1 98.916 24.1H95.976V37H99.756ZM123.243 0.999997H133.203C136.603 0.999997 139.083 1.8 140.643 3.4C142.203 4.96 142.983 7.38 142.983 10.66V12.34C142.983 14.5 142.623 16.26 141.903 17.62C141.223 18.98 140.163 19.96 138.723 20.56V20.68C142.003 21.8 143.643 24.72 143.643 29.44V33.04C143.643 36.28 142.783 38.76 141.063 40.48C139.383 42.16 136.903 43 133.623 43H123.243V0.999997ZM132.423 18.1C133.743 18.1 134.723 17.76 135.363 17.08C136.043 16.4 136.383 15.26 136.383 13.66V11.32C136.383 9.8 136.103 8.7 135.543 8.02C135.023 7.34 134.183 7 133.023 7H129.843V18.1H132.423ZM133.623 37C134.783 37 135.643 36.7 136.203 36.1C136.763 35.46 137.043 34.38 137.043 32.86V29.2C137.043 27.28 136.703 25.96 136.023 25.24C135.383 24.48 134.303 24.1 132.783 24.1H129.843V37H133.623ZM152.601 0.999997H161.541L168.381 43H161.781L160.581 34.66V34.78H153.081L151.881 43H145.761L152.601 0.999997ZM159.801 29.08L156.861 8.32H156.741L153.861 29.08H159.801ZM171.583 0.999997H189.583V7H178.183V18.1H187.243V24.1H178.183V37H189.583V43H171.583V0.999997Z" fill="#E3D8B7"/>
<path d="M1.04008 43H0.0400782V43.8275L0.852966 43.9823L1.04008 43ZM1.04008 37L1.28261 36.0299L0.0400782 35.7192V37H1.04008ZM6.14008 36.28L6.84719 36.9871L6.8579 36.9764L6.86828 36.9654L6.14008 36.28ZM7.10008 0.999997V-2.86102e-06H6.10008V0.999997H7.10008ZM13.7001 0.999997H14.7001V-2.86102e-06H13.7001V0.999997ZM11.3001 40.72L10.5759 40.0303L10.5673 40.0395L11.3001 40.72ZM4.10008 42.24C2.93987 42.24 1.98642 42.1623 1.22719 42.0177L0.852966 43.9823C1.77373 44.1577 2.86028 44.24 4.10008 44.24V42.24ZM2.04008 43V37H0.0400782V43H2.04008ZM0.797543 37.9701C1.53154 38.1536 2.33498 38.24 3.20008 38.24V36.24C2.46518 36.24 1.82861 36.1664 1.28261 36.0299L0.797543 37.9701ZM3.20008 38.24C4.66381 38.24 5.94838 37.8859 6.84719 36.9871L5.43297 35.5729C5.05178 35.9541 4.37634 36.24 3.20008 36.24V38.24ZM6.86828 36.9654C7.7484 36.0302 8.10008 34.7196 8.10008 33.22H6.10008C6.10008 34.4404 5.81175 35.1698 5.41188 35.5946L6.86828 36.9654ZM8.10008 33.22V0.999997H6.10008V33.22H8.10008ZM7.10008 2H13.7001V-2.86102e-06H7.10008V2ZM12.7001 0.999997V33.04H14.7001V0.999997H12.7001ZM12.7001 33.04C12.7001 36.3454 11.9295 38.6091 10.5759 40.0303L12.0242 41.4097C13.8706 39.4709 14.7001 36.6146 14.7001 33.04H12.7001ZM10.5673 40.0395C9.2639 41.4432 7.17959 42.24 4.10008 42.24V44.24C7.50057 44.24 10.2163 43.3568 12.0329 41.4005L10.5673 40.0395ZM23.4018 0.999997V-2.86102e-06H22.5515L22.4148 0.839258L23.4018 0.999997ZM32.3418 0.999997L33.3288 0.839258L33.1921 -2.86102e-06H32.3418V0.999997ZM39.1818 43V44H40.3578L40.1688 42.8393L39.1818 43ZM32.5818 43L31.592 43.1424L31.7154 44H32.5818V43ZM31.3818 34.66L32.3716 34.5176L30.3818 34.66H31.3818ZM31.3818 34.78V35.78H32.3818V34.78H31.3818ZM23.8818 34.78V33.78H23.0172L22.8923 34.6355L23.8818 34.78ZM22.6818 43V44H23.5464L23.6713 43.1445L22.6818 43ZM16.5618 43L15.5748 42.8393L15.3858 44H16.5618V43ZM30.6018 29.08V30.08H31.7534L31.5919 28.9398L30.6018 29.08ZM27.6618 8.32L28.6519 8.17978L28.5302 7.32H27.6618V8.32ZM27.5418 8.32V7.32H26.6709L26.5513 8.18259L27.5418 8.32ZM24.6618 29.08L23.6713 28.9426L23.5135 30.08H24.6618V29.08ZM23.4018 2H32.3418V-2.86102e-06H23.4018V2ZM31.3548 1.16074L38.1948 43.1607L40.1688 42.8393L33.3288 0.839258L31.3548 1.16074ZM39.1818 42H32.5818V44H39.1818V42ZM33.5716 42.8576L32.3716 34.5176L30.392 34.8024L31.592 43.1424L33.5716 42.8576ZM30.3818 34.66V34.78H32.3818V34.66H30.3818ZM31.3818 33.78H23.8818V35.78H31.3818V33.78ZM22.8923 34.6355L21.6923 42.8555L23.6713 43.1445L24.8713 34.9245L22.8923 34.6355ZM22.6818 42H16.5618V44H22.6818V42ZM17.5488 43.1607L24.3888 1.16074L22.4148 0.839258L15.5748 42.8393L17.5488 43.1607ZM31.5919 28.9398L28.6519 8.17978L26.6717 8.46022L29.6117 29.2202L31.5919 28.9398ZM27.6618 7.32H27.5418V9.32H27.6618V7.32ZM26.5513 8.18259L23.6713 28.9426L25.6523 29.2174L28.5323 8.45741L26.5513 8.18259ZM24.6618 30.08H30.6018V28.08H24.6618V30.08ZM44.3066 40.9L43.5674 41.5735L43.5756 41.5823L44.3066 40.9ZM44.3066 3.1L43.5755 2.41763L43.5674 2.42651L44.3066 3.1ZM58.7666 3.1L58.0274 3.77354L58.0356 3.78232L58.7666 3.1ZM61.2866 15.16V16.16H62.2866V15.16H61.2866ZM55.0466 15.16H54.0466V16.16H55.0466V15.16ZM55.0466 27.34V26.34H54.0466V27.34H55.0466ZM61.2866 27.34H62.2866V26.34H61.2866V27.34ZM58.7666 40.9L58.0355 40.2176L58.0274 40.2265L58.7666 40.9ZM51.5666 42.6C48.6007 42.6 46.4785 41.7614 45.0377 40.2177L43.5756 41.5823C45.4948 43.6386 48.2126 44.6 51.5666 44.6V42.6ZM45.0458 40.2265C43.6246 38.6666 42.8466 36.3986 42.8466 33.28H40.8466C40.8466 36.7214 41.7087 39.5334 43.5674 41.5735L45.0458 40.2265ZM42.8466 33.28V10.72H40.8466V33.28H42.8466ZM42.8466 10.72C42.8466 7.60139 43.6246 5.33337 45.0458 3.77349L43.5674 2.42651C41.7087 4.46663 40.8466 7.27861 40.8466 10.72H42.8466ZM45.0377 3.78232C46.4785 2.23864 48.6007 1.4 51.5666 1.4V-0.600002C48.2126 -0.600002 45.4948 0.361356 43.5756 2.41768L45.0377 3.78232ZM51.5666 1.4C54.534 1.4 56.6294 2.23905 58.0274 3.77349L59.5058 2.42651C57.6239 0.36095 54.9193 -0.600002 51.5666 -0.600002V1.4ZM58.0356 3.78232C59.4919 5.3426 60.2866 7.60725 60.2866 10.72H62.2866C62.2866 7.27275 61.4014 4.4574 59.4977 2.41768L58.0356 3.78232ZM60.2866 10.72V15.16H62.2866V10.72H60.2866ZM61.2866 14.16H55.0466V16.16H61.2866V14.16ZM56.0466 15.16V10.3H54.0466V15.16H56.0466ZM56.0466 10.3C56.0466 8.88286 55.7504 7.63356 54.985 6.72906C54.1926 5.79256 53.0486 5.4 51.7466 5.4V7.4C52.6447 7.4 53.1507 7.65744 53.4583 8.02094C53.7929 8.41644 54.0466 9.11714 54.0466 10.3H56.0466ZM51.7466 5.4C50.4447 5.4 49.3007 5.79256 48.5083 6.72906C47.7429 7.63356 47.4466 8.88286 47.4466 10.3H49.4466C49.4466 9.11714 49.7004 8.41644 50.035 8.02094C50.3426 7.65744 50.8486 7.4 51.7466 7.4V5.4ZM47.4466 10.3V33.76H49.4466V10.3H47.4466ZM47.4466 33.76C47.4466 35.1602 47.7442 36.3969 48.5132 37.2918C49.3071 38.2156 50.4496 38.6 51.7466 38.6V36.6C50.8437 36.6 50.3361 36.3444 50.0301 35.9882C49.6991 35.6031 49.4466 34.9198 49.4466 33.76H47.4466ZM51.7466 38.6C53.0437 38.6 54.1861 38.2156 54.9801 37.2918C55.7491 36.3969 56.0466 35.1602 56.0466 33.76H54.0466C54.0466 34.9198 53.7942 35.6031 53.4632 35.9882C53.1571 36.3444 52.6496 36.6 51.7466 36.6V38.6ZM56.0466 33.76V27.34H54.0466V33.76H56.0466ZM55.0466 28.34H61.2866V26.34H55.0466V28.34ZM60.2866 27.34V33.28H62.2866V27.34H60.2866ZM60.2866 33.28C60.2866 36.3928 59.4919 38.6574 58.0356 40.2177L59.4977 41.5823C61.4014 39.5426 62.2866 36.7272 62.2866 33.28H60.2866ZM58.0274 40.2265C56.6294 41.761 54.534 42.6 51.5666 42.6V44.6C54.9193 44.6 57.6239 43.639 59.5058 41.5735L58.0274 40.2265ZM67.4526 40.84L68.1831 40.1571L68.1831 40.1571L67.4526 40.84ZM67.4526 3.16L68.1831 3.84288L68.1831 3.84288L67.4526 3.16ZM82.3326 3.16L81.6021 3.84288L81.6021 3.84288L82.3326 3.16ZM82.3326 40.84L81.6021 40.1571L81.6021 40.1571L82.3326 40.84ZM74.8926 42.6C71.8456 42.6 69.6635 41.7408 68.1831 40.1571L66.7221 41.5229C68.6817 43.6192 71.4595 44.6 74.8926 44.6V42.6ZM68.1831 40.1571C66.6875 38.5572 65.8726 36.233 65.8726 33.04H63.8726C63.8726 36.567 64.7777 39.4428 66.7221 41.5229L68.1831 40.1571ZM65.8726 33.04V10.96H63.8726V33.04H65.8726ZM65.8726 10.96C65.8726 7.76696 66.6875 5.44283 68.1831 3.84288L66.7221 2.47711C64.7777 4.55716 63.8726 7.43303 63.8726 10.96H65.8726ZM68.1831 3.84288C69.6635 2.25921 71.8456 1.4 74.8926 1.4V-0.600002C71.4595 -0.600002 68.6817 0.380783 66.7221 2.47711L68.1831 3.84288ZM74.8926 1.4C77.9395 1.4 80.1217 2.25921 81.6021 3.84288L83.0631 2.47711C81.1035 0.380782 78.3256 -0.600002 74.8926 -0.600002V1.4ZM81.6021 3.84288C83.0977 5.44283 83.9126 7.76696 83.9126 10.96H85.9126C85.9126 7.43303 85.0075 4.55716 83.0631 2.47711L81.6021 3.84288ZM83.9126 10.96V33.04H85.9126V10.96H83.9126ZM83.9126 33.04C83.9126 36.233 83.0977 38.5572 81.6021 40.1571L83.0631 41.5229C85.0075 39.4428 85.9126 36.567 85.9126 33.04H83.9126ZM81.6021 40.1571C80.1217 41.7408 77.9395 42.6 74.8926 42.6V44.6C78.3256 44.6 81.1035 43.6192 83.0631 41.5229L81.6021 40.1571ZM74.8926 38.6C76.2424 38.6 77.4186 38.1823 78.2285 37.2019C79.0082 36.258 79.3126 34.9526 79.3126 33.46H77.3126C77.3126 34.7274 77.0469 35.492 76.6866 35.9281C76.3565 36.3277 75.8228 36.6 74.8926 36.6V38.6ZM79.3126 33.46V10.54H77.3126V33.46H79.3126ZM79.3126 10.54C79.3126 9.04738 79.0082 7.74196 78.2285 6.79812C77.4186 5.81769 76.2424 5.4 74.8926 5.4V7.4C75.8228 7.4 76.3565 7.67231 76.6866 8.07188C77.0469 8.50804 77.3126 9.27261 77.3126 10.54H79.3126ZM74.8926 5.4C73.5428 5.4 72.3665 5.81769 71.5566 6.79812C70.7769 7.74196 70.4726 9.04738 70.4726 10.54H72.4726C72.4726 9.27261 72.7382 8.50804 73.0985 8.07188C73.4286 7.67231 73.9624 7.4 74.8926 7.4V5.4ZM70.4726 10.54V33.46H72.4726V10.54H70.4726ZM70.4726 33.46C70.4726 34.9526 70.7769 36.258 71.5566 37.2019C72.3665 38.1823 73.5428 38.6 74.8926 38.6V36.6C73.9624 36.6 73.4286 36.3277 73.0985 35.9281C72.7382 35.492 72.4726 34.7274 72.4726 33.46H70.4726ZM89.376 0.999997V-2.86102e-06H88.376V0.999997H89.376ZM106.776 3.4L106.06 4.09815L106.069 4.10711L106.776 3.4ZM108.036 17.62L107.152 17.1521L107.147 17.1624L107.142 17.1728L108.036 17.62ZM104.856 20.56L104.471 19.6369L103.856 19.8933V20.56H104.856ZM104.856 20.68H103.856V21.3952L104.533 21.6263L104.856 20.68ZM107.196 40.48L107.903 41.1871L107.903 41.1871L107.196 40.48ZM89.376 43H88.376V44H89.376V43ZM101.496 17.08L100.789 16.3729L100.778 16.3836L100.768 16.3946L101.496 17.08ZM101.676 8.02L100.882 8.62745L100.893 8.64178L100.904 8.65571L101.676 8.02ZM95.976 7V6H94.976V7H95.976ZM95.976 18.1H94.976V19.1H95.976V18.1ZM102.336 36.1L103.067 36.7823L103.078 36.7706L103.089 36.7585L102.336 36.1ZM102.156 25.24L101.391 25.8841L101.409 25.9059L101.429 25.9266L102.156 25.24ZM95.976 24.1V23.1H94.976V24.1H95.976ZM95.976 37H94.976V38H95.976V37ZM89.376 2H99.336V-2.86102e-06H89.376V2ZM99.336 2C102.605 2 104.767 2.77185 106.06 4.0981L107.492 2.7019C105.665 0.828141 102.867 -2.86102e-06 99.336 -2.86102e-06V2ZM106.069 4.10711C107.367 5.40516 108.116 7.51719 108.116 10.66H110.116C110.116 7.2428 109.305 4.51484 107.483 2.69289L106.069 4.10711ZM108.116 10.66V12.34H110.116V10.66H108.116ZM108.116 12.34C108.116 14.399 107.771 15.9826 107.152 17.1521L108.92 18.0879C109.741 16.5374 110.116 14.601 110.116 12.34H108.116ZM107.142 17.1728C106.572 18.3121 105.696 19.1266 104.471 19.6369L105.241 21.4831C106.896 20.7934 108.14 19.6479 108.93 18.0672L107.142 17.1728ZM103.856 20.56V20.68H105.856V20.56H103.856ZM104.533 21.6263C105.949 22.1099 106.979 22.9623 107.674 24.1997C108.383 25.4613 108.776 27.1851 108.776 29.44H110.776C110.776 26.9749 110.349 24.8787 109.418 23.2203C108.473 21.5377 107.043 20.3701 105.179 19.7336L104.533 21.6263ZM108.776 29.44V33.04H110.776V29.44H108.776ZM108.776 33.04C108.776 36.1058 107.966 38.2962 106.489 39.7729L107.903 41.1871C109.866 39.2238 110.776 36.4542 110.776 33.04H108.776ZM106.489 39.7729C105.058 41.2033 102.874 42 99.756 42V44C103.198 44 105.974 43.1167 107.903 41.1871L106.489 39.7729ZM99.756 42H89.376V44H99.756V42ZM90.376 43V0.999997H88.376V43H90.376ZM98.556 19.1C100.035 19.1 101.328 18.7176 102.224 17.7654L100.768 16.3946C100.384 16.8024 99.7167 17.1 98.556 17.1V19.1ZM102.203 17.7871C103.162 16.8278 103.516 15.3586 103.516 13.66H101.516C101.516 15.1614 101.19 15.9722 100.789 16.3729L102.203 17.7871ZM103.516 13.66V11.32H101.516V13.66H103.516ZM103.516 11.32C103.516 9.72061 103.23 8.33348 102.448 7.38429L100.904 8.65571C101.242 9.06652 101.516 9.87939 101.516 11.32H103.516ZM102.47 7.41255C101.699 6.40396 100.509 6 99.156 6V8C100.123 8 100.613 8.27604 100.882 8.62745L102.47 7.41255ZM99.156 6H95.976V8H99.156V6ZM94.976 7V18.1H96.976V7H94.976ZM95.976 19.1H98.556V17.1H95.976V19.1ZM99.756 38C101.076 38 102.251 37.6571 103.067 36.7823L101.605 35.4177C101.301 35.7429 100.756 36 99.756 36V38ZM103.089 36.7585C103.893 35.839 104.176 34.4507 104.176 32.86H102.176C102.176 34.3093 101.899 35.081 101.583 35.4415L103.089 36.7585ZM104.176 32.86V29.2H102.176V32.86H104.176ZM104.176 29.2C104.176 27.2342 103.843 25.5695 102.883 24.5534L101.429 25.9266C101.829 26.3505 102.176 27.3258 102.176 29.2H104.176ZM102.921 24.5959C102.009 23.5125 100.573 23.1 98.916 23.1V25.1C100.299 25.1 101.023 25.4475 101.391 25.8841L102.921 24.5959ZM98.916 23.1H95.976V25.1H98.916V23.1ZM94.976 24.1V37H96.976V24.1H94.976ZM95.976 38H99.756V36H95.976V38ZM123.243 0.999997V-2.86102e-06H122.243V0.999997H123.243ZM140.643 3.4L139.927 4.09815L139.936 4.10711L140.643 3.4ZM141.903 17.62L141.019 17.1521L141.014 17.1624L141.009 17.1728L141.903 17.62ZM138.723 20.56L138.339 19.6369L137.723 19.8933V20.56H138.723ZM138.723 20.68H137.723V21.3952L138.4 21.6263L138.723 20.68ZM141.063 40.48L141.77 41.1871L141.77 41.1871L141.063 40.48ZM123.243 43H122.243V44H123.243V43ZM135.363 17.08L134.656 16.3729L134.645 16.3836L134.635 16.3946L135.363 17.08ZM135.543 8.02L134.749 8.62745L134.76 8.64178L134.771 8.65571L135.543 8.02ZM129.843 7V6H128.843V7H129.843ZM129.843 18.1H128.843V19.1H129.843V18.1ZM136.203 36.1L136.934 36.7823L136.945 36.7706L136.956 36.7585L136.203 36.1ZM136.023 25.24L135.258 25.8841L135.277 25.9059L135.296 25.9266L136.023 25.24ZM129.843 24.1V23.1H128.843V24.1H129.843ZM129.843 37H128.843V38H129.843V37ZM123.243 2H133.203V-2.86102e-06H123.243V2ZM133.203 2C136.472 2 138.634 2.77185 139.927 4.0981L141.359 2.7019C139.532 0.828141 136.734 -2.86102e-06 133.203 -2.86102e-06V2ZM139.936 4.10711C141.234 5.40516 141.983 7.51719 141.983 10.66H143.983C143.983 7.2428 143.172 4.51484 141.35 2.69289L139.936 4.10711ZM141.983 10.66V12.34H143.983V10.66H141.983ZM141.983 12.34C141.983 14.399 141.639 15.9826 141.019 17.1521L142.787 18.0879C143.608 16.5374 143.983 14.601 143.983 12.34H141.983ZM141.009 17.1728C140.439 18.3121 139.563 19.1266 138.339 19.6369L139.108 21.4831C140.763 20.7934 142.007 19.6479 142.798 18.0672L141.009 17.1728ZM137.723 20.56V20.68H139.723V20.56H137.723ZM138.4 21.6263C139.816 22.1099 140.846 22.9623 141.541 24.1997C142.25 25.4613 142.643 27.1851 142.643 29.44H144.643C144.643 26.9749 144.217 24.8787 143.285 23.2203C142.34 21.5377 140.91 20.3701 139.046 19.7336L138.4 21.6263ZM142.643 29.44V33.04H144.643V29.44H142.643ZM142.643 33.04C142.643 36.1058 141.833 38.2962 140.356 39.7729L141.77 41.1871C143.734 39.2238 144.643 36.4542 144.643 33.04H142.643ZM140.356 39.7729C138.926 41.2033 136.741 42 133.623 42V44C137.065 44 139.841 43.1167 141.77 41.1871L140.356 39.7729ZM133.623 42H123.243V44H133.623V42ZM124.243 43V0.999997H122.243V43H124.243ZM132.423 19.1C133.903 19.1 135.195 18.7176 136.091 17.7654L134.635 16.3946C134.251 16.8024 133.584 17.1 132.423 17.1V19.1ZM136.07 17.7871C137.03 16.8278 137.383 15.3586 137.383 13.66H135.383C135.383 15.1614 135.057 15.9722 134.656 16.3729L136.07 17.7871ZM137.383 13.66V11.32H135.383V13.66H137.383ZM137.383 11.32C137.383 9.72061 137.097 8.33348 136.315 7.38429L134.771 8.65571C135.11 9.06652 135.383 9.87939 135.383 11.32H137.383ZM136.338 7.41255C135.566 6.40396 134.376 6 133.023 6V8C133.991 8 134.48 8.27604 134.749 8.62745L136.338 7.41255ZM133.023 6H129.843V8H133.023V6ZM128.843 7V18.1H130.843V7H128.843ZM129.843 19.1H132.423V17.1H129.843V19.1ZM133.623 38C134.943 38 136.118 37.6571 136.934 36.7823L135.472 35.4177C135.169 35.7429 134.623 36 133.623 36V38ZM136.956 36.7585C137.76 35.839 138.043 34.4507 138.043 32.86H136.043C136.043 34.3093 135.766 35.081 135.451 35.4415L136.956 36.7585ZM138.043 32.86V29.2H136.043V32.86H138.043ZM138.043 29.2C138.043 27.2342 137.71 25.5695 136.75 24.5534L135.296 25.9266C135.696 26.3505 136.043 27.3258 136.043 29.2H138.043ZM136.788 24.5959C135.876 23.5125 134.441 23.1 132.783 23.1V25.1C134.166 25.1 134.891 25.4475 135.258 25.8841L136.788 24.5959ZM132.783 23.1H129.843V25.1H132.783V23.1ZM128.843 24.1V37H130.843V24.1H128.843ZM129.843 38H133.623V36H129.843V38ZM152.601 0.999997V-2.86102e-06H151.751L151.614 0.839258L152.601 0.999997ZM161.541 0.999997L162.528 0.839258L162.391 -2.86102e-06H161.541V0.999997ZM168.381 43V44H169.557L169.368 42.8393L168.381 43ZM161.781 43L160.791 43.1424L160.915 44H161.781V43ZM160.581 34.66L161.571 34.5176L159.581 34.66H160.581ZM160.581 34.78V35.78H161.581V34.78H160.581ZM153.081 34.78V33.78H152.216L152.092 34.6355L153.081 34.78ZM151.881 43V44H152.746L152.871 43.1445L151.881 43ZM145.761 43L144.774 42.8393L144.585 44H145.761V43ZM159.801 29.08V30.08H160.953L160.791 28.9398L159.801 29.08ZM156.861 8.32L157.851 8.17978L157.729 7.32H156.861V8.32ZM156.741 8.32V7.32H155.87L155.751 8.18259L156.741 8.32ZM153.861 29.08L152.871 28.9426L152.713 30.08H153.861V29.08ZM152.601 2H161.541V-2.86102e-06H152.601V2ZM160.554 1.16074L167.394 43.1607L169.368 42.8393L162.528 0.839258L160.554 1.16074ZM168.381 42H161.781V44H168.381V42ZM162.771 42.8576L161.571 34.5176L159.591 34.8024L160.791 43.1424L162.771 42.8576ZM159.581 34.66V34.78H161.581V34.66H159.581ZM160.581 33.78H153.081V35.78H160.581V33.78ZM152.092 34.6355L150.892 42.8555L152.871 43.1445L154.071 34.9245L152.092 34.6355ZM151.881 42H145.761V44H151.881V42ZM146.748 43.1607L153.588 1.16074L151.614 0.839258L144.774 42.8393L146.748 43.1607ZM160.791 28.9398L157.851 8.17978L155.871 8.46022L158.811 29.2202L160.791 28.9398ZM156.861 7.32H156.741V9.32H156.861V7.32ZM155.751 8.18259L152.871 28.9426L154.852 29.2174L157.732 8.45741L155.751 8.18259ZM153.861 30.08H159.801V28.08H153.861V30.08ZM171.583 0.999997V-2.86102e-06H170.583V0.999997H171.583ZM189.583 0.999997H190.583V-2.86102e-06H189.583V0.999997ZM189.583 7V8H190.583V7H189.583ZM178.183 7V6H177.183V7H178.183ZM178.183 18.1H177.183V19.1H178.183V18.1ZM187.243 18.1H188.243V17.1H187.243V18.1ZM187.243 24.1V25.1H188.243V24.1H187.243ZM178.183 24.1V23.1H177.183V24.1H178.183ZM178.183 37H177.183V38H178.183V37ZM189.583 37H190.583V36H189.583V37ZM189.583 43V44H190.583V43H189.583ZM171.583 43H170.583V44H171.583V43ZM171.583 2H189.583V-2.86102e-06H171.583V2ZM188.583 0.999997V7H190.583V0.999997H188.583ZM189.583 6H178.183V8H189.583V6ZM177.183 7V18.1H179.183V7H177.183ZM178.183 19.1H187.243V17.1H178.183V19.1ZM186.243 18.1V24.1H188.243V18.1H186.243ZM187.243 23.1H178.183V25.1H187.243V23.1ZM177.183 24.1V37H179.183V24.1H177.183ZM178.183 38H189.583V36H178.183V38ZM188.583 37V43H190.583V37H188.583ZM189.583 42H171.583V44H189.583V42ZM172.583 43V0.999997H170.583V43H172.583Z" fill="#E3D8B7"/>
</g>
<defs>
<filter id="filter0_i_198_10" x="1.04004" y="0.399994" width="188.543" height="47.2" filterUnits="userSpaceOnUse" color-interpolation-filters="sRGB">
<feFlood flood-opacity="0" result="BackgroundImageFix"/>
<feBlend mode="normal" in="SourceGraphic" in2="BackgroundImageFix" result="shape"/>
<feColorMatrix in="SourceAlpha" type="matrix" values="0 0 0 0 0 0 0 0 0 0 0 0 0 0 0 0 0 0 127 0" result="hardAlpha"/>
<feOffset dy="4"/>
<feGaussianBlur stdDeviation="2"/>
<feComposite in2="hardAlpha" operator="arithmetic" k2="-1" k3="1"/>
<feColorMatrix type="matrix" values="0 0 0 0 1 0 0 0 0 1 0 0 0 0 1 0 0 0 1 0"/>
<feBlend mode="normal" in2="shape" result="effect1_innerShadow_198_10"/>
</filter>
</defs>
</svg>
