<svg width="132" height="47" viewBox="0 0 132 47" fill="none" xmlns="http://www.w3.org/2000/svg">
<g filter="url(#filter0_i_198_8)">
<path d="M8.8933 37.448C6.50397 37.448 4.6821 36.776 3.4277 35.432C2.1733 34.0581 1.5461 32.1019 1.5461 29.5632V28.9808H6.2053V29.8768C6.2053 31.9376 7.0565 32.968 8.7589 32.968C9.68477 32.968 10.3717 32.6843 10.8197 32.1168C11.2677 31.5493 11.4917 30.5488 11.4917 29.1152V23.112H11.4021C10.536 24.9339 9.04264 25.8448 6.9221 25.8448C5.1301 25.8448 3.77117 25.2325 2.8453 24.008C1.91944 22.7835 1.4565 21.0064 1.4565 18.6768V13.0768C1.4565 10.568 2.09864 8.62667 3.3829 7.2528C4.66717 5.87893 6.5189 5.192 8.9381 5.192C11.3573 5.192 13.209 5.87893 14.4933 7.2528C15.7776 8.62667 16.4197 10.568 16.4197 13.0768V29.2944C16.4197 34.7301 13.9109 37.448 8.8933 37.448ZM8.9381 21.3648C10.6405 21.3648 11.4917 20.3344 11.4917 18.2736V12.7184C11.4917 10.6875 10.6405 9.672 8.9381 9.672C7.2357 9.672 6.3845 10.6875 6.3845 12.7184V18.2736C6.3845 20.3344 7.2357 21.3648 8.9381 21.3648ZM29.5188 10.12H19.5732V5.64H34.3572V9.9408L26.6516 37H21.634L29.5188 10.12ZM37.1075 19.08H46.9635V23.56H37.1075V19.08ZM57.0225 37.448C54.6033 37.448 52.7516 36.7611 51.4673 35.3872C50.183 34.0133 49.5409 32.072 49.5409 29.5632V13.0768C49.5409 10.568 50.183 8.62667 51.4673 7.2528C52.7516 5.87893 54.6033 5.192 57.0225 5.192C59.4417 5.192 61.2934 5.87893 62.5777 7.2528C63.862 8.62667 64.5041 10.568 64.5041 13.0768V29.5632C64.5041 32.072 63.862 34.0133 62.5777 35.3872C61.2934 36.7611 59.4417 37.448 57.0225 37.448ZM57.0225 32.968C58.7249 32.968 59.5761 31.9376 59.5761 29.8768V12.7632C59.5761 10.7024 58.7249 9.672 57.0225 9.672C55.3201 9.672 54.4689 10.7024 54.4689 12.7632V29.8768C54.4689 31.9376 55.3201 32.968 57.0225 32.968ZM75.0496 37.448C72.6603 37.448 70.8384 36.776 69.584 35.432C68.3296 34.0581 67.7024 32.1019 67.7024 29.5632V27.0992H72.3616V29.9216C72.3616 31.9525 73.2128 32.968 74.9152 32.968C76.6176 32.968 77.4688 31.9525 77.4688 29.9216V22.888C77.4688 20.8272 76.6176 19.7968 74.9152 19.7968C73.2128 19.7968 72.3616 20.8272 72.3616 22.888V23.1568H67.7024L68.5984 5.64H81.5904V10.12H72.9888L72.5856 17.6016H72.6752C73.6011 16.0784 75.0197 15.3168 76.9312 15.3168C78.7232 15.3168 80.0821 15.9291 81.008 17.1536C81.9339 18.3781 82.3968 20.1552 82.3968 22.4848V29.5632C82.3968 32.1019 81.7696 34.0581 80.5152 35.432C79.2608 36.776 77.4389 37.448 75.0496 37.448ZM85.0575 19.08H94.9135V23.56H85.0575V19.08ZM104.838 37.448C102.419 37.448 100.582 36.776 99.3277 35.432C98.1032 34.088 97.4909 32.1616 97.4909 29.6528V27.0992H102.15V29.8768C102.15 31.9376 103.001 32.968 104.704 32.968C105.54 32.968 106.167 32.7141 106.585 32.2064C107.033 31.6688 107.257 30.7429 107.257 29.4288V26.8752C107.257 25.4416 107.003 24.4261 106.496 23.8288C105.988 23.2016 105.167 22.888 104.032 22.888H102.374V18.408H104.166C105.152 18.408 105.883 18.1541 106.361 17.6464C106.869 17.1387 107.123 16.2875 107.123 15.0928V12.808C107.123 11.7328 106.899 10.9413 106.451 10.4336C106.003 9.92587 105.406 9.672 104.659 9.672C103.076 9.672 102.285 10.6427 102.285 12.584V14.6448H97.6253V12.9872C97.6253 10.4784 98.2376 8.552 99.4621 7.208C100.717 5.864 102.509 5.192 104.838 5.192C107.198 5.192 108.99 5.864 110.214 7.208C111.439 8.52213 112.051 10.4336 112.051 12.9424V14.0624C112.051 15.7648 111.767 17.1387 111.2 18.184C110.632 19.1995 109.751 19.9312 108.557 20.3792V20.4688C109.841 20.9467 110.767 21.7232 111.334 22.7984C111.902 23.8736 112.185 25.2475 112.185 26.92V29.6976C112.185 32.2064 111.558 34.1328 110.304 35.4768C109.079 36.7909 107.257 37.448 104.838 37.448ZM122.91 37.448C120.491 37.448 118.639 36.7611 117.355 35.3872C116.071 34.0133 115.428 32.072 115.428 29.5632V13.0768C115.428 10.568 116.071 8.62667 117.355 7.2528C118.639 5.87893 120.491 5.192 122.91 5.192C125.329 5.192 127.181 5.87893 128.465 7.2528C129.749 8.62667 130.392 10.568 130.392 13.0768V29.5632C130.392 32.072 129.749 34.0133 128.465 35.3872C127.181 36.7611 125.329 37.448 122.91 37.448ZM122.91 32.968C124.612 32.968 125.464 31.9376 125.464 29.8768V12.7632C125.464 10.7024 124.612 9.672 122.91 9.672C121.208 9.672 120.356 10.7024 120.356 12.7632V29.8768C120.356 31.9376 121.208 32.968 122.91 32.968Z" fill="#E3D8B7"/>
</g>
<defs>
<filter id="filter0_i_198_8" x="1.45605" y="5.192" width="128.936" height="36.256" filterUnits="userSpaceOnUse" color-interpolation-filters="sRGB">
<feFlood flood-opacity="0" result="BackgroundImageFix"/>
<feBlend mode="normal" in="SourceGraphic" in2="BackgroundImageFix" result="shape"/>
<feColorMatrix in="SourceAlpha" type="matrix" values="0 0 0 0 0 0 0 0 0 0 0 0 0 0 0 0 0 0 127 0" result="hardAlpha"/>
<feOffset dy="4"/>
<feGaussianBlur stdDeviation="2"/>
<feComposite in2="hardAlpha" operator="arithmetic" k2="-1" k3="1"/>
<feColorMatrix type="matrix" values="0 0 0 0 1 0 0 0 0 1 0 0 0 0 1 0 0 0 1 0"/>
<feBlend mode="normal" in2="shape" result="effect1_innerShadow_198_8"/>
</filter>
</defs>
</svg>
