<svg width="298" height="49" viewBox="0 0 298 49" fill="none" xmlns="http://www.w3.org/2000/svg">
<g filter="url(#filter0_i_198_58)">
<path d="M11.0947 43.6C7.89469 43.6 5.47469 42.7 3.83469 40.9C2.19469 39.06 1.37469 36.44 1.37469 33.04V30.64H7.61469V33.52C7.61469 36.24 8.75469 37.6 11.0347 37.6C12.1547 37.6 12.9947 37.28 13.5547 36.64C14.1547 35.96 14.4547 34.88 14.4547 33.4C14.4547 31.64 14.0547 30.1 13.2547 28.78C12.4547 27.42 10.9747 25.8 8.81469 23.92C6.09469 21.52 4.19469 19.36 3.11469 17.44C2.03469 15.48 1.49469 13.28 1.49469 10.84C1.49469 7.52 2.33469 4.96 4.01469 3.16C5.69469 1.32 8.13469 0.399998 11.3347 0.399998C14.4947 0.399998 16.8747 1.32 18.4747 3.16C20.1147 4.96 20.9347 7.56 20.9347 10.96V12.7H14.6947V10.54C14.6947 9.1 14.4147 8.06 13.8547 7.42C13.2947 6.74 12.4747 6.4 11.3947 6.4C9.19469 6.4 8.09469 7.74 8.09469 10.42C8.09469 11.94 8.49469 13.36 9.29469 14.68C10.1347 16 11.6347 17.6 13.7947 19.48C16.5547 21.88 18.4547 24.06 19.4947 26.02C20.5347 27.98 21.0547 30.28 21.0547 32.92C21.0547 36.36 20.1947 39 18.4747 40.84C16.7947 42.68 14.3347 43.6 11.0947 43.6ZM34.3789 43.6C31.1389 43.6 28.6589 42.68 26.9389 40.84C25.2189 39 24.3589 36.4 24.3589 33.04V10.96C24.3589 7.6 25.2189 5 26.9389 3.16C28.6589 1.32 31.1389 0.399998 34.3789 0.399998C37.6189 0.399998 40.0989 1.32 41.8189 3.16C43.5389 5 44.3989 7.6 44.3989 10.96V33.04C44.3989 36.4 43.5389 39 41.8189 40.84C40.0989 42.68 37.6189 43.6 34.3789 43.6ZM34.3789 37.6C36.6589 37.6 37.7989 36.22 37.7989 33.46V10.54C37.7989 7.78 36.6589 6.4 34.3789 6.4C32.0989 6.4 30.9589 7.78 30.9589 10.54V33.46C30.9589 36.22 32.0989 37.6 34.3789 37.6ZM48.8623 0.999997H55.4623V18.1H62.5423V0.999997H69.1423V43H62.5423V24.1H55.4623V43H48.8623V0.999997ZM74.0577 0.999997H82.3377L88.7577 26.14H88.8777V0.999997H94.7577V43H87.9777L80.0577 12.34H79.9377V43H74.0577V0.999997ZM115.333 25.12L107.353 0.999997H114.373L118.873 16.42H118.993L123.493 0.999997H129.913L121.933 25.12V43H115.333V25.12ZM141.371 43.6C138.131 43.6 135.651 42.68 133.931 40.84C132.211 39 131.351 36.4 131.351 33.04V10.96C131.351 7.6 132.211 5 133.931 3.16C135.651 1.32 138.131 0.399998 141.371 0.399998C144.611 0.399998 147.091 1.32 148.811 3.16C150.531 5 151.391 7.6 151.391 10.96V33.04C151.391 36.4 150.531 39 148.811 40.84C147.091 42.68 144.611 43.6 141.371 43.6ZM141.371 37.6C143.651 37.6 144.791 36.22 144.791 33.46V10.54C144.791 7.78 143.651 6.4 141.371 6.4C139.091 6.4 137.951 7.78 137.951 10.54V33.46C137.951 36.22 139.091 37.6 141.371 37.6ZM165.455 43.6C162.255 43.6 159.815 42.7 158.135 40.9C156.455 39.06 155.615 36.44 155.615 33.04V0.999997H162.215V33.52C162.215 34.96 162.495 36 163.055 36.64C163.655 37.28 164.495 37.6 165.575 37.6C166.655 37.6 167.475 37.28 168.035 36.64C168.635 36 168.935 34.96 168.935 33.52V0.999997H175.295V33.04C175.295 36.44 174.455 39.06 172.775 40.9C171.095 42.7 168.655 43.6 165.455 43.6ZM179.995 0.999997H188.275L194.695 26.14H194.815V0.999997H200.695V43H193.915L185.995 12.34H185.875V43H179.995V0.999997ZM214.961 43.6C211.761 43.6 209.321 42.7 207.641 40.9C205.961 39.06 205.121 36.44 205.121 33.04V10.96C205.121 7.56 205.961 4.96 207.641 3.16C209.321 1.32 211.761 0.399998 214.961 0.399998C218.161 0.399998 220.601 1.32 222.281 3.16C223.961 4.96 224.801 7.56 224.801 10.96V14.56H218.561V10.54C218.561 7.78 217.421 6.4 215.141 6.4C212.861 6.4 211.721 7.78 211.721 10.54V33.52C211.721 36.24 212.861 37.6 215.141 37.6C217.421 37.6 218.561 36.24 218.561 33.52V25.3H215.261V19.3H224.801V33.04C224.801 36.44 223.961 39.06 222.281 40.9C220.601 42.7 218.161 43.6 214.961 43.6ZM240.208 43.24C239.008 43.24 237.988 43.16 237.148 43V37C237.788 37.16 238.508 37.24 239.308 37.24C240.628 37.24 241.608 36.92 242.248 36.28C242.888 35.6 243.208 34.58 243.208 33.22V0.999997H249.808V33.04C249.808 36.48 249.008 39.04 247.408 40.72C245.848 42.4 243.448 43.24 240.208 43.24ZM259.626 0.999997H268.566L275.406 43H268.806L267.606 34.66V34.78H260.106L258.906 43H252.786L259.626 0.999997ZM266.826 29.08L263.886 8.32H263.766L260.886 29.08H266.826ZM278.608 0.999997H296.608V7H285.208V18.1H294.268V24.1H285.208V37H296.608V43H278.608V0.999997Z" fill="#FFC1D5"/>
<path d="M3.83469 40.9L3.08813 41.5654L3.09549 41.5735L3.83469 40.9ZM1.37469 30.64V29.64H0.374688V30.64H1.37469ZM7.61469 30.64H8.61469V29.64H7.61469V30.64ZM13.5547 36.64L12.8048 35.9784L12.8021 35.9815L13.5547 36.64ZM13.2547 28.78L12.3927 29.2871L12.3995 29.2983L13.2547 28.78ZM8.81469 23.92L8.15305 24.6699L8.15816 24.6743L8.81469 23.92ZM3.11469 17.44L2.23882 17.9226L2.24311 17.9303L3.11469 17.44ZM4.01469 3.16L4.74579 3.84236L4.75317 3.83427L4.01469 3.16ZM18.4747 3.16L17.7201 3.81618L17.7277 3.82492L17.7355 3.83349L18.4747 3.16ZM20.9347 12.7V13.7H21.9347V12.7H20.9347ZM14.6947 12.7H13.6947V13.7H14.6947V12.7ZM13.8547 7.42L13.0828 8.0557L13.0923 8.06725L13.1021 8.0785L13.8547 7.42ZM9.29469 14.68L8.43949 15.1983L8.44516 15.2076L8.45103 15.2169L9.29469 14.68ZM13.7947 19.48L13.1382 20.2343L13.1385 20.2346L13.7947 19.48ZM19.4947 26.02L18.6113 26.4887L18.6113 26.4887L19.4947 26.02ZM18.4747 40.84L17.7441 40.1571L17.7362 40.1657L18.4747 40.84ZM11.0947 42.6C8.08289 42.6 5.96962 41.7584 4.57388 40.2265L3.09549 41.5735C4.97976 43.6416 7.70648 44.6 11.0947 44.6V42.6ZM4.5812 40.2346C3.15745 38.6373 2.37469 36.288 2.37469 33.04H0.374688C0.374688 36.592 1.23192 39.4827 3.08817 41.5654L4.5812 40.2346ZM2.37469 33.04V30.64H0.374688V33.04H2.37469ZM1.37469 31.64H7.61469V29.64H1.37469V31.64ZM6.61469 30.64V33.52H8.61469V30.64H6.61469ZM6.61469 33.52C6.61469 34.9953 6.92018 36.2881 7.70332 37.2224C8.51478 38.1905 9.68967 38.6 11.0347 38.6V36.6C10.0997 36.6 9.56459 36.3295 9.23606 35.9376C8.87919 35.5119 8.61469 34.7647 8.61469 33.52H6.61469ZM11.0347 38.6C12.3461 38.6 13.5017 38.2191 14.3073 37.2985L12.8021 35.9815C12.4877 36.3409 11.9633 36.6 11.0347 36.6V38.6ZM14.3045 37.3016C15.1408 36.3539 15.4547 34.9793 15.4547 33.4H13.4547C13.4547 34.7807 13.1686 35.5661 12.8049 35.9784L14.3045 37.3016ZM15.4547 33.4C15.4547 31.4834 15.0173 29.759 14.1099 28.2617L12.3995 29.2983C13.0921 30.441 13.4547 31.7966 13.4547 33.4H15.4547ZM14.1166 28.273C13.2343 26.7731 11.6576 25.0687 9.47121 23.1657L8.15816 24.6743C10.2917 26.5313 11.675 28.0669 12.3928 29.287L14.1166 28.273ZM9.47631 23.1702C6.79332 20.8028 4.98726 18.7293 3.98626 16.9497L2.24311 17.9303C3.40211 19.9907 5.39606 22.2372 8.15307 24.6698L9.47631 23.1702ZM3.99053 16.9574C2.9992 15.1583 2.49469 13.1269 2.49469 10.84H0.494688C0.494688 13.4331 1.07017 15.8017 2.23885 17.9226L3.99053 16.9574ZM2.49469 10.84C2.49469 7.68343 3.29142 5.40052 4.74574 3.84232L3.28363 2.47768C1.37795 4.51948 0.494688 7.35657 0.494688 10.84H2.49469ZM4.75317 3.83427C6.19319 2.2571 8.33083 1.4 11.3347 1.4V-0.600002C7.93855 -0.600002 5.19618 0.382895 3.2762 2.48573L4.75317 3.83427ZM11.3347 1.4C14.2967 1.4 16.3627 2.25524 17.7201 3.81618L19.2293 2.50382C17.3866 0.384755 14.6927 -0.600002 11.3347 -0.600002V1.4ZM17.7355 3.83349C19.1512 5.38736 19.9347 7.71023 19.9347 10.96H21.9347C21.9347 7.40977 21.0781 4.53264 19.2139 2.48651L17.7355 3.83349ZM19.9347 10.96V12.7H21.9347V10.96H19.9347ZM20.9347 11.7H14.6947V13.7H20.9347V11.7ZM15.6947 12.7V10.54H13.6947V12.7H15.6947ZM15.6947 10.54C15.6947 9.01251 15.4055 7.67373 14.6073 6.76149L13.1021 8.0785C13.4239 8.44627 13.6947 9.18749 13.6947 10.54H15.6947ZM14.6266 6.78429C13.8341 5.82192 12.6994 5.4 11.3947 5.4V7.4C12.25 7.4 12.7553 7.65808 13.0828 8.0557L14.6266 6.78429ZM11.3947 5.4C10.0828 5.4 8.93598 5.80909 8.14676 6.77051C7.38855 7.69414 7.09469 8.96854 7.09469 10.42H9.09469C9.09469 9.19145 9.35082 8.45586 9.69262 8.03949C10.0034 7.66091 10.5066 7.4 11.3947 7.4V5.4ZM7.09469 10.42C7.09469 12.1257 7.54631 13.7246 8.43949 15.1983L10.1499 14.1617C9.44306 12.9954 9.09469 11.7543 9.09469 10.42H7.09469ZM8.45103 15.2169C9.36885 16.6592 10.9552 18.3343 13.1382 20.2343L14.4512 18.7257C12.3142 16.8657 10.9005 15.3408 10.1384 14.1431L8.45103 15.2169ZM13.1385 20.2346C15.858 22.5994 17.6542 24.6849 18.6113 26.4887L20.378 25.5513C19.2552 23.4351 17.2513 21.1606 14.4509 18.7254L13.1385 20.2346ZM18.6113 26.4887C19.5615 28.2793 20.0547 30.4125 20.0547 32.92H22.0547C22.0547 30.1475 21.5079 27.6807 20.378 25.5513L18.6113 26.4887ZM20.0547 32.92C20.0547 36.2005 19.236 38.5612 17.7442 40.1571L19.2052 41.5229C21.1534 39.4388 22.0547 36.5195 22.0547 32.92H20.0547ZM17.7362 40.1657C16.2985 41.7404 14.143 42.6 11.0947 42.6V44.6C14.5264 44.6 17.2909 43.6196 19.2132 41.5143L17.7362 40.1657ZM26.9389 40.84L27.6694 40.1571L27.6694 40.1571L26.9389 40.84ZM26.9389 3.16L27.6694 3.84288L27.6694 3.84288L26.9389 3.16ZM41.8189 3.16L41.0884 3.84288L41.0884 3.84288L41.8189 3.16ZM41.8189 40.84L41.0884 40.1571L41.0884 40.1571L41.8189 40.84ZM34.3789 42.6C31.332 42.6 29.1498 41.7408 27.6694 40.1571L26.2084 41.5229C28.168 43.6192 30.9458 44.6 34.3789 44.6V42.6ZM27.6694 40.1571C26.1738 38.5572 25.3589 36.233 25.3589 33.04H23.3589C23.3589 36.567 24.264 39.4428 26.2084 41.5229L27.6694 40.1571ZM25.3589 33.04V10.96H23.3589V33.04H25.3589ZM25.3589 10.96C25.3589 7.76696 26.1738 5.44283 27.6694 3.84288L26.2084 2.47711C24.264 4.55716 23.3589 7.43303 23.3589 10.96H25.3589ZM27.6694 3.84288C29.1498 2.25921 31.332 1.4 34.3789 1.4V-0.600002C30.9458 -0.600002 28.168 0.380783 26.2084 2.47711L27.6694 3.84288ZM34.3789 1.4C37.4258 1.4 39.608 2.25921 41.0884 3.84288L42.5494 2.47711C40.5898 0.380782 37.812 -0.600002 34.3789 -0.600002V1.4ZM41.0884 3.84288C42.584 5.44283 43.3989 7.76696 43.3989 10.96H45.3989C45.3989 7.43303 44.4938 4.55716 42.5494 2.47711L41.0884 3.84288ZM43.3989 10.96V33.04H45.3989V10.96H43.3989ZM43.3989 33.04C43.3989 36.233 42.584 38.5572 41.0884 40.1571L42.5494 41.5229C44.4938 39.4428 45.3989 36.567 45.3989 33.04H43.3989ZM41.0884 40.1571C39.608 41.7408 37.4258 42.6 34.3789 42.6V44.6C37.812 44.6 40.5898 43.6192 42.5494 41.5229L41.0884 40.1571ZM34.3789 38.6C35.7287 38.6 36.905 38.1823 37.7149 37.2019C38.4946 36.258 38.7989 34.9526 38.7989 33.46H36.7989C36.7989 34.7274 36.5333 35.492 36.1729 35.9281C35.8429 36.3277 35.3091 36.6 34.3789 36.6V38.6ZM38.7989 33.46V10.54H36.7989V33.46H38.7989ZM38.7989 10.54C38.7989 9.04738 38.4946 7.74196 37.7149 6.79812C36.905 5.81769 35.7287 5.4 34.3789 5.4V7.4C35.3091 7.4 35.8429 7.67231 36.1729 8.07188C36.5333 8.50804 36.7989 9.27261 36.7989 10.54H38.7989ZM34.3789 5.4C33.0291 5.4 31.8529 5.81769 31.0429 6.79812C30.2633 7.74196 29.9589 9.04738 29.9589 10.54H31.9589C31.9589 9.27261 32.2246 8.50804 32.5849 8.07188C32.915 7.67231 33.4487 7.4 34.3789 7.4V5.4ZM29.9589 10.54V33.46H31.9589V10.54H29.9589ZM29.9589 33.46C29.9589 34.9526 30.2633 36.258 31.0429 37.2019C31.8529 38.1823 33.0291 38.6 34.3789 38.6V36.6C33.4487 36.6 32.915 36.3277 32.5849 35.9281C32.2246 35.492 31.9589 34.7274 31.9589 33.46H29.9589ZM48.8623 0.999997V-2.86102e-06H47.8623V0.999997H48.8623ZM55.4623 0.999997H56.4623V-2.86102e-06H55.4623V0.999997ZM55.4623 18.1H54.4623V19.1H55.4623V18.1ZM62.5423 18.1V19.1H63.5423V18.1H62.5423ZM62.5423 0.999997V-2.86102e-06H61.5423V0.999997H62.5423ZM69.1423 0.999997H70.1423V-2.86102e-06H69.1423V0.999997ZM69.1423 43V44H70.1423V43H69.1423ZM62.5423 43H61.5423V44H62.5423V43ZM62.5423 24.1H63.5423V23.1H62.5423V24.1ZM55.4623 24.1V23.1H54.4623V24.1H55.4623ZM55.4623 43V44H56.4623V43H55.4623ZM48.8623 43H47.8623V44H48.8623V43ZM48.8623 2H55.4623V-2.86102e-06H48.8623V2ZM54.4623 0.999997V18.1H56.4623V0.999997H54.4623ZM55.4623 19.1H62.5423V17.1H55.4623V19.1ZM63.5423 18.1V0.999997H61.5423V18.1H63.5423ZM62.5423 2H69.1423V-2.86102e-06H62.5423V2ZM68.1423 0.999997V43H70.1423V0.999997H68.1423ZM69.1423 42H62.5423V44H69.1423V42ZM63.5423 43V24.1H61.5423V43H63.5423ZM62.5423 23.1H55.4623V25.1H62.5423V23.1ZM54.4623 24.1V43H56.4623V24.1H54.4623ZM55.4623 42H48.8623V44H55.4623V42ZM49.8623 43V0.999997H47.8623V43H49.8623ZM74.0577 0.999997V-2.86102e-06H73.0577V0.999997H74.0577ZM82.3377 0.999997L83.3066 0.752568L83.1144 -2.86102e-06H82.3377V0.999997ZM88.7577 26.14L87.7888 26.3874L87.9809 27.14H88.7577V26.14ZM88.8777 26.14V27.14H89.8777V26.14H88.8777ZM88.8777 0.999997V-2.86102e-06H87.8777V0.999997H88.8777ZM94.7577 0.999997H95.7577V-2.86102e-06H94.7577V0.999997ZM94.7577 43V44H95.7577V43H94.7577ZM87.9777 43L87.0094 43.2501L87.2031 44H87.9777V43ZM80.0577 12.34L81.0259 12.0899L80.8322 11.34H80.0577V12.34ZM79.9377 12.34V11.34H78.9377V12.34H79.9377ZM79.9377 43V44H80.9377V43H79.9377ZM74.0577 43H73.0577V44H74.0577V43ZM74.0577 2H82.3377V-2.86102e-06H74.0577V2ZM81.3688 1.24743L87.7888 26.3874L89.7266 25.8926L83.3066 0.752568L81.3688 1.24743ZM88.7577 27.14H88.8777V25.14H88.7577V27.14ZM89.8777 26.14V0.999997H87.8777V26.14H89.8777ZM88.8777 2H94.7577V-2.86102e-06H88.8777V2ZM93.7577 0.999997V43H95.7577V0.999997H93.7577ZM94.7577 42H87.9777V44H94.7577V42ZM88.9459 42.7499L81.0259 12.0899L79.0894 12.5901L87.0094 43.2501L88.9459 42.7499ZM80.0577 11.34H79.9377V13.34H80.0577V11.34ZM78.9377 12.34V43H80.9377V12.34H78.9377ZM79.9377 42H74.0577V44H79.9377V42ZM75.0577 43V0.999997H73.0577V43H75.0577ZM115.333 25.12H116.333V24.9589L116.282 24.8059L115.333 25.12ZM107.353 0.999997V-2.86102e-06H105.968L106.403 1.3141L107.353 0.999997ZM114.373 0.999997L115.332 0.719854L115.122 -2.86102e-06H114.373V0.999997ZM118.873 16.42L117.913 16.7001L118.123 17.42H118.873V16.42ZM118.993 16.42V17.42H119.742L119.952 16.7001L118.993 16.42ZM123.493 0.999997V-2.86102e-06H122.743L122.533 0.719854L123.493 0.999997ZM129.913 0.999997L130.862 1.3141L131.297 -2.86102e-06H129.913V0.999997ZM121.933 25.12L120.983 24.8059L120.933 24.9589V25.12H121.933ZM121.933 43V44H122.933V43H121.933ZM115.333 43H114.333V44H115.333V43ZM116.282 24.8059L108.302 0.685896L106.403 1.3141L114.383 25.4341L116.282 24.8059ZM107.353 2H114.373V-2.86102e-06H107.353V2ZM113.413 1.28014L117.913 16.7001L119.832 16.1399L115.332 0.719854L113.413 1.28014ZM118.873 17.42H118.993V15.42H118.873V17.42ZM119.952 16.7001L124.452 1.28014L122.533 0.719854L118.033 16.1399L119.952 16.7001ZM123.493 2H129.913V-2.86102e-06H123.493V2ZM128.963 0.685896L120.983 24.8059L122.882 25.4341L130.862 1.3141L128.963 0.685896ZM120.933 25.12V43H122.933V25.12H120.933ZM121.933 42H115.333V44H121.933V42ZM116.333 43V25.12H114.333V43H116.333ZM133.931 40.84L134.662 40.1571L134.662 40.1571L133.931 40.84ZM133.931 3.16L134.662 3.84288L134.662 3.84288L133.931 3.16ZM148.811 3.16L148.081 3.84288L148.081 3.84288L148.811 3.16ZM148.811 40.84L148.081 40.1571L148.081 40.1571L148.811 40.84ZM141.371 42.6C138.324 42.6 136.142 41.7408 134.662 40.1571L133.201 41.5229C135.16 43.6192 137.938 44.6 141.371 44.6V42.6ZM134.662 40.1571C133.166 38.5572 132.351 36.233 132.351 33.04H130.351C130.351 36.567 131.256 39.4428 133.201 41.5229L134.662 40.1571ZM132.351 33.04V10.96H130.351V33.04H132.351ZM132.351 10.96C132.351 7.76696 133.166 5.44283 134.662 3.84288L133.201 2.47711C131.256 4.55716 130.351 7.43303 130.351 10.96H132.351ZM134.662 3.84288C136.142 2.25921 138.324 1.4 141.371 1.4V-0.600002C137.938 -0.600002 135.16 0.380783 133.201 2.47711L134.662 3.84288ZM141.371 1.4C144.418 1.4 146.6 2.25921 148.081 3.84288L149.542 2.47711C147.582 0.380782 144.804 -0.600002 141.371 -0.600002V1.4ZM148.081 3.84288C149.576 5.44283 150.391 7.76696 150.391 10.96H152.391C152.391 7.43303 151.486 4.55716 149.542 2.47711L148.081 3.84288ZM150.391 10.96V33.04H152.391V10.96H150.391ZM150.391 33.04C150.391 36.233 149.576 38.5572 148.081 40.1571L149.542 41.5229C151.486 39.4428 152.391 36.567 152.391 33.04H150.391ZM148.081 40.1571C146.6 41.7408 144.418 42.6 141.371 42.6V44.6C144.804 44.6 147.582 43.6192 149.542 41.5229L148.081 40.1571ZM141.371 38.6C142.721 38.6 143.897 38.1823 144.707 37.2019C145.487 36.258 145.791 34.9526 145.791 33.46H143.791C143.791 34.7274 143.525 35.492 143.165 35.9281C142.835 36.3277 142.301 36.6 141.371 36.6V38.6ZM145.791 33.46V10.54H143.791V33.46H145.791ZM145.791 10.54C145.791 9.04738 145.487 7.74196 144.707 6.79812C143.897 5.81769 142.721 5.4 141.371 5.4V7.4C142.301 7.4 142.835 7.67231 143.165 8.07188C143.525 8.50804 143.791 9.27261 143.791 10.54H145.791ZM141.371 5.4C140.021 5.4 138.845 5.81769 138.035 6.79812C137.255 7.74196 136.951 9.04738 136.951 10.54H138.951C138.951 9.27261 139.217 8.50804 139.577 8.07188C139.907 7.67231 140.441 7.4 141.371 7.4V5.4ZM136.951 10.54V33.46H138.951V10.54H136.951ZM136.951 33.46C136.951 34.9526 137.255 36.258 138.035 37.2019C138.845 38.1823 140.021 38.6 141.371 38.6V36.6C140.441 36.6 139.907 36.3277 139.577 35.9281C139.217 35.492 138.951 34.7274 138.951 33.46H136.951ZM158.135 40.9L157.396 41.5743L157.403 41.5823L158.135 40.9ZM155.615 0.999997V-2.86102e-06H154.615V0.999997H155.615ZM162.215 0.999997H163.215V-2.86102e-06H162.215V0.999997ZM163.055 36.64L162.302 37.2985L162.313 37.3114L162.325 37.3239L163.055 36.64ZM168.035 36.64L167.305 35.9561L167.293 35.9686L167.282 35.9815L168.035 36.64ZM168.935 0.999997V-2.86102e-06H167.935V0.999997H168.935ZM175.295 0.999997H176.295V-2.86102e-06H175.295V0.999997ZM172.775 40.9L173.506 41.5824L173.513 41.5743L172.775 40.9ZM165.455 42.6C162.444 42.6 160.304 41.7589 158.866 40.2177L157.403 41.5823C159.325 43.6411 162.065 44.6 165.455 44.6V42.6ZM158.873 40.2257C157.414 38.6282 156.615 36.2824 156.615 33.04H154.615C154.615 36.5976 155.495 39.4918 157.396 41.5743L158.873 40.2257ZM156.615 33.04V0.999997H154.615V33.04H156.615ZM155.615 2H162.215V-2.86102e-06H155.615V2ZM161.215 0.999997V33.52H163.215V0.999997H161.215ZM161.215 33.52C161.215 35.0475 161.504 36.3863 162.302 37.2985L163.807 35.9815C163.485 35.6137 163.215 34.8725 163.215 33.52H161.215ZM162.325 37.3239C163.156 38.2107 164.287 38.6 165.575 38.6V36.6C164.702 36.6 164.153 36.3493 163.784 35.9561L162.325 37.3239ZM165.575 38.6C166.859 38.6 167.988 38.2114 168.787 37.2985L167.282 35.9815C166.961 36.3486 166.45 36.6 165.575 36.6V38.6ZM168.764 37.3239C169.62 36.4107 169.935 35.0604 169.935 33.52H167.935C167.935 34.8596 167.649 35.5893 167.305 35.9561L168.764 37.3239ZM169.935 33.52V0.999997H167.935V33.52H169.935ZM168.935 2H175.295V-2.86102e-06H168.935V2ZM174.295 0.999997V33.04H176.295V0.999997H174.295ZM174.295 33.04C174.295 36.2824 173.495 38.6282 172.036 40.2257L173.513 41.5743C175.414 39.4918 176.295 36.5976 176.295 33.04H174.295ZM172.043 40.2177C170.605 41.7589 168.465 42.6 165.455 42.6V44.6C168.844 44.6 171.584 43.6411 173.506 41.5823L172.043 40.2177ZM179.995 0.999997V-2.86102e-06H178.995V0.999997H179.995ZM188.275 0.999997L189.244 0.752568L189.052 -2.86102e-06H188.275V0.999997ZM194.695 26.14L193.726 26.3874L193.918 27.14H194.695V26.14ZM194.815 26.14V27.14H195.815V26.14H194.815ZM194.815 0.999997V-2.86102e-06H193.815V0.999997H194.815ZM200.695 0.999997H201.695V-2.86102e-06H200.695V0.999997ZM200.695 43V44H201.695V43H200.695ZM193.915 43L192.947 43.2501L193.141 44H193.915V43ZM185.995 12.34L186.963 12.0899L186.77 11.34H185.995V12.34ZM185.875 12.34V11.34H184.875V12.34H185.875ZM185.875 43V44H186.875V43H185.875ZM179.995 43H178.995V44H179.995V43ZM179.995 2H188.275V-2.86102e-06H179.995V2ZM187.306 1.24743L193.726 26.3874L195.664 25.8926L189.244 0.752568L187.306 1.24743ZM194.695 27.14H194.815V25.14H194.695V27.14ZM195.815 26.14V0.999997H193.815V26.14H195.815ZM194.815 2H200.695V-2.86102e-06H194.815V2ZM199.695 0.999997V43H201.695V0.999997H199.695ZM200.695 42H193.915V44H200.695V42ZM194.883 42.7499L186.963 12.0899L185.027 12.5901L192.947 43.2501L194.883 42.7499ZM185.995 11.34H185.875V13.34H185.995V11.34ZM184.875 12.34V43H186.875V12.34H184.875ZM185.875 42H179.995V44H185.875V42ZM180.995 43V0.999997H178.995V43H180.995ZM207.641 40.9L206.902 41.5743L206.91 41.5823L207.641 40.9ZM207.641 3.16L208.372 3.84236L208.379 3.83427L207.641 3.16ZM222.281 3.16L221.542 3.83431L221.55 3.84232L222.281 3.16ZM224.801 14.56V15.56H225.801V14.56H224.801ZM218.561 14.56H217.561V15.56H218.561V14.56ZM218.561 25.3H219.561V24.3H218.561V25.3ZM215.261 25.3H214.261V26.3H215.261V25.3ZM215.261 19.3V18.3H214.261V19.3H215.261ZM224.801 19.3H225.801V18.3H224.801V19.3ZM222.281 40.9L223.012 41.5824L223.019 41.5743L222.281 40.9ZM214.961 42.6C211.95 42.6 209.81 41.7589 208.372 40.2177L206.91 41.5823C208.831 43.6411 211.571 44.6 214.961 44.6V42.6ZM208.379 40.2257C206.92 38.6282 206.121 36.2824 206.121 33.04H204.121C204.121 36.5976 205.001 39.4918 206.902 41.5743L208.379 40.2257ZM206.121 33.04V10.96H204.121V33.04H206.121ZM206.121 10.96C206.121 7.71589 206.921 5.39648 208.372 3.84232L206.91 2.47768C205 4.52352 204.121 7.4041 204.121 10.96H206.121ZM208.379 3.83427C209.819 2.2571 211.957 1.4 214.961 1.4V-0.600002C211.564 -0.600002 208.822 0.382895 206.902 2.48573L208.379 3.83427ZM214.961 1.4C217.964 1.4 220.102 2.2571 221.542 3.83427L223.019 2.48573C221.099 0.382895 218.357 -0.600002 214.961 -0.600002V1.4ZM221.55 3.84232C223 5.39648 223.801 7.71589 223.801 10.96H225.801C225.801 7.4041 224.921 4.52352 223.012 2.47768L221.55 3.84232ZM223.801 10.96V14.56H225.801V10.96H223.801ZM224.801 13.56H218.561V15.56H224.801V13.56ZM219.561 14.56V10.54H217.561V14.56H219.561ZM219.561 10.54C219.561 9.04738 219.256 7.74196 218.477 6.79812C217.667 5.81769 216.49 5.4 215.141 5.4V7.4C216.071 7.4 216.605 7.67231 216.935 8.07188C217.295 8.50804 217.561 9.27261 217.561 10.54H219.561ZM215.141 5.4C213.791 5.4 212.615 5.81769 211.805 6.79812C211.025 7.74196 210.721 9.04738 210.721 10.54H212.721C212.721 9.27261 212.986 8.50804 213.347 8.07188C213.677 7.67231 214.21 7.4 215.141 7.4V5.4ZM210.721 10.54V33.52H212.721V10.54H210.721ZM210.721 33.52C210.721 34.9953 211.026 36.2881 211.809 37.2224C212.621 38.1905 213.796 38.6 215.141 38.6V36.6C214.206 36.6 213.671 36.3295 213.342 35.9376C212.985 35.5119 212.721 34.7647 212.721 33.52H210.721ZM215.141 38.6C216.486 38.6 217.661 38.1905 218.472 37.2224C219.255 36.2881 219.561 34.9953 219.561 33.52H217.561C217.561 34.7647 217.296 35.5119 216.939 35.9376C216.611 36.3295 216.076 36.6 215.141 36.6V38.6ZM219.561 33.52V25.3H217.561V33.52H219.561ZM218.561 24.3H215.261V26.3H218.561V24.3ZM216.261 25.3V19.3H214.261V25.3H216.261ZM215.261 20.3H224.801V18.3H215.261V20.3ZM223.801 19.3V33.04H225.801V19.3H223.801ZM223.801 33.04C223.801 36.2824 223.001 38.6282 221.542 40.2257L223.019 41.5743C224.92 39.4918 225.801 36.5976 225.801 33.04H223.801ZM221.55 40.2177C220.111 41.7589 217.971 42.6 214.961 42.6V44.6C218.35 44.6 221.09 43.6411 223.012 41.5823L221.55 40.2177ZM237.148 43H236.148V43.8275L236.96 43.9823L237.148 43ZM237.148 37L237.39 36.0299L236.148 35.7192V37H237.148ZM242.248 36.28L242.955 36.9871L242.965 36.9764L242.976 36.9654L242.248 36.28ZM243.208 0.999997V-2.86102e-06H242.208V0.999997H243.208ZM249.808 0.999997H250.808V-2.86102e-06H249.808V0.999997ZM247.408 40.72L246.683 40.0303L246.675 40.0395L247.408 40.72ZM240.208 42.24C239.047 42.24 238.094 42.1623 237.335 42.0177L236.96 43.9823C237.881 44.1577 238.968 44.24 240.208 44.24V42.24ZM238.148 43V37H236.148V43H238.148ZM236.905 37.9701C237.639 38.1536 238.442 38.24 239.308 38.24V36.24C238.573 36.24 237.936 36.1664 237.39 36.0299L236.905 37.9701ZM239.308 38.24C240.771 38.24 242.056 37.8859 242.955 36.9871L241.54 35.5729C241.159 35.9541 240.484 36.24 239.308 36.24V38.24ZM242.976 36.9654C243.856 36.0302 244.208 34.7196 244.208 33.22H242.208C242.208 34.4404 241.919 35.1698 241.519 35.5946L242.976 36.9654ZM244.208 33.22V0.999997H242.208V33.22H244.208ZM243.208 2H249.808V-2.86102e-06H243.208V2ZM248.808 0.999997V33.04H250.808V0.999997H248.808ZM248.808 33.04C248.808 36.3454 248.037 38.6091 246.683 40.0303L248.132 41.4097C249.978 39.4709 250.808 36.6146 250.808 33.04H248.808ZM246.675 40.0395C245.371 41.4432 243.287 42.24 240.208 42.24V44.24C243.608 44.24 246.324 43.3568 248.14 41.4005L246.675 40.0395ZM259.626 0.999997V-2.86102e-06H258.776L258.639 0.839258L259.626 0.999997ZM268.566 0.999997L269.553 0.839258L269.417 -2.86102e-06H268.566V0.999997ZM275.406 43V44H276.582L276.393 42.8393L275.406 43ZM268.806 43L267.817 43.1424L267.94 44H268.806V43ZM267.606 34.66L268.596 34.5176L266.606 34.66H267.606ZM267.606 34.78V35.78H268.606V34.78H267.606ZM260.106 34.78V33.78H259.242L259.117 34.6355L260.106 34.78ZM258.906 43V44H259.771L259.896 43.1445L258.906 43ZM252.786 43L251.799 42.8393L251.61 44H252.786V43ZM266.826 29.08V30.08H267.978L267.817 28.9398L266.826 29.08ZM263.886 8.32L264.877 8.17978L264.755 7.32H263.886V8.32ZM263.766 8.32V7.32H262.896L262.776 8.18259L263.766 8.32ZM260.886 29.08L259.896 28.9426L259.738 30.08H260.886V29.08ZM259.626 2H268.566V-2.86102e-06H259.626V2ZM267.579 1.16074L274.419 43.1607L276.393 42.8393L269.553 0.839258L267.579 1.16074ZM275.406 42H268.806V44H275.406V42ZM269.796 42.8576L268.596 34.5176L266.617 34.8024L267.817 43.1424L269.796 42.8576ZM266.606 34.66V34.78H268.606V34.66H266.606ZM267.606 33.78H260.106V35.78H267.606V33.78ZM259.117 34.6355L257.917 42.8555L259.896 43.1445L261.096 34.9245L259.117 34.6355ZM258.906 42H252.786V44H258.906V42ZM253.773 43.1607L260.613 1.16074L258.639 0.839258L251.799 42.8393L253.773 43.1607ZM267.817 28.9398L264.877 8.17978L262.896 8.46022L265.836 29.2202L267.817 28.9398ZM263.886 7.32H263.766V9.32H263.886V7.32ZM262.776 8.18259L259.896 28.9426L261.877 29.2174L264.757 8.45741L262.776 8.18259ZM260.886 30.08H266.826V28.08H260.886V30.08ZM278.608 0.999997V-2.86102e-06H277.608V0.999997H278.608ZM296.608 0.999997H297.608V-2.86102e-06H296.608V0.999997ZM296.608 7V8H297.608V7H296.608ZM285.208 7V6H284.208V7H285.208ZM285.208 18.1H284.208V19.1H285.208V18.1ZM294.268 18.1H295.268V17.1H294.268V18.1ZM294.268 24.1V25.1H295.268V24.1H294.268ZM285.208 24.1V23.1H284.208V24.1H285.208ZM285.208 37H284.208V38H285.208V37ZM296.608 37H297.608V36H296.608V37ZM296.608 43V44H297.608V43H296.608ZM278.608 43H277.608V44H278.608V43ZM278.608 2H296.608V-2.86102e-06H278.608V2ZM295.608 0.999997V7H297.608V0.999997H295.608ZM296.608 6H285.208V8H296.608V6ZM284.208 7V18.1H286.208V7H284.208ZM285.208 19.1H294.268V17.1H285.208V19.1ZM293.268 18.1V24.1H295.268V18.1H293.268ZM294.268 23.1H285.208V25.1H294.268V23.1ZM284.208 24.1V37H286.208V24.1H284.208ZM285.208 38H296.608V36H285.208V38ZM295.608 37V43H297.608V37H295.608ZM296.608 42H278.608V44H296.608V42ZM279.608 43V0.999997H277.608V43H279.608Z" fill="#FFC1D5"/>
</g>
<defs>
<filter id="filter0_i_198_58" x="1.375" y="0.399902" width="295.233" height="47.2002" filterUnits="userSpaceOnUse" color-interpolation-filters="sRGB">
<feFlood flood-opacity="0" result="BackgroundImageFix"/>
<feBlend mode="normal" in="SourceGraphic" in2="BackgroundImageFix" result="shape"/>
<feColorMatrix in="SourceAlpha" type="matrix" values="0 0 0 0 0 0 0 0 0 0 0 0 0 0 0 0 0 0 127 0" result="hardAlpha"/>
<feOffset dy="4"/>
<feGaussianBlur stdDeviation="2"/>
<feComposite in2="hardAlpha" operator="arithmetic" k2="-1" k3="1"/>
<feColorMatrix type="matrix" values="0 0 0 0 1 0 0 0 0 1 0 0 0 0 1 0 0 0 1 0"/>
<feBlend mode="normal" in2="shape" result="effect1_innerShadow_198_58"/>
</filter>
</defs>
</svg>
