<svg width="132" height="47" viewBox="0 0 132 47" fill="none" xmlns="http://www.w3.org/2000/svg">
<g filter="url(#filter0_i_198_56)">
<path d="M9.0725 37.448C6.6533 37.448 4.80157 36.7611 3.5173 35.3872C2.23304 34.0133 1.5909 32.072 1.5909 29.5632V13.0768C1.5909 10.568 2.23304 8.62667 3.5173 7.2528C4.80157 5.87893 6.6533 5.192 9.0725 5.192C11.4917 5.192 13.3434 5.87893 14.6277 7.2528C15.912 8.62667 16.5541 10.568 16.5541 13.0768V29.5632C16.5541 32.072 15.912 34.0133 14.6277 35.3872C13.3434 36.7611 11.4917 37.448 9.0725 37.448ZM9.0725 32.968C10.7749 32.968 11.6261 31.9376 11.6261 29.8768V12.7632C11.6261 10.7024 10.7749 9.672 9.0725 9.672C7.3701 9.672 6.5189 10.7024 6.5189 12.7632V29.8768C6.5189 31.9376 7.3701 32.968 9.0725 32.968ZM27.01 37.448C24.5908 37.448 22.7391 36.7611 21.4548 35.3872C20.1705 34.0133 19.5284 32.072 19.5284 29.5632V13.0768C19.5284 10.568 20.1705 8.62667 21.4548 7.2528C22.7391 5.87893 24.5908 5.192 27.01 5.192C29.4292 5.192 31.2809 5.87893 32.5652 7.2528C33.8495 8.62667 34.4916 10.568 34.4916 13.0768V29.5632C34.4916 32.072 33.8495 34.0133 32.5652 35.3872C31.2809 36.7611 29.4292 37.448 27.01 37.448ZM27.01 32.968C28.7124 32.968 29.5636 31.9376 29.5636 29.8768V12.7632C29.5636 10.7024 28.7124 9.672 27.01 9.672C25.3076 9.672 24.4564 10.7024 24.4564 12.7632V29.8768C24.4564 31.9376 25.3076 32.968 27.01 32.968ZM37.1075 19.08H46.9635V23.56H37.1075V19.08ZM56.7985 13.0768H51.6465V9.5824C53.0502 9.5824 54.1702 9.46293 55.0065 9.224C55.8726 8.98507 56.5596 8.5968 57.0673 8.0592C57.575 7.49173 58.023 6.68533 58.4113 5.64H61.7265V37H56.7985V13.0768ZM67.7472 33.5952C67.7472 31.3552 68.1056 29.4437 68.8224 27.8608C69.5392 26.248 70.8235 24.4709 72.6752 22.5296C74.4971 20.5883 75.7515 18.9307 76.4384 17.5568C77.1552 16.1829 77.5136 14.7493 77.5136 13.256C77.5136 11.912 77.2896 10.9861 76.8416 10.4784C76.4235 9.9408 75.7963 9.672 74.96 9.672C73.2576 9.672 72.4064 10.7024 72.4064 12.7632V16.1232H67.7472V13.0768C67.7472 10.5381 68.3744 8.5968 69.6288 7.2528C70.8832 5.87893 72.7051 5.192 75.0944 5.192C77.4837 5.192 79.3056 5.87893 80.56 7.2528C81.8144 8.5968 82.4416 10.5381 82.4416 13.0768C82.4416 14.9883 81.9787 16.8549 81.0528 18.6768C80.1568 20.4987 78.5888 22.5893 76.3488 24.9488C74.8853 26.5019 73.8997 27.7712 73.392 28.7568C72.8843 29.7125 72.6304 30.7429 72.6304 31.848V32.52H81.9936V37H67.7472V33.5952ZM85.0575 19.08H94.9135V23.56H85.0575V19.08ZM97.7597 33.5952C97.7597 31.3552 98.1181 29.4437 98.8349 27.8608C99.5517 26.248 100.836 24.4709 102.688 22.5296C104.51 20.5883 105.764 18.9307 106.451 17.5568C107.168 16.1829 107.526 14.7493 107.526 13.256C107.526 11.912 107.302 10.9861 106.854 10.4784C106.436 9.9408 105.809 9.672 104.973 9.672C103.27 9.672 102.419 10.7024 102.419 12.7632V16.1232H97.7597V13.0768C97.7597 10.5381 98.3869 8.5968 99.6413 7.2528C100.896 5.87893 102.718 5.192 105.107 5.192C107.496 5.192 109.318 5.87893 110.573 7.2528C111.827 8.5968 112.454 10.5381 112.454 13.0768C112.454 14.9883 111.991 16.8549 111.065 18.6768C110.169 20.4987 108.601 22.5893 106.361 24.9488C104.898 26.5019 103.912 27.7712 103.405 28.7568C102.897 29.7125 102.643 30.7429 102.643 31.848V32.52H112.006V37H97.7597V33.5952ZM115.697 33.5952C115.697 31.3552 116.056 29.4437 116.772 27.8608C117.489 26.248 118.773 24.4709 120.625 22.5296C122.447 20.5883 123.701 18.9307 124.388 17.5568C125.105 16.1829 125.464 14.7493 125.464 13.256C125.464 11.912 125.24 10.9861 124.792 10.4784C124.373 9.9408 123.746 9.672 122.91 9.672C121.208 9.672 120.356 10.7024 120.356 12.7632V16.1232H115.697V13.0768C115.697 10.5381 116.324 8.5968 117.579 7.2528C118.833 5.87893 120.655 5.192 123.044 5.192C125.434 5.192 127.256 5.87893 128.51 7.2528C129.764 8.5968 130.392 10.5381 130.392 13.0768C130.392 14.9883 129.929 16.8549 129.003 18.6768C128.107 20.4987 126.539 22.5893 124.299 24.9488C122.835 26.5019 121.85 27.7712 121.342 28.7568C120.834 29.7125 120.58 30.7429 120.58 31.848V32.52H129.944V37H115.697V33.5952Z" fill="#FFC1D5"/>
</g>
<defs>
<filter id="filter0_i_198_56" x="1.59082" y="5.19189" width="128.801" height="36.2561" filterUnits="userSpaceOnUse" color-interpolation-filters="sRGB">
<feFlood flood-opacity="0" result="BackgroundImageFix"/>
<feBlend mode="normal" in="SourceGraphic" in2="BackgroundImageFix" result="shape"/>
<feColorMatrix in="SourceAlpha" type="matrix" values="0 0 0 0 0 0 0 0 0 0 0 0 0 0 0 0 0 0 127 0" result="hardAlpha"/>
<feOffset dy="4"/>
<feGaussianBlur stdDeviation="2"/>
<feComposite in2="hardAlpha" operator="arithmetic" k2="-1" k3="1"/>
<feColorMatrix type="matrix" values="0 0 0 0 1 0 0 0 0 1 0 0 0 0 1 0 0 0 1 0"/>
<feBlend mode="normal" in2="shape" result="effect1_innerShadow_198_56"/>
</filter>
</defs>
</svg>
