<svg width="180" height="47" viewBox="0 0 180 47" fill="none" xmlns="http://www.w3.org/2000/svg">
<g filter="url(#filter0_i_198_62)">
<path d="M1.84305 5.64H6.77105V32.52H14.8798V37H1.84305V5.64ZM17.243 5.64H30.683V10.12H22.171V18.408H28.9358V22.888H22.171V32.52H30.683V37H17.243V5.64ZM37.326 5.64H44.0012L49.1084 37H44.1804L43.2844 30.7728V30.8624H37.6844L36.7884 37H32.2188L37.326 5.64ZM42.702 26.6064L40.5068 11.1056H40.4172L38.2668 26.6064H42.702ZM51.4993 5.64H59.0257C61.4748 5.64 63.3116 6.29707 64.5361 7.6112C65.7606 8.92533 66.3729 10.8517 66.3729 13.3904V29.2496C66.3729 31.7883 65.7606 33.7147 64.5361 35.0288C63.3116 36.3429 61.4748 37 59.0257 37H51.4993V5.64ZM58.9361 32.52C59.7425 32.52 60.3548 32.2811 60.7729 31.8032C61.2209 31.3253 61.4449 30.5488 61.4449 29.4736V13.1664C61.4449 12.0912 61.2209 11.3147 60.7729 10.8368C60.3548 10.3589 59.7425 10.12 58.9361 10.12H56.4273V32.52H58.9361ZM76.8743 5.64H84.1767C86.7154 5.64 88.5671 6.23733 89.7319 7.432C90.8967 8.5968 91.4791 10.4037 91.4791 12.8528V14.7792C91.4791 18.0347 90.4039 20.0955 88.2535 20.9616V21.0512C89.4482 21.4096 90.2844 22.1413 90.7623 23.2464C91.27 24.3515 91.5239 25.8299 91.5239 27.6816V33.192C91.5239 34.088 91.5538 34.8197 91.6135 35.3872C91.6732 35.9248 91.8226 36.4624 92.0615 37H87.0439C86.8647 36.4923 86.7452 36.0144 86.6855 35.5664C86.6258 35.1184 86.5959 34.312 86.5959 33.1472V27.4128C86.5959 25.9792 86.357 24.9787 85.8791 24.4112C85.4311 23.8437 84.6396 23.56 83.5047 23.56H81.8023V37H76.8743V5.64ZM83.5943 19.08C84.5799 19.08 85.3116 18.8261 85.7895 18.3184C86.2972 17.8107 86.5511 16.9595 86.5511 15.7648V13.3456C86.5511 12.2107 86.342 11.3893 85.9239 10.8816C85.5356 10.3739 84.9084 10.12 84.0423 10.12H81.8023V19.08H83.5943ZM98.751 5.64H105.426L110.533 37H105.605L104.709 30.7728V30.8624H99.1094L98.2134 37H93.6438L98.751 5.64ZM104.127 26.6064L101.932 11.1056H101.842L99.6918 26.6064H104.127ZM112.924 5.64H120.182C122.631 5.64 124.468 6.29707 125.692 7.6112C126.917 8.92533 127.529 10.8517 127.529 13.3904V16.4816C127.529 19.0203 126.917 20.9467 125.692 22.2608C124.468 23.5749 122.631 24.232 120.182 24.232H117.852V37H112.924V5.64ZM120.182 19.752C120.988 19.752 121.586 19.528 121.974 19.08C122.392 18.632 122.601 17.8704 122.601 16.7952V13.0768C122.601 12.0016 122.392 11.24 121.974 10.792C121.586 10.344 120.988 10.12 120.182 10.12H117.852V19.752H120.182ZM130.206 5.64H137.463C139.912 5.64 141.749 6.29707 142.974 7.6112C144.198 8.92533 144.81 10.8517 144.81 13.3904V16.4816C144.81 19.0203 144.198 20.9467 142.974 22.2608C141.749 23.5749 139.912 24.232 137.463 24.232H135.134V37H130.206V5.64ZM137.463 19.752C138.27 19.752 138.867 19.528 139.255 19.08C139.673 18.632 139.882 17.8704 139.882 16.7952V13.0768C139.882 12.0016 139.673 11.24 139.255 10.792C138.867 10.344 138.27 10.12 137.463 10.12H135.134V19.752H137.463ZM147.487 5.64H160.927V10.12H152.415V18.408H159.18V22.888H152.415V32.52H160.927V37H147.487V5.64ZM163.762 5.64H171.064C173.603 5.64 175.455 6.23733 176.619 7.432C177.784 8.5968 178.367 10.4037 178.367 12.8528V14.7792C178.367 18.0347 177.291 20.0955 175.141 20.9616V21.0512C176.336 21.4096 177.172 22.1413 177.65 23.2464C178.158 24.3515 178.411 25.8299 178.411 27.6816V33.192C178.411 34.088 178.441 34.8197 178.501 35.3872C178.561 35.9248 178.71 36.4624 178.949 37H173.931C173.752 36.4923 173.633 36.0144 173.573 35.5664C173.513 35.1184 173.483 34.312 173.483 33.1472V27.4128C173.483 25.9792 173.244 24.9787 172.767 24.4112C172.319 23.8437 171.527 23.56 170.392 23.56H168.69V37H163.762V5.64ZM170.482 19.08C171.467 19.08 172.199 18.8261 172.677 18.3184C173.185 17.8107 173.439 16.9595 173.439 15.7648V13.3456C173.439 12.2107 173.23 11.3893 172.811 10.8816C172.423 10.3739 171.796 10.12 170.93 10.12H168.69V19.08H170.482Z" fill="#FFC1D5"/>
</g>
<defs>
<filter id="filter0_i_198_62" x="1.84277" y="5.63989" width="177.106" height="35.3601" filterUnits="userSpaceOnUse" color-interpolation-filters="sRGB">
<feFlood flood-opacity="0" result="BackgroundImageFix"/>
<feBlend mode="normal" in="SourceGraphic" in2="BackgroundImageFix" result="shape"/>
<feColorMatrix in="SourceAlpha" type="matrix" values="0 0 0 0 0 0 0 0 0 0 0 0 0 0 0 0 0 0 127 0" result="hardAlpha"/>
<feOffset dy="4"/>
<feGaussianBlur stdDeviation="2"/>
<feComposite in2="hardAlpha" operator="arithmetic" k2="-1" k3="1"/>
<feColorMatrix type="matrix" values="0 0 0 0 1 0 0 0 0 1 0 0 0 0 1 0 0 0 1 0"/>
<feBlend mode="normal" in2="shape" result="effect1_innerShadow_198_62"/>
</filter>
</defs>
</svg>
