<svg width="223" height="49" viewBox="0 0 223 49" fill="none" xmlns="http://www.w3.org/2000/svg">
<g filter="url(#filter0_i_198_34)">
<path d="M2.83695 0.999997H9.43695V18.7L17.837 0.999997H24.437L16.577 16.42L24.557 43H17.657L12.077 24.28L9.43695 29.62V43H2.83695V0.999997ZM27.6807 0.999997H45.6807V7H34.2807V18.1H43.3407V24.1H34.2807V37H45.6807V43H27.6807V0.999997ZM47.7376 0.999997H54.3976L58.7176 33.58H58.8376L63.1576 0.999997H69.2176L62.8576 43H54.0976L47.7376 0.999997ZM72.3877 0.999997H78.9877V43H72.3877V0.999997ZM83.9307 0.999997H92.2107L98.6307 26.14H98.7507V0.999997H104.631V43H97.8507L89.9307 12.34H89.8107V43H83.9307V0.999997ZM119.146 0.999997H128.566L132.766 31.06H132.886L137.086 0.999997H146.506V43H140.266V11.2H140.146L135.346 43H129.826L125.026 11.2H124.906V43H119.146V0.999997ZM160.971 43.6C157.731 43.6 155.251 42.68 153.531 40.84C151.811 39 150.951 36.4 150.951 33.04V10.96C150.951 7.6 151.811 5 153.531 3.16C155.251 1.32 157.731 0.399998 160.971 0.399998C164.211 0.399998 166.691 1.32 168.411 3.16C170.131 5 170.991 7.6 170.991 10.96V33.04C170.991 36.4 170.131 39 168.411 40.84C166.691 42.68 164.211 43.6 160.971 43.6ZM160.971 37.6C163.251 37.6 164.391 36.22 164.391 33.46V10.54C164.391 7.78 163.251 6.4 160.971 6.4C158.691 6.4 157.551 7.78 157.551 10.54V33.46C157.551 36.22 158.691 37.6 160.971 37.6ZM184.994 43.6C181.754 43.6 179.274 42.68 177.554 40.84C175.834 39 174.974 36.4 174.974 33.04V10.96C174.974 7.6 175.834 5 177.554 3.16C179.274 1.32 181.754 0.399998 184.994 0.399998C188.234 0.399998 190.714 1.32 192.434 3.16C194.154 5 195.014 7.6 195.014 10.96V33.04C195.014 36.4 194.154 39 192.434 40.84C190.714 42.68 188.234 43.6 184.994 43.6ZM184.994 37.6C187.274 37.6 188.414 36.22 188.414 33.46V10.54C188.414 7.78 187.274 6.4 184.994 6.4C182.714 6.4 181.574 7.78 181.574 10.54V33.46C181.574 36.22 182.714 37.6 184.994 37.6ZM199.478 0.999997H207.758L214.178 26.14H214.298V0.999997H220.178V43H213.398L205.478 12.34H205.358V43H199.478V0.999997Z" fill="#B7B7B7"/>
<path d="M2.83695 0.999997V-2.86102e-06H1.83695V0.999997H2.83695ZM9.43695 0.999997H10.437V-2.86102e-06H9.43695V0.999997ZM9.43695 18.7H8.43695L10.3404 19.1287L9.43695 18.7ZM17.837 0.999997V-2.86102e-06H17.2046L16.9335 0.571253L17.837 0.999997ZM24.437 0.999997L25.3279 1.45413L26.0691 -2.86102e-06H24.437V0.999997ZM16.577 16.42L15.686 15.9659L15.5038 16.3233L15.6192 16.7075L16.577 16.42ZM24.557 43V44H25.9013L25.5147 42.7125L24.557 43ZM17.657 43L16.6986 43.2857L16.9116 44H17.657V43ZM12.077 24.28L13.0353 23.9943L12.3083 21.5556L11.1805 23.8368L12.077 24.28ZM9.43695 29.62L8.54052 29.1768L8.43695 29.3863V29.62H9.43695ZM9.43695 43V44H10.437V43H9.43695ZM2.83695 43H1.83695V44H2.83695V43ZM2.83695 2H9.43695V-2.86102e-06H2.83695V2ZM8.43695 0.999997V18.7H10.437V0.999997H8.43695ZM10.3404 19.1287L18.7404 1.42874L16.9335 0.571253L8.53353 18.2713L10.3404 19.1287ZM17.837 2H24.437V-2.86102e-06H17.837V2ZM23.546 0.545864L15.686 15.9659L17.4679 16.8741L25.3279 1.45413L23.546 0.545864ZM15.6192 16.7075L23.5992 43.2875L25.5147 42.7125L17.5347 16.1325L15.6192 16.7075ZM24.557 42H17.657V44H24.557V42ZM18.6153 42.7143L13.0353 23.9943L11.1186 24.5657L16.6986 43.2857L18.6153 42.7143ZM11.1805 23.8368L8.54052 29.1768L10.3334 30.0632L12.9734 24.7232L11.1805 23.8368ZM8.43695 29.62V43H10.437V29.62H8.43695ZM9.43695 42H2.83695V44H9.43695V42ZM3.83695 43V0.999997H1.83695V43H3.83695ZM27.6807 0.999997V-2.86102e-06H26.6807V0.999997H27.6807ZM45.6807 0.999997H46.6807V-2.86102e-06H45.6807V0.999997ZM45.6807 7V8H46.6807V7H45.6807ZM34.2807 7V6H33.2807V7H34.2807ZM34.2807 18.1H33.2807V19.1H34.2807V18.1ZM43.3407 18.1H44.3407V17.1H43.3407V18.1ZM43.3407 24.1V25.1H44.3407V24.1H43.3407ZM34.2807 24.1V23.1H33.2807V24.1H34.2807ZM34.2807 37H33.2807V38H34.2807V37ZM45.6807 37H46.6807V36H45.6807V37ZM45.6807 43V44H46.6807V43H45.6807ZM27.6807 43H26.6807V44H27.6807V43ZM27.6807 2H45.6807V-2.86102e-06H27.6807V2ZM44.6807 0.999997V7H46.6807V0.999997H44.6807ZM45.6807 6H34.2807V8H45.6807V6ZM33.2807 7V18.1H35.2807V7H33.2807ZM34.2807 19.1H43.3407V17.1H34.2807V19.1ZM42.3407 18.1V24.1H44.3407V18.1H42.3407ZM43.3407 23.1H34.2807V25.1H43.3407V23.1ZM33.2807 24.1V37H35.2807V24.1H33.2807ZM34.2807 38H45.6807V36H34.2807V38ZM44.6807 37V43H46.6807V37H44.6807ZM45.6807 42H27.6807V44H45.6807V42ZM28.6807 43V0.999997H26.6807V43H28.6807ZM47.7376 0.999997V-2.86102e-06H46.5747L46.7488 1.14972L47.7376 0.999997ZM54.3976 0.999997L55.3889 0.868551L55.2737 -2.86102e-06H54.3976V0.999997ZM58.7176 33.58L57.7263 33.7114L57.8414 34.58H58.7176V33.58ZM58.8376 33.58V34.58H59.7137L59.8289 33.7114L58.8376 33.58ZM63.1576 0.999997V-2.86102e-06H62.2814L62.1663 0.868551L63.1576 0.999997ZM69.2176 0.999997L70.2063 1.14972L70.3804 -2.86102e-06H69.2176V0.999997ZM62.8576 43V44H63.7175L63.8463 43.1497L62.8576 43ZM54.0976 43L53.1089 43.1497L53.2376 44H54.0976V43ZM47.7376 2H54.3976V-2.86102e-06H47.7376V2ZM53.4063 1.13144L57.7263 33.7114L59.7089 33.4486L55.3889 0.868551L53.4063 1.13144ZM58.7176 34.58H58.8376V32.58H58.7176V34.58ZM59.8289 33.7114L64.1489 1.13144L62.1663 0.868551L57.8463 33.4486L59.8289 33.7114ZM63.1576 2H69.2176V-2.86102e-06H63.1576V2ZM68.2289 0.850275L61.8688 42.8503L63.8463 43.1497L70.2063 1.14972L68.2289 0.850275ZM62.8576 42H54.0976V44H62.8576V42ZM55.0863 42.8503L48.7263 0.850275L46.7488 1.14972L53.1089 43.1497L55.0863 42.8503ZM72.3877 0.999997V-2.86102e-06H71.3877V0.999997H72.3877ZM78.9877 0.999997H79.9877V-2.86102e-06H78.9877V0.999997ZM78.9877 43V44H79.9877V43H78.9877ZM72.3877 43H71.3877V44H72.3877V43ZM72.3877 2H78.9877V-2.86102e-06H72.3877V2ZM77.9877 0.999997V43H79.9877V0.999997H77.9877ZM78.9877 42H72.3877V44H78.9877V42ZM73.3877 43V0.999997H71.3877V43H73.3877ZM83.9307 0.999997V-2.86102e-06H82.9307V0.999997H83.9307ZM92.2107 0.999997L93.1796 0.752568L92.9874 -2.86102e-06H92.2107V0.999997ZM98.6307 26.14L97.6618 26.3874L97.854 27.14H98.6307V26.14ZM98.7507 26.14V27.14H99.7507V26.14H98.7507ZM98.7507 0.999997V-2.86102e-06H97.7507V0.999997H98.7507ZM104.631 0.999997H105.631V-2.86102e-06H104.631V0.999997ZM104.631 43V44H105.631V43H104.631ZM97.8507 43L96.8825 43.2501L97.0762 44H97.8507V43ZM89.9307 12.34L90.8989 12.0899L90.7052 11.34H89.9307V12.34ZM89.8107 12.34V11.34H88.8107V12.34H89.8107ZM89.8107 43V44H90.8107V43H89.8107ZM83.9307 43H82.9307V44H83.9307V43ZM83.9307 2H92.2107V-2.86102e-06H83.9307V2ZM91.2418 1.24743L97.6618 26.3874L99.5996 25.8926L93.1796 0.752568L91.2418 1.24743ZM98.6307 27.14H98.7507V25.14H98.6307V27.14ZM99.7507 26.14V0.999997H97.7507V26.14H99.7507ZM98.7507 2H104.631V-2.86102e-06H98.7507V2ZM103.631 0.999997V43H105.631V0.999997H103.631ZM104.631 42H97.8507V44H104.631V42ZM98.8189 42.7499L90.8989 12.0899L88.9625 12.5901L96.8825 43.2501L98.8189 42.7499ZM89.9307 11.34H89.8107V13.34H89.9307V11.34ZM88.8107 12.34V43H90.8107V12.34H88.8107ZM89.8107 42H83.9307V44H89.8107V42ZM84.9307 43V0.999997H82.9307V43H84.9307ZM119.146 0.999997V-2.86102e-06H118.146V0.999997H119.146ZM128.566 0.999997L129.556 0.861621L129.436 -2.86102e-06H128.566V0.999997ZM132.766 31.06L131.775 31.1984L131.896 32.06H132.766V31.06ZM132.886 31.06V32.06H133.756L133.876 31.1984L132.886 31.06ZM137.086 0.999997V-2.86102e-06H136.216L136.095 0.861621L137.086 0.999997ZM146.506 0.999997H147.506V-2.86102e-06H146.506V0.999997ZM146.506 43V44H147.506V43H146.506ZM140.266 43H139.266V44H140.266V43ZM140.266 11.2H141.266V10.2H140.266V11.2ZM140.146 11.2V10.2H139.285L139.157 11.0507L140.146 11.2ZM135.346 43V44H136.206L136.334 43.1493L135.346 43ZM129.826 43L128.837 43.1493L128.965 44H129.826V43ZM125.026 11.2L126.014 11.0507L125.886 10.2H125.026V11.2ZM124.906 11.2V10.2H123.906V11.2H124.906ZM124.906 43V44H125.906V43H124.906ZM119.146 43H118.146V44H119.146V43ZM119.146 2H128.566V-2.86102e-06H119.146V2ZM127.575 1.13837L131.775 31.1984L133.756 30.9216L129.556 0.861621L127.575 1.13837ZM132.766 32.06H132.886V30.06H132.766V32.06ZM133.876 31.1984L138.076 1.13837L136.095 0.861621L131.895 30.9216L133.876 31.1984ZM137.086 2H146.506V-2.86102e-06H137.086V2ZM145.506 0.999997V43H147.506V0.999997H145.506ZM146.506 42H140.266V44H146.506V42ZM141.266 43V11.2H139.266V43H141.266ZM140.266 10.2H140.146V12.2H140.266V10.2ZM139.157 11.0507L134.357 42.8507L136.334 43.1493L141.134 11.3493L139.157 11.0507ZM135.346 42H129.826V44H135.346V42ZM130.814 42.8507L126.014 11.0507L124.037 11.3493L128.837 43.1493L130.814 42.8507ZM125.026 10.2H124.906V12.2H125.026V10.2ZM123.906 11.2V43H125.906V11.2H123.906ZM124.906 42H119.146V44H124.906V42ZM120.146 43V0.999997H118.146V43H120.146ZM153.531 40.84L154.261 40.1571L154.261 40.1571L153.531 40.84ZM153.531 3.16L154.261 3.84288L154.261 3.84288L153.531 3.16ZM168.411 3.16L167.68 3.84288L167.68 3.84288L168.411 3.16ZM168.411 40.84L167.68 40.1571L167.68 40.1571L168.411 40.84ZM160.971 42.6C157.924 42.6 155.742 41.7408 154.261 40.1571L152.8 41.5229C154.76 43.6192 157.538 44.6 160.971 44.6V42.6ZM154.261 40.1571C152.766 38.5572 151.951 36.233 151.951 33.04H149.951C149.951 36.567 150.856 39.4428 152.8 41.5229L154.261 40.1571ZM151.951 33.04V10.96H149.951V33.04H151.951ZM151.951 10.96C151.951 7.76696 152.766 5.44283 154.261 3.84288L152.8 2.47711C150.856 4.55716 149.951 7.43303 149.951 10.96H151.951ZM154.261 3.84288C155.742 2.25921 157.924 1.4 160.971 1.4V-0.600002C157.538 -0.600002 154.76 0.380783 152.8 2.47711L154.261 3.84288ZM160.971 1.4C164.018 1.4 166.2 2.25921 167.68 3.84288L169.141 2.47711C167.182 0.380782 164.404 -0.600002 160.971 -0.600002V1.4ZM167.68 3.84288C169.176 5.44283 169.991 7.76696 169.991 10.96H171.991C171.991 7.43303 171.086 4.55716 169.141 2.47711L167.68 3.84288ZM169.991 10.96V33.04H171.991V10.96H169.991ZM169.991 33.04C169.991 36.233 169.176 38.5572 167.68 40.1571L169.141 41.5229C171.086 39.4428 171.991 36.567 171.991 33.04H169.991ZM167.68 40.1571C166.2 41.7408 164.018 42.6 160.971 42.6V44.6C164.404 44.6 167.182 43.6192 169.141 41.5229L167.68 40.1571ZM160.971 38.6C162.321 38.6 163.497 38.1823 164.307 37.2019C165.086 36.258 165.391 34.9526 165.391 33.46H163.391C163.391 34.7274 163.125 35.492 162.765 35.9281C162.435 36.3277 161.901 36.6 160.971 36.6V38.6ZM165.391 33.46V10.54H163.391V33.46H165.391ZM165.391 10.54C165.391 9.04738 165.086 7.74196 164.307 6.79812C163.497 5.81769 162.321 5.4 160.971 5.4V7.4C161.901 7.4 162.435 7.67231 162.765 8.07188C163.125 8.50804 163.391 9.27261 163.391 10.54H165.391ZM160.971 5.4C159.621 5.4 158.445 5.81769 157.635 6.79812C156.855 7.74196 156.551 9.04738 156.551 10.54H158.551C158.551 9.27261 158.816 8.50804 159.177 8.07188C159.507 7.67231 160.041 7.4 160.971 7.4V5.4ZM156.551 10.54V33.46H158.551V10.54H156.551ZM156.551 33.46C156.551 34.9526 156.855 36.258 157.635 37.2019C158.445 38.1823 159.621 38.6 160.971 38.6V36.6C160.041 36.6 159.507 36.3277 159.177 35.9281C158.816 35.492 158.551 34.7274 158.551 33.46H156.551ZM177.554 40.84L178.285 40.1571L178.285 40.1571L177.554 40.84ZM177.554 3.16L178.285 3.84288L178.285 3.84288L177.554 3.16ZM192.434 3.16L191.704 3.84288L191.704 3.84288L192.434 3.16ZM192.434 40.84L191.704 40.1571L191.704 40.1571L192.434 40.84ZM184.994 42.6C181.947 42.6 179.765 41.7408 178.285 40.1571L176.824 41.5229C178.783 43.6192 181.561 44.6 184.994 44.6V42.6ZM178.285 40.1571C176.789 38.5572 175.974 36.233 175.974 33.04H173.974C173.974 36.567 174.879 39.4428 176.824 41.5229L178.285 40.1571ZM175.974 33.04V10.96H173.974V33.04H175.974ZM175.974 10.96C175.974 7.76696 176.789 5.44283 178.285 3.84288L176.824 2.47711C174.879 4.55716 173.974 7.43303 173.974 10.96H175.974ZM178.285 3.84288C179.765 2.25921 181.947 1.4 184.994 1.4V-0.600002C181.561 -0.600002 178.783 0.380783 176.824 2.47711L178.285 3.84288ZM184.994 1.4C188.041 1.4 190.223 2.25921 191.704 3.84288L193.165 2.47711C191.205 0.380782 188.427 -0.600002 184.994 -0.600002V1.4ZM191.704 3.84288C193.199 5.44283 194.014 7.76696 194.014 10.96H196.014C196.014 7.43303 195.109 4.55716 193.165 2.47711L191.704 3.84288ZM194.014 10.96V33.04H196.014V10.96H194.014ZM194.014 33.04C194.014 36.233 193.199 38.5572 191.704 40.1571L193.165 41.5229C195.109 39.4428 196.014 36.567 196.014 33.04H194.014ZM191.704 40.1571C190.223 41.7408 188.041 42.6 184.994 42.6V44.6C188.427 44.6 191.205 43.6192 193.165 41.5229L191.704 40.1571ZM184.994 38.6C186.344 38.6 187.52 38.1823 188.33 37.2019C189.11 36.258 189.414 34.9526 189.414 33.46H187.414C187.414 34.7274 187.148 35.492 186.788 35.9281C186.458 36.3277 185.924 36.6 184.994 36.6V38.6ZM189.414 33.46V10.54H187.414V33.46H189.414ZM189.414 10.54C189.414 9.04738 189.11 7.74196 188.33 6.79812C187.52 5.81769 186.344 5.4 184.994 5.4V7.4C185.924 7.4 186.458 7.67231 186.788 8.07188C187.148 8.50804 187.414 9.27261 187.414 10.54H189.414ZM184.994 5.4C183.644 5.4 182.468 5.81769 181.658 6.79812C180.878 7.74196 180.574 9.04738 180.574 10.54H182.574C182.574 9.27261 182.84 8.50804 183.2 8.07188C183.53 7.67231 184.064 7.4 184.994 7.4V5.4ZM180.574 10.54V33.46H182.574V10.54H180.574ZM180.574 33.46C180.574 34.9526 180.878 36.258 181.658 37.2019C182.468 38.1823 183.644 38.6 184.994 38.6V36.6C184.064 36.6 183.53 36.3277 183.2 35.9281C182.84 35.492 182.574 34.7274 182.574 33.46H180.574ZM199.478 0.999997V-2.86102e-06H198.478V0.999997H199.478ZM207.758 0.999997L208.726 0.752568L208.534 -2.86102e-06H207.758V0.999997ZM214.178 26.14L213.209 26.3874L213.401 27.14H214.178V26.14ZM214.298 26.14V27.14H215.298V26.14H214.298ZM214.298 0.999997V-2.86102e-06H213.298V0.999997H214.298ZM220.178 0.999997H221.178V-2.86102e-06H220.178V0.999997ZM220.178 43V44H221.178V43H220.178ZM213.398 43L212.429 43.2501L212.623 44H213.398V43ZM205.478 12.34L206.446 12.0899L206.252 11.34H205.478V12.34ZM205.358 12.34V11.34H204.358V12.34H205.358ZM205.358 43V44H206.358V43H205.358ZM199.478 43H198.478V44H199.478V43ZM199.478 2H207.758V-2.86102e-06H199.478V2ZM206.789 1.24743L213.209 26.3874L215.146 25.8926L208.726 0.752568L206.789 1.24743ZM214.178 27.14H214.298V25.14H214.178V27.14ZM215.298 26.14V0.999997H213.298V26.14H215.298ZM214.298 2H220.178V-2.86102e-06H214.298V2ZM219.178 0.999997V43H221.178V0.999997H219.178ZM220.178 42H213.398V44H220.178V42ZM214.366 42.7499L206.446 12.0899L204.509 12.5901L212.429 43.2501L214.366 42.7499ZM205.478 11.34H205.358V13.34H205.478V11.34ZM204.358 12.34V43H206.358V12.34H204.358ZM205.358 42H199.478V44H205.358V42ZM200.478 43V0.999997H198.478V43H200.478Z" fill="#B7B7B7"/>
</g>
<defs>
<filter id="filter0_i_198_34" x="2.83691" y="0.400024" width="217.341" height="47.2" filterUnits="userSpaceOnUse" color-interpolation-filters="sRGB">
<feFlood flood-opacity="0" result="BackgroundImageFix"/>
<feBlend mode="normal" in="SourceGraphic" in2="BackgroundImageFix" result="shape"/>
<feColorMatrix in="SourceAlpha" type="matrix" values="0 0 0 0 0 0 0 0 0 0 0 0 0 0 0 0 0 0 127 0" result="hardAlpha"/>
<feOffset dy="4"/>
<feGaussianBlur stdDeviation="2"/>
<feComposite in2="hardAlpha" operator="arithmetic" k2="-1" k3="1"/>
<feColorMatrix type="matrix" values="0 0 0 0 1 0 0 0 0 1 0 0 0 0 1 0 0 0 1 0"/>
<feBlend mode="normal" in2="shape" result="effect1_innerShadow_198_34"/>
</filter>
</defs>
</svg>
