<svg width="163" height="47" viewBox="0 0 163 47" fill="none" xmlns="http://www.w3.org/2000/svg">
<g filter="url(#filter0_i_198_36)">
<path d="M2.09306 5.64H9.12666L12.2627 28.0848H12.3523L15.4883 5.64H22.5219V37H17.8627V13.256H17.7731L14.1891 37H10.0675L6.48346 13.256H6.39386V37H2.09306V5.64ZM30.0073 5.64H36.6825L41.7897 37H36.8617L35.9657 30.7728V30.8624H30.3657L29.4697 37H24.9001L30.0073 5.64ZM35.3833 26.6064L33.1881 11.1056H33.0985L30.9481 26.6064H35.3833ZM44.1806 5.64H49.1086V37H44.1806V5.64ZM52.7993 5.64H58.9817L63.7753 24.4112H63.8649V5.64H68.2553V37H63.1929L57.2793 14.1072H57.1897V37H52.7993V5.64ZM77.7939 5.64H82.7667L85.9923 29.9664H86.0819L89.3075 5.64H93.8323L89.0835 37H82.5427L77.7939 5.64ZM103.235 37.448C100.816 37.448 98.9641 36.7611 97.6798 35.3872C96.3955 34.0133 95.7534 32.072 95.7534 29.5632V13.0768C95.7534 10.568 96.3955 8.62667 97.6798 7.2528C98.9641 5.87893 100.816 5.192 103.235 5.192C105.654 5.192 107.506 5.87893 108.79 7.2528C110.074 8.62667 110.717 10.568 110.717 13.0768V29.5632C110.717 32.072 110.074 34.0133 108.79 35.3872C107.506 36.7611 105.654 37.448 103.235 37.448ZM103.235 32.968C104.937 32.968 105.789 31.9376 105.789 29.8768V12.7632C105.789 10.7024 104.937 9.672 103.235 9.672C101.533 9.672 100.681 10.7024 100.681 12.7632V29.8768C100.681 31.9376 101.533 32.968 103.235 32.968ZM120.993 37.448C118.634 37.448 116.827 36.776 115.573 35.432C114.348 34.088 113.736 32.1915 113.736 29.7424V12.8976C113.736 10.4485 114.348 8.552 115.573 7.208C116.827 5.864 118.634 5.192 120.993 5.192C123.353 5.192 125.145 5.864 126.369 7.208C127.624 8.552 128.251 10.4485 128.251 12.8976V16.2128H123.592V12.584C123.592 10.6427 122.77 9.672 121.128 9.672C119.485 9.672 118.664 10.6427 118.664 12.584V30.1008C118.664 32.0123 119.485 32.968 121.128 32.968C122.77 32.968 123.592 32.0123 123.592 30.1008V25.3072H128.251V29.7424C128.251 32.1915 127.624 34.088 126.369 35.432C125.145 36.776 123.353 37.448 120.993 37.448ZM135.007 5.64H141.683L146.79 37H141.862L140.966 30.7728V30.8624H135.366L134.47 37H129.9L135.007 5.64ZM140.383 26.6064L138.188 11.1056H138.099L135.948 26.6064H140.383ZM149.181 5.64H154.109V32.52H162.217V37H149.181V5.64Z" fill="#B7B7B7"/>
</g>
<defs>
<filter id="filter0_i_198_36" x="2.09277" y="5.19202" width="160.125" height="36.256" filterUnits="userSpaceOnUse" color-interpolation-filters="sRGB">
<feFlood flood-opacity="0" result="BackgroundImageFix"/>
<feBlend mode="normal" in="SourceGraphic" in2="BackgroundImageFix" result="shape"/>
<feColorMatrix in="SourceAlpha" type="matrix" values="0 0 0 0 0 0 0 0 0 0 0 0 0 0 0 0 0 0 127 0" result="hardAlpha"/>
<feOffset dy="4"/>
<feGaussianBlur stdDeviation="2"/>
<feComposite in2="hardAlpha" operator="arithmetic" k2="-1" k3="1"/>
<feColorMatrix type="matrix" values="0 0 0 0 1 0 0 0 0 1 0 0 0 0 1 0 0 0 1 0"/>
<feBlend mode="normal" in2="shape" result="effect1_innerShadow_198_36"/>
</filter>
</defs>
</svg>
